<svg width="499" height="69" viewBox="0 0 499 69" fill="none" xmlns="http://www.w3.org/2000/svg">
<path d="M60 0H8C3.58172 0 0 3.58172 0 8V60C0 64.4183 3.58172 68 8 68H60C64.4183 68 68 64.4183 68 60V8C68 3.58172 64.4183 0 60 0Z" fill="#ED1C24"/>
<path fill-rule="evenodd" clip-rule="evenodd" d="M0.836949 4.74017C13.3841 4.19164 25.9329 3.26405 38.5085 3.53307C40.7256 3.58198 43.158 4.1043 44.5506 5.84245C41.0799 8.27586 36.8703 9.9127 32.9722 11.6736C31.658 12.2605 29.9645 12.6151 29.3199 13.9794C28.7999 14.8861 29.3876 15.8294 29.8684 16.6207C31.471 19.014 33.9213 20.7958 35.6006 23.1244C34.5001 26.5361 30.3563 27.9441 26.8358 27.9283L24.0703 27.8899C17.104 27.1352 10.0006 25.0512 4.64239 20.7102C4.19008 21.381 3.32999 22.2073 3.96749 23.0213C5.49359 24.7997 7.86375 25.7028 10.0523 26.592C15.1114 28.4262 20.4518 29.7014 25.8955 29.9844C26.8126 30.0665 32.803 29.7975 32.803 29.7975C35.2159 29.3398 37.7393 28.5904 39.3864 26.7946C40.763 25.17 40.7719 22.8711 39.6998 21.1032C38.3091 18.8777 36.3984 16.9666 35.0628 14.7027C36.5853 13.8869 38.0616 12.9732 39.707 12.3706C43.5534 10.7669 47.4407 8.85408 50.9897 6.75433C52.3591 5.83197 52.1205 3.96106 51.5347 2.68408C50.817 1.34772 49.4726 -0.0235901 47.731 0.0270696C41.4877 -0.145872 35.2711 0.551135 29.0457 0.945932C19.346 1.73727 9.6534 2.59849 9.84983e-08 3.78986" transform="translate(8 19)" fill="white"/>
<path d="M21.271 12.8364V17.2736C21.271 17.4484 21.2092 17.588 21.0854 17.694C20.9617 17.8 20.8044 17.8529 20.6135 17.8529H19.3834V14.3573H2.48113e-06V9.70309e-07H2.05729V12.8346H8.42003V9.70309e-07H10.4773V12.8346H16.8825V9.70309e-07H18.9504V12.8346H21.271V12.8364Z" transform="translate(82.9419 50.1572)" fill="#636466"/>
<path d="M14.9843 7.3429C14.9843 8.41863 14.804 9.40428 14.4434 10.3034C14.0829 11.2007 13.5738 11.9744 12.9164 12.6227C12.2589 13.2692 11.4688 13.7726 10.5462 14.1294C9.62365 14.4862 8.60385 14.6664 7.48683 14.6664C6.36982 14.6664 5.35178 14.488 4.43271 14.1294C3.51365 13.7726 2.72538 13.2692 2.06789 12.6227C1.41041 11.9744 0.901391 11.2007 0.540836 10.3034C0.18028 9.40428 2.8587e-06 8.41687 2.8587e-06 7.3429C2.8587e-06 6.26717 0.18028 5.28152 0.540836 4.38243C0.901391 3.4851 1.41041 2.70965 2.06789 2.05962C2.72538 1.40782 3.51365 0.902627 4.43271 0.540516C5.35178 0.180172 6.36982 -2.6953e-07 7.48683 -2.6953e-07C8.60385 -2.6953e-07 9.62365 0.180172 10.5462 0.540516C11.4688 0.90086 12.2589 1.40782 12.9164 2.05962C13.5738 2.70965 14.0829 3.4851 14.4434 4.38243C14.804 5.27975 14.9843 6.26717 14.9843 7.3429ZM12.874 7.3429C12.874 6.46147 12.7467 5.67013 12.4922 4.96887C12.2377 4.26761 11.8771 3.6741 11.4105 3.19011C10.9439 2.70612 10.3783 2.33341 9.71379 2.07198C9.04924 1.81232 8.30692 1.68161 7.48683 1.68161C6.67381 1.68161 5.93503 1.81232 5.27047 2.07198C4.60592 2.33341 4.03857 2.70612 3.56844 3.19011C3.0983 3.6741 2.73598 4.26761 2.48147 4.96887C2.22696 5.67013 2.09971 6.46147 2.09971 7.3429C2.09971 8.22433 2.22696 9.01391 2.48147 9.71164C2.73598 10.4094 3.0983 11.0011 3.56844 11.4851C4.03857 11.9691 4.60592 12.34 5.27047 12.5979C5.93503 12.8541 6.67381 12.983 7.48683 12.983C8.30692 12.983 9.04924 12.8541 9.71379 12.5979C10.3783 12.34 10.9439 11.9709 11.4105 11.4851C11.8771 11.0011 12.2377 10.4094 12.4922 9.71164C12.7467 9.01391 12.874 8.22433 12.874 7.3429Z" transform="translate(105.39 50)" fill="#636466"/>
<path d="M16.0129 12.8364V17.2736C16.0129 17.4484 15.9528 17.588 15.8326 17.694C15.7124 17.8 15.5534 17.8529 15.3554 17.8529H14.1359V14.3573H1.88761V17.2718C1.88761 17.4467 1.82576 17.5862 1.70204 17.6922C1.57832 17.7982 1.42101 17.8512 1.23012 17.8512H-4.96226e-06V12.8329H1.54826C1.76742 12.7322 1.98659 12.5697 2.20575 12.3471C2.42491 12.1245 2.63524 11.803 2.83672 11.3844C3.03821 10.9675 3.22732 10.4412 3.40407 9.80702C3.58081 9.17289 3.74165 8.39567 3.88658 7.47715C4.03151 6.56039 4.15699 5.48466 4.26304 4.25701C4.36908 3.0276 4.45039 1.60919 4.50694 9.70309e-07H13.5314V12.8346H16.0129V12.8364ZM11.4635 12.8364V1.535H6.43698C6.35215 3.17244 6.23196 4.60852 6.07642 5.84323C5.92089 7.07971 5.73707 8.15191 5.52498 9.05984C5.31289 9.96776 5.07605 10.7273 4.81447 11.3385C4.55289 11.9497 4.27011 12.4495 3.96611 12.8364H11.4635Z" transform="translate(120.882 50.1572)" fill="#636466"/>
<path d="M9.37444 12.7746L9.36384 14.3573H-6.47252e-06V0H9.36384V1.58269H2.05728V6.35196H7.97463V7.87459H2.05728V12.7746H9.37444Z" transform="translate(139.344 50.1592)" fill="#636466"/>
<path d="M12.3101 0V14.3573H10.2529V7.82513H2.05552V14.3573H-5.93314e-06V0H2.05728V6.40141H10.2546V0H12.3101Z" transform="translate(151.592 50.1592)" fill="#636466"/>
<path d="M12.3119 0V14.3573H10.2546V7.82513H2.05729V14.3573H-4.31501e-07V0H2.05729V6.40141H10.2546V0H12.3119Z" transform="translate(167.784 50.1592)" fill="#636466"/>
<path d="M14.2313 14.359H12.6406C12.4568 14.359 12.3084 14.3149 12.1953 14.2283C12.0821 14.1418 11.9973 14.0305 11.9408 13.898L10.5197 10.4306H3.701L2.27998 13.898C2.23756 14.0181 2.15626 14.1241 2.03607 14.2177C1.91589 14.3113 1.7639 14.3573 1.58009 14.3573H-3.99139e-06L6.07642 9.70309e-07H8.15492L14.2313 14.359ZM9.9471 9.02804L7.56106 3.18657C7.49036 3.01347 7.41613 2.81033 7.33836 2.5807C7.26059 2.35107 7.18636 2.10554 7.11567 1.84411C6.9672 2.3864 6.81521 2.83683 6.65968 3.19717L4.27364 9.02804H9.9471Z" transform="translate(182.077 50.1572)" fill="#636466"/>
<path d="M11.8983 1.63215H6.97781V14.3555H4.93113V1.63215H1.18663e-06V0H11.8983V1.63215V1.63215Z" transform="translate(202.098 50.1592)" fill="#636466"/>
<path d="M13.1921 0L7.02023 12.4831C6.82934 12.877 6.62256 13.2038 6.39986 13.4617C6.17717 13.7178 5.93857 13.9227 5.68406 14.0729C5.42955 14.223 5.15382 14.3308 4.8569 14.3926C4.55997 14.4562 4.24183 14.488 3.90248 14.488C3.52072 14.488 3.22732 14.4562 3.0223 14.3926C2.81728 14.329 2.71478 14.2354 2.71478 14.1082V12.8753H3.45709C3.63384 12.8753 3.81058 12.8558 3.98733 12.8205C4.16407 12.7834 4.33373 12.718 4.49634 12.6262C4.65894 12.5326 4.81447 12.4072 4.96294 12.2499C5.1114 12.0945 5.24573 11.8949 5.36592 11.6547L6.10824 10.1921L-1.2945e-06 0.00353422H1.91942C2.10324 0.00353422 2.24817 0.0441608 2.35422 0.127181C2.46026 0.211968 2.55216 0.319717 2.62993 0.453963L6.38395 6.96489C6.64553 7.44005 6.85762 7.92051 7.02023 8.40804C7.09799 8.16781 7.1846 7.92758 7.28004 7.68558C7.37549 7.44535 7.4833 7.20512 7.60348 6.96489L10.7955 0.453963C10.852 0.340914 10.9386 0.236696 11.0553 0.143077C11.1719 0.0494579 11.3186 0.00353422 11.4954 0.00353422H13.1921V0Z" transform="translate(214.377 50.1592)" fill="#636466"/>
<path d="M4.48574 0C5.44723 0 6.2832 0.105985 6.99371 0.316186C7.70422 0.526387 8.29279 0.824907 8.75939 1.21351C9.22599 1.60035 9.57415 2.06845 9.80392 2.61603C10.0337 3.16361 10.1486 3.77478 10.1486 4.44955C10.1486 5.11724 10.0248 5.72842 9.77741 6.28306C9.52997 6.83771 9.16766 7.31464 8.69045 7.71561C8.21325 8.11658 7.62293 8.42924 6.91949 8.6518C6.21606 8.87613 5.40481 8.98741 4.48574 8.98741H2.04668V14.3573H-7.55127e-06V0H4.48574ZM4.48574 7.44359C5.07253 7.44359 5.59038 7.3694 6.03931 7.22279C6.48824 7.07618 6.86646 6.86951 7.174 6.60631C7.48153 6.34312 7.71307 6.02694 7.86861 5.65953C8.02414 5.29212 8.10189 4.88761 8.10189 4.44602C8.10189 3.53102 7.80321 2.8174 7.20582 2.30161C6.60843 1.78759 5.70174 1.5297 4.48574 1.5297H2.04668V7.44005H4.48574V7.44359Z" transform="translate(229.51 50.1592)" fill="#636466"/>
<path d="M5.00714 6.18061C5.93327 6.18061 6.73036 6.276 7.40375 6.46677C8.0736 6.65754 8.62681 6.92427 9.0616 7.26871C9.49639 7.61316 9.81806 8.0212 10.0284 8.49636C10.2369 8.97152 10.3395 9.4873 10.3395 10.049C10.3395 10.7096 10.2228 11.3067 9.98599 11.8366C9.74738 12.3683 9.40271 12.8205 8.94672 13.195C8.49072 13.5677 7.9287 13.8556 7.26591 14.057C6.59959 14.2566 5.84489 14.3573 4.99476 14.3573H-4.31501e-06V0H9.81983V1.53323H2.04669V6.18238H5.00714V6.18061ZM4.99651 12.8134C5.5833 12.8134 6.08703 12.7498 6.50768 12.6244C6.92833 12.4972 7.27121 12.3224 7.53633 12.098C7.80144 11.8755 7.99586 11.6052 8.11958 11.2873C8.2433 10.9693 8.30515 10.6213 8.30515 10.2416C8.30515 9.84058 8.24153 9.48377 8.11958 9.17465C7.99586 8.86377 7.79967 8.60057 7.53633 8.38331C7.27121 8.16604 6.93008 8.00177 6.51297 7.89225C6.09585 7.78097 5.59392 7.72621 5.00714 7.72621H2.04844V12.8152H4.99651V12.8134Z" transform="translate(242.244 50.1592)" fill="#636466"/>
<path d="M14.9843 7.3429C14.9843 8.41863 14.804 9.40428 14.4434 10.3034C14.0829 11.2007 13.5739 11.9744 12.9164 12.6227C12.2589 13.2692 11.4688 13.7726 10.5462 14.1294C9.62365 14.4862 8.60384 14.6664 7.48682 14.6664C6.36981 14.6664 5.35177 14.488 4.43271 14.1294C3.51365 13.7726 2.72538 13.2692 2.06789 12.6227C1.41041 11.9744 0.901394 11.2007 0.540839 10.3034C0.180283 9.40428 6.04102e-06 8.41687 6.04102e-06 7.3429C6.04102e-06 6.26717 0.180283 5.28152 0.540839 4.38243C0.901394 3.4851 1.41041 2.70965 2.06789 2.05962C2.72538 1.40782 3.51365 0.902627 4.43271 0.540516C5.35001 0.180172 6.36981 -2.6953e-07 7.48682 -2.6953e-07C8.60384 -2.6953e-07 9.62365 0.180172 10.5462 0.540516C11.4688 0.90086 12.2589 1.40782 12.9164 2.05962C13.5739 2.70965 14.0829 3.4851 14.4434 4.38243C14.804 5.27975 14.9843 6.26717 14.9843 7.3429ZM12.874 7.3429C12.874 6.46147 12.7467 5.67013 12.494 4.96887C12.2395 4.26761 11.8771 3.6741 11.4123 3.19011C10.9457 2.70612 10.3784 2.33341 9.7138 2.07198C9.04925 1.81232 8.30691 1.68161 7.48682 1.68161C6.6738 1.68161 5.93502 1.81232 5.27047 2.07198C4.60592 2.33341 4.03858 2.70612 3.56844 3.19011C3.0983 3.6741 2.73597 4.26761 2.48146 4.96887C2.22695 5.67013 2.09972 6.46147 2.09972 7.3429C2.09972 8.22433 2.22695 9.01391 2.48146 9.71164C2.7342 10.4094 3.0983 11.0011 3.56844 11.4851C4.03858 11.9691 4.60592 12.34 5.27047 12.5979C5.93502 12.8541 6.6738 12.983 7.48682 12.983C8.30691 12.983 9.04925 12.8541 9.7138 12.5979C10.3784 12.34 10.9457 11.9709 11.4123 11.4851C11.8771 11.0011 12.2395 10.4094 12.494 9.71164C12.7467 9.01391 12.874 8.22433 12.874 7.3429Z" transform="translate(254.45 50)" fill="#636466"/>
<path d="M11.8966 1.63215H6.97604V14.3555H4.92935V1.63215H-1.2945e-05V0H11.8966V1.63215V1.63215Z" transform="translate(270.072 50.1592)" fill="#636466"/>
<path d="M14.2296 14.359H12.6406C12.4568 14.359 12.3066 14.3149 12.1935 14.2283C12.0804 14.1418 11.9955 14.0305 11.939 13.898L10.5197 10.4306H3.701L2.27998 13.898C2.23756 14.0181 2.15626 14.1241 2.03608 14.2177C1.91589 14.3113 1.7639 14.3573 1.58009 14.3573H1.0356e-05L6.07641 9.70309e-07H8.15492L14.2296 14.359ZM9.94708 9.02804L7.56107 3.18657C7.48861 3.01347 7.41436 2.81033 7.33836 2.5807C7.25883 2.35107 7.18637 2.10554 7.1139 1.84411C6.96544 2.3864 6.81345 2.83683 6.65791 3.19717L4.27187 9.02804H9.94708Z" transform="translate(280.855 50.1572)" fill="#636466"/>
<path d="M11.7163 14.3573H9.65015V1.53323H2.05729V14.3573H1.726e-06V0H11.7181V14.3573H11.7163Z" transform="translate(302.497 50.1592)" fill="#636466"/>
<path d="M4.48573 0C5.44722 0 6.28322 0.105985 6.99373 0.316186C7.70423 0.526387 8.29277 0.824907 8.75938 1.21351C9.22598 1.60035 9.57417 2.06845 9.80393 2.61603C10.0337 3.16361 10.1486 3.77478 10.1486 4.44955C10.1486 5.11724 10.0249 5.72842 9.77742 6.28306C9.52998 6.83771 9.16765 7.31464 8.69044 7.71561C8.21324 8.11658 7.62292 8.42924 6.91948 8.6518C6.21604 8.87613 5.40658 8.98741 4.48751 8.98741H2.04667V14.3573H8.84578e-06V0H4.48573ZM4.48573 7.44359C5.07075 7.44359 5.58861 7.3694 6.0393 7.22279C6.48823 7.07618 6.86645 6.86951 7.17399 6.60631C7.48152 6.34312 7.71306 6.02694 7.8686 5.65953C8.02413 5.29212 8.1019 4.88761 8.1019 4.44602C8.1019 3.53102 7.8032 2.8174 7.20581 2.30161C6.60842 1.78759 5.70173 1.5297 4.48573 1.5297H2.04492V7.44005H4.48573V7.44359Z" transform="translate(318.097 50.1592)" fill="#636466"/>
<path d="M14.986 7.3429C14.986 8.41863 14.8058 9.40428 14.4452 10.3034C14.0847 11.2007 13.5756 11.9744 12.9181 12.6227C12.2606 13.2692 11.4706 13.7726 10.5462 14.1294C9.62365 14.4862 8.6056 14.6664 7.48682 14.6664C6.36981 14.6664 5.35177 14.488 4.43271 14.1294C3.51365 13.7726 2.72538 13.2692 2.06789 12.6227C1.41218 11.9744 0.903161 11.2007 0.540838 10.3034C0.180283 9.40428 5.60952e-06 8.41687 5.60952e-06 7.3429C5.60952e-06 6.26717 0.180283 5.28152 0.540838 4.38243C0.903161 3.4851 1.41218 2.70965 2.06789 2.05962C2.72715 1.40782 3.51365 0.902627 4.43271 0.540516C5.35177 0.180172 6.36981 -2.6953e-07 7.48682 -2.6953e-07C8.6056 -2.6953e-07 9.62365 0.180172 10.5462 0.540516C11.4706 0.90086 12.2606 1.40782 12.9181 2.05962C13.5756 2.70965 14.0847 3.4851 14.4452 4.38243C14.8058 5.27975 14.986 6.26717 14.986 7.3429ZM12.8757 7.3429C12.8757 6.46147 12.7485 5.67013 12.494 4.96887C12.2395 4.26761 11.8789 3.6741 11.4123 3.19011C10.9457 2.70612 10.3801 2.33341 9.71555 2.07198C9.051 1.81232 8.30869 1.68161 7.4886 1.68161C6.67558 1.68161 5.93679 1.81232 5.274 2.07198C4.60768 2.33341 4.04211 2.70612 3.57197 3.19011C3.10007 3.6741 2.7395 4.26761 2.48499 4.96887C2.23048 5.67013 2.10325 6.46147 2.10325 7.3429C2.10325 8.22433 2.23048 9.01391 2.48499 9.71164C2.7395 10.4094 3.10184 11.0011 3.57197 11.4851C4.04211 11.9691 4.60768 12.34 5.274 12.5979C5.93679 12.8541 6.67558 12.983 7.4886 12.983C8.31046 12.983 9.051 12.8541 9.71555 12.5979C10.3801 12.34 10.9457 11.9709 11.4123 11.4851C11.8789 11.0011 12.2395 10.4094 12.494 9.71164C12.7485 9.01391 12.8757 8.22433 12.8757 7.3429Z" transform="translate(329.885 50)" fill="#636466"/>
<path d="M12.2023 14.3555H10.1556V8.17311H8.08776C7.89688 8.17311 7.71836 8.189 7.55399 8.21903C7.38785 8.24906 7.22526 8.30382 7.07149 8.38331C6.91596 8.46456 6.76042 8.57231 6.60666 8.71009C6.44936 8.8461 6.29558 9.02274 6.14004 9.23648L2.84025 13.6648C2.71476 13.8786 2.5398 14.0464 2.32064 14.1718C2.10324 14.2954 1.84344 14.3573 1.54828 14.3573H-2.80476e-06L3.93429 9.11636C4.35847 8.52815 4.8569 8.11128 5.42955 7.86399C4.82155 7.758 4.29132 7.5902 3.84063 7.3641C3.38817 7.13623 3.00992 6.86068 2.71123 6.53743C2.41076 6.21241 2.18807 5.845 2.03784 5.4299C1.88938 5.01656 1.81516 4.5679 1.81516 4.08744C1.81516 3.47273 1.93357 2.91455 2.16864 2.41466C2.40548 1.91301 2.75189 1.48377 3.20789 1.12696C3.66388 0.770148 4.22415 0.492823 4.8834 0.294987C5.54442 0.0989168 6.29913 -9.70309e-07 7.14749 -9.70309e-07H12.2041V14.3555H12.2023ZM10.1556 6.63988V1.54029H7.14396C6.55717 1.54029 6.05521 1.60035 5.6381 1.72223C5.22099 1.84235 4.8781 2.01369 4.60945 2.23802C4.34081 2.46059 4.14463 2.72908 4.02091 3.03996C3.89719 3.35085 3.83709 3.6953 3.83709 4.07684C3.83709 4.47781 3.89896 4.83816 4.02091 5.15434C4.14463 5.47229 4.3408 5.74078 4.60414 5.95981C4.86926 6.18061 5.21215 6.35019 5.63103 6.46677C6.05345 6.58335 6.55539 6.64164 7.14218 6.64164H10.1556V6.63988Z" transform="translate(351.257 50.1602)" fill="#636466"/>
<path d="M11.5979 11.5487C11.711 11.5487 11.81 11.5928 11.8948 11.6794L12.7114 12.5114C12.0892 13.1932 11.3345 13.7249 10.4473 14.1047C9.56002 14.4844 8.48721 14.6752 7.23056 14.6752C6.14183 14.6752 5.15205 14.4968 4.26127 14.14C3.37049 13.7832 2.6105 13.2815 1.9813 12.6368C1.35386 11.992 0.864263 11.2184 0.519615 10.3175C0.173199 9.41665 6.25677e-06 8.42394 6.25677e-06 7.3429C6.25677e-06 6.2601 0.180284 5.26915 0.540839 4.36653C0.901395 3.46566 1.40863 2.69022 2.06258 2.04372C2.71476 1.39545 3.49775 0.893797 4.41151 0.535219C5.32174 0.178407 6.32917 -1.23984e-06 7.43205 -1.23984e-06C8.51371 -1.23984e-06 9.46812 0.162507 10.2953 0.491056C11.1224 0.817839 11.8506 1.26297 12.4798 1.82292L11.8011 2.71495C11.7587 2.78207 11.7039 2.83683 11.635 2.88099C11.5696 2.92515 11.4777 2.94635 11.3663 2.94635C11.2391 2.94635 11.0835 2.88099 10.8997 2.75028C10.7159 2.61956 10.4756 2.47472 10.1786 2.31398C9.88347 2.15324 9.51052 2.00839 9.0669 1.87768C8.61974 1.74697 8.07362 1.68337 7.4232 1.68337C6.63846 1.68337 5.92088 1.81232 5.27047 2.06845C4.62006 2.32634 4.05977 2.69729 3.58964 3.18481C3.1195 3.67234 2.75367 4.26761 2.49209 4.96887C2.23228 5.67013 2.09972 6.46147 2.09972 7.3429C2.09972 8.23847 2.23579 9.03511 2.50797 9.73813C2.78016 10.4394 3.15133 11.0311 3.62146 11.5151C4.0916 11.9991 4.64657 12.3683 5.28638 12.6227C5.92619 12.8752 6.61726 13.0024 7.35958 13.0024C7.81204 13.0024 8.22031 12.9777 8.5844 12.9282C8.94849 12.877 9.28431 12.7993 9.59185 12.6933C9.89938 12.5873 10.1857 12.4513 10.4508 12.287C10.7159 12.1245 10.9793 11.9285 11.2409 11.7006C11.3575 11.5981 11.4777 11.5487 11.5979 11.5487Z" transform="translate(366.411 50.002)" fill="#636466"/>
<path d="M12.3119 0V14.3573H10.2546V7.82513H2.0573V14.3573H6.90402e-06V0H2.0573V6.40141H10.2546V0H12.3119Z" transform="translate(381.507 50.1592)" fill="#636466"/>
<path d="M14.2313 14.359H12.6406C12.4568 14.359 12.3084 14.3149 12.1953 14.2283C12.0821 14.1418 11.9973 14.0305 11.9407 13.898L10.5197 10.4306H3.70099L2.27997 13.898C2.23756 14.0181 2.15625 14.1241 2.03607 14.2177C1.91588 14.3113 1.76389 14.3573 1.58008 14.3573H2.37326e-06L6.07643 9.70309e-07H8.15492L14.2313 14.359ZM9.9471 9.02804L7.56282 3.18657C7.49035 3.01347 7.41612 2.81033 7.33836 2.5807C7.26059 2.35107 7.18637 2.10554 7.11567 1.84411C6.96721 2.3864 6.81522 2.83683 6.65968 3.19717L4.27364 9.02804H9.9471Z" transform="translate(395.802 50.1572)" fill="#636466"/>
<path d="M11.8966 1.63215H6.97603V14.3555H4.92937V1.63215H7.55127e-06V0H11.8966V1.63215V1.63215Z" transform="translate(415.823 50.1592)" fill="#636466"/>
<path d="M14.2296 14.359H12.6389C12.4551 14.359 12.3066 14.3149 12.1935 14.2283C12.0804 14.1418 11.9938 14.0305 11.939 13.898L10.518 10.4306H3.69922L2.27821 13.898C2.23579 14.0181 2.1545 14.1241 2.03608 14.2177C1.9159 14.3113 1.76391 14.3573 1.58009 14.3573H-1.05718e-05L6.07642 9.70309e-07H8.1549L14.2296 14.359ZM9.94531 9.02804L7.5593 3.18657C7.4886 3.01347 7.41436 2.81033 7.33659 2.5807C7.25882 2.35107 7.1846 2.10554 7.11391 1.84411C6.96544 2.3864 6.81345 2.83683 6.65792 3.19717L4.27188 9.02804H9.94531Z" transform="translate(426.608 50.1572)" fill="#636466"/>
<path d="M0.615071 1.48201C1.18772 1.00155 1.85227 0.634135 2.60696 0.379774C3.36342 0.125413 4.22238 -8.35544e-07 5.18386 -8.35544e-07C5.9686 -8.35544e-07 6.67381 0.0900851 7.29948 0.270257C7.92515 0.45043 8.45712 0.70479 8.89545 1.03157C9.33377 1.35836 9.6714 1.74696 9.90823 2.19386C10.1451 2.64076 10.2635 3.13182 10.2635 3.66703C10.2635 4.38772 10.0726 5.02186 9.6961 5.56944C9.31787 6.11702 8.78766 6.54096 8.10013 6.84125C8.48897 6.99492 8.84247 7.18393 9.1606 7.40826C9.48051 7.63259 9.75268 7.88342 9.98245 8.16427C10.2122 8.44513 10.3889 8.75249 10.5127 9.08633C10.6364 9.42018 10.6983 9.77169 10.6983 10.1391C10.6983 10.7662 10.5746 11.3544 10.3271 11.902C10.0797 12.4495 9.72087 12.9247 9.25073 13.3292C8.7806 13.7337 8.20262 14.0517 7.51685 14.2866C6.83109 14.5198 6.04991 14.6363 5.17326 14.6363C4.08453 14.6363 3.10714 14.4668 2.23757 14.1294C1.36799 13.792 0.622128 13.3363 -6.90402e-06 12.7622L0.593847 11.8401C0.650404 11.7677 0.72112 11.7059 0.805956 11.6547C0.890793 11.6052 0.982683 11.5805 1.08166 11.5805C1.23189 11.5805 1.40687 11.6547 1.61189 11.8066C1.81691 11.9567 2.07849 12.1228 2.39663 12.3029C2.71654 12.4831 3.10184 12.6492 3.55961 12.7993C4.01561 12.9494 4.57233 13.0254 5.22982 13.0254C5.78832 13.0254 6.28853 12.9618 6.73039 12.8346C7.17224 12.7092 7.54341 12.5255 7.84388 12.2835C8.14434 12.0433 8.37406 11.7483 8.53137 11.4021C8.69043 11.0541 8.76999 10.6637 8.76999 10.2292C8.76999 9.85471 8.694 9.51203 8.54377 9.19762C8.39177 8.8832 8.17084 8.6147 7.88099 8.39037C7.59113 8.16781 7.23763 7.99293 6.82052 7.86929C6.4034 7.74564 5.93326 7.68382 5.4101 7.68382H3.33161V6.09053H5.32526C5.75474 6.09053 6.15772 6.04107 6.52888 5.94039C6.90004 5.84147 7.21819 5.69309 7.4833 5.50055C7.74842 5.30625 7.95698 5.06955 8.10898 4.7887C8.26098 4.50784 8.33519 4.18812 8.33519 3.82601C8.33519 3.49923 8.26451 3.19894 8.12311 2.92515C7.98348 2.65136 7.77848 2.41466 7.50806 2.21859C7.23941 2.02076 6.91065 1.87061 6.52181 1.76286C6.13474 1.65688 5.69113 1.60389 5.19802 1.60389C4.62537 1.60389 4.13756 1.66041 3.73458 1.77346C3.33161 1.88827 2.99225 2.01192 2.71654 2.1497C2.44082 2.28748 2.21636 2.41289 2.04315 2.52594C1.86818 2.63899 1.7197 2.69552 1.59245 2.69552C1.47757 2.69552 1.38743 2.67255 1.31497 2.62486C1.24427 2.57894 1.17886 2.50122 1.11523 2.39523L0.615071 1.48201Z" transform="translate(446.755 50.0195)" fill="#636466"/>
<path d="M13.1921 0L7.02023 12.4831C6.82934 12.877 6.62253 13.2038 6.39983 13.4617C6.17537 13.7178 5.93854 13.9227 5.68403 14.0729C5.42952 14.223 5.15382 14.3308 4.85689 14.3926C4.55997 14.4562 4.24005 14.488 3.90247 14.488C3.5207 14.488 3.22555 14.4562 3.02053 14.3926C2.81551 14.329 2.71298 14.2354 2.71298 14.1082V12.8753H3.45532C3.63207 12.8753 3.80879 12.8558 3.98553 12.8205C4.16227 12.7834 4.33199 12.718 4.49459 12.6262C4.6572 12.5326 4.81269 12.4072 4.96116 12.2499C5.10962 12.0945 5.24394 11.8949 5.36412 11.6547L6.10647 10.1921L2.41641e-05 0.00353422H1.91945C2.10326 0.00353422 2.2482 0.0441608 2.35424 0.127181C2.46029 0.211968 2.55215 0.319717 2.62992 0.453963L6.38398 6.96489C6.64379 7.44005 6.85762 7.92051 7.02023 8.40804C7.09799 8.16781 7.1846 7.92758 7.28004 7.68558C7.37548 7.44535 7.4815 7.20512 7.60345 6.96489L10.7937 0.453963C10.8503 0.340914 10.9369 0.236696 11.0535 0.143077C11.1684 0.0494579 11.3169 0.00353422 11.4936 0.00353422H13.1921V0Z" transform="translate(458.407 50.1592)" fill="#636466"/>
<path d="M5.00712 6.18061C5.93148 6.18061 6.73216 6.276 7.40378 6.46677C8.07541 6.65754 8.6286 6.92427 9.06339 7.26871C9.49818 7.61316 9.81983 8.0212 10.0284 8.49636C10.2369 8.97152 10.3412 9.4873 10.3412 10.049C10.3412 10.7096 10.2228 11.3067 9.986 11.8366C9.75093 12.3683 9.40272 12.8205 8.94673 13.195C8.49073 13.5677 7.93047 13.8556 7.26592 14.057C6.60137 14.2566 5.84491 14.3573 4.99655 14.3573H-2.15751e-05V0H9.81981V1.53323H2.0467V6.18238H5.00712V6.18061ZM4.99655 12.8134C5.58333 12.8134 6.08525 12.7498 6.50766 12.6244C6.92831 12.4972 7.27119 12.3224 7.53631 12.098C7.80142 11.8755 7.99587 11.6052 8.11959 11.2873C8.24331 10.9693 8.30514 10.6213 8.30514 10.2416C8.30514 9.84058 8.24331 9.48377 8.11959 9.17465C7.99587 8.86377 7.80142 8.60057 7.53631 8.38331C7.27119 8.16604 6.92834 8.00177 6.51122 7.89225C6.09411 7.78097 5.59391 7.72621 5.00712 7.72621H2.04848V12.8152H4.99655V12.8134Z" transform="translate(473.538 50.1592)" fill="#636466"/>
<path d="M12.3101 0V14.3573H10.2528V4.15809C10.2528 3.87194 10.2581 3.57165 10.274 3.26253C10.2882 2.95165 10.32 2.6231 10.3695 2.27512C10.2493 2.5754 10.1221 2.85626 9.98952 3.11768C9.85519 3.37734 9.71732 3.60521 9.57592 3.79951L2.44968 13.7478C2.35071 13.9015 2.22344 14.0428 2.06791 14.1682C1.91238 14.2954 1.7321 14.359 1.52708 14.359H-4.74651e-06V0.00176542H2.05729V10.2115C2.05729 10.4977 2.05023 10.798 2.03609 11.1071C2.02372 11.418 1.99011 11.7501 1.94062 12.1033C2.0608 11.796 2.18987 11.5116 2.32773 11.2519C2.46559 10.9923 2.60165 10.7609 2.7342 10.5613L9.8605 0.612939C9.95948 0.459263 10.0867 0.319716 10.244 0.192536C10.3995 0.0671217 10.5798 0.00353422 10.7848 0.00353422H12.3101V0Z" transform="translate(486.69 50.1592)" fill="#636466"/>
<path d="M26.0219 4.62972C24.4895 3.15831 22.6231 2.00662 20.4739 1.20468C18.3318 0.406271 15.9316 -1.05285e-08 13.3441 -1.05285e-08H2.48113e-06V33.5279H13.3441C15.9334 33.5279 18.3318 33.1234 20.4739 32.3233C22.6213 31.5213 24.4895 30.3732 26.0201 28.9106C27.5525 27.448 28.7543 25.6657 29.5938 23.6132C30.4316 21.5659 30.8558 19.2661 30.8558 16.7754C30.8558 14.2848 30.4316 11.9832 29.5938 9.93774C28.7561 7.88518 27.5542 6.09936 26.0219 4.62972ZM13.3441 29.225H5.45075V4.30294H13.3441C15.161 4.30294 16.8277 4.58733 18.2947 5.14727C19.7563 5.70545 21.0147 6.52329 22.0381 7.57783C23.0649 8.6359 23.8709 9.9501 24.4329 11.4851C24.9985 13.0289 25.2848 14.8095 25.2848 16.7754C25.2848 18.7414 24.9985 20.522 24.4329 22.0658C23.8709 23.6008 23.0649 24.9115 22.0381 25.9625C21.0147 27.0099 19.7546 27.8242 18.2947 28.3824C16.8277 28.9424 15.161 29.225 13.3441 29.225Z" transform="translate(82.9419 0.396484)" fill="#636466"/>
<path d="M5.45252 18.7097H18.9787V14.5215H5.45252V4.3259H22.1547V-1.05285e-08H2.58901e-06V33.5279H22.153L22.1812 29.202H5.45252V18.7097Z" transform="translate(119.812 0.396484)" fill="#636466"/>
<path d="M24.0247 23.6008C24.0247 23.9417 24.037 24.3003 24.06 24.6783L4.71551 0.888496C4.57235 0.720689 4.43978 0.58291 4.31429 0.473394C4.17466 0.351513 4.03151 0.254361 3.88658 0.185471C3.73812 0.116582 3.57198 0.067123 3.39347 0.0388607C3.23086 0.0123648 3.0329 -1.05285e-08 2.79783 -1.05285e-08H-5.82527e-06V33.5279H4.86927V9.78936C4.86927 9.47141 4.86043 9.13049 4.84453 8.76662L24.1996 32.5917C24.4789 32.9256 24.7599 33.1605 25.0604 33.3054C25.3626 33.4537 25.7338 33.5279 26.165 33.5279H28.8904V-1.05285e-08H24.0211V23.6008H24.0247Z" transform="translate(147.812 0.396484)" fill="#636466"/>
<path d="M27.9484 -1.05285e-08H-4.63864e-06V4.44072H11.2727V33.5279H16.7004V4.44072H27.9484V-1.05285e-08Z" transform="translate(181.121 0.396484)" fill="#636466"/>
<path d="M14.1889 -1.05285e-08L-6.36464e-06 33.5279H4.18881C4.68015 33.5279 5.10256 33.3937 5.44368 33.127C5.77242 32.8708 5.99865 32.5705 6.11176 32.2491L9.2684 24.5493H24.3428L27.4994 32.2526C27.6514 32.6129 27.8847 32.915 28.1922 33.1517C28.5175 33.4008 28.9399 33.5279 29.4471 33.5279H33.6359L19.4453 -1.05285e-08H14.1889V-1.05285e-08ZM16.8171 5.88916C16.8683 6.04813 16.9196 6.20534 16.9709 6.35725C17.1511 6.8907 17.3226 7.36057 17.4869 7.7633L22.7451 20.635H10.8679L16.1225 7.79157C16.3558 7.25105 16.5891 6.61338 16.8171 5.88916Z" transform="translate(205.598 0.396484)" fill="#636466"/>
<path d="M5.426 -1.05285e-08H5.39377e-06V33.5279H20.4562V29.089H5.426V-1.05285e-08Z" transform="translate(242.889 0.396484)" fill="#636466"/>
<path d="M25.8186 26.8457C25.2353 27.3509 24.645 27.7889 24.06 28.151C23.4821 28.5078 22.8458 28.8081 22.1724 29.0431C21.5008 29.2762 20.7514 29.4511 19.9437 29.5624C19.1342 29.6737 18.2098 29.7302 17.1988 29.7302C15.5587 29.7302 14.0122 29.4476 12.6053 28.8876C11.2002 28.3294 9.96298 27.5081 8.92904 26.4429C7.89333 25.3743 7.06264 24.0459 6.46171 22.495C5.85725 20.9388 5.55149 19.1389 5.55149 17.1429C5.55149 15.1751 5.8449 13.3875 6.42639 11.8313C7.00257 10.2822 7.82264 8.95032 8.85835 7.87459C9.8923 6.80415 11.1419 5.97395 12.5682 5.4087C14.0033 4.84169 15.6117 4.55376 17.3473 4.55376C18.7878 4.55376 20.0144 4.69861 20.9935 4.98477C21.9815 5.27445 22.8122 5.59947 23.4644 5.95098C24.129 6.30956 24.6698 6.63634 25.0727 6.9225C25.9971 7.57783 26.7341 7.52661 27.1937 7.22985C27.3916 7.10267 27.5542 6.9384 27.662 6.76706L29.4047 4.47781L29.1661 4.26584C27.7009 2.96048 25.9812 1.91124 24.06 1.14992C22.1317 0.38684 19.8818 1.63192e-09 17.3703 1.63192e-09C14.811 1.63192e-09 12.4392 0.422168 10.3165 1.25237C8.19379 2.08435 6.34506 3.27136 4.81977 4.78163C3.29801 6.29013 2.09971 8.11835 1.26018 10.2151C0.424189 12.3065 1.05718e-05 14.6381 1.05718e-05 17.1429C1.05718e-05 19.6476 0.408268 21.9775 1.21245 24.0654C2.01486 26.1585 3.16723 27.9832 4.6342 29.4864C6.0994 30.9896 7.89688 32.1749 9.97538 33.0086C12.0486 33.8406 14.3816 34.261 16.909 34.261C19.827 34.261 22.3527 33.8123 24.4223 32.9238C26.492 32.0353 28.2771 30.7794 29.7264 29.1914L29.9455 28.9512L27.8529 26.8192C27.3103 26.2734 26.515 26.2663 25.8186 26.8457Z" transform="translate(276.608 0.0292969)" fill="#636466"/>
<path d="M19.4453 -1.05285e-08H14.1889L6.68827e-06 33.5279H4.18705C4.68016 33.5279 5.10258 33.3937 5.44369 33.127C5.77243 32.8726 5.99865 32.5723 6.11176 32.2491L9.27016 24.5493H24.3446L27.5012 32.2508C27.6514 32.6112 27.8847 32.9132 28.1922 33.1517C28.5175 33.4008 28.9399 33.5279 29.4489 33.5279H33.6359L19.5389 0.222566L19.4453 -1.05285e-08ZM16.8171 5.89093C16.8683 6.0499 16.9196 6.20711 16.9708 6.35902C17.1511 6.89247 17.3243 7.36057 17.4869 7.76507L22.7468 20.6368H10.8679L16.1243 7.79333C16.3558 7.25282 16.5873 6.61515 16.8171 5.89093Z" transform="translate(306.661 0.396484)" fill="#636466"/>
<path d="M15.2405 18.8987C16.2992 18.6143 17.2731 18.2363 18.1462 17.7717C19.2367 17.1888 20.1752 16.4734 20.9352 15.645C21.7005 14.8095 22.2908 13.8591 22.6885 12.8205C23.0897 11.7783 23.293 10.6425 23.293 9.44668C23.293 8.01943 23.0314 6.70523 22.5135 5.54118C21.9886 4.37006 21.172 3.35615 20.0868 2.52948C19.0069 1.7081 17.6283 1.07397 15.9882 0.642968C14.3621 0.217267 12.4126 1.22131e-08 10.191 1.22131e-08H4.96226e-06V33.5279H5.426V19.8313H8.61622C9.36031 19.8313 9.72794 19.9391 9.90468 20.0291C10.168 20.1616 10.4225 20.393 10.6647 20.7163L19.6679 32.4186C20.1416 33.1552 20.8857 33.5279 21.879 33.5279H26.7871L16.2232 19.9444C15.9316 19.5399 15.6029 19.1901 15.2405 18.8987ZM5.426 4.21285H10.191C12.8085 4.21285 14.7863 4.68978 16.0712 5.62773C17.3438 6.55862 17.9624 7.91345 17.9624 9.76816C17.9624 10.6814 17.7927 11.5204 17.4604 12.2641C17.1264 13.006 16.6262 13.6507 15.9705 14.1841C15.3112 14.7229 14.4752 15.1468 13.4837 15.4436C12.4834 15.7439 11.3115 15.8976 9.99835 15.8976H5.426V4.21285Z" transform="translate(343.952 0.395508)" fill="#636466"/>
<path d="M5.45076 18.7097H18.9769V14.5215H5.45076V4.3259H22.153V-1.05285e-08H1.31608e-05V33.5279H22.1512L22.1795 29.202H5.45076V18.7097Z" transform="translate(374.327 0.396484)" fill="#636466"/>
<path d="M19.447 -1.05285e-08H14.1889L-6.47252e-07 33.5279H4.1888C4.68191 33.5279 5.10432 33.3937 5.44544 33.127C5.77418 32.8708 6.00219 32.5705 6.11354 32.2491L9.27016 24.5493H24.3446L27.5012 32.2508C27.6514 32.6112 27.8865 32.9132 28.194 33.1517C28.5192 33.4008 28.9417 33.5279 29.4489 33.5279H33.6377L19.5425 0.222566L19.447 -1.05285e-08ZM16.8171 5.88916C16.8683 6.0499 16.9196 6.20711 16.9709 6.35902C17.1529 6.89247 17.3226 7.36057 17.4852 7.76507L22.7451 20.6368H10.8644L16.1207 7.79333C16.3558 7.25282 16.5873 6.61515 16.8171 5.88916Z" transform="translate(408.646 0.396484)" fill="#636466"/>
<path d="M20.6453 2.85979C19.5407 1.9448 18.1374 1.23118 16.4742 0.738353C14.8217 0.249062 12.8545 1.22131e-08 10.6293 1.22131e-08H1.01403e-05V33.5279H5.42778V21.2515H10.6293C12.7608 21.2515 14.6714 20.9865 16.3116 20.4654C17.9606 19.9408 19.3675 19.1954 20.4898 18.2522C21.6157 17.3071 22.4852 16.1625 23.072 14.8501C23.6535 13.5465 23.9487 12.0892 23.9487 10.5206C23.9487 8.94149 23.6747 7.48775 23.1356 6.20004C22.5895 4.90528 21.7517 3.78008 20.6453 2.85979ZM10.6275 17.0192H5.426V4.21285H10.6275C13.2981 4.21285 15.3059 4.77456 16.5926 5.88386C17.8705 6.98432 18.5191 8.54582 18.5191 10.5242C18.5191 11.4816 18.3494 12.3701 18.0119 13.1649C17.6796 13.9492 17.1777 14.6346 16.5202 15.1981C15.8556 15.7668 15.0267 16.2173 14.0546 16.5352C13.0736 16.8567 11.9195 17.0192 10.6275 17.0192Z" transform="translate(445.938 0.395508)" fill="#636466"/>
<path d="M23.1356 6.20181C22.5895 4.90351 21.7517 3.77832 20.6453 2.85979C19.546 1.9448 18.1409 1.23118 16.4742 0.738353C14.8217 0.249062 12.8563 -1.05285e-08 10.6293 -1.05285e-08H-2.15751e-06V33.5279H5.4278V21.2515H10.6293C12.7608 21.2515 14.6732 20.9865 16.3116 20.4654C17.9606 19.9408 19.3657 19.1972 20.4898 18.2522C21.6192 17.3036 22.4852 16.159 23.0703 14.8501C23.6535 13.5447 23.9486 12.0874 23.9486 10.5206C23.9504 8.94502 23.6765 7.48951 23.1356 6.20181ZM10.6311 17.0174H5.42952V4.21108H10.6311C13.3017 4.21108 15.3077 4.7728 16.5979 5.88209C17.8758 6.98432 18.5244 8.54582 18.5244 10.5224C18.5244 11.4763 18.3548 12.3648 18.0172 13.1632C17.6849 13.9492 17.183 14.6328 16.5273 15.1963C15.8627 15.7651 15.0337 16.2155 14.0599 16.5335C13.0772 16.8549 11.9231 17.0174 10.6311 17.0174Z" transform="translate(475.05 0.396484)" fill="#636466"/>
</svg>
