<svg width="98" height="33" viewBox="0 0 98 33" fill="none" xmlns="http://www.w3.org/2000/svg">
  <path d="M97.9985 28.0434C97.9985 30.4637 96.0586 32.4252 93.6667 32.4252H4.33182C1.93993 32.4252 0 30.4622 0 28.0434V4.38187C0 1.96152 1.93993 0 4.33182 0H93.6682C96.0601 0 98 1.96152 98 4.38187V28.0434H97.9985Z" fill="black"/>
  <path d="M-2.57497e-07 -5.66435e-09V10.9792V21.9583L10.9469 10.9792L-2.57497e-07 -5.66435e-09Z" transform="translate(7.35028 6.24219)" fill="url(#paint0_linear)"/>
  <path d="M13.8876 8.11039L9.46924 5.52968L-2.57497e-07 1.41609e-07V0.0801833L10.9469 11.0594L13.8876 8.11039Z" transform="translate(7.35031 6.16211)" fill="url(#paint1_linear)"/>
  <path d="M-2.57497e-07 10.9792V11.0594L9.46924 5.52968L13.8876 2.94896L10.9469 -6.34407e-07L-2.57497e-07 10.9792Z" transform="translate(7.35028 17.2207)" fill="url(#paint2_linear)"/>
  <path d="M2.9407 6.91051e-07L-2.01519e-07 2.94896L2.9407 5.89792L7.99009 2.94896L2.9407 6.91051e-07Z" transform="translate(18.2972 14.2715)" fill="url(#paint3_linear)"/>
  <path d="M2.9363 6.61809C2.52542 6.61809 2.14977 6.54087 1.81079 6.38793C1.47035 6.23499 1.18567 5.9989 0.95529 5.67965H0.88632C0.93181 6.05235 0.95529 6.40575 0.95529 6.73985V9.36808H-6.26948e-07V0.11582H0.777729L0.909797 0.990412H0.95529C1.20182 0.639982 1.48796 0.389037 1.81373 0.233126C2.13949 0.0772137 2.51515 -6.1175e-07 2.9363 -6.1175e-07C3.7742 -6.1175e-07 4.41986 0.28955 4.87476 0.868651C5.32966 1.44775 5.55711 2.25998 5.55711 3.30385C5.55711 4.35217 5.32526 5.16737 4.86302 5.74795C4.40078 6.32705 3.75805 6.61809 2.9363 6.61809ZM2.79837 0.819651C2.1527 0.819651 1.68606 1.00081 1.39845 1.36163C1.11083 1.72246 0.962627 2.29859 0.95529 3.08706V3.30236C0.95529 4.19923 1.1035 4.84218 1.39845 5.22825C1.69487 5.61431 2.16884 5.80735 2.82038 5.80735C3.36626 5.80735 3.79328 5.58461 4.1029 5.13767C4.41253 4.69072 4.5666 4.07598 4.5666 3.29048C4.5666 2.49459 4.41253 1.88282 4.1029 1.45815C3.79474 1.03347 3.35892 0.819651 2.79837 0.819651Z" transform="translate(73.3312 14.8945)" fill="#F9F9F9"/>
  <path d="M0.956758 9.06516H8.50858e-07V4.53148e-07H0.956758V9.06516Z" transform="translate(80.1459 12.3301)" fill="#F9F9F9"/>
  <path d="M4.35529 6.49187L4.16453 5.58313H4.11904C3.80355 5.98405 3.48952 6.25429 3.17696 6.39536C2.8644 6.53791 2.4726 6.60769 2.00449 6.60769C1.3779 6.60769 0.887787 6.44436 0.532672 6.11769C0.177557 5.79101 1.29868e-06 5.32773 1.29868e-06 4.72487C1.29868e-06 3.436 1.01986 2.7589 3.0581 2.69653L4.12931 2.6609V2.26443C4.12931 1.76255 4.02219 1.39281 3.80942 1.15523C3.59664 0.916168 3.25473 0.797378 2.78662 0.797378C2.25982 0.797378 1.66552 0.960714 1.00078 1.28739L0.707294 0.547918C1.01839 0.377158 1.35883 0.243519 1.73009 0.145517C2.09988 0.0490004 2.4726 1.58602e-07 2.84532 1.58602e-07C3.59811 1.58602e-07 4.15573 0.169275 4.51818 0.506342C4.88063 0.844894 5.06259 1.38687 5.06259 2.13228V6.49039H4.35529V6.49187ZM2.19526 5.81032C2.78956 5.81032 3.25767 5.6455 3.59811 5.31585C3.93708 4.98621 4.1073 4.52293 4.1073 3.92898V3.35285L3.15055 3.39294C2.39042 3.42115 1.84308 3.53994 1.50557 3.75228C1.16953 3.96313 1.00225 4.29277 1.00225 4.73972C1.00225 5.08867 1.10643 5.35595 1.31627 5.5371C1.52611 5.71974 1.8196 5.81032 2.19526 5.81032Z" transform="translate(82.2443 14.9033)" fill="#F9F9F9"/>
  <path d="M-8.06076e-07 -5.09791e-07H1.02426L2.40656 3.6424C2.71032 4.47393 2.89815 5.07382 2.97152 5.44355H3.01701C3.0669 5.24458 3.17109 4.90603 3.33104 4.42641C3.49099 3.9468 4.01192 2.47232 4.89531 0.00148497H5.92103L3.20778 7.27292C2.93924 7.9916 2.62521 8.50091 2.26569 8.80234C1.90617 9.10377 1.46595 9.25374 0.943551 9.25374C0.651535 9.25374 0.36392 9.22107 0.079241 9.15425V8.37915C0.290549 8.42518 0.5268 8.44894 0.788001 8.44894C1.4454 8.44894 1.91351 8.07624 2.19379 7.32934L2.5445 6.4206L-8.06076e-07 -5.09791e-07Z" transform="translate(87.863 15.0107)" fill="#F9F9F9"/>
  <path d="M4.92612 0.479614C5.22988 0.733528 5.8638 1.26808 5.8638 2.28374C5.8638 3.27118 5.30912 3.7404 4.75443 4.17992C4.58274 4.35365 4.38464 4.54075 4.38464 4.83475C4.38464 5.12727 4.58275 5.28913 4.72802 5.4094L5.20346 5.7821C5.78456 6.27657 6.31136 6.73094 6.31136 7.65305C6.31136 8.90777 5.10955 10.1773 2.83945 10.1773C0.924472 10.1773 2.10476e-06 9.25671 2.10476e-06 8.2663C2.10476e-06 7.7852 0.236252 7.10513 1.01692 6.63739C1.83427 6.12957 2.94511 6.06423 3.53941 6.02265C3.35452 5.7821 3.14321 5.52819 3.14321 5.11539C3.14321 4.88821 3.20924 4.75457 3.27528 4.5942C3.13 4.60757 2.98473 4.62093 2.85266 4.62093C1.45275 4.62093 0.660335 3.56518 0.660335 2.52429C0.660335 1.90955 0.937678 1.22799 1.50557 0.735013C2.25835 0.106911 3.15641 -1.92588e-07 3.86958 -1.92588e-07H6.5887L5.74347 0.4811H4.92612V0.479614ZM3.98844 6.41021C3.88279 6.39684 3.81675 6.39684 3.68468 6.39684C3.56582 6.39684 2.85119 6.42357 2.29798 6.61215C2.00743 6.71758 1.1622 7.03831 1.1622 7.98714C1.1622 8.93449 2.07346 9.61754 3.48659 9.61754C4.75297 9.61754 5.42798 9.00131 5.42798 8.17424C5.42798 7.4912 4.99215 7.13186 3.98844 6.41021ZM4.37144 3.87255C4.67519 3.56518 4.70014 3.13754 4.70014 2.89699C4.70014 1.93628 4.13225 0.439524 3.03756 0.439524C2.69418 0.439524 2.32439 0.613254 2.11308 0.880531C1.88857 1.16117 1.82253 1.52051 1.82253 1.86946C1.82253 2.76484 2.33759 4.24674 3.47337 4.24674C3.80354 4.24674 4.16013 4.08638 4.37144 3.87255Z" transform="translate(53.6283 15.124)" fill="#F9F9F9"/>
  <path d="M3.21658 6.38793C1.12111 6.38793 2.10476e-06 4.73378 2.10476e-06 3.24C2.10476e-06 1.4923 1.41019 2.37903e-07 3.41468 2.37903e-07C5.35167 2.37903e-07 6.56523 1.53239 6.56523 3.14645C6.56523 4.72042 5.36634 6.38793 3.21658 6.38793ZM4.86449 5.30843C5.18145 4.88078 5.26069 4.34771 5.26069 3.82801C5.26069 2.65347 4.70747 0.414281 3.07277 0.414281C2.63842 0.414281 2.20259 0.588011 1.8871 0.868652C1.3735 1.3349 1.27959 1.92143 1.27959 2.49608C1.27959 3.81464 1.92525 5.9885 3.5218 5.9885C4.03393 5.98702 4.56073 5.73459 4.86449 5.30843Z" transform="translate(47.0249 14.9326)" fill="#F9F9F9"/>
  <path d="M3.21658 6.38793C1.11964 6.38793 8.7325e-07 4.73378 8.7325e-07 3.24C8.7325e-07 1.4923 1.41166 2.37903e-07 3.41468 2.37903e-07C5.35167 2.37903e-07 6.56523 1.53239 6.56523 3.14645C6.56523 4.72042 5.36635 6.38793 3.21658 6.38793ZM4.86449 5.30843C5.18145 4.88078 5.26069 4.34771 5.26069 3.82801C5.26069 2.65347 4.70601 0.414281 3.0713 0.414281C2.63695 0.414281 2.20113 0.588011 1.88563 0.868652C1.37204 1.3349 1.27959 1.92143 1.27959 2.49608C1.27959 3.81464 1.92525 5.9885 3.5218 5.9885C4.0354 5.98702 4.5622 5.73459 4.86449 5.30843Z" transform="translate(39.8785 14.9326)" fill="#F9F9F9"/>
  <path d="M9.13174 9.19732L7.23584 9.63981C6.46691 9.76008 5.77722 9.86699 5.04938 9.86699C1.39111 9.86699 2.91083e-07 7.14522 2.91083e-07 5.01294C2.91083e-07 2.41292 1.97514 -5.66435e-07 5.35461 -5.66435e-07C6.07071 -5.66435e-07 6.75892 0.106911 7.38258 0.282126C8.37602 0.564253 8.84119 0.911713 9.13174 1.11366L8.03117 2.17237L7.56747 2.27928L7.89911 1.74324C7.44861 1.29927 6.62539 0.482585 5.06259 0.482585C2.96858 0.482585 1.39111 2.09219 1.39111 4.43829C1.39111 6.95812 3.19457 9.33095 6.08245 9.33095C6.93208 9.33095 7.3679 9.15722 7.76557 8.99537V6.83785L5.76402 6.94476L6.82349 6.36714H9.6336L9.28875 6.70273C9.19484 6.78291 9.1831 6.81112 9.15522 6.91655C9.14201 7.03682 9.12881 7.42734 9.12881 7.56098V9.19732H9.13174Z" transform="translate(29.7402 11.915)" fill="#F9F9F9"/>
  <path d="M2.81597 9.10971C2.37868 9.06962 2.28624 8.98943 2.28624 8.46527V8.31827V0.877561C2.28917 0.849349 2.29064 0.819652 2.29357 0.791439C2.3464 0.322218 2.47993 0.242034 2.89081 -1.75595e-07H0.994907L1.02999e-06 0.482585H1.01398V0.488524L1.01252 0.484069V8.31827V8.76076C1.01252 9.02804 0.959691 9.06962 0.654468 9.47053H3.00087L3.49098 9.17653C3.26794 9.14832 3.04196 9.13644 2.81597 9.10971Z" transform="translate(59.9279 11.6172)" fill="#F9F9F9"/>
  <path d="M4.80285 5.91277C4.65905 5.99296 4.51378 6.0865 4.36997 6.15184C3.93415 6.35081 3.48805 6.40427 3.09185 6.40427C2.67216 6.40427 2.0133 6.37754 1.34122 5.88456C0.407944 5.21785 -2.2391e-07 4.07301 -2.2391e-07 3.07518C-2.2391e-07 1.0112 1.65818 6.23078e-07 3.01408 6.23078e-07C3.48805 6.23078e-07 3.97523 0.120275 4.36997 0.372703C5.02737 0.810742 5.19906 1.3839 5.29004 1.68979L2.19819 2.9549L1.1842 3.03509C1.51291 4.72636 2.64428 5.71083 3.89599 5.71083C4.5666 5.71083 5.05379 5.47177 5.50135 5.24607L4.80285 5.91277ZM3.56729 1.9437C3.81675 1.85016 3.94882 1.77146 3.94882 1.58436C3.94882 1.05278 3.35745 0.439523 2.64576 0.439523C2.11895 0.439523 1.13138 0.852319 1.13138 2.28968C1.13138 2.51538 1.15779 2.75593 1.171 2.99648L3.56729 1.9437Z" transform="translate(63.3338 14.9375)" fill="#F9F9F9"/>
  <path d="M0.393268 0.090577V0.969623H0.287616V0.090577H-2.59736e-06V-1.92588e-07H0.679414V0.090577H0.393268Z" transform="translate(69.0141 14.9385)" fill="#F9F9F9"/>
  <path d="M0.721968 0.969624V0.0831533H0.717568L0.450499 0.969624H0.368324L0.0983166 0.0831533H0.0953834V0.969624H-2.32867e-06V6.23078e-07H0.164353L0.40794 0.784015H0.410878L0.651531 6.23078e-07H0.817354V0.969624H0.721968Z" transform="translate(69.8696 14.9375)" fill="#F9F9F9"/>
  <path d="M2.61053 2.7099H1.95167C1.95167 2.61784 1.88857 2.35947 1.76384 1.93182H0.812948C0.683815 2.35204 0.619249 2.6119 0.619249 2.7099H2.01519e-07C2.01519e-07 2.65644 0.159947 2.21098 0.481312 1.37796C0.801209 0.543464 0.962626 0.0846378 0.962626 -1.3028e-07H1.74036C1.74036 0.0786983 1.88563 0.531585 2.17618 1.35866C2.46526 2.18425 2.61053 2.63417 2.61053 2.7099ZM1.65965 1.53388C1.42486 0.818166 1.30747 0.430614 1.30747 0.372703H1.27519C1.27519 0.426159 1.15339 0.813711 0.911267 1.53388H1.65965Z" transform="translate(29.7607 6.59668)" fill="#F9F9FA"/>
  <path d="M2.207 2.71287H1.69927C1.69927 2.65644 1.50997 2.35501 1.13284 1.81155C0.73811 1.23839 0.512129 0.846379 0.457834 0.635527H0.425552C0.459303 0.939926 0.476911 1.21463 0.476911 1.45963C0.476911 1.80264 0.487181 2.21989 0.506258 2.71287H-3.35865e-07C0.0205435 2.28225 0.0308153 1.81006 0.0308153 1.29481C0.0308153 0.788468 0.0205435 0.357855 -3.35865e-07 0.00148485H0.611912C0.611912 0.0757286 0.780666 0.368249 1.11964 0.882016C1.48062 1.42696 1.68753 1.7967 1.74182 1.99122H1.77264C1.74036 1.68236 1.72275 1.40469 1.72275 1.1582C1.72275 0.782529 1.71247 0.396462 1.6934 8.49652e-08H2.20846C2.18939 0.344491 2.17912 0.775105 2.17912 1.29333C2.17765 1.816 2.18792 2.28968 2.207 2.71287Z" transform="translate(32.8188 6.59375)" fill="#F9F9FA"/>
  <path d="M2.26276 1.27551C2.26276 1.669 2.13803 2.01349 1.88857 2.3075C1.6391 2.6015 1.28839 2.7485 0.839361 2.7485C0.636858 2.7485 0.356583 2.73959 8.9564e-07 2.72326C0.0176099 2.30453 0.0264139 1.83085 0.0264139 1.30521C0.0264139 0.800348 0.0176099 0.369734 8.9564e-07 0.0118791H0.359517C0.418213 0.0118791 0.506259 0.0103939 0.623652 0.00593931C0.739578 0.00148468 0.815884 2.37903e-07 0.852569 2.37903e-07C1.34856 2.37903e-07 1.70661 0.12473 1.92965 0.374189C2.15123 0.625133 2.26276 0.925077 2.26276 1.27551ZM1.70074 1.3646C1.70074 1.09881 1.62443 0.873106 1.47035 0.690467C1.31627 0.507827 1.08149 0.41725 0.765992 0.41725C0.707295 0.41725 0.626586 0.423189 0.523867 0.436553C0.537073 0.714225 0.544413 1.00378 0.544413 1.30669C0.544413 1.63782 0.55175 1.96746 0.564957 2.29413C0.654469 2.31195 0.743981 2.32086 0.832026 2.32086C1.12698 2.32086 1.34562 2.2288 1.48796 2.04319C1.62883 1.85758 1.70074 1.63188 1.70074 1.3646Z" transform="translate(35.7463 6.58008)" fill="#F9F9FA"/>
  <path d="M2.17031 2.72326H1.56133C1.40138 2.23177 1.27959 1.92885 1.19448 1.81303C1.10937 1.69721 0.972898 1.64079 0.782133 1.64079C0.702893 1.64079 0.626587 1.64227 0.553216 1.64227C0.553216 1.99864 0.559087 2.35947 0.572293 2.72326H1.29868e-06C0.0176103 2.30453 0.0264143 1.83085 0.0264143 1.3052C0.0264143 0.800347 0.0176103 0.369734 1.29868e-06 0.011879H0.356584C0.397671 0.011879 0.484247 0.0103938 0.614847 0.0059392C0.745448 0.00148457 0.867245 1.3028e-07 0.978769 1.3028e-07C1.60829 1.3028e-07 1.92378 0.218277 1.92378 0.653345C1.92378 0.999321 1.74329 1.23987 1.38524 1.37648V1.40766C1.52318 1.44627 1.64498 1.55615 1.74916 1.73582C1.85335 1.914 1.99422 2.24365 2.17031 2.72326ZM1.39845 0.807772C1.39845 0.531586 1.22236 0.393492 0.871647 0.393492C0.742514 0.393492 0.628056 0.402401 0.529739 0.423189C0.544413 0.638496 0.55175 0.919138 0.55175 1.26363C0.626588 1.2666 0.691153 1.26808 0.742513 1.26808C1.18127 1.26808 1.39845 1.11366 1.39845 0.807772Z" transform="translate(38.5887 6.58301)" fill="#F9F9FA"/>
  <path d="M2.62081 1.36757C2.62081 1.79373 2.49168 2.14713 2.23341 2.42777C1.97514 2.70841 1.65671 2.84799 1.27665 2.84799C0.914202 2.84799 0.610445 2.71881 0.366854 2.46192C0.123262 2.20504 -8.06076e-07 1.87688 -8.06076e-07 1.48042C-8.06076e-07 1.05426 0.129132 0.700861 0.387397 0.42022C0.645663 0.139579 0.964093 2.49231e-07 1.34415 2.49231e-07C1.70661 2.49231e-07 2.0089 0.127699 2.25395 0.384583C2.49755 0.642951 2.62081 0.969624 2.62081 1.36757ZM2.05292 1.42845C2.05292 1.1389 1.97955 0.902804 1.8328 0.723134C1.68606 0.543465 1.5041 0.452887 1.28986 0.452887C1.08882 0.452887 0.92007 0.543464 0.779198 0.726104C0.639793 0.907259 0.569358 1.13741 0.569358 1.41509C0.569358 1.70315 0.64273 1.93925 0.790939 2.1204C0.937681 2.30156 1.11964 2.39213 1.33388 2.39213C1.53345 2.39213 1.70367 2.30156 1.84454 2.11892C1.98248 1.93331 2.05292 1.70464 2.05292 1.42845Z" transform="translate(41.0892 6.53223)" fill="#F9F9FA"/>
  <path d="M0.582565 2.71138H8.28467e-07C0.0176098 2.28077 0.0264138 1.80858 0.0264138 1.29333C0.0264138 0.786984 0.0176098 0.35637 8.28467e-07 -2.26574e-08H0.582565C0.564956 0.350431 0.556152 0.781044 0.556152 1.29333C0.556152 1.816 0.564956 2.28968 0.582565 2.71138Z" transform="translate(44.291 6.59473)" fill="#F9F9FA"/>
  <path d="M2.26276 1.27551C2.26276 1.669 2.13803 2.01349 1.88857 2.3075C1.63911 2.6015 1.28839 2.7485 0.839362 2.7485C0.636859 2.7485 0.356581 2.73959 -1.2539e-06 2.72326C0.0176078 2.30453 0.0264145 1.83085 0.0264145 1.30521C0.0264145 0.800348 0.0176078 0.369734 -1.2539e-06 0.0118791H0.359517C0.418214 0.0118791 0.506259 0.0103939 0.623653 0.00593931C0.739579 0.00148468 0.815885 2.37903e-07 0.85257 2.37903e-07C1.34856 2.37903e-07 1.70661 0.12473 1.92966 0.374189C2.15124 0.625133 2.26276 0.925077 2.26276 1.27551ZM1.70074 1.3646C1.70074 1.09881 1.62443 0.873106 1.47035 0.690467C1.31628 0.507827 1.08149 0.41725 0.765992 0.41725C0.707296 0.41725 0.626587 0.423189 0.522401 0.436553C0.535607 0.714225 0.542944 1.00378 0.542944 1.30669C0.542944 1.63782 0.550281 1.96746 0.563488 2.29413C0.653001 2.31195 0.742512 2.32086 0.830557 2.32086C1.12551 2.32086 1.34415 2.2288 1.48649 2.04319C1.62883 1.85758 1.70074 1.63188 1.70074 1.3646Z" transform="translate(45.5941 6.58008)" fill="#F9F9FA"/>
  <path d="M2.61054 2.7099H1.95167C1.95167 2.61784 1.88857 2.35947 1.76384 1.93182H0.812948C0.683815 2.35204 0.619249 2.6119 0.619249 2.7099H-2.59736e-06C-2.59736e-06 2.65644 0.159951 2.21098 0.479848 1.37796C0.799745 0.543464 0.959693 0.0846378 0.959693 -1.3028e-07H1.73742C1.73742 0.0786983 1.8827 0.531585 2.17325 1.35866C2.46526 2.18425 2.61054 2.63417 2.61054 2.7099ZM1.65965 1.53388C1.42486 0.818166 1.30747 0.430614 1.30747 0.372703H1.27519C1.27519 0.426159 1.15339 0.813711 0.911267 1.53388H1.65965Z" transform="translate(49.204 6.59668)" fill="#F9F9FA"/>
  <path d="M1.95607 0.723134C1.95607 1.05426 1.83427 1.29927 1.59068 1.45815C1.34709 1.61703 1.04773 1.69573 0.694086 1.69573C0.62952 1.69573 0.584033 1.69424 0.556152 1.69127C0.556152 1.95261 0.563488 2.29562 0.578162 2.72326H-1.52259e-06C0.0176075 2.32234 0.0264143 1.85015 0.0264143 1.30521C0.0264143 0.806287 0.0176075 0.374189 -1.52259e-06 0.0118791H0.358048C0.409407 0.0118791 0.506259 0.0103939 0.650065 0.00593931C0.793872 0.00148468 0.918604 2.37903e-07 1.02426 2.37903e-07C1.28546 2.37903e-07 1.50557 0.059395 1.6846 0.17967C1.86656 0.299945 1.95607 0.4811 1.95607 0.723134ZM1.42486 0.837469C1.42486 0.540494 1.2297 0.392007 0.840831 0.392007C0.743982 0.392007 0.639796 0.402401 0.532675 0.423189C0.547349 0.686012 0.554685 0.982987 0.554685 1.31411C0.588436 1.31708 0.62952 1.31857 0.673542 1.31857C1.17393 1.31857 1.42486 1.1582 1.42486 0.837469Z" transform="translate(52.2591 6.58008)" fill="#F9F9FA"/>
  <path d="M1.95606 0.723134C1.95606 1.05426 1.83427 1.29927 1.59068 1.45815C1.34709 1.61703 1.04774 1.69573 0.694091 1.69573C0.629524 1.69573 0.584032 1.69424 0.556151 1.69127C0.556151 1.95261 0.563487 2.29562 0.578161 2.72326H-2.68692e-06C0.0176063 2.32234 0.0264131 1.85015 0.0264131 1.30521C0.0264131 0.806287 0.0176063 0.374189 -2.68692e-06 0.0118791H0.358052C0.409412 0.0118791 0.506257 0.0103939 0.650064 0.00593931C0.793871 0.00148468 0.918603 2.37903e-07 1.02426 2.37903e-07C1.28546 2.37903e-07 1.50557 0.059395 1.6846 0.17967C1.86656 0.299945 1.95606 0.4811 1.95606 0.723134ZM1.42486 0.837469C1.42486 0.540494 1.2297 0.392007 0.84083 0.392007C0.743981 0.392007 0.639795 0.402401 0.532674 0.423189C0.547348 0.686012 0.554684 0.982987 0.554684 1.31411C0.588435 1.31708 0.628057 1.31857 0.673547 1.31857C1.1754 1.31857 1.42486 1.1582 1.42486 0.837469Z" transform="translate(54.7273 6.58008)" fill="#F9F9FA"/>
  <path d="M2.62081 1.36757C2.62081 1.79373 2.49167 2.14713 2.23341 2.42777C1.97514 2.70841 1.65672 2.84799 1.27666 2.84799C0.914204 2.84799 0.610444 2.71881 0.366853 2.46192C0.123262 2.20504 -1.38824e-06 1.87688 -1.38824e-06 1.48042C-1.38824e-06 1.05426 0.129131 0.700861 0.387397 0.42022C0.645662 0.139579 0.964092 2.49231e-07 1.34415 2.49231e-07C1.70661 2.49231e-07 2.01036 0.127699 2.25395 0.384583C2.49901 0.642951 2.62081 0.969624 2.62081 1.36757ZM2.05292 1.42845C2.05292 1.1389 1.97955 0.902804 1.8328 0.723134C1.68606 0.543465 1.5041 0.452887 1.28986 0.452887C1.08882 0.452887 0.920072 0.543464 0.7792 0.726104C0.639796 0.907259 0.569357 1.13593 0.569357 1.4136C0.569357 1.70167 0.64273 1.93776 0.790939 2.11892C0.937681 2.30007 1.11964 2.39065 1.33388 2.39065C1.53492 2.39065 1.70367 2.30007 1.84454 2.11743C1.98395 1.93331 2.05292 1.70464 2.05292 1.42845Z" transform="translate(58.0981 6.53223)" fill="#F9F9FA"/>
  <path d="M2.20699 2.71287H1.69927C1.69927 2.65644 1.50997 2.35501 1.13285 1.81155C0.738111 1.23839 0.51213 0.846379 0.457836 0.635527H0.425554C0.459304 0.939926 0.476913 1.21463 0.476913 1.45963C0.476913 1.80264 0.48718 2.21989 0.506257 2.71287H1.43302e-06C0.0205453 2.28225 0.0308171 1.81006 0.0308171 1.29481C0.0308171 0.788468 0.0205453 0.357855 1.43302e-06 0.00148485H0.611914C0.611914 0.0757286 0.782136 0.368249 1.11964 0.882016C1.48063 1.42696 1.68753 1.7967 1.74183 1.99122H1.77264C1.74036 1.68236 1.72275 1.40469 1.72275 1.1582C1.72275 0.782529 1.71248 0.396462 1.6934 8.49652e-08H2.20846C2.18938 0.344491 2.17912 0.775105 2.17912 1.29333C2.17765 1.816 2.18645 2.28968 2.20699 2.71287Z" transform="translate(61.3028 6.59375)" fill="#F9F9FA"/>
  <defs>
    <linearGradient id="paint0_linear" x2="1" gradientUnits="userSpaceOnUse" gradientTransform="translate(16.3238 0.000148488) scale(21.7 21.9582) rotate(90)">
      <stop stop-color="#257CB0"/>
      <stop offset="0.2863" stop-color="#4A93B5"/>
      <stop offset="0.767" stop-color="#78BCBB"/>
      <stop offset="1" stop-color="#89CFBD"/>
    </linearGradient>
    <linearGradient id="paint1_linear" x2="1" gradientUnits="userSpaceOnUse" gradientTransform="translate(0.000440225 -1.49609) scale(13.8869 14.0521)">
      <stop stop-color="#52C1AD"/>
      <stop offset="1" stop-color="#DEE89A"/>
    </linearGradient>
    <linearGradient id="paint2_linear" x2="1" gradientUnits="userSpaceOnUse" gradientTransform="translate(12.4082 0.000296975) scale(10.9287 11.0588) rotate(90)">
      <stop stop-color="#EC413D"/>
      <stop offset="0.1668" stop-color="#DA4452"/>
      <stop offset="0.5748" stop-color="#B0487A"/>
      <stop offset="0.8619" stop-color="#954A92"/>
      <stop offset="1" stop-color="#8A4A9D"/>
    </linearGradient>
    <linearGradient id="paint3_linear" x2="1" gradientUnits="userSpaceOnUse" gradientTransform="translate(6.90934 0.000148488) scale(5.82829 5.89763) rotate(90)">
      <stop stop-color="#F58879"/>
      <stop offset="0.1194" stop-color="#F69079"/>
      <stop offset="0.7128" stop-color="#FCB877"/>
      <stop offset="1" stop-color="#FEC874"/>
    </linearGradient>
  </defs>
</svg><svg width="98" height="33" viewBox="0 0 98 33" fill="none" xmlns="http://www.w3.org/2000/svg">
<path d="M97.9985 28.0434C97.9985 30.4637 96.0586 32.4252 93.6667 32.4252H4.33182C1.93993 32.4252 0 30.4622 0 28.0434V4.38187C0 1.96152 1.93993 0 4.33182 0H93.6682C96.0601 0 98 1.96152 98 4.38187V28.0434H97.9985Z" fill="black"/>
<path d="M-2.57497e-07 -5.66435e-09V10.9792V21.9583L10.9469 10.9792L-2.57497e-07 -5.66435e-09Z" transform="translate(7.35028 6.24219)" fill="url(#paint0_linear)"/>
<path d="M13.8876 8.11039L9.46924 5.52968L-2.57497e-07 1.41609e-07V0.0801833L10.9469 11.0594L13.8876 8.11039Z" transform="translate(7.35031 6.16211)" fill="url(#paint1_linear)"/>
<path d="M-2.57497e-07 10.9792V11.0594L9.46924 5.52968L13.8876 2.94896L10.9469 -6.34407e-07L-2.57497e-07 10.9792Z" transform="translate(7.35028 17.2207)" fill="url(#paint2_linear)"/>
<path d="M2.9407 6.91051e-07L-2.01519e-07 2.94896L2.9407 5.89792L7.99009 2.94896L2.9407 6.91051e-07Z" transform="translate(18.2972 14.2715)" fill="url(#paint3_linear)"/>
<path d="M2.9363 6.61809C2.52542 6.61809 2.14977 6.54087 1.81079 6.38793C1.47035 6.23499 1.18567 5.9989 0.95529 5.67965H0.88632C0.93181 6.05235 0.95529 6.40575 0.95529 6.73985V9.36808H-6.26948e-07V0.11582H0.777729L0.909797 0.990412H0.95529C1.20182 0.639982 1.48796 0.389037 1.81373 0.233126C2.13949 0.0772137 2.51515 -6.1175e-07 2.9363 -6.1175e-07C3.7742 -6.1175e-07 4.41986 0.28955 4.87476 0.868651C5.32966 1.44775 5.55711 2.25998 5.55711 3.30385C5.55711 4.35217 5.32526 5.16737 4.86302 5.74795C4.40078 6.32705 3.75805 6.61809 2.9363 6.61809ZM2.79837 0.819651C2.1527 0.819651 1.68606 1.00081 1.39845 1.36163C1.11083 1.72246 0.962627 2.29859 0.95529 3.08706V3.30236C0.95529 4.19923 1.1035 4.84218 1.39845 5.22825C1.69487 5.61431 2.16884 5.80735 2.82038 5.80735C3.36626 5.80735 3.79328 5.58461 4.1029 5.13767C4.41253 4.69072 4.5666 4.07598 4.5666 3.29048C4.5666 2.49459 4.41253 1.88282 4.1029 1.45815C3.79474 1.03347 3.35892 0.819651 2.79837 0.819651Z" transform="translate(73.3312 14.8945)" fill="#F9F9F9"/>
<path d="M0.956758 9.06516H8.50858e-07V4.53148e-07H0.956758V9.06516Z" transform="translate(80.1459 12.3301)" fill="#F9F9F9"/>
<path d="M4.35529 6.49187L4.16453 5.58313H4.11904C3.80355 5.98405 3.48952 6.25429 3.17696 6.39536C2.8644 6.53791 2.4726 6.60769 2.00449 6.60769C1.3779 6.60769 0.887787 6.44436 0.532672 6.11769C0.177557 5.79101 1.29868e-06 5.32773 1.29868e-06 4.72487C1.29868e-06 3.436 1.01986 2.7589 3.0581 2.69653L4.12931 2.6609V2.26443C4.12931 1.76255 4.02219 1.39281 3.80942 1.15523C3.59664 0.916168 3.25473 0.797378 2.78662 0.797378C2.25982 0.797378 1.66552 0.960714 1.00078 1.28739L0.707294 0.547918C1.01839 0.377158 1.35883 0.243519 1.73009 0.145517C2.09988 0.0490004 2.4726 1.58602e-07 2.84532 1.58602e-07C3.59811 1.58602e-07 4.15573 0.169275 4.51818 0.506342C4.88063 0.844894 5.06259 1.38687 5.06259 2.13228V6.49039H4.35529V6.49187ZM2.19526 5.81032C2.78956 5.81032 3.25767 5.6455 3.59811 5.31585C3.93708 4.98621 4.1073 4.52293 4.1073 3.92898V3.35285L3.15055 3.39294C2.39042 3.42115 1.84308 3.53994 1.50557 3.75228C1.16953 3.96313 1.00225 4.29277 1.00225 4.73972C1.00225 5.08867 1.10643 5.35595 1.31627 5.5371C1.52611 5.71974 1.8196 5.81032 2.19526 5.81032Z" transform="translate(82.2443 14.9033)" fill="#F9F9F9"/>
<path d="M-8.06076e-07 -5.09791e-07H1.02426L2.40656 3.6424C2.71032 4.47393 2.89815 5.07382 2.97152 5.44355H3.01701C3.0669 5.24458 3.17109 4.90603 3.33104 4.42641C3.49099 3.9468 4.01192 2.47232 4.89531 0.00148497H5.92103L3.20778 7.27292C2.93924 7.9916 2.62521 8.50091 2.26569 8.80234C1.90617 9.10377 1.46595 9.25374 0.943551 9.25374C0.651535 9.25374 0.36392 9.22107 0.079241 9.15425V8.37915C0.290549 8.42518 0.5268 8.44894 0.788001 8.44894C1.4454 8.44894 1.91351 8.07624 2.19379 7.32934L2.5445 6.4206L-8.06076e-07 -5.09791e-07Z" transform="translate(87.863 15.0107)" fill="#F9F9F9"/>
<path d="M4.92612 0.479614C5.22988 0.733528 5.8638 1.26808 5.8638 2.28374C5.8638 3.27118 5.30912 3.7404 4.75443 4.17992C4.58274 4.35365 4.38464 4.54075 4.38464 4.83475C4.38464 5.12727 4.58275 5.28913 4.72802 5.4094L5.20346 5.7821C5.78456 6.27657 6.31136 6.73094 6.31136 7.65305C6.31136 8.90777 5.10955 10.1773 2.83945 10.1773C0.924472 10.1773 2.10476e-06 9.25671 2.10476e-06 8.2663C2.10476e-06 7.7852 0.236252 7.10513 1.01692 6.63739C1.83427 6.12957 2.94511 6.06423 3.53941 6.02265C3.35452 5.7821 3.14321 5.52819 3.14321 5.11539C3.14321 4.88821 3.20924 4.75457 3.27528 4.5942C3.13 4.60757 2.98473 4.62093 2.85266 4.62093C1.45275 4.62093 0.660335 3.56518 0.660335 2.52429C0.660335 1.90955 0.937678 1.22799 1.50557 0.735013C2.25835 0.106911 3.15641 -1.92588e-07 3.86958 -1.92588e-07H6.5887L5.74347 0.4811H4.92612V0.479614ZM3.98844 6.41021C3.88279 6.39684 3.81675 6.39684 3.68468 6.39684C3.56582 6.39684 2.85119 6.42357 2.29798 6.61215C2.00743 6.71758 1.1622 7.03831 1.1622 7.98714C1.1622 8.93449 2.07346 9.61754 3.48659 9.61754C4.75297 9.61754 5.42798 9.00131 5.42798 8.17424C5.42798 7.4912 4.99215 7.13186 3.98844 6.41021ZM4.37144 3.87255C4.67519 3.56518 4.70014 3.13754 4.70014 2.89699C4.70014 1.93628 4.13225 0.439524 3.03756 0.439524C2.69418 0.439524 2.32439 0.613254 2.11308 0.880531C1.88857 1.16117 1.82253 1.52051 1.82253 1.86946C1.82253 2.76484 2.33759 4.24674 3.47337 4.24674C3.80354 4.24674 4.16013 4.08638 4.37144 3.87255Z" transform="translate(53.6283 15.124)" fill="#F9F9F9"/>
<path d="M3.21658 6.38793C1.12111 6.38793 2.10476e-06 4.73378 2.10476e-06 3.24C2.10476e-06 1.4923 1.41019 2.37903e-07 3.41468 2.37903e-07C5.35167 2.37903e-07 6.56523 1.53239 6.56523 3.14645C6.56523 4.72042 5.36634 6.38793 3.21658 6.38793ZM4.86449 5.30843C5.18145 4.88078 5.26069 4.34771 5.26069 3.82801C5.26069 2.65347 4.70747 0.414281 3.07277 0.414281C2.63842 0.414281 2.20259 0.588011 1.8871 0.868652C1.3735 1.3349 1.27959 1.92143 1.27959 2.49608C1.27959 3.81464 1.92525 5.9885 3.5218 5.9885C4.03393 5.98702 4.56073 5.73459 4.86449 5.30843Z" transform="translate(47.0249 14.9326)" fill="#F9F9F9"/>
<path d="M3.21658 6.38793C1.11964 6.38793 8.7325e-07 4.73378 8.7325e-07 3.24C8.7325e-07 1.4923 1.41166 2.37903e-07 3.41468 2.37903e-07C5.35167 2.37903e-07 6.56523 1.53239 6.56523 3.14645C6.56523 4.72042 5.36635 6.38793 3.21658 6.38793ZM4.86449 5.30843C5.18145 4.88078 5.26069 4.34771 5.26069 3.82801C5.26069 2.65347 4.70601 0.414281 3.0713 0.414281C2.63695 0.414281 2.20113 0.588011 1.88563 0.868652C1.37204 1.3349 1.27959 1.92143 1.27959 2.49608C1.27959 3.81464 1.92525 5.9885 3.5218 5.9885C4.0354 5.98702 4.5622 5.73459 4.86449 5.30843Z" transform="translate(39.8785 14.9326)" fill="#F9F9F9"/>
<path d="M9.13174 9.19732L7.23584 9.63981C6.46691 9.76008 5.77722 9.86699 5.04938 9.86699C1.39111 9.86699 2.91083e-07 7.14522 2.91083e-07 5.01294C2.91083e-07 2.41292 1.97514 -5.66435e-07 5.35461 -5.66435e-07C6.07071 -5.66435e-07 6.75892 0.106911 7.38258 0.282126C8.37602 0.564253 8.84119 0.911713 9.13174 1.11366L8.03117 2.17237L7.56747 2.27928L7.89911 1.74324C7.44861 1.29927 6.62539 0.482585 5.06259 0.482585C2.96858 0.482585 1.39111 2.09219 1.39111 4.43829C1.39111 6.95812 3.19457 9.33095 6.08245 9.33095C6.93208 9.33095 7.3679 9.15722 7.76557 8.99537V6.83785L5.76402 6.94476L6.82349 6.36714H9.6336L9.28875 6.70273C9.19484 6.78291 9.1831 6.81112 9.15522 6.91655C9.14201 7.03682 9.12881 7.42734 9.12881 7.56098V9.19732H9.13174Z" transform="translate(29.7402 11.915)" fill="#F9F9F9"/>
<path d="M2.81597 9.10971C2.37868 9.06962 2.28624 8.98943 2.28624 8.46527V8.31827V0.877561C2.28917 0.849349 2.29064 0.819652 2.29357 0.791439C2.3464 0.322218 2.47993 0.242034 2.89081 -1.75595e-07H0.994907L1.02999e-06 0.482585H1.01398V0.488524L1.01252 0.484069V8.31827V8.76076C1.01252 9.02804 0.959691 9.06962 0.654468 9.47053H3.00087L3.49098 9.17653C3.26794 9.14832 3.04196 9.13644 2.81597 9.10971Z" transform="translate(59.9279 11.6172)" fill="#F9F9F9"/>
<path d="M4.80285 5.91277C4.65905 5.99296 4.51378 6.0865 4.36997 6.15184C3.93415 6.35081 3.48805 6.40427 3.09185 6.40427C2.67216 6.40427 2.0133 6.37754 1.34122 5.88456C0.407944 5.21785 -2.2391e-07 4.07301 -2.2391e-07 3.07518C-2.2391e-07 1.0112 1.65818 6.23078e-07 3.01408 6.23078e-07C3.48805 6.23078e-07 3.97523 0.120275 4.36997 0.372703C5.02737 0.810742 5.19906 1.3839 5.29004 1.68979L2.19819 2.9549L1.1842 3.03509C1.51291 4.72636 2.64428 5.71083 3.89599 5.71083C4.5666 5.71083 5.05379 5.47177 5.50135 5.24607L4.80285 5.91277ZM3.56729 1.9437C3.81675 1.85016 3.94882 1.77146 3.94882 1.58436C3.94882 1.05278 3.35745 0.439523 2.64576 0.439523C2.11895 0.439523 1.13138 0.852319 1.13138 2.28968C1.13138 2.51538 1.15779 2.75593 1.171 2.99648L3.56729 1.9437Z" transform="translate(63.3338 14.9375)" fill="#F9F9F9"/>
<path d="M0.393268 0.090577V0.969623H0.287616V0.090577H-2.59736e-06V-1.92588e-07H0.679414V0.090577H0.393268Z" transform="translate(69.0141 14.9385)" fill="#F9F9F9"/>
<path d="M0.721968 0.969624V0.0831533H0.717568L0.450499 0.969624H0.368324L0.0983166 0.0831533H0.0953834V0.969624H-2.32867e-06V6.23078e-07H0.164353L0.40794 0.784015H0.410878L0.651531 6.23078e-07H0.817354V0.969624H0.721968Z" transform="translate(69.8696 14.9375)" fill="#F9F9F9"/>
<path d="M2.61053 2.7099H1.95167C1.95167 2.61784 1.88857 2.35947 1.76384 1.93182H0.812948C0.683815 2.35204 0.619249 2.6119 0.619249 2.7099H2.01519e-07C2.01519e-07 2.65644 0.159947 2.21098 0.481312 1.37796C0.801209 0.543464 0.962626 0.0846378 0.962626 -1.3028e-07H1.74036C1.74036 0.0786983 1.88563 0.531585 2.17618 1.35866C2.46526 2.18425 2.61053 2.63417 2.61053 2.7099ZM1.65965 1.53388C1.42486 0.818166 1.30747 0.430614 1.30747 0.372703H1.27519C1.27519 0.426159 1.15339 0.813711 0.911267 1.53388H1.65965Z" transform="translate(29.7607 6.59668)" fill="#F9F9FA"/>
<path d="M2.207 2.71287H1.69927C1.69927 2.65644 1.50997 2.35501 1.13284 1.81155C0.73811 1.23839 0.512129 0.846379 0.457834 0.635527H0.425552C0.459303 0.939926 0.476911 1.21463 0.476911 1.45963C0.476911 1.80264 0.487181 2.21989 0.506258 2.71287H-3.35865e-07C0.0205435 2.28225 0.0308153 1.81006 0.0308153 1.29481C0.0308153 0.788468 0.0205435 0.357855 -3.35865e-07 0.00148485H0.611912C0.611912 0.0757286 0.780666 0.368249 1.11964 0.882016C1.48062 1.42696 1.68753 1.7967 1.74182 1.99122H1.77264C1.74036 1.68236 1.72275 1.40469 1.72275 1.1582C1.72275 0.782529 1.71247 0.396462 1.6934 8.49652e-08H2.20846C2.18939 0.344491 2.17912 0.775105 2.17912 1.29333C2.17765 1.816 2.18792 2.28968 2.207 2.71287Z" transform="translate(32.8188 6.59375)" fill="#F9F9FA"/>
<path d="M2.26276 1.27551C2.26276 1.669 2.13803 2.01349 1.88857 2.3075C1.6391 2.6015 1.28839 2.7485 0.839361 2.7485C0.636858 2.7485 0.356583 2.73959 8.9564e-07 2.72326C0.0176099 2.30453 0.0264139 1.83085 0.0264139 1.30521C0.0264139 0.800348 0.0176099 0.369734 8.9564e-07 0.0118791H0.359517C0.418213 0.0118791 0.506259 0.0103939 0.623652 0.00593931C0.739578 0.00148468 0.815884 2.37903e-07 0.852569 2.37903e-07C1.34856 2.37903e-07 1.70661 0.12473 1.92965 0.374189C2.15123 0.625133 2.26276 0.925077 2.26276 1.27551ZM1.70074 1.3646C1.70074 1.09881 1.62443 0.873106 1.47035 0.690467C1.31627 0.507827 1.08149 0.41725 0.765992 0.41725C0.707295 0.41725 0.626586 0.423189 0.523867 0.436553C0.537073 0.714225 0.544413 1.00378 0.544413 1.30669C0.544413 1.63782 0.55175 1.96746 0.564957 2.29413C0.654469 2.31195 0.743981 2.32086 0.832026 2.32086C1.12698 2.32086 1.34562 2.2288 1.48796 2.04319C1.62883 1.85758 1.70074 1.63188 1.70074 1.3646Z" transform="translate(35.7463 6.58008)" fill="#F9F9FA"/>
<path d="M2.17031 2.72326H1.56133C1.40138 2.23177 1.27959 1.92885 1.19448 1.81303C1.10937 1.69721 0.972898 1.64079 0.782133 1.64079C0.702893 1.64079 0.626587 1.64227 0.553216 1.64227C0.553216 1.99864 0.559087 2.35947 0.572293 2.72326H1.29868e-06C0.0176103 2.30453 0.0264143 1.83085 0.0264143 1.3052C0.0264143 0.800347 0.0176103 0.369734 1.29868e-06 0.011879H0.356584C0.397671 0.011879 0.484247 0.0103938 0.614847 0.0059392C0.745448 0.00148457 0.867245 1.3028e-07 0.978769 1.3028e-07C1.60829 1.3028e-07 1.92378 0.218277 1.92378 0.653345C1.92378 0.999321 1.74329 1.23987 1.38524 1.37648V1.40766C1.52318 1.44627 1.64498 1.55615 1.74916 1.73582C1.85335 1.914 1.99422 2.24365 2.17031 2.72326ZM1.39845 0.807772C1.39845 0.531586 1.22236 0.393492 0.871647 0.393492C0.742514 0.393492 0.628056 0.402401 0.529739 0.423189C0.544413 0.638496 0.55175 0.919138 0.55175 1.26363C0.626588 1.2666 0.691153 1.26808 0.742513 1.26808C1.18127 1.26808 1.39845 1.11366 1.39845 0.807772Z" transform="translate(38.5887 6.58301)" fill="#F9F9FA"/>
<path d="M2.62081 1.36757C2.62081 1.79373 2.49168 2.14713 2.23341 2.42777C1.97514 2.70841 1.65671 2.84799 1.27665 2.84799C0.914202 2.84799 0.610445 2.71881 0.366854 2.46192C0.123262 2.20504 -8.06076e-07 1.87688 -8.06076e-07 1.48042C-8.06076e-07 1.05426 0.129132 0.700861 0.387397 0.42022C0.645663 0.139579 0.964093 2.49231e-07 1.34415 2.49231e-07C1.70661 2.49231e-07 2.0089 0.127699 2.25395 0.384583C2.49755 0.642951 2.62081 0.969624 2.62081 1.36757ZM2.05292 1.42845C2.05292 1.1389 1.97955 0.902804 1.8328 0.723134C1.68606 0.543465 1.5041 0.452887 1.28986 0.452887C1.08882 0.452887 0.92007 0.543464 0.779198 0.726104C0.639793 0.907259 0.569358 1.13741 0.569358 1.41509C0.569358 1.70315 0.64273 1.93925 0.790939 2.1204C0.937681 2.30156 1.11964 2.39213 1.33388 2.39213C1.53345 2.39213 1.70367 2.30156 1.84454 2.11892C1.98248 1.93331 2.05292 1.70464 2.05292 1.42845Z" transform="translate(41.0892 6.53223)" fill="#F9F9FA"/>
<path d="M0.582565 2.71138H8.28467e-07C0.0176098 2.28077 0.0264138 1.80858 0.0264138 1.29333C0.0264138 0.786984 0.0176098 0.35637 8.28467e-07 -2.26574e-08H0.582565C0.564956 0.350431 0.556152 0.781044 0.556152 1.29333C0.556152 1.816 0.564956 2.28968 0.582565 2.71138Z" transform="translate(44.291 6.59473)" fill="#F9F9FA"/>
<path d="M2.26276 1.27551C2.26276 1.669 2.13803 2.01349 1.88857 2.3075C1.63911 2.6015 1.28839 2.7485 0.839362 2.7485C0.636859 2.7485 0.356581 2.73959 -1.2539e-06 2.72326C0.0176078 2.30453 0.0264145 1.83085 0.0264145 1.30521C0.0264145 0.800348 0.0176078 0.369734 -1.2539e-06 0.0118791H0.359517C0.418214 0.0118791 0.506259 0.0103939 0.623653 0.00593931C0.739579 0.00148468 0.815885 2.37903e-07 0.85257 2.37903e-07C1.34856 2.37903e-07 1.70661 0.12473 1.92966 0.374189C2.15124 0.625133 2.26276 0.925077 2.26276 1.27551ZM1.70074 1.3646C1.70074 1.09881 1.62443 0.873106 1.47035 0.690467C1.31628 0.507827 1.08149 0.41725 0.765992 0.41725C0.707296 0.41725 0.626587 0.423189 0.522401 0.436553C0.535607 0.714225 0.542944 1.00378 0.542944 1.30669C0.542944 1.63782 0.550281 1.96746 0.563488 2.29413C0.653001 2.31195 0.742512 2.32086 0.830557 2.32086C1.12551 2.32086 1.34415 2.2288 1.48649 2.04319C1.62883 1.85758 1.70074 1.63188 1.70074 1.3646Z" transform="translate(45.5941 6.58008)" fill="#F9F9FA"/>
<path d="M2.61054 2.7099H1.95167C1.95167 2.61784 1.88857 2.35947 1.76384 1.93182H0.812948C0.683815 2.35204 0.619249 2.6119 0.619249 2.7099H-2.59736e-06C-2.59736e-06 2.65644 0.159951 2.21098 0.479848 1.37796C0.799745 0.543464 0.959693 0.0846378 0.959693 -1.3028e-07H1.73742C1.73742 0.0786983 1.8827 0.531585 2.17325 1.35866C2.46526 2.18425 2.61054 2.63417 2.61054 2.7099ZM1.65965 1.53388C1.42486 0.818166 1.30747 0.430614 1.30747 0.372703H1.27519C1.27519 0.426159 1.15339 0.813711 0.911267 1.53388H1.65965Z" transform="translate(49.204 6.59668)" fill="#F9F9FA"/>
<path d="M1.95607 0.723134C1.95607 1.05426 1.83427 1.29927 1.59068 1.45815C1.34709 1.61703 1.04773 1.69573 0.694086 1.69573C0.62952 1.69573 0.584033 1.69424 0.556152 1.69127C0.556152 1.95261 0.563488 2.29562 0.578162 2.72326H-1.52259e-06C0.0176075 2.32234 0.0264143 1.85015 0.0264143 1.30521C0.0264143 0.806287 0.0176075 0.374189 -1.52259e-06 0.0118791H0.358048C0.409407 0.0118791 0.506259 0.0103939 0.650065 0.00593931C0.793872 0.00148468 0.918604 2.37903e-07 1.02426 2.37903e-07C1.28546 2.37903e-07 1.50557 0.059395 1.6846 0.17967C1.86656 0.299945 1.95607 0.4811 1.95607 0.723134ZM1.42486 0.837469C1.42486 0.540494 1.2297 0.392007 0.840831 0.392007C0.743982 0.392007 0.639796 0.402401 0.532675 0.423189C0.547349 0.686012 0.554685 0.982987 0.554685 1.31411C0.588436 1.31708 0.62952 1.31857 0.673542 1.31857C1.17393 1.31857 1.42486 1.1582 1.42486 0.837469Z" transform="translate(52.2591 6.58008)" fill="#F9F9FA"/>
<path d="M1.95606 0.723134C1.95606 1.05426 1.83427 1.29927 1.59068 1.45815C1.34709 1.61703 1.04774 1.69573 0.694091 1.69573C0.629524 1.69573 0.584032 1.69424 0.556151 1.69127C0.556151 1.95261 0.563487 2.29562 0.578161 2.72326H-2.68692e-06C0.0176063 2.32234 0.0264131 1.85015 0.0264131 1.30521C0.0264131 0.806287 0.0176063 0.374189 -2.68692e-06 0.0118791H0.358052C0.409412 0.0118791 0.506257 0.0103939 0.650064 0.00593931C0.793871 0.00148468 0.918603 2.37903e-07 1.02426 2.37903e-07C1.28546 2.37903e-07 1.50557 0.059395 1.6846 0.17967C1.86656 0.299945 1.95606 0.4811 1.95606 0.723134ZM1.42486 0.837469C1.42486 0.540494 1.2297 0.392007 0.84083 0.392007C0.743981 0.392007 0.639795 0.402401 0.532674 0.423189C0.547348 0.686012 0.554684 0.982987 0.554684 1.31411C0.588435 1.31708 0.628057 1.31857 0.673547 1.31857C1.1754 1.31857 1.42486 1.1582 1.42486 0.837469Z" transform="translate(54.7273 6.58008)" fill="#F9F9FA"/>
<path d="M2.62081 1.36757C2.62081 1.79373 2.49167 2.14713 2.23341 2.42777C1.97514 2.70841 1.65672 2.84799 1.27666 2.84799C0.914204 2.84799 0.610444 2.71881 0.366853 2.46192C0.123262 2.20504 -1.38824e-06 1.87688 -1.38824e-06 1.48042C-1.38824e-06 1.05426 0.129131 0.700861 0.387397 0.42022C0.645662 0.139579 0.964092 2.49231e-07 1.34415 2.49231e-07C1.70661 2.49231e-07 2.01036 0.127699 2.25395 0.384583C2.49901 0.642951 2.62081 0.969624 2.62081 1.36757ZM2.05292 1.42845C2.05292 1.1389 1.97955 0.902804 1.8328 0.723134C1.68606 0.543465 1.5041 0.452887 1.28986 0.452887C1.08882 0.452887 0.920072 0.543464 0.7792 0.726104C0.639796 0.907259 0.569357 1.13593 0.569357 1.4136C0.569357 1.70167 0.64273 1.93776 0.790939 2.11892C0.937681 2.30007 1.11964 2.39065 1.33388 2.39065C1.53492 2.39065 1.70367 2.30007 1.84454 2.11743C1.98395 1.93331 2.05292 1.70464 2.05292 1.42845Z" transform="translate(58.0981 6.53223)" fill="#F9F9FA"/>
<path d="M2.20699 2.71287H1.69927C1.69927 2.65644 1.50997 2.35501 1.13285 1.81155C0.738111 1.23839 0.51213 0.846379 0.457836 0.635527H0.425554C0.459304 0.939926 0.476913 1.21463 0.476913 1.45963C0.476913 1.80264 0.48718 2.21989 0.506257 2.71287H1.43302e-06C0.0205453 2.28225 0.0308171 1.81006 0.0308171 1.29481C0.0308171 0.788468 0.0205453 0.357855 1.43302e-06 0.00148485H0.611914C0.611914 0.0757286 0.782136 0.368249 1.11964 0.882016C1.48063 1.42696 1.68753 1.7967 1.74183 1.99122H1.77264C1.74036 1.68236 1.72275 1.40469 1.72275 1.1582C1.72275 0.782529 1.71248 0.396462 1.6934 8.49652e-08H2.20846C2.18938 0.344491 2.17912 0.775105 2.17912 1.29333C2.17765 1.816 2.18645 2.28968 2.20699 2.71287Z" transform="translate(61.3028 6.59375)" fill="#F9F9FA"/>
<defs>
  <linearGradient id="paint0_linear" x2="1" gradientUnits="userSpaceOnUse" gradientTransform="translate(16.3238 0.000148488) scale(21.7 21.9582) rotate(90)">
    <stop stop-color="#257CB0"/>
    <stop offset="0.2863" stop-color="#4A93B5"/>
    <stop offset="0.767" stop-color="#78BCBB"/>
    <stop offset="1" stop-color="#89CFBD"/>
  </linearGradient>
  <linearGradient id="paint1_linear" x2="1" gradientUnits="userSpaceOnUse" gradientTransform="translate(0.000440225 -1.49609) scale(13.8869 14.0521)">
    <stop stop-color="#52C1AD"/>
    <stop offset="1" stop-color="#DEE89A"/>
  </linearGradient>
  <linearGradient id="paint2_linear" x2="1" gradientUnits="userSpaceOnUse" gradientTransform="translate(12.4082 0.000296975) scale(10.9287 11.0588) rotate(90)">
    <stop stop-color="#EC413D"/>
    <stop offset="0.1668" stop-color="#DA4452"/>
    <stop offset="0.5748" stop-color="#B0487A"/>
    <stop offset="0.8619" stop-color="#954A92"/>
    <stop offset="1" stop-color="#8A4A9D"/>
  </linearGradient>
  <linearGradient id="paint3_linear" x2="1" gradientUnits="userSpaceOnUse" gradientTransform="translate(6.90934 0.000148488) scale(5.82829 5.89763) rotate(90)">
    <stop stop-color="#F58879"/>
    <stop offset="0.1194" stop-color="#F69079"/>
    <stop offset="0.7128" stop-color="#FCB877"/>
    <stop offset="1" stop-color="#FEC874"/>
  </linearGradient>
</defs>
</svg>
