<svg width="98" height="33" viewBox="0 0 98 33" fill="none" xmlns="http://www.w3.org/2000/svg">
<path d="M98 28.0547C98 30.476 96.0608 32.4383 93.6694 32.4383H4.3321C1.93924 32.4383 0 30.4745 0 28.0547V4.38364C0 1.96231 1.93924 0 4.3321 0H93.6694C96.0608 0 98 1.96231 98 4.38364V28.0547Z" fill="black"/>
<path d="M18.9809 11.1678C18.4626 12.3309 18.2131 12.8509 17.5466 13.8788C16.6144 15.3153 15.3005 17.1023 13.674 17.1171C12.228 17.1305 11.8566 16.1649 9.89387 16.1753C7.93114 16.1857 7.52156 17.1335 6.0741 17.1201C4.44608 17.1053 3.20121 15.4905 2.26902 14.0541C-0.3367 10.0388 -0.609751 5.3284 0.997721 2.82389C2.13983 1.04429 3.94108 0.0014852 5.63663 0.0014852C7.36155 0.0014852 8.44641 0.959617 9.87331 0.959617C11.2562 0.959617 12.1003 -1.64333e-07 14.0953 -1.64333e-07C15.603 -1.64333e-07 17.2002 0.830381 18.3393 2.26684C14.6076 4.33759 15.2125 9.7269 18.9809 11.1678Z" transform="translate(6.57422 10.2734)" fill="white"/>
<path d="M3.45573 3.62902C4.17946 2.68723 4.72997 1.35921 4.53179 -2.83332e-08C3.34857 0.0817011 1.96277 0.845236 1.15536 1.83753C0.421355 2.73922 -0.183466 4.07763 0.0514161 5.37742C1.3418 5.41753 2.67916 4.63766 3.45573 3.62902Z" transform="translate(15.6988 5.04297)" fill="white"/>
<path d="M3.73315 6.34664e-07L2.46401e-07 11.1203H1.71023L2.82445 7.70516H6.43869L7.58521 11.1203H9.34242L5.59312 6.34664e-07H3.73315ZM4.61836 1.82862C4.74461 2.32477 4.88114 2.84023 5.05583 3.39728L6.06142 6.34595H3.19733L4.1897 3.37797C4.34238 2.89668 4.48477 2.37676 4.61836 1.82862Z" transform="translate(29.7623 13.04)" fill="white"/>
<path d="M4.23081 6.11997e-07C3.09897 6.11997e-07 2.19174 0.442671 1.58692 1.28345L1.52086 0.176771H1.2992e-06L0.00880733 0.317892C0.0528476 1.00715 0.0719335 1.76474 0.0719335 2.8536V11.4248H1.73519V7.42441C2.25046 8.04831 3.07402 8.41225 4.00767 8.41225C4.97949 8.41225 5.87498 8.02751 6.52678 7.32785C7.25491 6.54946 7.63953 5.42941 7.63953 4.091C7.63953 2.90856 7.30629 1.88655 6.67358 1.13639C6.05408 0.404049 5.18648 6.11997e-07 4.23081 6.11997e-07ZM3.81536 1.39338C5.29805 1.39338 5.96159 2.7823 5.96159 4.15933C5.96159 5.93447 5.11455 7.03818 3.75224 7.03818C2.82152 7.03818 2.01705 6.39794 1.79391 5.47695C1.75574 5.33434 1.73519 5.14569 1.73519 4.93178V3.57851C1.73519 3.4567 1.76161 3.30667 1.78804 3.16258C1.79684 3.11653 1.80565 3.07048 1.81153 3.02591C2.05962 2.06481 2.88317 1.39338 3.81536 1.39338Z" transform="translate(39.7051 15.9229)" fill="white"/>
<path d="M4.23081 6.11997e-07C3.09897 6.11997e-07 2.19174 0.442671 1.58692 1.28345L1.52086 0.176771H2.37441e-06L0.0088056 0.317892C0.0543139 1.00715 0.0734018 1.76474 0.0734018 2.8536V11.4248H1.73666V7.42441C2.25193 8.04831 3.07548 8.41225 4.00914 8.41225C4.98096 8.41225 5.87645 8.02751 6.52971 7.32785C7.25638 6.54946 7.641 5.42941 7.641 4.091C7.641 2.90856 7.30629 1.88655 6.67504 1.13639C6.05554 0.404049 5.18795 6.11997e-07 4.23081 6.11997e-07ZM3.81683 1.39338C5.29805 1.39338 5.96159 2.7823 5.96159 4.15933C5.96159 5.93447 5.11455 7.03818 3.7537 7.03818C2.82445 7.03818 2.01852 6.39794 1.79538 5.47695C1.75721 5.33434 1.73666 5.14569 1.73666 4.93178V3.57851C1.73666 3.45522 1.76308 3.30667 1.7895 3.16109C1.79831 3.11653 1.80565 3.07048 1.81299 3.02591C2.05962 2.06481 2.88317 1.39338 3.81683 1.39338Z" transform="translate(48.2666 15.9229)" fill="white"/>
<path d="M3.95629 4.8887C2.4046 4.28114 1.90695 3.80282 1.90695 2.91896C1.90695 2.17474 2.49121 1.42457 3.79628 1.42457C4.8738 1.42457 5.56229 1.80337 5.74873 1.92072L5.88966 2.00836L6.35943 0.604588L6.26694 0.549626C5.98801 0.384738 5.19382 -1.13333e-08 3.84619 -1.13333e-08C1.72638 -1.13333e-08 0.245159 1.26711 0.245159 3.07939C0.245159 4.5411 1.17294 5.56311 3.16356 6.29545C4.57432 6.82873 5.09987 7.37539 5.09987 8.31272C5.09987 9.37335 4.28953 10.0314 2.98594 10.0314C2.13743 10.0314 1.26396 9.78037 0.590143 9.34364L0.446273 9.25006L1.6128e-06 10.6865L0.0822099 10.7415C0.710518 11.1663 1.8908 11.4723 2.89198 11.4723C5.7502 11.4723 6.76312 9.70907 6.76312 8.19983C6.76019 6.64453 5.94838 5.68492 3.95629 4.8887Z" transform="translate(59.2679 12.8623)" fill="white"/>
<path d="M2.82445 -1.02e-07L1.19349 0.518431V1.91626H-2.19521e-06V3.26062H1.19349V7.37984C1.19349 8.37511 1.3814 9.07329 1.76895 9.51447C2.14036 9.92595 2.71142 10.1532 3.37789 10.1532C4.0062 10.1532 4.45248 10.027 4.6624 9.95269L4.75489 9.92001L4.67561 8.57268L4.5156 8.6217C4.30567 8.68706 4.08988 8.71231 3.74196 8.71231C3.0975 8.71231 2.82298 8.29935 2.82298 7.33082V3.26062H4.82829V1.91626H2.82298V-1.02e-07H2.82445Z" transform="translate(66.1969 14.1836)" fill="white"/>
<path d="M3.95042 6.11997e-07C1.62362 6.11997e-07 8.06402e-07 1.75732 8.06402e-07 4.27223C8.06402e-07 6.71138 1.57224 8.41522 3.82417 8.41522H3.83885C5.74286 8.41522 7.78927 7.07383 7.78927 4.12814C7.78927 2.93084 7.42373 1.90141 6.72936 1.15273C6.03206 0.398108 5.07051 6.11997e-07 3.95042 6.11997e-07ZM3.90197 1.32802C5.39788 1.32802 6.07903 2.80309 6.07903 4.17567C6.07903 5.86169 5.14978 7.08572 3.87115 7.08572H3.855C2.59398 7.08572 1.67793 5.88248 1.67793 4.22321C1.67793 2.7823 2.36644 1.32802 3.90197 1.32802Z" transform="translate(71.197 15.9229)" fill="white"/>
<path d="M4.13832 0.0772454L4.0385 0.051992C3.8917 0.0148551 3.77279 6.11997e-07 3.62452 6.11997e-07C2.75399 6.11997e-07 1.97448 0.518431 1.53995 1.35475L1.4915 0.176771H2.68801e-06L0.0102787 0.317892C0.054319 0.983385 0.0734021 1.73206 0.0734021 2.7407L0.0587189 8.23696H1.72197V3.94839C1.72197 3.71518 1.73813 3.49384 1.76749 3.29627C1.95539 2.26684 2.64242 1.60134 3.51736 1.60134C3.68765 1.60134 3.82123 1.61471 3.96363 1.62957L4.14126 1.64888V0.0772454H4.13832Z" transform="translate(79.9404 15.9229)" fill="white"/>
<path d="M3.75957 -3.28665e-07C1.54581 -3.28665e-07 -2.46401e-06 1.79 -2.46401e-06 4.35244C-2.46401e-06 6.81982 1.53848 8.41522 3.91812 8.41522C5.17033 8.41522 6.04086 8.13744 6.55026 7.90422L6.65009 7.85817L6.33006 6.60442L6.19207 6.66087C5.73845 6.84804 5.13657 7.03818 4.10896 7.03818C3.3867 7.03818 1.72051 6.79754 1.61921 4.59903L6.98626 4.61537L7.00828 4.50842C7.04205 4.33759 7.0582 4.10734 7.0582 3.80579C7.0582 2.04996 6.19354 -3.28665e-07 3.75957 -3.28665e-07ZM3.64801 1.28048C4.15447 1.28048 4.56551 1.43943 4.86792 1.75138C5.3465 2.24455 5.43017 2.96947 5.44045 3.31707H1.64858C1.80418 2.34557 2.4046 1.28048 3.64801 1.28048Z" transform="translate(84.0582 15.9062)" fill="white"/>
<path d="M0.00146826 0.10844C0.46536 0.0460499 1.00559 -1.27499e-07 1.59573 -1.27499e-07C2.66738 -1.27499e-07 3.43074 0.218365 3.9372 0.647667C4.45982 1.07697 4.76076 1.69344 4.76076 2.54462C4.76076 3.40322 4.45982 4.10585 3.9284 4.59012C3.37936 5.08181 2.48828 5.34771 1.36378 5.34771C0.823554 5.34771 0.386088 5.33286 1.0528e-06 5.28532V0.10844H0.00146826ZM0.756026 4.77135C0.943931 4.80254 1.21845 4.80254 1.51058 4.80254C3.10484 4.80997 3.97097 3.98999 3.97097 2.56987C3.97978 1.31316 3.2076 0.539228 1.63096 0.539228C1.24487 0.539228 0.954207 0.570423 0.756026 0.609045V4.77135Z" transform="translate(29.761 5.33398)" fill="white"/>
<path d="M1.98915 3.95137C0.874934 3.95137 5.15202e-07 3.2012 5.15202e-07 2.00688C5.15202e-07 0.741252 0.917508 2.37999e-07 2.05815 2.37999e-07C3.25018 2.37999e-07 4.05612 0.788788 4.05612 1.93706C4.05612 3.34232 2.98447 3.95137 1.99796 3.95137H1.98915ZM2.01558 3.4359C2.73637 3.4359 3.2766 2.81943 3.2766 1.95934C3.2766 1.3191 2.92428 0.51546 2.0332 0.51546C1.14945 0.51546 0.763367 1.26563 0.763367 1.98311C0.763367 2.81052 1.27864 3.4359 2.00677 3.4359H2.01558Z" transform="translate(35.2059 6.76953)" fill="white"/>
<path d="M0.770707 -3.39998e-07L1.32855 1.91329C1.44012 2.33517 1.55169 2.73328 1.62802 3.12396H1.65298C1.74693 2.7407 1.88493 2.33517 2.02145 1.92221L2.6982 0.00148574H3.33238L3.97537 1.89101C4.12951 2.33665 4.24989 2.74219 4.34384 3.12544H4.3688C4.4378 2.74219 4.54937 2.34408 4.68589 1.89992L5.2775 0.0029711H6.02325L4.68589 3.78202H4.00327L3.36908 1.97865C3.22375 1.54935 3.10337 1.17501 3.00061 0.729368H2.983C2.88024 1.18244 2.75105 1.58055 2.60572 1.98608L1.93778 3.78202H1.25221L1.3888e-06 0.0029711H0.770707V-3.39998e-07Z" transform="translate(39.6847 6.85645)" fill="white"/>
<path d="M0.0337641 1.10965C0.0337641 0.711543 0.024955 0.399593 -1.232e-06 0.0861572H0.669411L0.711988 0.70263H0.7296C0.935121 0.350573 1.41516 2.37999e-07 2.10072 2.37999e-07C2.67472 2.37999e-07 3.56727 0.31195 3.56727 1.60877V3.86521H2.81271V1.6875C2.81271 1.07846 2.56314 0.562995 1.85263 0.562995C1.36378 0.562995 0.977694 0.882372 0.841169 1.26563C0.807405 1.35178 0.789789 1.47656 0.789789 1.58649V3.86669H0.0352313V1.10965H0.0337641Z" transform="translate(46.4332 6.76953)" fill="white"/>
<path d="M6.72002e-07 6.79997e-08H0.754558V5.5438H6.72002e-07V6.79997e-08Z" transform="translate(51.2262 5.0918)" fill="white"/>
<path d="M1.98915 3.95137C0.874933 3.95137 -1.1648e-06 3.2012 -1.1648e-06 2.00688C-1.1648e-06 0.741252 0.917506 2.37999e-07 2.05815 2.37999e-07C3.25018 2.37999e-07 4.05611 0.788788 4.05611 1.93706C4.05611 3.34232 2.98447 3.95137 1.99796 3.95137H1.98915ZM2.01558 3.4359C2.73637 3.4359 3.2766 2.81943 3.2766 1.95934C3.2766 1.3191 2.92428 0.51546 2.0332 0.51546C1.14945 0.51546 0.763365 1.26563 0.763365 1.98311C0.763365 2.81052 1.27864 3.4359 2.00677 3.4359H2.01558Z" transform="translate(52.9321 6.76953)" fill="white"/>
<path d="M3.24724 2.95907C3.24724 3.28736 3.26486 3.60673 3.30743 3.86521H2.63068L2.56168 3.38837H2.53673C2.31359 3.68546 1.8585 3.94988 1.26836 3.94988C0.428658 3.94988 1.6128e-06 3.41065 1.6128e-06 2.864C1.6128e-06 1.95043 0.89108 1.45131 2.49415 1.45874V1.38298C2.49415 1.07103 2.4002 0.500606 1.55169 0.508033C1.15679 0.508033 0.754557 0.609045 0.462423 0.788787L0.290665 0.32829C0.634179 0.133693 1.13918 2.37999e-07 1.66326 2.37999e-07C2.94043 2.37999e-07 3.24871 0.788788 3.24871 1.54638V2.95907H3.24724ZM2.5103 1.93706C1.68674 1.92221 0.753092 2.05441 0.753092 2.78824C0.753092 3.24131 1.07899 3.44482 1.45627 3.44482C2.00531 3.44482 2.35616 3.13287 2.47654 2.81201C2.50296 2.74219 2.51177 2.66346 2.51177 2.59364V1.93706H2.5103Z" transform="translate(57.6165 6.76953)" fill="white"/>
<path d="M3.88443 6.79997e-08V4.56784C3.88443 4.90355 3.89323 5.28681 3.91819 5.5438H3.24143L3.20767 4.8887H3.19005C2.95811 5.31058 2.46045 5.62995 1.7837 5.62995C0.779578 5.62995 6.92863e-05 4.85751 6.92863e-05 3.70923C-0.00873878 2.44361 0.857385 1.67859 1.86004 1.67859C2.50303 1.67859 2.93169 1.95192 3.11225 2.24901H3.1284V6.79997e-08H3.88443ZM3.12987 3.3037C3.12987 3.21011 3.12106 3.10019 3.0961 3.0066C2.98453 2.5773 2.57349 2.21782 2.00684 2.21782C1.22585 2.21782 0.76343 2.84171 0.76343 3.67061C0.76343 4.44306 1.18329 5.07587 1.98922 5.07587C2.49569 5.07587 2.95811 4.76392 3.09463 4.25589C3.12106 4.1623 3.1284 4.06872 3.1284 3.95879V3.3037H3.12987Z" transform="translate(61.7738 5.0918)" fill="white"/>
<path d="M1.98915 3.95137C0.874933 3.95137 -7.16802e-07 3.2012 -7.16802e-07 2.00688C-7.16802e-07 0.741252 0.917507 2.37999e-07 2.05815 2.37999e-07C3.25018 2.37999e-07 4.05611 0.788788 4.05611 1.93706C4.05611 3.34232 2.98447 3.95137 1.99796 3.95137H1.98915ZM2.01558 3.4359C2.73637 3.4359 3.27513 2.81943 3.27513 1.95934C3.27513 1.3191 2.92428 0.51546 2.03172 0.51546C1.14798 0.51546 0.763366 1.26563 0.763366 1.98311C0.763366 2.81052 1.27717 3.4359 2.00677 3.4359H2.01558Z" transform="translate(68.4269 6.76953)" fill="white"/>
<path d="M0.0337617 1.10965C0.0337617 0.711543 0.0249554 0.399593 -8.06402e-07 0.0861572H0.669414L0.711985 0.70263H0.728136C0.933657 0.350573 1.41369 2.37999e-07 2.09926 2.37999e-07C2.67325 2.37999e-07 3.5658 0.31195 3.5658 1.60877V3.86521H2.81124V1.6875C2.81124 1.07846 2.56315 0.562995 1.85116 0.562995C1.36232 0.562995 0.97623 0.882372 0.839705 1.26563C0.805941 1.35178 0.788319 1.47656 0.788319 1.58649V3.86669H0.0337617V1.10965Z" transform="translate(73.402 6.76953)" fill="white"/>
<path d="M1.37993 1.69999e-07V0.90614H2.46039V1.42903H1.37993V3.4671C1.37993 3.93502 1.52526 4.20093 1.94658 4.20093C2.1521 4.20093 2.27248 4.18607 2.38405 4.15488L2.41782 4.67776C2.27248 4.72381 2.04054 4.77135 1.7484 4.77135C1.39755 4.77135 1.11422 4.66142 0.933655 4.48316C0.728134 4.27223 0.642986 3.93651 0.642986 3.49087V1.42903H-1.97121e-06V0.90614H0.642986V0.210937L1.37993 1.69999e-07Z" transform="translate(79.5412 5.9502)" fill="white"/>
<path d="M-4.03201e-07 6.79997e-08H0.754557V2.35745H0.772175C0.891083 2.16285 1.08046 1.98311 1.3124 1.87318C1.53554 1.7484 1.79978 1.67859 2.08458 1.67859C2.64095 1.67859 3.5335 1.99054 3.5335 3.29478V5.54379H2.77748V3.37351C2.77748 2.75704 2.52938 2.24901 1.8174 2.24901C1.32855 2.24901 0.95127 2.56096 0.805937 2.93678C0.763365 3.03037 0.754557 3.13138 0.754557 3.26508V5.54528H-4.03201e-07V6.79997e-08Z" transform="translate(82.8515 5.0918)" fill="white"/>
<path d="M0.728133 2.10046C0.74575 3.03037 1.38874 3.41214 2.1433 3.41214C2.68353 3.41214 3.01823 3.32598 3.29275 3.22497L3.42927 3.70923C3.16356 3.81916 2.69967 3.95136 2.04054 3.95136C0.770707 3.95136 2.55361e-06 3.17743 2.55361e-06 2.0455C2.55361e-06 0.897227 0.745748 6.79997e-08 1.95539 6.79997e-08C3.31036 6.79997e-08 3.66122 1.08588 3.66122 1.78109C3.66122 1.92221 3.65241 2.03065 3.63626 2.10938L0.728133 2.10046ZM2.93162 1.60877C2.94043 1.17947 2.7349 0.491692 1.89373 0.491692C1.12156 0.491692 0.795664 1.13193 0.735475 1.60877H2.93162Z" transform="translate(87.3114 6.76367)" fill="white"/>
</svg>
