<?xml version="1.0" encoding="utf-8"?>
<!-- Generator: Adobe Illustrator 19.2.1, SVG Export Plug-In . SVG Version: 6.00 Build 0)  -->
<svg version="1.1" id="Layer_1" xmlns="http://www.w3.org/2000/svg" xmlns:xlink="http://www.w3.org/1999/xlink" x="0px" y="0px"
	 viewBox="0 0 97 102" style="enable-background:new 0 0 97 102;" xml:space="preserve">
<style type="text/css">
	.st0{fill:#FFFFFF;}
</style>
<path class="st0" d="M83.8,38.8v-3.9c0-9.4-3.3-18.1-9.4-24.6C68.2,3.6,59.6,0,50.3,0H47c-9.3,0-17.9,3.6-24.1,10.3
	c-6.1,6.5-9.4,15.2-9.4,24.6v3.9c-7.4,0.5-13.2,6.6-13.2,14v6.1c0,7.7,6.4,14,14.2,14h8c1.4,0,2.6-1.2,2.6-2.6V41.3
	c0-1.4-1.2-2.6-2.6-2.6h-3.7v-3.9c0-17,12.2-29.7,28.3-29.7h3.3c16.2,0,28.3,12.8,28.3,29.7v3.9h-3.7c-1.4,0-2.6,1.2-2.6,2.6v29.1
	c0,1.4,1.2,2.6,2.6,2.6h3.6c-1.1,13.4-10.4,16.5-14.7,17.2c-1.2-3.6-4.6-6.2-8.7-6.2h-6.5c-5,0-9.1,4-9.1,9c0,5,4.1,9,9.1,9h6.5
	c4.2,0,7.7-2.8,8.8-6.6c2.1-0.3,5.5-1,8.8-3c4.7-2.7,10.2-8.3,11-19.5c7.4-0.5,13.3-6.6,13.3-14v-6.1C97,45.4,91.2,39.3,83.8,38.8z
	 M19.8,67.8h-5.4c-4.9,0-9-4-9-8.9v-6.1c0-4.9,4-8.9,9-8.9h5.4V67.8z M55.2,96.9h-6.5c-2.2,0-3.9-1.7-3.9-3.9c0-2.1,1.8-3.9,3.9-3.9
	h6.5c2.2,0,3.9,1.7,3.9,3.9C59.1,95.1,57.3,96.9,55.2,96.9z M91.8,58.9c0,4.9-4,8.9-9,8.9h-5.4V43.9h5.4c4.9,0,9,4,9,8.9V58.9z"/>
</svg>
