<?xml version="1.0" encoding="utf-8"?>
<!-- Generator: Adobe Illustrator 19.2.1, SVG Export Plug-In . SVG Version: 6.00 Build 0)  -->
<svg version="1.1" id="Layer_1" xmlns="http://www.w3.org/2000/svg" xmlns:xlink="http://www.w3.org/1999/xlink" x="0px" y="0px"
	 viewBox="0 0 50 50" style="enable-background:new 0 0 50 50;" xml:space="preserve">
<style type="text/css">
	.st0{fill:#FFFFFF;}
</style>
<path class="st0" d="M33.3,23.7h-6.9V9.7c0-0.8-0.6-1.4-1.4-1.4c-0.8,0-1.4,0.6-1.4,1.4v15.3c0,0.8,0.6,1.4,1.4,1.4h8.3
	c0.8,0,1.4-0.6,1.4-1.4C34.7,24.3,34.1,23.7,33.3,23.7z M12.5,2.8L12.5,2.8C12.5,2.8,12.5,2.8,12.5,2.8L12.5,2.8z M4.8,10.5
	c-1.2-0.7-2-2-2-3.6c0-2.3,1.9-4.2,4.1-4.2c1.5,0,2.8,0.8,3.6,2l2-2C11.2,1.1,9.2,0,6.9,0C3.1,0,0,3.1,0,7c0,2.3,1.1,4.3,2.8,5.6
	L4.8,10.5z M43.1,0c-2.3,0-4.3,1.1-5.6,2.9l0,0l2,2c0.7-1.2,2-2,3.6-2c2.3,0,4.1,1.9,4.1,4.2c0,1.5-0.8,2.8-2,3.6l2,2
	C48.9,11.3,50,9.3,50,7C50,3.1,46.9,0,43.1,0z M25,2.8c-12.3,0-22.2,10-22.2,22.3c0,6.8,3.1,13,7.9,17l-5.6,5.6
	c-0.5,0.5-0.5,1.4,0,1.9c0.5,0.5,1.4,0.5,1.9,0l5.7-5.7c0.1-0.1,0.1-0.2,0.2-0.2c3.5,2.3,7.7,3.6,12.2,3.6c4.4,0,8.5-1.3,12-3.5
	c0,0,0,0.1,0.1,0.1l5.7,5.7c0.5,0.5,1.4,0.5,1.9,0c0.5-0.5,0.5-1.4,0-1.9l-5.5-5.5c4.9-4.1,8.1-10.3,8.1-17.2
	C47.2,12.8,37.3,2.8,25,2.8z M25,44.6c-10.7,0-19.4-8.7-19.4-19.5C5.6,14.3,14.3,5.6,25,5.6c10.7,0,19.4,8.7,19.4,19.5
	C44.4,35.8,35.7,44.6,25,44.6z"/>
</svg>
