<?xml version="1.0" encoding="utf-8"?>
<!-- Generator: Adobe Illustrator 19.2.1, SVG Export Plug-In . SVG Version: 6.00 Build 0)  -->
<svg version="1.1" id="Layer_1" xmlns="http://www.w3.org/2000/svg" xmlns:xlink="http://www.w3.org/1999/xlink" x="0px" y="0px"
	 viewBox="0 0 51 51" style="enable-background:new 0 0 51 51;" xml:space="preserve">
<style type="text/css">
	.st0{fill:#FFFFFF;}
</style>
<g>
	<g>
		<path class="st0" d="M25.5,35.2c-0.4,0-0.8,0.2-1.1,0.4c-0.3,0.3-0.4,0.7-0.4,1.1c0,0.4,0.2,0.8,0.4,1.1c0.3,0.3,0.7,0.4,1.1,0.4
			c0.4,0,0.8-0.2,1.1-0.4c0.3-0.3,0.4-0.7,0.4-1.1c0-0.4-0.2-0.8-0.4-1.1C26.3,35.4,25.9,35.2,25.5,35.2z M43.5,7.5
			C38.7,2.7,32.3,0,25.5,0c-6.8,0-13.2,2.7-18,7.5C2.7,12.3,0,18.7,0,25.5c0,6.3,2.3,12.3,6.4,16.9l-6,6c-0.6,0.6-0.6,1.5,0,2.1
			C0.7,50.9,1.1,51,1.5,51c0.4,0,0.8-0.1,1.1-0.4l6-6c4.7,4.2,10.6,6.4,16.9,6.4c6.8,0,13.2-2.7,18-7.5c4.8-4.8,7.5-11.2,7.5-18
			C51,18.7,48.3,12.3,43.5,7.5z M25.5,48C13.1,48,3,37.9,3,25.5C3,13.1,13.1,3,25.5,3S48,13.1,48,25.5C48,37.9,37.9,48,25.5,48z
			 M25.5,12.8c-0.8,0-1.5,0.7-1.5,1.5v12.8c0,0.8,0.7,1.5,1.5,1.5c0.8,0,1.5-0.7,1.5-1.5V14.3C27,13.5,26.3,12.8,25.5,12.8z"/>
	</g>
</g>
</svg>
