<?xml version="1.0" encoding="utf-8"?>
<!-- Generator: Adobe Illustrator 19.2.1, SVG Export Plug-In . SVG Version: 6.00 Build 0)  -->
<svg version="1.1" id="Layer_1" xmlns="http://www.w3.org/2000/svg" xmlns:xlink="http://www.w3.org/1999/xlink" x="0px" y="0px"
	 viewBox="0 0 51 46" style="enable-background:new 0 0 51 46;" xml:space="preserve">
<style type="text/css">
	.st0{fill:#FFFFFF;}
</style>
<g>
	<g>
		<path class="st0" d="M14.9,26.2c-1.1,0-2,0.9-2,2c0,1.1,0.9,2,2,2c1.1,0,2-0.9,2-2C16.9,27.1,16,26.2,14.9,26.2z M36.1,26.2
			c-1.1,0-2,0.9-2,2c0,1.1,0.9,2,2,2c1.1,0,2-0.9,2-2C38.2,27.1,37.3,26.2,36.1,26.2z M46.1,21.5v-0.9C46.1,9.2,36.8,0,25.5,0
			C14.2,0,4.9,9.2,4.9,20.6v0.9C2.1,22,0,24.4,0,27.4c0,3,2.2,5.4,5,5.9c0.4,4.5,2.5,7.9,6.2,10c3.3,1.9,8,2.8,14.3,2.8
			c6.3,0,11-0.9,14.3-2.8c3.7-2.1,5.8-5.4,6.2-10c2.8-0.5,5-2.9,5-5.9C51,24.4,48.9,22,46.1,21.5z M4.9,31.1c-1.6-0.5-2.8-2-2.8-3.7
			c0-1.8,1.2-3.3,2.8-3.7V31.1z M38.8,41.4c-3,1.7-7.3,2.5-13.3,2.5c-6,0-10.3-0.8-13.3-2.5c-3.5-2-5.2-5.2-5.2-9.8v-11
			c0-8.3,5.6-15.4,13.2-17.7c5.8,0.1,8.9,4.3,8.9,7.3c0,2.3-1.9,4.2-4.2,4.2c-1.7,0-3.2-1.4-3.2-3.2c0-1.3,1-2.3,2.3-2.3
			c0.6,0,1.1-0.5,1.1-1.1c0-0.6-0.5-1.1-1.1-1.1c-2.4,0-4.4,2-4.4,4.4c0,2.9,2.4,5.3,5.3,5.3c3.5,0,6.3-2.8,6.3-6.3
			c0-2.2-1.1-4.5-2.9-6.3c-0.7-0.7-1.6-1.3-2.5-1.8C35.8,2.2,44,10.5,44,20.6v11h0C44,36.2,42.3,39.4,38.8,41.4z M46.1,31.1v-7.4
			c1.6,0.5,2.8,2,2.8,3.7C48.9,29.1,47.7,30.6,46.1,31.1z M32.3,32.5H18.7c-0.6,0-1.1,0.5-1.1,1.1c0,4.3,3.5,7.9,7.9,7.9
			c4.3,0,7.9-3.5,7.9-7.9C33.4,33,32.9,32.5,32.3,32.5z M25.5,39.4c-2.8,0-5.2-2-5.7-4.7h3.7v1c0,0.6,0.5,1.1,1.1,1.1
			c0.6,0,1.1-0.5,1.1-1.1v-1h5.5C30.7,37.3,28.3,39.4,25.5,39.4z"/>
	</g>
</g>
</svg>
