<?xml version="1.0" encoding="utf-8"?>
<!-- Generator: Adobe Illustrator 19.2.1, SVG Export Plug-In . SVG Version: 6.00 Build 0)  -->
<svg version="1.1" id="Layer_1" xmlns="http://www.w3.org/2000/svg" xmlns:xlink="http://www.w3.org/1999/xlink" x="0px" y="0px"
	 viewBox="0 0 474 71.9" style="enable-background:new 0 0 474 71.9;" xml:space="preserve">
<style type="text/css">
	.st0{fill:#E20613;}
</style>
<g>
	<g>
		<path class="st0" d="M41.1,53.3c-0.1-0.1-0.3-0.2-0.4-0.3c0,0-0.1,0-0.1-0.1c-0.1-0.1-0.2-0.3-0.3-0.4c0,0,0-0.1-0.1-0.1
			c-0.1-0.1-0.1-0.3-0.2-0.4c0,0,0-0.1,0-0.1c0-0.2-0.1-0.4-0.1-0.5V22.8H0l25.8,22.9c0.5,0.4,0.7,1,0.7,1.7c0,0.6-0.3,1.2-0.7,1.7
			L0,71.9h77.4L41.1,53.3C41.1,53.4,41.1,53.4,41.1,53.3z M447.5,47.3c0-0.6,0.3-1.2,0.7-1.7L474,22.8h-39.9v28.7
			c0,0.2,0,0.4-0.1,0.5c0,0,0,0.1,0,0.1c0,0.1-0.1,0.3-0.2,0.4c0,0,0,0.1-0.1,0.1c-0.1,0.2-0.2,0.3-0.3,0.4c0,0-0.1,0-0.1,0.1
			c-0.1,0.1-0.2,0.2-0.4,0.3c0,0,0,0-0.1,0l-36.2,18.6H474L448.2,49C447.8,48.6,447.5,48,447.5,47.3z M84.4,70.5V53.6h-33L84.4,70.5
			z M389.6,53.6v16.9l33-16.9H389.6z M429.7,1.4V0H44.4v1.4v47.8h385.3V1.4z"/>
	</g>
</g>
</svg>
