<?xml version="1.0" encoding="utf-8"?>
<!-- Generator: Adobe Illustrator 19.2.1, SVG Export Plug-In . SVG Version: 6.00 Build 0)  -->
<svg version="1.1" id="Layer_1" xmlns="http://www.w3.org/2000/svg" xmlns:xlink="http://www.w3.org/1999/xlink" x="0px" y="0px"
	 viewBox="0 0 50 43" style="enable-background:new 0 0 50 43;" xml:space="preserve">
<style type="text/css">
	.st0{fill:#ED2024;}
</style>
<path class="st0" d="M24.9,43c-0.8,0-1.5-0.3-2.1-0.9c-1.6-1.7-6-3.5-10.3-3.5H2.2c-1.2,0-2.2-1-2.2-2.2V2.2C0,1,1,0,2.2,0h10.3
	c5,0,9.5,1.4,12,3.9h1.1c2.5-2.4,7-3.9,12-3.9h10.3C49,0,50,1,50,2.2v34.2c0,1.2-1,2.2-2.2,2.2H37.5c-4.3,0-8.7,1.8-10.3,3.6
	c-0.5,0.6-1.3,0.9-2.1,0.9H24.9z M2.9,3.7v31.2L4,36h9c3.8,0,6.8,0.5,9.4,2l0.6-1V8c0-2.5-4-5.1-10.5-5.1H3.6L2.9,3.7z M37.5,2.9
	C31,2.9,27,5.7,27,8.1l-0.1,28.7l0.7,1.1c2.6-1.5,5.6-2,9.4-2h9l1.1-1.1V3.7l-0.8-0.8H37.5z"/>
</svg>
