<?xml version="1.0" encoding="utf-8"?>
<!-- Generator: Adobe Illustrator 19.2.1, SVG Export Plug-In . SVG Version: 6.00 Build 0)  -->
<svg version="1.1" id="Layer_1" xmlns="http://www.w3.org/2000/svg" xmlns:xlink="http://www.w3.org/1999/xlink" x="0px" y="0px"
	 viewBox="0 0 93 39" style="enable-background:new 0 0 93 39;" xml:space="preserve">
<style type="text/css">
	.st0{fill:#E20613;}
</style>
<g>
	<g>
		<path class="st0" d="M92.5,13.2c-0.7-4.5-2.2-8.8-4.4-12.8C88,0.2,87.6,0,87.4,0c-1.2,0-2.3,0-3.5,0.2C79,0.7,74.3,1.9,69.7,3.8
			C66,5.3,62.6,7.1,59.6,9.6c-0.2,0.2-0.5,0.4-0.5,0.6c0,1.2,0,2.3,0,3.5c3.4-0.2,6.7-0.5,10-0.6c3.3-0.2,6.6,0,9.9,0.3
			c-0.1,0.1-0.3,0.2-0.4,0.2c-1.5,0.2-3,0.4-4.5,0.7c-4.9,0.9-9.8,2.1-14.5,3.7C59.2,18,59,18.2,59,18.6c0,0.6,0,1.2,0,1.8
			c0,0.5,0.2,0.6,0.6,0.8c5.9,2,11.8,3.4,18,4.3c0.5,0.1,0.9,0.2,1.4,0.2c-6.6,0.7-13.2,0.4-19.9-0.4c0,0.7,0.1,1.3,0,1.9
			c-0.2,1.4,0.4,2.3,1.5,3.1c4.8,3.4,10.1,5.7,15.7,7.2c3.6,0.9,7.2,1.5,10.9,1.6c0.3,0,0.6,0,0.9-0.4c2.3-4.3,3.9-8.8,4.5-13.6
			C93.2,21.1,93.1,17.1,92.5,13.2z M33,9.2C24.9,3.3,15.7,0.5,5.7,0C5.2,0,5,0.2,4.8,0.6c-3.9,7.3-5.4,15-4.6,23.2
			c0.5,5.2,2.1,10.1,4.6,14.7C5,38.8,5.2,39,5.6,39c1.1-0.1,2.3-0.1,3.4-0.2c4.7-0.5,9.3-1.6,13.7-3.3c3.9-1.5,7.5-3.4,10.7-6
			c0.2-0.2,0.5-0.4,0.5-0.6c0-1.2,0-2.3,0-3.6c-6.7,0.8-13.3,1-20,0.5c0.1-0.1,0.3-0.1,0.4-0.2c1.7-0.3,3.5-0.5,5.2-0.8
			c4.7-0.9,9.3-2.1,13.8-3.6c0.4-0.1,0.5-0.3,0.5-0.7c0-0.6,0-1.3,0-1.9c0-0.4-0.2-0.6-0.5-0.7c-5.9-2-11.9-3.4-18-4.3
			c-0.5-0.1-1-0.2-1.4-0.2c6.6-0.6,13.3-0.4,19.9,0.4c0-0.2,0.1-0.2,0.1-0.3c0-0.8-0.1-1.5,0-2.3C34.1,10.3,33.7,9.7,33,9.2z
			 M56,10.6c0-0.2-0.1-0.6-0.3-0.7c-2.5-1.2-5.2-2-8-2.2c-3.6-0.2-6.9,0.6-10.2,2.1c-0.5,0.2-0.6,0.4-0.6,1c0,2.5,0,5,0,7.5
			c0,3.4,0,6.8,0,10.2c0,0.3,0.1,0.6,0.3,0.7c2.5,1.2,5.2,2,8,2.2c3.6,0.2,7-0.6,10.3-2.1c0.4-0.2,0.5-0.4,0.5-0.8c0-3,0-5.9,0-8.9
			C56,16.5,56.1,13.6,56,10.6z"/>
	</g>
</g>
</svg>
