<?xml version="1.0" encoding="utf-8"?>
<!-- Generator: Adobe Illustrator 19.2.1, SVG Export Plug-In . SVG Version: 6.00 Build 0)  -->
<svg version="1.1" id="Layer_1" xmlns="http://www.w3.org/2000/svg" xmlns:xlink="http://www.w3.org/1999/xlink" x="0px" y="0px"
	 viewBox="0 0 52 48" style="enable-background:new 0 0 52 48;" xml:space="preserve">
<style type="text/css">
	.st0{fill:#E20613;}
</style>
<g>
	<g>
		<path class="st0" d="M45.6,29.3c3.8-1.7,6.4-5.5,6.4-9.7C52,13.8,47.3,9,41.5,9c-1.2,0-2.4,0.2-3.5,0.6C36.7,4.1,31.7,0,25.9,0
			c-3.1,0-6.1,1.2-8.4,3.3c-1.8,1.7-3.1,3.9-3.6,6.2C12.8,9.2,11.6,9,10.5,9C4.7,9,0,13.8,0,19.6c0,4.2,2.5,8,6.3,9.7
			c-0.1,0.7-0.2,1.4-0.2,2.1c0,6.2,5,11.3,11.2,11.3c3.4,0,6.5-1.5,8.7-4.1c2.1,2.6,5.3,4.1,8.7,4.1c6.2,0,11.2-5.1,11.2-11.3
			C45.8,30.7,45.8,30,45.6,29.3z M15.1,34.5L14.5,33l2.9-11.2l-6.2,2.3L10.5,22l9.3-3.5l0.5,1.5l-2.8,11.3l6.3-2.3l0.8,2.1
			L15.1,34.5z M24.4,26l-0.2-1.2l3.5-7.9l-4.8,0.9l-0.3-1.6l7.3-1.4l0.2,1.2l-3.5,8l4.9-0.9l0.3,1.6L24.4,26z M38.7,14.9l-4.2,5
			l3.7,0.4l-0.1,1.2L32.5,21l0.1-0.9l4.2-5l-3.7-0.3l0.1-1.2l5.6,0.5L38.7,14.9z M47.8,39.5c-2.3,0-4.2,1.9-4.2,4.2
			c0,2.3,1.9,4.2,4.2,4.2c2.3,0,4.2-1.9,4.2-4.2C52,41.4,50.1,39.5,47.8,39.5z"/>
	</g>
</g>
</svg>
