<?xml version="1.0" encoding="utf-8"?>
<!-- Generator: Adobe Illustrator 19.2.1, SVG Export Plug-In . SVG Version: 6.00 Build 0)  -->
<svg version="1.1" id="Layer_1" xmlns="http://www.w3.org/2000/svg" xmlns:xlink="http://www.w3.org/1999/xlink" x="0px" y="0px"
	 viewBox="0 0 37.8 38.1" style="enable-background:new 0 0 37.8 38.1;" xml:space="preserve">
<style type="text/css">
	.st0{fill:#FFFFFF;}
</style>
<path class="st0" d="M18.9,5.1c-0.7,0-1.3,0.6-1.3,1.3v11.4h-6.3c-0.7,0-1.3,0.6-1.3,1.3c0,0.7,0.6,1.3,1.3,1.3h7.6
	c0.7,0,1.3-0.6,1.3-1.3V6.4C20.2,5.6,19.6,5.1,18.9,5.1z M18.9,0C8.5,0,0,8.5,0,19.1c0,10.5,8.5,19.1,18.9,19.1s18.9-8.5,18.9-19.1
	C37.9,8.5,29.4,0,18.9,0z M18.9,35.6c-9.1,0-16.4-7.4-16.4-16.5c0-9.1,7.3-16.5,16.4-16.5c9.1,0,16.4,7.4,16.4,16.5
	C35.4,28.2,28,35.6,18.9,35.6z"/>
</svg>
