<?xml version="1.0" encoding="utf-8"?>
<!-- Generator: Adobe Illustrator 19.2.1, SVG Export Plug-In . SVG Version: 6.00 Build 0)  -->
<svg version="1.1" id="Layer_1" xmlns="http://www.w3.org/2000/svg" xmlns:xlink="http://www.w3.org/1999/xlink" x="0px" y="0px"
	 viewBox="0 0 50 64" style="enable-background:new 0 0 50 64;" xml:space="preserve">
<style type="text/css">
	.st0{fill:#FFFFFF;}
</style>
<g>
	<g>
		<path class="st0" d="M43.7,3H36V0H14v3H6.3C2.8,3,0,5.8,0,9.3v48.4C0,61.2,2.8,64,6.3,64h37.4c3.5,0,6.3-2.8,6.3-6.3V9.3
			C50,5.8,47.2,3,43.7,3z M16.6,2.6h16.9V6H16.6V2.6z M47.4,57.7c0,2-1.7,3.7-3.7,3.7H6.3c-2,0-3.7-1.7-3.7-3.7V9.3
			c0-2,1.7-3.7,3.7-3.7H14v3H36v-3h7.7c2,0,3.7,1.7,3.7,3.7V57.7z M36.3,29.4l-1.4,2.1c-0.2,0.3-0.5,0.3-0.6,0.3
			c-0.1,0-0.4,0-0.6-0.3l0-0.1c-0.7-1-1.8-1.5-3-1.4c-1.2,0.1-2.2,0.8-2.7,1.9l-0.7,1.6c-0.2,0.4-0.6,0.4-0.7,0.4
			c-0.2,0-0.5-0.1-0.6-0.5l-1.6-6.2c-0.4-1.5-1.7-2.5-3.2-2.5h0c-1.6,0-2.8,1-3.2,2.5L16.4,33c-0.1,0.5-0.5,0.5-0.6,0.6
			c-0.2,0-0.5,0-0.7-0.4l-1.4-3.2c-0.5-1.2-1.7-2-3-2H6.9v2.6h3.7c0.3,0,0.6,0.2,0.7,0.4l1.4,3.2c0.6,1.3,1.9,2.1,3.3,2
			c1.4-0.1,2.6-1.1,2.9-2.5l1.4-5.9c0.1-0.5,0.5-0.6,0.7-0.6c0.2,0,0.6,0.1,0.7,0.5l1.6,6.2c0.4,1.4,1.5,2.4,2.9,2.5
			c0.1,0,0.2,0,0.3,0c1.3,0,2.4-0.7,3-1.9l0.7-1.6c0.2-0.3,0.5-0.4,0.6-0.4c0.1,0,0.4,0,0.7,0.3l0,0.1c0.6,0.9,1.6,1.5,2.7,1.5h0
			c1.1,0,2.1-0.6,2.7-1.5l1.4-2.1c0.1-0.2,0.4-0.3,0.6-0.3h4.1v-2.6h-4.1C37.9,27.9,36.9,28.5,36.3,29.4z M21.5,47.2H6.9v2.6h14.7
			V47.2z M6.9,56.2h29.3v-2.6H6.9V56.2z"/>
	</g>
</g>
</svg>
