<?xml version="1.0" encoding="utf-8"?>
<!-- Generator: Adobe Illustrator 19.2.1, SVG Export Plug-In . SVG Version: 6.00 Build 0)  -->
<svg version="1.1" id="Layer_1" xmlns="http://www.w3.org/2000/svg" xmlns:xlink="http://www.w3.org/1999/xlink" x="0px" y="0px"
	 viewBox="0 0 49.5 43.9" style="enable-background:new 0 0 49.5 43.9;" xml:space="preserve">
<g>
	<g>
		<path d="M18.5,29l8.1,2.5c0,0.1,0,0.1-0.1,0.2c-0.2,0.6-0.7,0.9-1.4,1c-2.7,0.4-7.1,0.2-7.1,0.2c-0.7,0-1.3,0.5-1.3,1.2
			c0,0.7,0.5,1.3,1.2,1.3c0.2,0,4.7,0.3,7.6-0.2c2.9-0.5,3.7-3,3.6-4.7c-0.1-0.5-0.4-0.9-0.9-1.1l-9-2.8c-4.5-1.4-9.4,1.1-9.6,1.3
			c0,0-0.1,0-0.1,0l-9,5.5C0,33.7-0.2,34.4,0.2,35c0.2,0.4,0.6,0.6,1.1,0.6c0.2,0,0.4-0.1,0.6-0.2l9-5.4
			C11.2,29.8,15.2,27.9,18.5,29z M49.4,26.9c-0.7-1.3-2.9-3.4-6.3-1.9c-3.2,1.4-9.9,4.7-9.9,4.7c-0.6,0.3-0.9,1-0.6,1.7
			c0.3,0.6,1,0.9,1.6,0.6c0.1,0,6.7-3.3,9.9-4.7c0.9-0.4,1.6-0.4,2.3,0c0,0,0,0,0.1,0L29.6,39.6c-1.2,0.9-2.7,1.2-4.2,1l-15-2.4
			c-0.3-0.1-0.7,0-1,0.3l-3.8,3.2c-0.5,0.4-0.6,1.2-0.2,1.7c0.2,0.3,0.6,0.4,0.9,0.4c0.3,0,0.6-0.1,0.8-0.3l3.4-2.8l14.4,2.3
			c2.1,0.3,4.3-0.2,6-1.5L49,28.5C49.5,28.1,49.7,27.4,49.4,26.9z M26.5,25.4c1.9,0,3.7-0.8,5.1-2.1c2.8-2.8,2.8-7.4,0-10.2
			c-1.4-1.4-3.2-2.1-5.1-2.1c-1.9,0-3.7,0.8-5.1,2.1c-2.8,2.8-2.8,7.4,0,10.2C22.8,24.7,24.6,25.4,26.5,25.4z M23.1,14.8
			c0.9-0.9,2.1-1.4,3.3-1.4c1.3,0,2.4,0.5,3.3,1.4c1.8,1.9,1.8,4.9,0,6.7c-0.9,0.9-2.1,1.4-3.3,1.4c-1.3,0-2.4-0.5-3.3-1.4
			C21.3,19.7,21.3,16.7,23.1,14.8z M34.9,11.3c1.5,0,2.9-0.6,4-1.7c2.2-2.2,2.2-5.8,0-8c-1.1-1.1-2.5-1.7-4-1.7S32,0.6,31,1.7
			c-2.2,2.2-2.2,5.8,0,8C32,10.7,33.4,11.3,34.9,11.3z M32.7,3.4c0.6-0.6,1.4-0.9,2.2-0.9c0.8,0,1.6,0.3,2.2,0.9
			c1.2,1.2,1.2,3.2,0,4.5c-0.6,0.6-1.4,0.9-2.2,0.9c-0.8,0-1.6-0.3-2.2-0.9C31.5,6.7,31.5,4.6,32.7,3.4z"/>
	</g>
</g>
</svg>
