<?xml version="1.0" encoding="iso-8859-1"?>
<!-- Generator: Adobe Illustrator 19.2.1, SVG Export Plug-In . SVG Version: 6.00 Build 0)  -->
<svg version="1.1" id="Layer_1" xmlns="http://www.w3.org/2000/svg" xmlns:xlink="http://www.w3.org/1999/xlink" x="0px" y="0px"
	 viewBox="-49 141 512 512" style="enable-background:new -49 141 512 512;" xml:space="preserve">
<path style="fill:#E20613;" d="M443.006,419.688c0,21.728-5.487,43.304-15.869,62.394l-82.051,150.872h-22.013
	c-0.007,0-0.014,0.001-0.021,0.001H241.14v-79.952c0-19.419,7.562-37.676,21.294-51.406l96.493-96.494
	c3.308-3.308,7.706-5.13,12.386-5.13s9.077,1.822,12.386,5.131c2.041,2.041,3.685,4.404,4.278,7.042
	c0.537,2.386,0.864,6.407,0.259,9.776c-0.758,2.914-2.259,5.674-4.538,7.952l-96.493,96.493
	c-7.114,7.115-11.032,16.574-11.032,26.635c0,5.522,4.477,9.998,9.998,9.998s9.998-4.476,9.998-9.998
	c0-4.72,1.839-9.158,5.176-12.496l96.493-96.493c9.316-9.317,12.689-22.355,10.135-34.374v-71.727
	c0-9.658,7.857-17.517,17.517-17.517c9.659,0,17.517,7.857,17.517,17.517V419.688z"/>
<path style="fill:#E20613;" d="M172.862,632.954H68.915L-13.134,482.08c-10.382-19.09-15.869-40.665-15.869-62.393v-81.776
	c0-9.658,7.857-17.517,17.517-17.517S6.03,328.252,6.03,337.912v71.727c-2.553,12.02,0.818,25.057,10.135,34.374l96.494,96.492
	c3.337,3.337,5.175,7.774,5.175,12.496c0,5.522,4.477,9.998,9.998,9.998s9.998-4.476,9.998-9.998
	c0-10.062-3.918-19.521-11.032-26.636l-96.495-96.491c-6.83-6.83-6.83-17.943,0-24.772c3.308-3.308,7.707-5.13,12.386-5.13
	s9.077,1.822,12.386,5.131l96.493,96.493c13.731,13.73,21.294,31.987,21.294,51.406V632.954z"/>
<path style="fill:#E20613;" d="M413.41,209.525h-4.499v-4.499c0-5.522-4.477-9.998-9.998-9.998c-5.521,0-9.998,4.476-9.998,9.998
	v4.499h-4.499c-5.521,0-9.998,4.476-9.998,9.998s4.477,9.998,9.998,9.998h4.499v4.499c0,5.522,4.477,9.998,9.998,9.998
	c5.521,0,9.998-4.476,9.998-9.998v-4.499h4.499c5.521,0,9.998-4.476,9.998-9.998S418.931,209.525,413.41,209.525z"/>
<path style="fill:#E20613;" d="M78.975,303.92h-4.499v-4.499c0-5.522-4.477-9.998-9.998-9.998s-9.998,4.476-9.998,9.998v4.499
	h-4.499c-5.521,0-9.998,4.476-9.998,9.998s4.477,9.998,9.998,9.998h4.499v4.499c0,5.522,4.477,9.998,9.998,9.998
	s9.998-4.476,9.998-9.998v-4.499h4.499c5.521,0,9.998-4.476,9.998-9.998S84.496,303.92,78.975,303.92z"/>
<path style="fill:#E20613;" d="M331.337,243.799c-0.278-0.134-28.201-13.667-61.136-36.054
	c-19.992-13.589-37.502-12.786-48.67-9.719c-6.452,1.771-11.524,4.452-14.954,6.663c-11.037-6.384-23.234-8.782-35.6-6.944
	c-11.129,1.655-19.593,6.228-23.648,8.808c-1.568,0.998-2.967,1.844-4.279,2.588l-71.122,40.363l68.29,60.559
	c11.318,10.037,23.981,17.085,37.636,20.949c11.216,3.173,21.565,4.413,30.896,4.413c15.472,0,28.14-3.411,37.276-7.072
	c7.284-2.919,14.155-7.201,20.425-12.727l75.62-66.651L331.337,243.799z M206.797,252.058c22.329,0,51.318,3.885,73.304,7.467
	c-23.2,7.154-51.214,14.021-73.288,14.021c-22.06,0-50.145-6.87-73.42-14.027C155.441,255.939,184.48,252.058,206.797,252.058z"/>
</svg>
