<?xml version="1.0" encoding="utf-8"?>
<!-- Generator: Adobe Illustrator 19.2.1, SVG Export Plug-In . SVG Version: 6.00 Build 0)  -->
<svg version="1.1" id="Layer_1" xmlns="http://www.w3.org/2000/svg" xmlns:xlink="http://www.w3.org/1999/xlink" x="0px" y="0px"
	 viewBox="0 0 40 50" style="enable-background:new 0 0 40 50;" xml:space="preserve">
<style type="text/css">
	.st0{fill:#FFFFFF;}
</style>
<g>
	<g>
		<path class="st0" d="M36.3,37.6C36.3,37.6,36.3,37.6,36.3,37.6L27.2,34c-0.3-0.1-0.6-0.4-0.7-0.8v-2.8l2.9-1.6c0,0,0,0,0.1,0
			c1.6-1,2.6-2.8,2.8-4.9c0,0,0,0,0-0.1v-1.4c1.4-0.4,2.5-1.7,2.5-3.3v-3.9c0-1.5-1-2.9-2.5-3.3V8.6c0-4.8-3.9-8.6-8.7-8.6h-7
			c-4.8,0-8.8,3.9-8.8,8.6v3.5c-1.4,0.4-2.5,1.7-2.5,3.3v3.9c0,1.6,1,2.9,2.5,3.3v1.4c0,0,0,0,0,0.1c0.2,2,1.2,3.8,2.8,4.9
			c0,0,0,0,0.1,0l2.8,1.6v2.8c-0.1,0.4-0.4,0.6-0.7,0.8l-9.1,3.6c0,0,0,0,0,0C1.5,38.5,0,40.9,0,43.3V49c0,0.5,0.4,1,1,1h22.1
			c0.5,0,1-0.4,1-1c0-0.5-0.4-1-1-1H2v-4.7c0-1.7,1-3.3,2.4-3.9l9.1-3.6c0,0,0,0,0,0c0.2-0.1,0.5-0.2,0.7-0.4
			c0.3,0.7,0.6,1.5,1.1,2.3c1.6,3,3.1,4.4,4.7,4.4c1.6,0,3.2-1.4,4.7-4.4c0.4-0.8,0.8-1.6,1.1-2.3c0.2,0.2,0.4,0.3,0.7,0.4
			c0,0,0,0,0,0l9.1,3.6C37,40,38,41.7,38,43.3V48h-8.2c-0.5,0-1,0.4-1,1c0,0.5,0.4,1,1,1H39c0.5,0,1-0.4,1-1v-5.7
			C40,40.9,38.5,38.5,36.3,37.6z M9.8,8.6c0-3.7,3-6.7,6.8-6.7h7c3.7,0,6.8,3,6.8,6.7v3.4h-5.9c-0.2-0.7-0.5-1.3-1-1.8
			C23,9.7,22.4,9.7,22,10c-0.4,0.4-0.4,1-0.1,1.4c0.4,0.5,0.7,1.1,0.7,1.7c0,1.4-1.2,2.5-2.6,2.5c-1.4,0-2.6-1.1-2.6-2.5
			c0-0.6,0.2-1.2,0.6-1.7c0.4-0.4,0.3-1-0.1-1.4c-0.4-0.4-1-0.3-1.4,0.1c-0.4,0.5-0.8,1.1-0.9,1.7H9.8V8.6z M25.1,29.1
			c-0.3,0.2-0.5,0.5-0.5,0.8v3.3c-0.2,0.5-0.8,2.1-1.6,3.6c-1.3,2.5-2.4,3.4-3,3.4c-1.3,0-3.4-3.6-4.6-7v-3.3c0-0.4-0.2-0.7-0.5-0.8
			l-3.3-1.9c-1-0.7-1.8-2-1.9-3.3v-2.2c0-0.5-0.4-1-1-1c-0.8,0-1.5-0.7-1.5-1.5v-3.9c0-0.8,0.7-1.5,1.5-1.5h6.8
			c0.4,2.1,2.2,3.7,4.5,3.7c2.2,0,4.1-1.6,4.5-3.7h6.8c0.8,0,1.5,0.7,1.5,1.5v3.9c0,0.8-0.7,1.5-1.5,1.5c-0.5,0-1,0.4-1,1v2.2
			c-0.1,1.4-0.8,2.6-1.9,3.3L25.1,29.1z M20,10.6L20,10.6c0.6,0,1-0.4,1-1c0-0.5-0.4-1-1-1h0c-0.5,0-1,0.4-1,1
			C19,10.1,19.5,10.6,20,10.6z M26.6,48c-0.3,0-0.5,0.1-0.7,0.3c-0.2,0.2-0.3,0.4-0.3,0.7c0,0.3,0.1,0.5,0.3,0.7
			c0.2,0.2,0.4,0.3,0.7,0.3c0.3,0,0.5-0.1,0.7-0.3c0.2-0.2,0.3-0.4,0.3-0.7c0-0.3-0.1-0.5-0.3-0.7C27.1,48.1,26.8,48,26.6,48z"/>
	</g>
</g>
</svg>
