<?xml version="1.0" encoding="utf-8"?>
<!-- Generator: Adobe Illustrator 19.2.1, SVG Export Plug-In . SVG Version: 6.00 Build 0)  -->
<svg version="1.1" id="Layer_1" xmlns="http://www.w3.org/2000/svg" xmlns:xlink="http://www.w3.org/1999/xlink" x="0px" y="0px"
	 viewBox="0 0 30.1 24.1" style="enable-background:new 0 0 30.1 24.1;" xml:space="preserve">
<style type="text/css">
	.st0{fill:#FFFFFF;}
</style>
<path class="st0" d="M27,0H3.1C1.4,0,0,1.5,0,3.4v17.3c0,1.9,1.4,3.4,3.1,3.4H27c1.7,0,3.1-1.5,3.1-3.4V3.4C30.1,1.5,28.7,0,27,0z
	 M25.9,2.5l-10.2,9c-0.4,0.4-1,0.4-1.4,0l-10.2-9H25.9z M27.8,20.7c0,0.5-0.4,0.9-0.8,0.9H3.1c-0.5,0-0.8-0.4-0.8-0.9V4.1l10.6,9.3
	c0.6,0.5,1.4,0.8,2.1,0.8c0.8,0,1.5-0.3,2.1-0.8l10.6-9.3V20.7z"/>
</svg>
