<?xml version="1.0" encoding="utf-8"?>
<!-- Generator: Adobe Illustrator 19.2.1, SVG Export Plug-In . SVG Version: 6.00 Build 0)  -->
<svg version="1.1" id="Layer_1" xmlns="http://www.w3.org/2000/svg" xmlns:xlink="http://www.w3.org/1999/xlink" x="0px" y="0px"
	 viewBox="0 0 63 63" style="enable-background:new 0 0 63 63;" xml:space="preserve">
<style type="text/css">
	.st0{fill-rule:evenodd;clip-rule:evenodd;fill:#E20613;}
	.st1{fill-rule:evenodd;clip-rule:evenodd;fill:#FFFFFF;}
</style>
<path class="st0" d="M31.5,0C48.9,0,63,14.1,63,31.5C63,48.9,48.9,63,31.5,63C14.1,63,0,48.9,0,31.5C0,14.1,14.1,0,31.5,0z"/>
<g>
	<g>
		<path class="st1" d="M49,14c-4.5-4.5-10.7-7.2-17.5-7.2c-6.8,0-13,2.8-17.5,7.2c-4.5,4.5-7.2,10.7-7.2,17.5c0,6.8,2.8,13,7.2,17.5
			c4.5,4.5,10.7,7.2,17.5,7.2c6.8,0,13-2.8,17.5-7.2c4.5-4.5,7.2-10.7,7.2-17.5C56.3,24.7,53.5,18.5,49,14z M47.6,47.6
			c-4.1,4.1-9.8,6.7-16.1,6.7c-6.3,0-12-2.5-16.1-6.7c-4.1-4.1-6.7-9.8-6.7-16.1c0-6.3,2.6-12,6.7-16.1c4.1-4.1,9.8-6.7,16.1-6.7
			c6.3,0,12,2.6,16.1,6.7c4.1,4.1,6.7,9.8,6.7,16.1C54.3,37.8,51.8,43.5,47.6,47.6z M33.4,24.4c0-1,0.6-1.2,1.1-1.2
			c0.5,0,2.8,0,2.8,0v-4.3h-3.9c-4.3,0-5.3,3.2-5.3,5.3v2.3h-2.5v3.1v2h2.5c0,5.7,0,12.6,0,12.6h5.1c0,0,0-7,0-12.6h3.7l0.2-2
			l0.3-3.1h-4V24.4z"/>
	</g>
</g>
</svg>
