<?xml version="1.0" encoding="utf-8"?>
<!-- Generator: Adobe Illustrator 19.2.1, SVG Export Plug-In . SVG Version: 6.00 Build 0)  -->
<svg version="1.1" id="Layer_1" xmlns="http://www.w3.org/2000/svg" xmlns:xlink="http://www.w3.org/1999/xlink" x="0px" y="0px"
	 viewBox="0 0 22.7 53.2" style="enable-background:new 0 0 22.7 53.2;" xml:space="preserve">
<style type="text/css">
	.st0{fill:#E20613;}
</style>
<g>
	<g>
		<path class="st0" d="M11.2,9c2.5,0,4.5-2,4.5-4.5c0-2.5-2-4.5-4.5-4.5C8.7,0,6.7,2,6.7,4.5C6.7,6.9,8.7,9,11.2,9z M12.8,11.1
			c-1.1-0.2-2.4-0.2-3.5,0C1.8,12-0.7,20.6,0,27.2c0.3,2.8,4.8,2.9,4.5,0c-0.3-2.4-0.1-6,1.1-8.6c0,3.1,0,6.2,0,9.4
			c0,0.1,0,0.2,0,0.3c0,0.1,0,0.1,0,0.1c0,7.4,0,14.9-0.3,22.3c-0.1,3.3,5.1,3.3,5.2,0c0.2-5.8,0.3-11.6,0.3-17.5c0.2,0,0.5,0,0.7,0
			c0,5.8,0.1,11.6,0.3,17.5c0.1,3.3,5.3,3.3,5.2,0c-0.3-7.4-0.3-14.8-0.3-22.3c0-0.2,0-0.4-0.1-0.6c0-3.2-0.1-6.5-0.1-9.7
			c1.5,2.6,1.7,6.5,1.4,9.1c-0.3,2.9,4.2,2.8,4.5,0C23.3,20.5,20.7,11.6,12.8,11.1z"/>
	</g>
</g>
</svg>
