<?xml version="1.0" encoding="utf-8"?>
<!-- Generator: Adobe Illustrator 19.2.1, SVG Export Plug-In . SVG Version: 6.00 Build 0)  -->
<svg version="1.1" id="Layer_1" xmlns="http://www.w3.org/2000/svg" xmlns:xlink="http://www.w3.org/1999/xlink" x="0px" y="0px"
	 viewBox="0 0 48.9 50" style="enable-background:new 0 0 48.9 50;" xml:space="preserve">
<style type="text/css">
	.st0{fill:#E20613;}
</style>
<g>
	<g>
		<path class="st0" d="M10.3,10.2C10.3,10.2,10.4,10.2,10.3,10.2c2.9,0,5.2-2.3,5.2-5.1c0-2.8-2.3-5.1-5.1-5.1c0,0-0.1,0-0.1,0
			C7.5,0,5.2,2.3,5.2,5.1C5.2,7.9,7.5,10.2,10.3,10.2z M39.2,10.2c2.8,0,5.1-2.3,5.1-5.1C44.3,2.3,42,0,39.2,0C36.3,0,34,2.3,34,5.1
			C34,8,36.3,10.2,39.2,10.2z M41.9,11.1c-0.5-0.3-1-0.5-1.5-0.6l-1.3,1.3l-1.2-1.3c0,0,0,0,0,0c-0.7,0.2-2.1,0.9-2.2,1
			c-3.9,2.4-5.7,6-7.5,14.2c-0.2,0.7,0.1,1.5,0.7,1.9c0.2,1.3,0.1,2.2-0.3,2.5c-0.7,0.5-1.7-0.3-2.1-0.6c-0.4-0.3-0.8-0.5-1.3-0.6
			c0,0,0,0,0,0l-0.7,0.8l-0.7-0.8c0,0,0,0,0,0c-0.5,0.1-0.9,0.3-1.3,0.6c-0.3,0.3-1.3,1.1-2.1,0.6c-0.4-0.3-0.5-1.2-0.3-2.5
			c0.4-0.4,0.7-0.9,0.7-1.5c0.5-12.1-8.3-15.4-9-15.6l-1.3,1.3l-1.3-1.3C8.3,10.7-0.5,14,0,26.1c0,1.1,0.9,2,2,2c0,0,0,0,0,0
			c1.1,0,2-0.9,2-2c0-2.2,0.1-3.9,0.5-5.2c0,0,0.3-1.2,0.6-1.4v3.1C4.5,25,2.2,35.2,2.2,36.7c0,0.7,1.4,1.3,3.4,1.6v9.3
			c0,1.3,0.9,2.3,2.1,2.3c1.3,0,2.4-1.1,2.4-2.3l0-9c0,0,0,0,0.1,0s0.4,0,0.4,0v9c0,1.3,1.1,2.3,2.4,2.3c1.3,0,2.2-1.1,2.2-2.3v-9.3
			c2-0.3,3.4-0.9,3.4-1.6c0-1.5-2.3-11.7-2.9-14.2v-3.1c0.3,0.2,0.6,1.4,0.6,1.4c0.3,1.4,0.5,3,0.5,5.2c0,0.8,0.4,1.4,1,1.8
			c-0.2,1.9,0.2,3.3,1.2,4c0.6,0.5,1.4,0.6,2,0.6c0.1,0,0.2,0,0.3,0c0,0.1,0,0.2,0,0.4v4.7c0,0.3,0.1,0.8,0.2,1.1c0,0.1,0,9.9,0,9.9
			c0,0.8,0.6,1.4,1.4,1.4c0.8,0,1.4-0.6,1.4-1.4v-8.3h0v0l0.1,0l0.1,0v0h0v8.3c0,0.8,0.6,1.4,1.4,1.4c0.8,0,1.4-0.6,1.4-1.4
			c0,0,0-9.8,0-9.9c0.1-0.3,0.2-0.8,0.2-1.1v-4.7c0-0.1,0-0.2,0-0.4c0.1,0,0.2,0,0.3,0c0.7,0,1.4-0.2,2-0.6c1-0.8,1.4-2.1,1.2-4
			c0.1-0.1,0.2-0.1,0.3-0.2c0.3-0.3,0.5-0.6,0.6-1.1c0.6-2.7,1.2-4.7,1.8-6.6v6.3c0,0.6,0.1,1.2,0.4,1.8l0,19.6
			c0,1.3,1.1,2.3,2.4,2.3c1.3,0,2.4-1.1,2.4-2.3V30.8l0.3,0v16.8c0,1.3,1.1,2.4,2.4,2.4c1.3,0,2.4-1.1,2.4-2.4l0-19.6
			c0.3-0.5,0.4-1.1,0.4-1.8V20c0,0,1,1.7,0.5,5.7c-0.1,1.1,0.7,2.1,1.8,2.2c0.1,0,0.1,0,0.2,0c1,0,1.9-0.8,2-1.8
			C49.8,17.2,45,12.9,41.9,11.1z M39.2,24.5c-0.3,0-0.6-0.3-0.6-0.6c0-0.3,0.3-0.6,0.6-0.6c0.3,0,0.6,0.3,0.6,0.6
			C39.7,24.2,39.5,24.5,39.2,24.5z M39.2,22.6c-0.3,0-0.6-0.3-0.6-0.6c0-0.3,0.3-0.6,0.6-0.6c0.3,0,0.6,0.3,0.6,0.6
			C39.7,22.3,39.5,22.6,39.2,22.6z M39.2,20.8c-0.3,0-0.6-0.3-0.6-0.6c0-0.3,0.3-0.6,0.6-0.6c0.3,0,0.6,0.3,0.6,0.6
			C39.7,20.5,39.5,20.8,39.2,20.8z M39.2,18.5l-0.9-5.1l0.8-0.8l0.9,0.8L39.2,18.5z M24.3,28.7C24.4,28.7,24.4,28.7,24.3,28.7
			c0.1,0,0.1,0,0.1,0c0,0,0,0,0,0c0,0,0.1,0,0.1,0c1.7-0.1,3-1.4,3-3.1c0-1.7-1.3-3-3-3.1c0,0-0.1,0-0.1,0c0,0,0,0,0,0c0,0,0,0,0,0
			c0,0-0.1,0-0.1,0c-1.7,0.1-3,1.4-3,3.1C21.3,27.3,22.7,28.7,24.3,28.7z"/>
	</g>
</g>
</svg>
