<?xml version="1.0" encoding="utf-8"?>
<!-- Generator: Adobe Illustrator 19.2.1, SVG Export Plug-In . SVG Version: 6.00 Build 0)  -->
<svg version="1.1" id="Layer_1" xmlns="http://www.w3.org/2000/svg" xmlns:xlink="http://www.w3.org/1999/xlink" x="0px" y="0px"
	 viewBox="0 0 24 52" style="enable-background:new 0 0 24 52;" xml:space="preserve">
<style type="text/css">
	.st0{fill:#E20613;}
</style>
<g>
	<g>
		<path class="st0" d="M16.6,24.7c-1.2,0-2.1,0.9-2.2,2.1c0,1.2,0.9,2.2,2.1,2.2c0.1,0,0.2,0,0.2,0c2.8,0,4.5-1.3,5.5-2.4
			c1.5-1.8,2.1-4.3,1.7-7.1c0-0.1,0-0.1,0-0.2c-0.4-4.5-1.5-5.7-2.6-7.3c-0.7-1.4-2.4-1.6-4.7-1.9L12.6,10l-3.9,0.1
			c-2.4,0.3-3.8,1.1-4.5,2.1C1.7,16.1,0.5,20.3,0,24.9c-0.3,3,4.3,3,4.6,0c0.2-2.4,0.8-4.8,1.8-7c0,0,2.4,0,0.2,2.9
			c-2.2,2.8-3.2,21.3-3.2,21.3h0.8h2.7v7.6c0,1.3,1,2.3,2.3,2.3c1,0,1.8-0.6,2.1-1.5c0.1-0.3,0.2-0.7,0.2-1v-7.4h2.3v7.4
			c0,0.4,0.1,0.7,0.2,1c0.3,0.9,1.2,1.5,2.1,1.5c1.3,0,2.3-1,2.3-2.3v-7.6h2.7h0.8c0,0-0.2-6.9-0.9-13c-1.1,0.6-2.5,1.1-4.2,1.1
			l-0.3,0c-1.8,0-3.3-1.6-3.3-3.5c0-1.9,1.5-3.3,3.3-3.3l0.2,0c1.2,0.2,2-1.1,2.8-1.1c-0.3-0.8-0.6-1.4-1-1.7
			c-3-2.5,0.4-2.6,0.4-2.6c0.3,0.2,0.7,1,0.8,2.6c0.1,1.3-0.1,2.5-0.7,3.3C18.5,24.4,17.7,24.7,16.6,24.7z M12.6,9.1
			C12.6,9.1,12.6,9,12.6,9.1c0.1,0,0.1,0,0.1,0c2.4,0,4.4-2,4.4-4.5c0-2.5-2-4.5-4.4-4.5c0,0,0,0-0.1,0c0,0,0,0-0.1,0
			c-2.4,0-4.4,2-4.4,4.5C8.2,7,10.1,9.1,12.6,9.1z"/>
	</g>
</g>
</svg>
