<?xml version="1.0" encoding="utf-8"?>
<!-- Generator: Adobe Illustrator 19.2.1, SVG Export Plug-In . SVG Version: 6.00 Build 0)  -->
<svg version="1.1" id="Layer_1" xmlns="http://www.w3.org/2000/svg" xmlns:xlink="http://www.w3.org/1999/xlink" x="0px" y="0px"
	 viewBox="0 0 50 50" style="enable-background:new 0 0 50 50;" xml:space="preserve">
<style type="text/css">
	.st0{fill:#FFFFFF;}
</style>
<path class="st0" d="M39,9.7c0.9-1,1.5-2.4,1.5-3.9C40.5,2.6,38,0,34.9,0c-2.3,0-7.8,3.5-9.9,6.7c-2.2-3.2-7.6-6.6-9.9-6.6
	c-3.1,0-5.6,2.6-5.6,5.7c0,1.5,0.6,2.8,1.4,3.8H0v13.7h3V50h15.6h12.8H47V23.4h3V9.7H39z M34.9,2.1c1.9,0,3.5,1.6,3.5,3.7
	c0,1.8-1.3,3.3-2.9,3.7h-8.6c-0.6-0.2-0.7-0.4-0.7-0.5C26.2,7.2,32.6,2.1,34.9,2.1z M15.1,2.1c2.2,0,8.7,5.1,8.7,6.9
	c0,0.2-0.4,0.3-0.7,0.5h-8.7c-1.6-0.3-2.9-1.9-2.9-3.7C11.6,3.8,13.2,2.1,15.1,2.1z M18.6,47.9H5.1V23.4h13.5V47.9z M18.6,21.4H2.1
	v-9.6h16.5L18.6,21.4L18.6,21.4z M29.3,47.9h-8.5V11.8h8.5V47.9z M44.9,47.9H31.4V23.4h13.5V47.9z M47.9,21.4H31.4v-9.6h16.5
	L47.9,21.4L47.9,21.4z"/>
</svg>
