<?xml version="1.0" encoding="utf-8"?>
<!-- Generator: Adobe Illustrator 19.2.1, SVG Export Plug-In . SVG Version: 6.00 Build 0)  -->
<svg version="1.1" id="Layer_1" xmlns="http://www.w3.org/2000/svg" xmlns:xlink="http://www.w3.org/1999/xlink" x="0px" y="0px"
	 viewBox="0 0 49 52" style="enable-background:new 0 0 49 52;" xml:space="preserve">
<style type="text/css">
	.st0{fill:#FFFFFF;}
</style>
<g>
	<g>
		<path class="st0" d="M12.2,27.9c-0.4,0.4-0.4,1,0,1.4c0.2,0.2,0.4,0.3,0.7,0.3c0.3,0,0.5-0.1,0.7-0.3c0.9-0.9,2.4-0.9,3.4,0
			c0.4,0.4,1,0.4,1.4,0c0.4-0.4,0.4-1,0-1.4C16.6,26.2,13.9,26.2,12.2,27.9z M16.7,35.9c-0.9,0.9-2.4,0.9-3.4,0
			c-0.4-0.4-1-0.4-1.4,0c-0.4,0.4-0.4,1,0,1.4c0.8,0.8,2,1.3,3.1,1.3c1.1,0,2.2-0.4,3.1-1.3c0.4-0.4,0.4-1,0-1.4
			C17.7,35.5,17.1,35.5,16.7,35.9z M35.8,35.9c-0.9,0.9-2.4,0.9-3.4,0c-0.4-0.4-1-0.4-1.4,0c-0.4,0.4-0.4,1,0,1.4
			c0.8,0.8,2,1.3,3.1,1.3c1.1,0,2.2-0.4,3.1-1.3c0.4-0.4,0.4-1,0-1.4C36.8,35.5,36.2,35.5,35.8,35.9z M32.1,29.3
			c0.9-0.9,2.4-0.9,3.4,0c0.2,0.2,0.4,0.3,0.7,0.3c0.3,0,0.5-0.1,0.7-0.3c0.4-0.4,0.4-1,0-1.4c-1.7-1.7-4.4-1.7-6.1,0
			c-0.4,0.4-0.4,1,0,1.4C31.1,29.7,31.7,29.7,32.1,29.3z M15,34.9c1,0,1.7-0.8,1.7-1.7c0-1-0.8-1.7-1.7-1.7s-1.7,0.8-1.7,1.7
			C13.3,34.1,14.1,34.9,15,34.9z M34.1,31.5c-1,0-1.7,0.8-1.7,1.7c0,1,0.8,1.7,1.7,1.7c1,0,1.7-0.8,1.7-1.7
			C35.8,32.2,35.1,31.5,34.1,31.5z M49.1,26.5c0-1.4-0.6-2.6-1.6-3.5c0.9-0.9,1.5-2.1,1.5-3.4c0-1.4-0.6-2.7-1.6-3.6
			c0.3-0.7,0.5-1.4,0.5-2.2c0-2-1.2-3.7-3-4.4c0.2-0.5,0.3-1,0.3-1.5c0-2.6-2.1-4.7-4.7-4.7c-0.2,0-0.5,0-0.7,0
			c-0.8-1.5-2.4-2.5-4.1-2.5c-0.9,0-1.8,0.3-2.5,0.7C32.3,0.5,31,0,29.7,0c-0.9,0-1.8,0.3-2.5,0.7C26.5,0.3,25.6,0,24.7,0
			c-0.1,0-0.1,0-0.2,0c-1,0-1.9,0.2-2.7,0.7C21.1,0.3,20.3,0,19.4,0c-1.3,0-2.5,0.5-3.4,1.5c-0.7-0.5-1.6-0.7-2.5-0.7
			c-1.8,0-3.3,1-4.1,2.5c-0.2,0-0.5,0-0.7,0C6.1,3.2,4,5.3,4,7.8c0,0.5,0.1,1,0.3,1.5c-1.8,0.7-3,2.4-3,4.4c0,0.8,0.2,1.5,0.5,2.2
			c-1,0.9-1.6,2.2-1.6,3.6c0,1.3,0.5,2.6,1.5,3.4c-1,0.9-1.6,2.1-1.6,3.5c0,1.4,0.6,2.7,1.7,3.6c-0.1,0.5-0.2,1-0.2,1.5
			c0,2.5,1.8,4.6,4.2,5.1v4.2c0,2.2,0.9,4.3,2.4,5.8c1.5,1.5,3.5,2.4,5.6,2.3c1.4,0,2.7-0.4,3.9-1c1.4,2.5,4,4,6.9,4
			c2.9,0,5.5-1.5,6.9-4c1.2,0.7,2.5,1,3.9,1h0c2.1,0,4.1-0.8,5.6-2.3c1.5-1.5,2.4-3.7,2.4-5.8v-4.2c2.4-0.5,4.2-2.6,4.2-5.1
			c0-0.5-0.1-1-0.2-1.5C48.5,29.2,49.1,27.9,49.1,26.5z M5.6,34.6c-1.3-0.4-2.2-1.6-2.2-3.1c0-1.5,1-2.8,2.5-3.1
			C5.7,30.5,5.7,32.6,5.6,34.6z M41.5,40.9c0,1.6-0.7,3.3-1.8,4.4c-1.2,1.2-2.7,1.8-4.2,1.8c-1.4,0-2.6-0.5-3.7-1.3
			c-0.2-0.2-0.6-0.3-0.9-0.2c-0.3,0.1-0.5,0.3-0.7,0.6c-0.9,2.3-3.1,3.8-5.6,3.8c-2.5,0-4.7-1.5-5.6-3.8c-0.1-0.3-0.4-0.5-0.7-0.6
			c-0.1,0-0.2,0-0.3,0c-0.2,0-0.4,0.1-0.6,0.2c-1.1,0.8-2.3,1.3-3.7,1.3c-1.6,0-3.1-0.6-4.2-1.8c-1.2-1.2-1.8-2.8-1.8-4.4v-5.8
			c0-6.1,0.6-12.3,1.8-18.3c0.8,1.4,2.4,2.3,4,2.3c0.9,0,1.8-0.3,2.5-0.7c0.9,0.9,2.1,1.5,3.4,1.5c0.9,0,1.8-0.3,2.5-0.7
			c0.7,0.5,1.6,0.7,2.5,0.7c0.1,0,0.1,0,0.2,0c0.1,0,0.1,0,0.2,0c0.9,0,1.8-0.3,2.5-0.7c0.7,0.5,1.6,0.7,2.5,0.7
			c1.3,0,2.5-0.5,3.4-1.5c0.7,0.5,1.6,0.7,2.5,0.7c1.7,0,3.2-0.9,4-2.3c1.2,6,1.8,12.2,1.8,18.3V40.9z M43.5,34.6
			c0-2.1-0.1-4.1-0.2-6.2c1.4,0.3,2.5,1.6,2.5,3.1C45.7,33,44.8,34.2,43.5,34.6z M46.5,28.3c-0.8-1-2-1.7-3.4-1.8
			c-0.3-3.5-0.8-6.9-1.5-10.3c-0.2-0.7-0.8-1.3-1.5-1.4c0,0,0,0-0.1,0c-0.8-0.1-1.5,0.3-1.9,1c-0.5,0.9-1.4,1.5-2.4,1.5
			c-0.8,0-1.5-0.3-2-0.9c-0.2-0.2-0.5-0.3-0.8-0.3c-0.3,0-0.6,0.2-0.7,0.5c-0.5,0.9-1.4,1.4-2.4,1.4c-0.7,0-1.3-0.3-1.8-0.7
			c-0.4-0.3-1-0.3-1.3,0c-0.5,0.5-1.2,0.7-1.8,0.7c0,0-0.1,0-0.1,0c0,0-0.1,0-0.1,0c0,0-0.1,0-0.1,0c-0.7,0-1.3-0.3-1.8-0.7
			c-0.4-0.3-1-0.3-1.3,0c-0.5,0.5-1.2,0.7-1.8,0.7c-1,0-1.9-0.5-2.4-1.4c-0.2-0.3-0.4-0.5-0.7-0.5c-0.3,0-0.6,0.1-0.8,0.3
			c-0.5,0.5-1.2,0.9-2,0.9c-1,0-1.9-0.6-2.4-1.5c-0.4-0.7-1.1-1.1-1.9-1c0,0,0,0-0.1,0c-0.7,0.1-1.3,0.7-1.5,1.4l0,0
			C6.9,19.5,6.4,23,6,26.4c-1.4,0.2-2.6,0.8-3.4,1.8C2.2,27.8,2,27.1,2,26.5c0-1.1,0.7-2.2,1.8-2.6c0.4-0.1,0.6-0.5,0.7-0.9
			c0-0.4-0.2-0.8-0.6-0.9c-1-0.4-1.7-1.4-1.7-2.5c0-1,0.6-2,1.5-2.4C3.8,17,4,16.7,4.1,16.4c0.1-0.3,0-0.6-0.2-0.8
			c-0.4-0.5-0.7-1.1-0.7-1.8c0-1.5,1.1-2.6,2.6-2.7c0.4,0,0.7-0.2,0.8-0.6c0.2-0.3,0.1-0.7-0.1-1C6.2,9,6,8.4,6,7.8
			c0-1.5,1.2-2.7,2.7-2.7c0.3,0,0.6,0.1,0.9,0.2c0.3,0.1,0.5,0.1,0.8,0c0.2-0.1,0.4-0.3,0.5-0.6c0.3-1.1,1.4-1.9,2.6-1.9
			c0.8,0,1.5,0.3,2,0.9c0.2,0.2,0.5,0.3,0.8,0.3c0.3,0,0.6-0.2,0.7-0.5C17.5,2.5,18.4,2,19.4,2c0.7,0,1.3,0.3,1.8,0.7
			c0.4,0.3,1,0.3,1.3,0C23,2.2,23.7,2,24.4,2c0,0,0.1,0,0.1,0c0,0,0.1,0,0.1,0c0,0,0.1,0,0.1,0c0.7,0,1.3,0.3,1.8,0.7
			c0.4,0.3,1,0.3,1.3,0C28.4,2.2,29.1,2,29.7,2c1,0,1.9,0.5,2.4,1.4c0.2,0.3,0.4,0.5,0.7,0.5c0.3,0,0.6-0.1,0.8-0.3
			c0.5-0.5,1.2-0.9,2-0.9c1.2,0,2.2,0.8,2.6,1.9c0.1,0.3,0.3,0.5,0.5,0.6c0.2,0.1,0.5,0.1,0.8,0c0.3-0.1,0.6-0.2,0.9-0.2
			c1.5,0,2.7,1.2,2.7,2.7c0,0.6-0.2,1.2-0.5,1.6c-0.2,0.3-0.3,0.7-0.1,1c0.2,0.3,0.5,0.6,0.8,0.6c1.4,0.1,2.6,1.3,2.6,2.7
			c0,0.7-0.2,1.3-0.7,1.8c-0.2,0.2-0.3,0.5-0.2,0.8c0.1,0.3,0.2,0.6,0.5,0.7c0.9,0.5,1.5,1.4,1.5,2.4c0,1.1-0.7,2.1-1.7,2.5
			c-0.4,0.2-0.6,0.5-0.6,0.9c0,0.4,0.3,0.8,0.7,0.9c1.1,0.4,1.8,1.4,1.8,2.6C47.2,27.1,46.9,27.8,46.5,28.3z M28.5,39.6h-7.9
			c-0.5,0-1,0.4-1,1c0,2.7,2.2,4.9,4.9,4.9c2.7,0,4.9-2.2,4.9-4.9C29.5,40.1,29,39.6,28.5,39.6z M24.6,43.6c-1.3,0-2.4-0.8-2.8-2
			h5.5C26.9,42.7,25.8,43.6,24.6,43.6z"/>
	</g>
</g>
</svg>
