<?xml version="1.0" encoding="utf-8"?>
<!-- Generator: Adobe Illustrator 19.2.1, SVG Export Plug-In . SVG Version: 6.00 Build 0)  -->
<svg version="1.1" id="Layer_1" xmlns="http://www.w3.org/2000/svg" xmlns:xlink="http://www.w3.org/1999/xlink" x="0px" y="0px"
	 viewBox="0 0 44 44" style="enable-background:new 0 0 44 44;" xml:space="preserve">
<style type="text/css">
	.st0{fill:#FFFFFF;}
</style>
<path class="st0" d="M23.4,10.8c-0.9-0.2-1.7,0.2-2,0.9l-1.2,3.9c-0.2,0.8,0.3,1.6,1.2,1.9l0.7,0.2l1.5,0.4c0,0.1,0,0.2,0,0.3
	c0,1,0,2.5-0.5,4.3c-0.6,1.8-1.4,3-2,3.8c-0.1,0.1-0.1,0.2-0.2,0.3l-2.2-0.7h-0.1c-0.9-0.2-1.7,0.2-2,0.9l-1.2,3.9
	c-0.2,0.8,0.3,1.6,1.2,1.9l1.2,0.4l0,0c0.5,0.1,1,0.1,1.5,0.1s0.9-0.1,1.3-0.3c0.2-0.1,4.6-1.6,6.8-8.9c1.6-5.2,1.5-8.5-0.6-11.1
	c-0.3-0.3-0.6-0.6-0.9-0.9c-0.4-0.3-0.8-0.6-1.3-0.8l0,0L23.4,10.8C23.5,10.8,23.4,10.8,23.4,10.8"/>
</svg>
