<?xml version="1.0" encoding="utf-8"?>
<!-- Generator: Adobe Illustrator 19.2.1, SVG Export Plug-In . SVG Version: 6.00 Build 0)  -->
<svg version="1.1" id="Layer_1" xmlns="http://www.w3.org/2000/svg" xmlns:xlink="http://www.w3.org/1999/xlink" x="0px" y="0px"
	 viewBox="0 0 54 39" style="enable-background:new 0 0 54 39;" xml:space="preserve">
<style type="text/css">
	.st0{fill:#FFFFFF;}
</style>
<g>
	<g>
		<path class="st0" d="M53.7,13l-10-10c-0.4-0.4-1.1-0.4-1.5,0c-0.4,0.4-0.4,1.1,0,1.5l9.2,9.3L46,19.1c-0.2,0.2-0.4,0.2-0.6,0
			L34.8,8.4c-0.2-0.2-0.2-0.4,0-0.6l3.6-3.6c0.4-0.4,0.4-1.1,0-1.5c-0.4-0.4-1.1-0.4-1.5,0l-3.6,3.6c-0.8,0.8-0.9,1.9-0.5,2.8
			l-1.2,1.2h-8.6l-1.5-1.6c0.1-0.2,0.1-0.4,0.1-0.7c0-0.7-0.3-1.3-0.7-1.8l-3.5-3.5c-0.4-0.4-1.1-0.4-1.5,0c-0.4,0.4-0.4,1.1,0,1.5
			l3.5,3.5c0.1,0.1,0.1,0.2,0.1,0.3c0,0.1,0,0.2-0.1,0.3l-0.3,0.3L8.5,19.1c0,0,0,0,0,0c-0.1,0.1-0.2,0.1-0.3,0.1
			c-0.1,0-0.2,0-0.3-0.1l-5.4-5.4l9.4-9.4c0.4-0.4,0.4-1.1,0-1.5c-0.4-0.4-1.1-0.4-1.5,0L0.3,13c-0.4,0.4-0.4,1.1,0,1.5l6.2,6.2
			c0.5,0.5,1.1,0.7,1.8,0.7c0.3,0,0.6-0.1,0.9-0.2l3.5,3.5c-0.3,0.5-0.4,1.1-0.4,1.7c0,2,1.6,3.6,3.6,3.6h0c0,0,0,0,0,0
			c0,2,1.6,3.6,3.6,3.6c0,0,0,0,0,0c0,2,1.6,3.6,3.6,3.6c0.6,0,1.2-0.2,1.7-0.4l1.3,1.3c0.6,0.6,1.4,0.9,2.3,0.9
			c0.9,0,1.7-0.3,2.3-0.9c0.6-0.6,0.9-1.3,0.9-2.1c0.8,0,1.5-0.4,2.1-1c0.6-0.6,1-1.5,1-2.4c0,0,0,0,0,0c0.9-0.1,1.8-0.5,2.4-1.1
			c0.6-0.7,0.9-1.5,0.9-2.4c0.9,0,1.7-0.4,2.3-1c0.7-0.7,1-1.5,1-2.5c0-0.5-0.1-1.1-0.4-1.5l3.5-3.2c0.4,0.3,0.9,0.5,1.5,0.5
			c0.6,0,1.3-0.2,1.8-0.7l6.2-6.2C54.1,14,54.1,13.4,53.7,13z M15.8,27.9c-0.8,0-1.5-0.7-1.5-1.5c0-0.8,0.7-1.5,1.5-1.5
			s1.5,0.7,1.5,1.5C17.3,27.2,16.6,27.9,15.8,27.9z M20.5,31c0,0-0.1,0.1-0.1,0.1c-0.3,0.2-0.6,0.4-1,0.4c-0.8,0-1.5-0.7-1.5-1.5
			c0-0.8,0.7-1.5,1.5-1.5s1.5,0.7,1.5,1.5C20.9,30.4,20.7,30.7,20.5,31z M24.1,34.6C24,34.6,24,34.6,24.1,34.6
			C24,34.6,24,34.7,24.1,34.6c-0.3,0.3-0.7,0.5-1.1,0.5c-0.8,0-1.5-0.7-1.5-1.5c0-0.4,0.1-0.7,0.4-1c0,0,0.1-0.1,0.1-0.1
			c0.3-0.2,0.6-0.4,1-0.4c0.8,0,1.5,0.7,1.5,1.5C24.5,34,24.3,34.4,24.1,34.6z M38.7,26.6c-0.3,0.3-0.6,0.4-0.9,0.4
			c-0.4,0-0.7-0.1-0.9-0.4l-2.2-2.2c-0.4-0.4-1.1-0.4-1.5,0c-0.4,0.4-0.4,1.1,0,1.5l2.2,2.2h0l0,0c0.5,0.5,0.6,1.4,0,2
			c-0.3,0.3-0.6,0.4-1,0.5c-0.4,0-0.8-0.1-1-0.4l-2.1-2c-0.4-0.4-1.1-0.4-1.5,0c-0.4,0.4-0.4,1.1,0,1.5l2.3,2.2
			c0.2,0.2,0.4,0.5,0.4,0.8c0,0.3-0.1,0.6-0.3,0.8c-0.4,0.4-1.2,0.4-1.6,0l-1.1-1.1c-0.4-0.4-1.1-0.4-1.5,0
			c-0.2,0.2-0.3,0.5-0.3,0.7c0,0.3,0.1,0.5,0.3,0.7L29,35c0.2,0.2,0.3,0.5,0.3,0.8c0,0.3-0.1,0.6-0.3,0.8c-0.2,0.2-0.5,0.3-0.8,0.3
			s-0.6-0.1-0.8-0.3l-1.3-1.3c0.3-0.5,0.4-1.1,0.4-1.7c0-2-1.6-3.6-3.6-3.6c0,0,0,0,0,0c0-2-1.6-3.6-3.6-3.6c0,0,0,0,0,0v0
			c0-2-1.6-3.6-3.6-3.6c-0.6,0-1.2,0.2-1.7,0.4l-3.3-3.3l9.3-9.3l1.6,1.6c0.2,0.2,0.5,0.3,0.7,0.3h1.4l-4.2,4.2
			c-0.6,0.6-1,1.5-1,2.4c0,0.9,0.4,1.7,1,2.4c0.6,0.6,1.5,1,2.4,1c0.9,0,1.7-0.4,2.4-1l3.5-3.5l3.9,0l6.8,6.8
			c0.3,0.3,0.4,0.6,0.4,0.9C39.1,26,38.9,26.3,38.7,26.6z M39.5,22.5L33,16.1h0l0,0c-0.2-0.2-0.6-0.3-0.9-0.3l-4.6-0.1
			c-0.3,0-0.6,0.1-0.8,0.3L23,19.9c-0.2,0.2-0.6,0.4-0.9,0.4c-0.3,0-0.7-0.1-0.9-0.4c-0.2-0.2-0.4-0.6-0.4-0.9
			c0-0.3,0.1-0.7,0.4-0.9l5.7-5.7h5.1c0.3,0,0.5-0.1,0.7-0.3l1.4-1.4l8.7,8.7L39.5,22.5z M46.2,15.2c0.6,0,1.1-0.5,1.1-1.1
			s-0.5-1.1-1.1-1.1c-0.6,0-1.1,0.5-1.1,1.1S45.6,15.2,46.2,15.2z M6.6,14.3c0,0.6,0.5,1.1,1.1,1.1c0.6,0,1.1-0.5,1.1-1.1
			c0-0.6-0.5-1.1-1.1-1.1C7.1,13.2,6.6,13.7,6.6,14.3z M13.8,2.2c0.6,0,1.1-0.5,1.1-1.1c0-0.6-0.5-1.1-1.1-1.1
			c-0.6,0-1.1,0.5-1.1,1.1C12.8,1.7,13.2,2.2,13.8,2.2z M40.1,2.1c0.6,0,1.1-0.5,1.1-1.1c0-0.6-0.5-1.1-1.1-1.1s-1.1,0.5-1.1,1.1
			C39.1,1.6,39.6,2.1,40.1,2.1z"/>
	</g>
</g>
</svg>
