<?xml version="1.0" encoding="utf-8"?>
<!-- Generator: Adobe Illustrator 19.2.1, SVG Export Plug-In . SVG Version: 6.00 Build 0)  -->
<svg version="1.1" id="Layer_1" xmlns="http://www.w3.org/2000/svg" xmlns:xlink="http://www.w3.org/1999/xlink" x="0px" y="0px"
	 viewBox="0 0 50 45" style="enable-background:new 0 0 50 45;" xml:space="preserve">
<style type="text/css">
	.st0{fill:#FFFFFF;}
</style>
<g>
	<g>
		<path class="st0" d="M46,0H4C1.8,0,0,1.8,0,4v5.8c0,0.4,0.4,0.8,0.8,0.8c0.4,0,0.8-0.4,0.8-0.8V4c0-1.3,1.1-2.3,2.4-2.3h42
			c1.3,0,2.4,1.1,2.4,2.3v27.7h-5.1c-0.4,0-0.8,0.4-0.8,0.8c0,0.4,0.4,0.8,0.8,0.8h5.1v1.5c0,1.3-1.1,2.3-2.4,2.3H4
			c-1.3,0-2.4-1.1-2.4-2.3v-1.5h38.9c0.4,0,0.8-0.4,0.8-0.8c0-0.4-0.4-0.8-0.8-0.8H1.6V12.4c0-0.4-0.4-0.8-0.8-0.8
			C0.4,11.6,0,12,0,12.4v22.3c0,2.2,1.8,4,4,4h13.9l-2,4.7H12c-0.4,0-0.8,0.4-0.8,0.8c0,0.4,0.4,0.8,0.8,0.8h26
			c0.4,0,0.8-0.4,0.8-0.8c0-0.4-0.4-0.8-0.8-0.8h-3.9l-2-4.7H46c2.2,0,4-1.8,4-4V4C50,1.8,48.2,0,46,0z M32.3,43.4H17.7l1.4-3.2
			h11.8L32.3,43.4z M24.8,34.2c-0.3,0.1-0.6,0.4-0.6,0.7c0,0.7,0.9,1.1,1.4,0.6c0.3-0.3,0.3-0.7,0.1-1
			C25.5,34.3,25.1,34.1,24.8,34.2z"/>
	</g>
</g>
</svg>
