<?xml version="1.0" encoding="utf-8"?>
<!-- Generator: Adobe Illustrator 19.2.1, SVG Export Plug-In . SVG Version: 6.00 Build 0)  -->
<svg version="1.1" id="Layer_1" xmlns="http://www.w3.org/2000/svg" xmlns:xlink="http://www.w3.org/1999/xlink" x="0px" y="0px"
	 viewBox="0 0 63 63" style="enable-background:new 0 0 63 63;" xml:space="preserve">
<style type="text/css">
	.st0{fill-rule:evenodd;clip-rule:evenodd;fill:#E20613;}
	.st1{fill:#FFFFFF;}
</style>
<path class="st0" d="M31.5,0C48.9,0,63,14.1,63,31.5C63,48.9,48.9,63,31.5,63C14.1,63,0,48.9,0,31.5C0,14.1,14.1,0,31.5,0z"/>
<g>
	<g>
		<path class="st1" d="M49,14c-4.5-4.5-10.7-7.2-17.5-7.2c-6.8,0-13,2.8-17.5,7.2c-4.5,4.5-7.2,10.7-7.2,17.5c0,6.8,2.8,13,7.2,17.5
			c4.5,4.5,10.7,7.2,17.5,7.2c6.8,0,13-2.8,17.5-7.2c4.5-4.5,7.2-10.7,7.2-17.5C56.3,24.7,53.5,18.5,49,14z M47.6,47.6
			c-4.1,4.1-9.8,6.7-16.1,6.7c-6.3,0-12-2.5-16.1-6.7c-4.1-4.1-6.7-9.8-6.7-16.1c0-6.3,2.6-12,6.7-16.1c4.1-4.1,9.8-6.7,16.1-6.7
			c6.3,0,12,2.6,16.1,6.7c4.1,4.1,6.7,9.8,6.7,16.1C54.3,37.8,51.8,43.5,47.6,47.6z M38.1,19.1H25c-3.2,0-5.9,2.6-5.9,5.9v13.1
			c0,3.2,2.6,5.9,5.9,5.9h13.1c3.2,0,5.9-2.6,5.9-5.9V25C43.9,21.7,41.3,19.1,38.1,19.1z M42.4,38.1c0,2.4-2,4.4-4.4,4.4H25
			c-2.4,0-4.4-2-4.4-4.4V25c0-2.4,2-4.4,4.4-4.4h13.1c2.4,0,4.4,2,4.4,4.4V38.1z M31.5,23.5c-4.4,0-8,3.6-8,8c0,4.4,3.6,8,8,8
			c4.4,0,8-3.6,8-8C39.5,27.1,35.9,23.5,31.5,23.5z M31.5,37.8c-3.5,0-6.3-2.8-6.3-6.3c0-3.5,2.8-6.3,6.3-6.3c3.5,0,6.3,2.9,6.3,6.3
			C37.8,35,35,37.8,31.5,37.8z M39.4,22.4c-0.7,0-1.3,0.6-1.3,1.3c0,0.7,0.6,1.3,1.3,1.3s1.3-0.6,1.3-1.3
			C40.6,23,40.1,22.4,39.4,22.4z"/>
	</g>
</g>
</svg>
