<?xml version="1.0" encoding="utf-8"?>
<!-- Generator: Adobe Illustrator 19.2.1, SVG Export Plug-In . SVG Version: 6.00 Build 0)  -->
<svg version="1.1" id="Layer_1" xmlns="http://www.w3.org/2000/svg" xmlns:xlink="http://www.w3.org/1999/xlink" x="0px" y="0px"
	 viewBox="0 0 26.4 60.8" style="enable-background:new 0 0 26.4 60.8;" xml:space="preserve">
<style type="text/css">
	.st0{fill:#E20613;}
</style>
<g>
	<g>
		<path class="st0" d="M14.9,28.4c2.3,0,4.1-1.8,4.1-4c0-2.2-1.8-4-4.1-4c-2.3,0-4.1,1.8-4.1,4C10.8,26.6,12.7,28.4,14.9,28.4z
			 M26.3,39.3C25,36.1,23,33,20.6,30.7c-0.2-0.2-0.4-0.3-0.6-0.4l0,0c-0.8-1-1.7-1.1-1.7-1.1l-6.6,0c0,0-0.3,0-0.7,0.1
			c-3.5-1.8-3.7-5.8-3.1-9.1c0.2-1.2-0.6-2.4-1.9-2.6c-0.1,0-0.2,0-0.3,0l-1.2-8l0.8-0.2L4.5,8.8c1.3-0.7,2.1-2.5,1.9-4.7
			C6.1,1.7,4.4-0.2,2.7,0C0.9,0.2-0.2,2.4,0,4.9c0.3,2.4,1.8,4.2,3.5,4.2L2.9,9.9l0.8-0.2l1.2,7.9c-0.8,0.2-1.5,0.9-1.7,1.8
			c-1.2,6.9,1.1,12,6.3,14.2l0.5,6V44c0,0.3,0,0.5,0.1,0.8c0,0,0,0.1,0,0.1v13.4c0,1.3,1,2.4,2.3,2.4c1.3,0,2.3-1.1,2.3-2.4v-9.6
			c0.1,0,0.2,0,0.2,0c0.1,0,0.2,0,0.2,0v9.6c0,1.3,1,2.4,2.3,2.4c1.3,0,2.3-1.1,2.3-2.4V44.9c0,0,0-0.1,0-0.1c0-0.3,0.1-0.5,0.1-0.8
			v-4.2l0.1-2.9c0.8,1.3,1.6,2.6,2.1,4.1c0.4,0.9,1.2,1.5,2.2,1.5c0.3,0,0.6,0,0.8-0.2C26.1,41.8,26.7,40.5,26.3,39.3z"/>
	</g>
</g>
</svg>
