<?xml version="1.0" encoding="utf-8"?>
<!-- Generator: Adobe Illustrator 19.2.1, SVG Export Plug-In . SVG Version: 6.00 Build 0)  -->
<svg version="1.1" id="Layer_1" xmlns="http://www.w3.org/2000/svg" xmlns:xlink="http://www.w3.org/1999/xlink" x="0px" y="0px"
	 viewBox="0 0 46 46" style="enable-background:new 0 0 46 46;" xml:space="preserve">
<polygon points="46,34.5 40.5,28.8 26.9,32.9 43.8,23.1 43.8,12.9 34,12.9 24.4,30.9 30.7,8 23,0 15.3,8 21.6,30.9 
	12,12.9 2.2,12.9 2.2,23.1 19.1,32.9 5.5,28.8 0,34.5 5.5,40.3 19.1,36.2 12,40.3 12,46 17.5,46 23,35.7 23,35.9 23,35.7 28.5,46 
	34,46 34,40.3 26.9,36.2 40.5,40.3 "/>
</svg>
