<?xml version="1.0" encoding="utf-8"?>
<!-- Generator: Adobe Illustrator 19.2.1, SVG Export Plug-In . SVG Version: 6.00 Build 0)  -->
<svg version="1.1" id="Layer_1" xmlns="http://www.w3.org/2000/svg" xmlns:xlink="http://www.w3.org/1999/xlink" x="0px" y="0px"
	 viewBox="0 0 40 58" style="enable-background:new 0 0 40 58;" xml:space="preserve">
<style type="text/css">
	.st0{fill:#E20613;}
	.st1{fill-rule:evenodd;clip-rule:evenodd;fill:#FFFFFF;}
</style>
<g>
	<path class="st0" d="M20,0C9,0,0,8.7,0,19.3c0,10.3,18.2,37,18.9,38.1c0.2,0.3,0.6,0.5,1,0.5c0.4,0,0.8-0.2,1-0.5
		C21.8,56.3,40,29.6,40,19.3C40,8.7,31,0,20,0z"/>
</g>
<path class="st1" d="M30.4,14.4 M9.7,15.3c5.1-0.2,10.3-0.7,15.4-0.5c0.9,0,1.9,0.3,2.5,1c-1.4,1.1-3.1,1.8-4.7,2.6
	c-0.5,0.3-1.2,0.4-1.5,1c-0.2,0.4,0,0.8,0.2,1.2c0.7,1.1,1.7,1.8,2.3,2.9c-0.5,1.5-2.1,2.1-3.6,2.1l-1.1,0c-2.9-0.3-5.8-1.3-7.9-3.2
	c-0.2,0.3-0.5,0.7-0.3,1c0.6,0.8,1.6,1.2,2.5,1.6c2.1,0.8,4.3,1.4,6.5,1.5c0.4,0,2.8-0.1,2.8-0.1c1-0.2,2-0.5,2.7-1.3
	c0.6-0.7,0.6-1.7,0.1-2.5c-0.6-1-1.4-1.8-1.9-2.8c0.6-0.4,1.2-0.8,1.9-1c1.6-0.7,3.2-1.6,4.6-2.5c0.6-0.4,0.5-1.2,0.2-1.8
	c-0.3-0.6-0.8-1.2-1.6-1.2c-2.6-0.1-5.1,0.2-7.6,0.4c-4,0.3-7.9,0.7-11.9,1.3"/>
</svg>
