<?xml version="1.0" encoding="utf-8"?>
<!-- Generator: Adobe Illustrator 19.2.1, SVG Export Plug-In . SVG Version: 6.00 Build 0)  -->
<svg version="1.1" id="Layer_1" xmlns="http://www.w3.org/2000/svg" xmlns:xlink="http://www.w3.org/1999/xlink" x="0px" y="0px"
	 viewBox="0 0 211.8 38.7" style="enable-background:new 0 0 211.8 38.7;" xml:space="preserve">
<style type="text/css">
	.st0{fill-rule:evenodd;clip-rule:evenodd;fill:#E20613;}
	.st1{fill:none;stroke:#E20613;stroke-width:0.216;stroke-miterlimit:22.926;}
	.st2{fill:#575756;}
</style>
<g>
	<path class="st0" d="M108.5,31.6c1.5-1.6,5.2-2.8,5.4-2.8c0,0.5,0,0.8-0.1,1.3C112.3,30.7,110.2,31.3,108.5,31.6 M107.3,27.4
		c-1.8,0.9-5.7,2.7-4.9,3.2c0.7,0.5,5.2-0.5,7.1-2.1C109.9,28.1,108.2,26.9,107.3,27.4 M108.5,25.7c1.4-0.3,2.9-0.6,4.1,0.2
		c0.5,0.6,0,1.6-0.4,2.2c-1.6,1.5-3.7,2.4-5.6,3.3c-2.5,1.1-7.6,1-8.1,0.3c-0.6-0.7,0.7-1.5,1.1-2.3c-1.2,0.6-2.5,1-3.7,1.3
		c-2,0.6-3.9,1.8-6,1.2c-0.7-0.7-0.6-1.8-0.4-2.7c-2.2,1.3-4.3,3-6.9,3.5c-1.4,0.3-2.1-1.1-2.7-2.1c0.7-0.8,1.6-1.6,2.8-1.3
		c0.2,0.7,0.4,1.5,1.3,1.6c1.6-0.5,2.7-2,4.3-2.7c2.5-1.3,5-4.1,8.1-2.7c-1.3,1.4-2.6,2.7-3.4,4.5c3.7-0.4,7-2.2,10.4-3.4
		c1.1-0.4,2.2-1.2,3.3-1.5c0.7,0,1.2-0.1,2.1,0C108.7,25.1,108.6,25.5,108.5,25.7 M86.6,18.1c2.9-0.3,5.8-0.5,8.7-0.4
		c-0.4,0.7-0.9,1.4-1.4,2c-3.7,0-7.4,0.1-11,1c-0.1,1.9,0,4-1.2,5.7c-1.4,3-4.6,4.8-7.7,5.5c-1.8,0.4-3.8,1-5.2,0.4
		c-0.8-0.3,0-1.4,0.3-2.1c-0.4,0.1-0.8,0.2-1.2,0.4l0.3-1.2c2.2-2.4,5-4.3,8.2-5.2c0.7-0.1,1.3,0.2,2,0.3c-1.2,0.9-2.7,1.5-3.9,2.5
		c-1,0.9-1.6,2.1-2.2,3.3c3,0.3,5.5-1.8,7.1-4.1c1.4-2,1.7-4.6,1-6.9C82.4,18.5,84.6,18.4,86.6,18.1 M67.6,30.6
		c-1.9,0.6-3.7,1.3-5.7,0.9c-1-0.1-1.3-1-1.4-1.9c-2,0.8-4,1.6-6,2.4c-1.3,0.5-2.8,1-4.2,0.2c0.1-0.7,0.7-1.3,0.2-2
		c0.9-1.4,2.7-1.7,4.1-2.4c2.3-1.2,4.8-1.9,7.3-2.8c1.7-0.5,3.6-1.5,5.3-0.5c-3.3,1.9-7.1,3-10.5,4.6c-0.5,0.2-1,0.6-1.4,1
		c3.1-0.7,5.7-2.6,8.8-3c1.6-0.2,0.5,1.5,0.2,2.2c1.1,0.7,2.5,0,3.7,0L67.6,30.6z M126.8,34.1c1-0.2,1.9-0.7,2.7-1.5
		C128.4,32.7,127.5,33.2,126.8,34.1 M136.1,28.4c2.8-0.6,4.5-3.3,7.1-4.2c0.9-0.1,1.7-0.2,2.5-0.1c-0.2,0.6-0.5,1.1-0.9,1.5
		l-0.5,0.7c-1,1.2-2.1,2.4-2.6,3.9c1.4-0.1,3.3-0.8,3.4-1.6c0.1-0.8-1-1-1-1.3c0-0.3,0.5-0.8,1.2-1.1c0.7-0.3,2.4,0.4,2.7,1.6
		c-0.4,1.7-1.9,2.8-3.4,3.3c-2,0.7-4.2,1.2-6.2,0.6c-0.6-0.8-0.1-1.8-0.1-2.6c-1,0.4-1.9,0.9-2.9,1.2L136.1,28.4z M134.7,30.3
		c-1.1,0.5-2,0.8-2.7,1.4c-1,2.2-3.4,3.1-5.6,3.5c-0.8,0.2-1.5-0.1-2.2-0.3c0.9-1.2,2.2-2,3.5-2.6c0.5-0.3,1.3-0.5,1.2-1.3
		c-1.6,0.4-3.8,0.8-4.7-1c-2.3,1.2-4.9,2.5-7.6,2c-1.1-0.4-0.6-1.8-0.7-2.7c-0.6,0.3-1.2,0.5-1.8,0.8c0-0.3,0.1-1,0.1-1.4
		c2-0.9,4-1.9,5.8-3.1c1-0.6,2.2-0.7,3.3-0.7c-1.1,2-3.4,3.2-3.8,5.6c3-0.7,5.4-2.7,8.3-3.6c0.8-0.3,2.3-0.2,2.2,0.3
		c0,0.5-1.4,1.4-2.1,2c1,0.8,2.1,0.2,3.2,0c0.7-0.4,1,0.6,1.2,1.1c1-0.4,2-1.2,3.3-1.6L134.7,30.3z M180,28.6
		c0.7-0.4,1.4-0.5,2.2-0.5c-0.1,0.6-0.3,1.3-1,1.4c-1.7,0.4-3.3,1.1-5,1.3C177.2,29.8,178.7,29.3,180,28.6 M171.7,28.1
		c-0.9,0.3-2.2,1.3-1.6,2c0.6,0.7,4.1-0.6,5.9-1.5c0.9-0.3,1.5-1.7,0.2-1.9C174.5,26.6,173.1,27.5,171.7,28.1 M176.3,24.8
		c1.4-0.2,2.9-0.3,4.1,0.5c0.4,0.9-0.3,1.8-0.9,2.4c-1.7,1.4-3.7,2.3-5.8,3.1c-2.4,1-7.1,1.3-7.5,0.1c-0.5-1.1,0.6-1.6,1.1-2.3
		c-1,0.4-2,0.7-3,1l0.6-1.3c2.7-1.4,5.7-2.3,8.4-3.6c0.4-0.2,0.5-0.2,1-0.4c0.6-0.2,1.4-0.2,2.1-0.3L176.3,24.8z M163.4,29.9
		c-0.6,0.2-1.3,0.4-1.9,0.7c-1.4,0.6-2.8,0-4-0.7c-1-0.7-2,0.4-2.9,0.8c-1.8,0.8-3.7,2.5-5.8,1.5c0.4-1.5,1.5-2.7,2.3-4
		c-1.2,0.6-2.4,1.3-3.7,1.7c0.4-0.9,0.9-1.6,1.7-2.1c2.6-1.4,4.5-3.6,6.9-5.3c0.9-0.6,2.1-0.3,3.1,0.1c-2.2,2.5-4.7,4.9-6.6,7.7
		c1.3-0.7,2.6-1.5,3.5-2.7c0.5-1,1.8-0.8,2.7-1.3c1.6-0.9,2.9-2,4.4-3.1c0.6-0.6,2-0.1,1.4,0.8c-1,1.2-2.5,1.9-3.8,2.8
		c-0.2,0.2-0.5,0.5-0.7,0.7c0.8,1.6,2.9,1.6,4.3,0.8L163.4,29.9z M210.8,27.9c0.4-0.5,1,0.1,1,0.6v0c0,0.2-0.1,0.4-0.4,0.4
		c-1.7,0.8-3.6,1.4-5.5,1.7C207.2,29.1,209.2,28.8,210.8,27.9 M204.9,26.4c-1.4,0.6-3,1-4.3,1.9c-0.5,0.3-1.2,1.6-0.1,1.5
		c2.1-0.1,4.2-0.9,5.8-2.1C207.2,26.7,205.7,25.9,204.9,26.4 M205.8,24.5c1.5-0.2,3.3-0.7,4.4,0.6c0.1,2.1-2,3-3.5,3.9
		c-5.6,3.3-9.3,2.5-10.3,1.6c-0.8-0.7,0.1-1.6,0.6-2.4c-0.9,0.3-1.9,0.7-2.9,1.1l0.4-1.4c1.9-0.7,3.8-1.6,5.7-2.3
		c1.3-0.5,2.3-1.2,3.7-1.8c0.8-0.1,1.6-0.1,2.3,0L205.8,24.5z M193.9,29.4c-3.4,1.3-7.3,2.5-8.4,1.9c-2.4-1.2,2.5-3.7,2.5-5.9
		c-2.2,0.5-4.1,1.9-6.3,2.6c0.1-0.5,0.1-1,0.2-1.5c2.7-1.2,5.4-3,8.5-3c1.1-0.3,2,1,1.6,2c-0.8,1.6-2.2,2.8-3.2,4.3
		c2-0.2,3.7-1.2,5.5-1.9L193.9,29.4z"/>
	<path class="st0" d="M58.5,5.2 M0.9,7.7c14.2-0.7,28.5-1.8,42.8-1.5c2.5,0.1,5.3,0.7,6.9,2.8c-3.9,3-8.7,5-13.1,7.1
		c-1.5,0.7-3.4,1.2-4.1,2.8c-0.6,1.1,0.1,2.3,0.6,3.2c1.8,2.9,4.6,5.1,6.5,8c-1.2,4.2-6,5.9-10,5.9l-3.1,0c-7.9-0.9-16-3.5-22.1-8.8
		c-0.5,0.8-1.5,1.8-0.8,2.8c1.7,2.2,4.4,3.3,6.9,4.4c5.7,2.2,11.8,3.8,18,4.2c1,0.1,7.8-0.2,7.8-0.2c2.7-0.6,5.6-1.5,7.5-3.7
		c1.6-2,1.6-4.8,0.4-7c-1.6-2.7-3.8-5.1-5.3-7.8c1.7-1,3.4-2.1,5.3-2.9c4.4-2,8.8-4.3,12.8-6.9c1.6-1.1,1.3-3.4,0.6-5
		c-0.8-1.6-2.3-3.3-4.3-3.3C47.1,1.7,40,2.6,33,3.1c-11,1-22,2-33,3.5L0.9,7.7z"/>
	<path class="st1" d="M58.5,5.2L58.5,5.2z"/>
	<polygon class="st2" points="71.7,0 73.3,0 73.3,3.2 76.3,0 78.5,0 75.2,3.2 78.6,7.9 76.6,7.9 74.1,4.4 73.3,5.2 73.3,7.9 
		71.7,7.9 	"/>
	<path class="st2" d="M99.2,1.4h-2.3l0,1.2c0,0.7,0,1.4,0,1.9c0,0.5-0.1,1-0.2,1.4c-0.1,0.4-0.2,0.7-0.3,1c-0.1,0.3-0.3,0.5-0.4,0.7
		c-0.2,0.2-0.3,0.3-0.5,0.4C95.3,8,95,8,94.8,8c-0.2,0-0.4,0-0.5,0c-0.1,0-0.3-0.1-0.4-0.1l0-1.5c0.1,0,0.1,0,0.2,0.1
		c0.1,0,0.1,0,0.2,0c0.1,0,0.1,0,0.1,0c0,0,0.1,0,0.1,0c0.1,0,0.2,0,0.3,0c0.1,0,0.2-0.1,0.2-0.2C95,6.2,95,6.1,95.1,5.9
		c0-0.2,0.1-0.4,0.1-0.7c0-0.3,0.1-0.6,0.1-1c0-0.4,0-0.9,0-1.5V0h5.5v7.9h-1.6V1.4z"/>
	<rect x="117.1" y="0" class="st2" width="1.6" height="7.9"/>
	<polygon class="st2" points="135.1,0 136.7,0 136.7,3 139.8,3 139.8,0 141.5,0 141.5,7.9 139.8,7.9 139.8,4.4 136.7,4.4 136.7,7.9 
		135.1,7.9 	"/>
	<rect x="157.9" y="0" class="st2" width="1.6" height="7.9"/>
	<polygon class="st2" points="176.1,0 177.7,0 177.7,3.2 180.7,0 182.9,0 179.6,3.2 183,7.9 181,7.9 178.5,4.4 177.7,5.2 177.7,7.9 
		176.1,7.9 	"/>
	<path class="st2" d="M201,0h1.9l2.8,7.9h-1.8l-0.5-1.6h-2.9l-0.5,1.6h-1.7L201,0z M200.9,4.9h2l-1-3.1h0L200.9,4.9z"/>
</g>
</svg>
