<?xml version="1.0" encoding="utf-8"?>
<!-- Generator: Adobe Illustrator 19.2.1, SVG Export Plug-In . SVG Version: 6.00 Build 0)  -->
<svg version="1.1" id="Layer_1" xmlns="http://www.w3.org/2000/svg" xmlns:xlink="http://www.w3.org/1999/xlink" x="0px" y="0px"
	 viewBox="0 0 88.2 68.2" style="enable-background:new 0 0 88.2 68.2;" xml:space="preserve">
<g>
	<path d="M25.9,0c-0.6,1,0,2.1-0.3,3.1c-0.5,0-1,0-1.4,0.3c0.1,0.2,0.2,0.4,0.2,0.6c0.4,0.1,1.2-0.1,1.3,0.5
		c0.3,0.9,0.3,2,0.1,2.9C25.3,8.4,24.3,9,24,10.2c-0.2,0.7,0.7,0.9,0.7,1.5c0.2,0.6,0.3,1.3,0.2,1.9c-0.8,0.8-2,1.3-2.4,2.4
		c-0.4,0.8-0.1,2-0.9,2.4c-0.4-1.6-0.4-3.2-0.9-4.7c-0.1-0.4-0.4-0.6-0.7-0.9c-0.6,1-0.7,2.1-0.9,3.2c-0.2,1.2-0.4,2.3-0.3,3.5
		c0.1,1.3,0,2.7,0.2,4c0,2.7,0,5.5,0.1,8.2c-0.5,0.2-0.9,0.6-0.9,1.2c0.2,0.2,0.5,0.3,0.8,0.4c0,0.8,0,1.6-0.1,2.4
		c0,2.3-0.1,4.7-0.1,7c-0.2,3.6-0.4,7.2-0.7,10.8c-0.1,1.2,0,2.3-0.1,3.5c-0.1,3.3-0.1,6.5-0.1,9.8c0,0.5,0.2,0.9,0.4,1.3
		c0.5-0.4,0.7-1,0.8-1.7c0.7-5.6,1.1-11.2,1.8-16.7c0.9,0,1.8,0.2,2.7,0.2c1.1,0,2.2,0,3.3,0c0.1,0.3,0.3,0.6,0.4,0.8
		c0.1,0,0.4,0.1,0.5,0.1c0.1-0.3,0.2-0.6,0.2-0.9c0.4-0.1,0.7-0.2,1.1-0.2c0.2,0.1,0.5,0.2,0.7,0.3c0.4-0.1,0.5-0.5,0.6-0.8
		c0.6-0.2,1.1-0.4,1.7-0.7c0.5,5.6,0.6,11.2,1.5,16.8c0,0.7,0.7,1.4,1.4,1.1c0.6-0.4,0.7-1.2,0.8-1.9c0.1-1.5,0-3-0.2-4.6
		c0-2.3-0.3-4.7-0.4-7c-0.2-1.6-0.3-3.3-0.3-4.9c-0.2-1.6-0.1-3.3-0.3-4.9c0-1.3,0-2.7-0.2-4c0-2-0.1-4-0.1-5.9
		c0-4.4,0.1-8.7,0.1-13.1c-0.1-0.7,0.9-0.7,0.9-1.4c0.1-0.6-0.6-0.8-1-1.1c-0.1-2-0.1-4-0.5-6c-0.1-0.4-0.4-0.7-0.7-1
		c-0.2,0.2-0.4,0.5-0.5,0.8c-0.2,1.2,0,2.4-0.2,3.7c-0.1,0.9,0,1.8-0.4,2.7c-0.4-0.7-0.3-1.5-0.6-2.2c-0.6-1.1-1.8-1.4-2.8-2.2
		c-0.4-0.4,0-1,0-1.5c0-0.7,0.8-1.2,0.8-1.9c-0.2-1.2-1.1-2.2-2.3-2.7C27,6.4,27,5.3,27.3,4.2c0.4-0.1,0.8-0.1,1.2-0.2
		c0-0.3,0-0.5-0.1-0.8c-0.5-0.1-0.9-0.1-1.4-0.1c-0.1-0.7-0.3-1.5-0.3-2.3c0-0.3-0.2-0.6-0.3-0.9C26.3,0,26.1,0,25.9,0 M65.2,2.3
		c-0.4,0.9-0.4,1.9-0.4,2.8c-0.5,0.1-1,0.1-1.5,0.1c-0.4,0.3-0.2,0.9,0.2,1.1c0.4,0.1,0.9,0.2,1.3,0.2c0,0.9,0,1.8-0.1,2.6
		c-0.3,0.4-0.7,0.8-0.9,1.3c-0.5,1.3-0.4,2.8-0.6,4.1c-0.8,0.2-2,0.6-2,1.6c0.1,0.7,0.8,0.9,1.3,1.2c-0.2,1.5-0.3,3-1,4.4
		c-0.6,1.3-1.5,2.3-2.2,3.5c0-0.7,0-1.5-0.4-2.2c-0.2-0.3-0.6-0.2-0.9-0.3c-0.6,1.5-0.5,3.2-0.6,4.7c-0.5,0.3-1.1,0.5-1.4,1.1
		c-0.3,0.4-0.2,0.9-0.2,1.4c0.1,0.5,0.7,0.7,1.1,0.9c-0.3,3.7-0.5,7.5-0.4,11.2c0.1,1.9-0.2,3.7,0,5.6c0,3,0,6.1,0.1,9.1
		c0,1.7-0.1,3.5,0.1,5.2c0,1.2,0.1,2.4,0.4,3.6c0.3,1,1.3,1.8,2.4,1.8c0.6-0.6,0.7-1.6,0.5-2.4c-0.7-3.6-1.2-7.4-1.4-11.1
		c3-0.3,6.1-0.2,9-0.9c0.2,3.5,0.7,7.1,0.9,10.6c0.1,0.6,0.1,1.3,0.4,1.8c0.1,0.2,0.2,0.6,0.5,0.4c0.2-0.2,0.3-0.3,0.3-0.6
		c0.2-1.2,0.2-2.4,0.2-3.6c0-1.1,0-2.2-0.1-3.3c0-1.4,0-2.8-0.1-4.2c-0.1-1.2-0.1-2.4-0.1-3.5c-0.2-1.9-0.1-3.8-0.3-5.8
		c0-2.2,0-4.4,0-6.6c0.2-2.7,0-5.4,0.7-8c0.6-0.1,1.4-0.4,1.4-1.1c0.1-0.7-0.3-1.1-0.7-1.6c0.2-0.9,0.4-1.9-0.2-2.7
		c-0.5,0-0.8,0.3-1.2,0.6c-0.6-1.2-1.3-2.3-1.8-3.5c-0.6-1.5-0.6-3.1-0.7-4.7c0.4-0.3,1-0.5,0.9-1.1c0.1-0.6-0.5-1-0.8-1.3
		c-0.4-1-0.2-2.1-0.2-3.2c0-0.6,0.1-1.3-0.2-1.9c-0.2-0.4-0.5-0.6-0.8-0.8c0.2-0.9,0-1.8,0.2-2.6c0.5-0.1,1-0.2,1.5-0.3
		c-0.1-0.3,0-0.8-0.3-0.9c-0.3-0.2-0.8-0.1-1.1-0.1c-0.1-0.8,0.2-1.7,0.1-2.5C66,2.3,65.4,1.8,65.2,2.3 M45.9,5.3
		c-0.7,0-1.4,0.2-2,0.3c0,0.5-0.1,1,0,1.4c0.3,1.4,0.5,2.9,0.8,4.3c0.1,0.3,0,0.7-0.1,1c-0.3,1.3-0.6,2.7-0.9,4
		c-1.3,0-2.7-0.1-4,0.1c-0.9,0.1-1.8,0-2.6,0.2c0.1,0.8,0.3,1.7,1,2.1c0.6,0.1,1.2,0.1,1.9,0.1c0.7,0,1.3-0.3,2,0
		c-1.1,0.5-2.4,0.7-3.6,1.1c-0.9,0.2-1.3,1.4-0.6,2.1c0.4,0.4,0.9,0.4,1.4,0.4c0.2,1.7,0.3,3.3,0.4,5c0.2,1.1,0.1,2.3,0.2,3.4
		c0.1,1,0,2,0.1,3c0.3,2,0,4,0.3,5.9c0.1,2.2,0,4.4,0.2,6.6c0,1.3,0,2.6,0,4c-0.7,0.3-1.6,0.8-1.4,1.7c0.4,0.5,1,0.4,1.6,0.4
		c0,1.6,0,3.1,0.2,4.7c0,1.4,0.2,2.8,0.2,4.2c0.2,1.6,0.2,3.3,0.7,4.8c0.2,0.6,0.9,1.1,1.6,0.9c0.5-0.4,0.5-1.1,0.4-1.7
		c-0.4-2.5-0.6-5-0.8-7.5c-0.1-1.9-0.4-3.7-0.4-5.6c1.1,0,2.1,0,3.2-0.2c1.4,0,2.9,0,4.3,0c0.4,1.5,0.1,3.1,0.3,4.7
		c0.2,1.6,0,3.3,0.2,5c0.1,1.6,0.2,3.2,0.6,4.8c0.2,0.6,0.5,1.5,1.3,1.2c0.6-0.8,0.3-1.9,0.2-2.8c0-1.2-0.2-2.3-0.2-3.5
		c0-1.2-0.2-2.4-0.2-3.7c0-1.8,0-3.6,0-5.4c0.5-0.3,1-0.8,0.9-1.5c0.1-0.5-0.5-0.6-0.9-0.8c0-3.1,0-6.1,0-9.2c0.1-1,0.2-2.1,0.2-3.1
		c0-1.4,0.2-2.8,0.2-4.2c0.2-1.2,0.1-2.5,0.3-3.7c0.1-2.9,0.5-5.7,0.6-8.5c0.4-0.2,1-0.2,1.1-0.6c0.3-0.8,0.6-1.7,0.8-2.5
		c0.1-0.5,0.4-0.9,0.3-1.4c-0.4-0.5-1-0.5-1.5-0.7c-0.2-0.5-0.1-1.2-0.7-1.4c-0.6,0.3-0.7,0.9-0.9,1.4c-1.2,0-2.5,0.2-3.7,0
		c-0.7-1.3-1.6-2.5-2.7-3.5c-0.1-1.4-0.4-2.7-0.5-4.1c1.2-0.2,2.3-0.3,3.5-0.1c0.7,0.2,1.5,0,2.2-0.2c0.3-1.1-0.2-2.1-0.3-3.2
		c-0.1-0.5-0.6-0.6-1-0.6C48.5,4.7,47.2,5.2,45.9,5.3 M81.7,14c-0.3,0.9-0.4,2-0.4,2.9c-0.5,0-1.1,0-1.6,0.2c-0.1,0.3-0.1,0.7-0.1,1
		c0.6,0.4,1.3,0.1,1.9,0c0,0.9-0.1,1.8-0.2,2.7c0,0.3-0.3,0.4-0.4,0.6c-0.4,0.5-0.6,1.2-0.8,1.8c-0.3,0.6-1.2,0.3-1.4,0.9
		c-0.2,0.5,0.1,1,0.3,1.4c0.4,0.7,0.5,1.4,0.5,2.2c0,0.5,0,1-0.2,1.4c-0.8,0.8-2.2,0.9-3,1.7c-1.2,1.1-2,2.7-2.6,4.2
		c-0.3,0.6-1.1,0.7-1.5,1.2c0,0.9,1.1,1.3,1.9,1.5c0.4,0.1,0.4,0.5,0.4,0.9c0.1,1.3-0.2,2.5-0.2,3.8c-0.7,0-1.5,0.2-2.1,0.6
		c-0.1,0.8,0.6,1.4,1.3,1.7c0.3,2.8,0.3,5.6,0.2,8.4c0.1,1.6-0.1,3.3-0.1,4.9c0,2-0.1,4.1,0.1,6.1c0,0.6,0,1.3,0.3,1.8
		c0.2,0.2,0.5,0.3,0.8,0.4c0.3-0.1,0.6-0.3,0.9-0.5c0-3.4,0-6.8-0.1-10.1c-0.2-2.2,0-4.4-0.3-6.6c0-1.5-0.2-3-0.2-4.5
		c0.8,0,1.6,0,2.4,0c-0.1,2.5,0,5-0.1,7.5C77,53,77,54.1,77,55.2c0,1.5-0.2,2.9-0.2,4.4c0.1,1.6-0.2,3.3-0.2,4.9
		c0,0.8-0.4,1.8,0.2,2.4c0.8,0.2,1.5-0.6,1.5-1.4c0-3.3,0-6.7,0-10c0.1-2,0.1-4.1,0.2-6.1c-0.1-1.6,0.1-3.2,0.2-4.9
		c0.7,0,1.4,0,2.1-0.1c0,0.9,0.1,1.9-0.2,2.8c-0.6,2.7-0.8,5.5-1,8.3c-0.2,2.4-0.2,4.7-0.1,7.1c0.1,0.8,0,1.6,0.4,2.3
		c0.3,0.4,0.8,0.3,1.2,0.3c0.2-2.2,0-4.4,0.1-6.5c0.2-1.9,0-3.8,0.2-5.6c0.1-0.9,0.1-1.9,0.2-2.8c0.1-1.9,0-3.8,0-5.6
		c0.6,0,1.2,0.1,1.8,0.2c0,0.8,0,1.7-0.1,2.5c-0.2,1.3,0,2.7-0.2,4c-0.2,2.4-0.1,4.9-0.1,7.3c0,1.4,0.1,2.8,0.3,4.1
		c0.1,0.7,0.2,1.5,0.8,1.9c0.3-0.1,0.6-0.2,0.8-0.3c0-1.1-0.3-2.2-0.4-3.3c-0.1-3.2-0.1-6.4,0-9.6c0-1.6,0.3-3.3,0.4-4.9
		c0-0.7,0-1.4,0.5-2c0.3-0.3,0.2-0.8,0.3-1.2c-0.3-0.1-0.5-0.2-0.8-0.3c0.2-1.5,0.1-3.1,0.6-4.6c0.9-0.2,2.1-0.4,2.4-1.5
		c0.2-0.9-1.1-1.2-1.2-2.1c-0.2-2.4-1.8-4.5-4.1-5.4c0.1-0.3,0.4-0.6,0.3-0.9c-0.2-0.9-0.3-1.7-0.2-2.6c0.4-0.1,0.8-0.2,1.2-0.3
		c0.1-0.4,0.2-0.7,0.2-1.1c-0.4-0.5-1-0.8-1.1-1.4c-0.2-0.8-0.6-1.5-1-2.2c-0.1-1,0.2-1.9,0.2-2.9c0.7,0,1.6,0.1,1.8-0.7
		c-0.2-0.9-1.3-0.6-1.9-0.8c0.1-0.8,0.2-1.6,0.3-2.4C82.9,13.8,81.9,13.3,81.7,14 M6.2,19c-0.5,0.9-0.3,2-0.1,3
		c-0.5,0.1-1.2,0.1-1.4,0.7c0,0.7,0.9,0.4,1.4,0.6c-0.1,1.3,0,2.6-0.5,3.8c-0.2,0.5-0.7,0.7-1.1,1.1c-0.2,0.6,0.3,1,0.8,1.3
		C5,31.8,4.6,34,4.3,36.2c-0.4-2.8-0.7-5.7-1.7-8.4c-0.1-0.3-0.2-0.7-0.6-0.6C1.4,28,1.2,29,1,29.9c-0.2,1-0.4,2.1-0.3,3.1
		c-0.2,0.1-0.5,0.2-0.7,0.4c0.1,0.3,0.1,0.6,0.3,0.8c0.2,0.2,0.5,0.3,0.5,0.6c0.1,2.5,0.1,5,0.3,7.5c0,2.7,0.2,5.5,0.2,8.2
		c0.1,2.3-0.2,4.7-0.2,7c-0.2,2.1-0.2,4.2-0.1,6.3c0,0.8,0,1.6,0.5,2.2c0.3,0.4,0.8,0.9,1.5,0.7c0.9-0.5,0.5-1.6,0.6-2.4
		c-0.4-4.7-0.6-9.4-1-14.1c0-1.3-0.2-2.7-0.2-4c0-1.6-0.2-3.3-0.2-4.9c0.6,0,1.3,0,1.9,0.1c0.1,1.8-0.1,3.6,0.2,5.4
		c0,1.2,0.2,2.3,0.2,3.5C5,55.4,5.4,60.8,6.5,65.9c0.1,0.6,0.8,1.5,1.4,0.8c0.1-0.5,0-1.1-0.1-1.6c-1.3-5.4-1.7-11.1-2.3-16.6
		c-0.2-2.4-0.4-4.8-0.2-7.3c1.1,0,2.2,0.2,3.3,0.2c0,1.3,0,2.5,0.1,3.8c0.1,1.5,0,3.1,0.2,4.6c0.1,4.4,0.4,8.8,1.2,13.1
		c0.2,0.5,0.2,1.1,0.7,1.3c0.2-0.1,0.3-0.2,0.3-0.4c0-1.9-0.4-3.7-0.5-5.5c-0.3-2.3-0.3-4.7-0.5-7c0-1.6-0.1-3.1-0.2-4.7
		c0-1.8,0-3.5-0.1-5.3c0.5,0,1.1,0,1.6,0c0,2.8,0.3,5.6,0.4,8.4c0.3,3.9,0.7,7.8,1.1,11.7c0.1,0.7,0.1,1.6,1,1.7
		c0.7-1.2,0.2-2.6,0.2-3.9c-0.3-2.6-0.3-5.1-0.5-7.7c0-2.4-0.2-4.8-0.2-7.2c0-0.9-0.2-1.7-0.1-2.6c0.2-0.3,0.3-0.5,0.5-0.8
		c-0.2-0.2-0.4-0.4-0.6-0.7c-0.1-0.6,0-1.3-0.1-1.9c-0.2-2,0-4.1-0.3-6.1c-0.1-1.6-0.7-3.1-1.1-4.7c-0.1-0.6-0.3-1.2-0.9-1.6
		c-0.3-0.1-0.5,0.2-0.6,0.5c-0.5,1.5-0.7,3-1.1,4.5c-0.3,1-0.3,2-0.4,3c-0.4-1.3-0.8-2.7-1.1-4.1c-0.2-0.6,0.5-1,0.2-1.6
		c-0.1-0.5-0.7-0.7-0.8-1.1c-0.4-1.3-0.3-2.6-0.3-3.9c0.4,0,0.7,0,1.1-0.1c0-0.3,0-0.6,0-0.9c-0.4-0.1-0.7-0.2-1.1-0.3
		c0-1,0.1-2.1-0.2-3.1C6.6,19.1,6.3,19.1,6.2,19 M6.3,46.3c-0.1,2.2,0.4,4.4,0.7,6.6c0.2,0.8,0.2,1.7,0.8,2.4c0.7-0.5,0.5-1.3,0.4-2
		c-0.2-2.6-0.4-5.2-0.4-7.8c0-0.4-0.3-0.7-0.5-1C6.5,44.8,6.2,45.6,6.3,46.3 M27.6,56c-0.2,0.8-0.2,1.7-0.3,2.5
		c0,2.4,0.3,4.8,0.4,7.2c0.1,0.7,0.1,1.5,0.9,1.8c0.4-0.7,0.3-1.6,0.3-2.4c-0.1-1.2-0.2-2.4-0.3-3.7c0-1-0.3-2.1,0.2-3.1
		c0.3,0.4,0.5,0.9,0.6,1.5c0.4,2.2,0.6,4.4,1.3,6.6c0.1,0.3,0.3,0.7,0.7,0.7c0.5-0.6,0.4-1.4,0.3-2.1c-0.1-0.9-0.1-1.9-0.2-2.8
		c-0.2-1.9-0.1-3.9-0.4-5.9c-0.1-0.5-0.4-1.1-0.9-1.3C29.3,54.6,27.9,55,27.6,56 M23.2,55.3c-0.8,0.6-1.1,1.5-1.2,2.4
		c-0.3,1.8-0.5,3.7-0.6,5.5c-0.1,1.2-0.3,2.5,0.1,3.8c0.3-0.1,0.7-0.1,0.8-0.4c0.4-0.6,0.3-1.3,0.3-2c0.2-2.1,0.4-4.2,0.8-6.2
		c0.1-0.4,0.2-0.9,0.4-1.3c0.2,0.3,0.4,0.6,0.5,0.9c0.5,2.3,0.6,4.6,0.6,6.9c0.1,0.8,0.1,1.9,0.9,2.4c0.3,0.2,0.6-0.1,0.7-0.4
		c0.3-0.8,0.3-1.7,0.2-2.5c-0.2-2.6-0.6-5.2-1.1-7.8c-0.1-0.5-0.3-0.9-0.6-1.3C24.6,54.9,23.7,54.8,23.2,55.3 M25.5,10.3
		c0.3-0.5,0.6-1.2,1.3-1.3c0.4,0.4,0.7,0.9,1,1.3c-0.7,0.5-0.7,1.5-0.6,2.3c0.1,0.8-0.5,1.7,0,2.4c0.5,0.8,1.5,1.3,2.1,2.1
		c0.4,0.5,0.6,1.1,0.7,1.7c-1.2,0.1-2.3,0.2-3.5,0.5c-0.8,0.2-1.6,0.2-2.3,0c-0.5-0.1-0.8-0.6-0.7-1.1c0.2-0.8,0.4-1.6,0.9-2.3
		c0.4-0.6,1.3-0.8,1.7-1.5c0.1-1,0-2,0-2.9C26.1,11.1,25.7,10.7,25.5,10.3 M64.2,15c0.3-0.4,0.3-1,0.7-1.4c0.4,0.5,0.1,1.2,0.2,1.7
		c-0.1,0.5,0.4,0.8,0.6,1.1c-0.4,0.3-0.9,0.5-0.9,1c-0.2,1.9,0,3.9,0.9,5.6c0.7,1.4,1.5,2.7,2.3,4c0.2,0.3,0.1,0.6,0.1,0.9
		c-0.6-0.3-0.7-1-1.1-1.5c-0.7-1.2-2-2.3-3.5-2.2c-0.9,0-1.6,0.6-2.3,1c1.2-2.3,2.3-4.7,2.5-7.2c0.1-0.8-0.3-1.6-0.8-2.2
		C63.4,15.8,63.9,15.5,64.2,15 M23.7,21.1c3,0.1,5.9,0,8.8-0.8c-0.6,2.5-0.7,5-0.8,7.6c-0.1,0.9-0.1,1.9-0.2,2.8
		c-0.3,0.1-0.7,0.1-1,0.1c0-2,0.1-4.1-0.5-6.1c-0.2-0.7-0.6-1.5-1.4-1.5c-0.8,0.1-1.2,0.9-1.4,1.5c-0.4,1.1-0.4,2.3-0.5,3.5
		c-0.2,1.1-0.1,2.1-0.1,3.2c-0.4,0.1-0.8,0.2-1.2,0.2c-0.2-1.4-0.2-2.7-0.4-4.1c-0.1-1-0.2-2-0.5-3c-0.1-0.4-0.5-0.9-1-0.7
		c-1.2,0.6-1.4,2.1-1.6,3.4c-0.1,1.5,0,3.1,0,4.6c-0.3,0-0.6,0-0.9,0c0-1.8,0-3.6-0.2-5.4c-0.1-1.8,0.4-3.5,0-5.3
		C21.7,21,22.7,21.1,23.7,21.1 M42.4,21.4c2.2-0.2,4.4-0.4,6.6-0.1c0.6,0,1.3,0.1,1.9,0.2c0.1,1.3-0.2,2.5-0.2,3.8
		c-0.2,1.1-0.1,2.2-0.3,3.3c-0.1,1.1,0,2.1-0.1,3.2c-0.2,1.3,0,2.6-0.2,3.8c-0.2,1.6,0,3.2-0.2,4.7c-0.1,1.7-0.1,3.4-0.1,5
		c-0.2,1.5-0.2,3-0.2,4.5c-0.8,0-1.5,0-2.2-0.2c-0.2-1.6-0.2-3.2-0.2-4.7c0-0.7,0-1.5-0.3-2.2c-0.4-0.7-1.5-0.8-2.1-0.4
		c-0.4,0.4-0.1,1,0,1.5c0.2,0.9,0.1,1.9,0.2,2.8c0.2,1,0,2.1,0.3,3.2c-1.1,0-2.3,0.2-3.4,0.2c-0.2-2-0.5-4-0.5-6
		c-0.2-1.6,0-3.3-0.3-4.9c-0.1-2,0.1-4-0.2-5.9c-0.1-3.9-0.3-7.8-0.9-11.6C40.8,21.6,41.6,21.5,42.4,21.4 M45.8,29.1
		c-0.6,0.1-1.1,0.3-1.5,0.7c-0.7,0.7-1.5,1.6-1.3,2.6c0.2,1.2,0.6,2.7,1.9,3.2c0.7,0.3,1.8,0.6,2.4-0.2c0.7-0.9,1.4-1.9,1.5-3
		c0-0.9-0.2-2-0.9-2.6C47.2,29.3,46.5,28.9,45.8,29.1 M80,24.5c0.7-0.2,1-1,1.6-1.3c0.3,0.6,0.5,1.3,0.9,1.8c-0.8,0.6-0.9,1.6-1,2.5
		c0,0.6,0.1,1.2,0.3,1.8C81.4,29.1,81,29,80.6,29C80.6,27.5,80.8,25.8,80,24.5 M23,25.2c0.2,0.2,0.4,0.4,0.5,0.6
		c0.7,1.9,0.5,3.9,0.7,5.8c-0.5,0-0.9,0-1.4,0C22.8,29.5,22.6,27.3,23,25.2 M28.2,25.9c0.5-0.1,0.6,0.6,0.7,1
		c0.2,1.3,0.3,2.7,0.5,4.1c-0.6,0-1.1,0.1-1.7,0.1c0-1.4,0.2-2.7,0.2-4.1C28,26.6,28,26.2,28.2,25.9 M62.7,26.5
		c0.5-0.4,1.4-0.4,1.8,0.1c1,1,0.8,2.6,1.8,3.6c0.4,0.4,1.1,0.5,1.6,0.5c0,2-0.3,4.1-0.2,6.1c-0.2,1.6-0.2,3.1-0.2,4.7
		c-0.2,2.4-0.2,4.8-0.2,7.2c0,1-0.1,2,0.2,3c-1.9,0.2-3.9,0.4-5.8,0.4c-1.1,0.1-2.3,0.2-3.4,0.1c0-2.1-0.3-4.2-0.2-6.3
		c0-2-0.1-4.1,0.1-6.1c0-1,0.1-2,0.1-3c0-0.9,0.2-1.9,0.2-2.8c0-1.1,0.2-2.1,0.2-3.2c0.5-0.3,1.1-0.6,1.4-1.2
		C60.8,28.6,61.5,27.3,62.7,26.5 M61,36.4c-0.8,0.9-0.8,2.2-0.9,3.3c0,1.2-0.2,2.4,0.2,3.5c0.6,0.1,1.3,0.2,1.9-0.2
		c-0.3-1.8-0.2-3.7-0.2-5.5C62,36.9,61.5,36.3,61,36.4 M64.6,36.3c-0.4,1.2-0.1,2.5-0.4,3.8c0,1.1-0.3,2.1-0.1,3.2
		c0.4,0.3,1.1,0.4,1.4-0.1c0.6-1.4,0.4-2.9,0.4-4.3c0-0.6,0.1-1.3-0.3-1.8C65.4,36.6,65,36.4,64.6,36.3 M2.1,29.8
		c0.4,1.1,0.5,2.3,0.8,3.5c-0.4-0.1-0.8-0.1-1.2-0.2C1.8,32,1.8,30.9,2.1,29.8 M10,33.1c0.2-1,0.2-2,0.7-2.8
		c0.5,0.8,0.3,1.9,0.4,2.8C10.8,33.1,10.4,33.1,10,33.1 M78.2,30.8c1.3-0.7,2.8-0.3,4.2,0.1c1,0.3,1.7,1.1,2.1,2
		c0.5,1.1,0.7,2.3,0.9,3.5c-3.4-0.3-6.8-0.9-10.3-0.9C75.6,33.7,76.4,31.7,78.2,30.8 M5.4,37c0.2-1.5,0.4-3.1,1-4.5
		C7,33.1,7.2,34,7.5,34.8c0.5,1.7,1,3.4,1.3,5.1c-1.2,0.1-2.5,0.1-3.7,0.2C5.1,39,5.3,38,5.4,37 M25.4,32.9c2-0.3,4-0.4,6.1-0.4
		c0,3.1,0,6.1,0.1,9.2c0.1,0.8,0.1,1.5,0.1,2.3c0,1,0.2,2,0.2,3c-0.3,0.4-0.9,0.5-1.3,0.7c0.2-2.7-0.1-5.5-0.5-8.2
		c-0.2-1.1-0.9-2.4-2.2-2.4c-0.3,0.4-0.6,0.9-0.7,1.5c-0.3,1.6-0.5,3.2-0.4,4.8c0,1.8-0.1,3.6,0.2,5.3c-0.3,0-0.7,0-1,0
		c0.3-2.6,0-5.2-0.2-7.7c-0.2-1.5-0.1-3.2-1.1-4.4c-0.3-0.4-0.9-0.8-1.3-0.3c-0.7,0.7-0.8,1.8-1,2.8c-0.5,3.2-0.3,6.4-0.1,9.6
		c-0.5,0-0.9,0-1.4-0.1C21,48,21,47.3,21,46.7c0-3,0.1-6.1-0.2-9.1c0-1.4-0.1-2.8,0.1-4.2c0.2,0,0.5,0,0.7,0
		c0.2,0.3,0.5,0.5,0.7,0.8c0.2-0.3,0.3-0.6,0.5-0.9c0.8-0.1,1.5-0.1,2.2,0.4C25.2,33.4,25.3,33.1,25.4,32.9 M9.9,34.4
		c0.4,0,0.9,0,1.3,0c0.1,2,0.2,3.9,0.3,5.9c-0.5-0.1-1-0.2-1.5-0.3c-0.2-1.3-0.1-2.7-0.1-4C9.8,35.5,9.9,35,9.9,34.4 M1.8,34.6
		c0.4,0,0.8,0,1.2,0c0.1,1.8,0.4,3.6,0.7,5.3c-0.5,0-1.1,0-1.6,0C2,38.1,1.8,36.4,1.8,34.6 M75.5,37.8c1.1-0.2,2.3-0.3,3.4,0
		c-0.7,0.8-1.4,1.7-1.3,2.8c0.1,1.1,1.4,1.6,2.4,1.4c0.9-0.3,1.7-1.2,1.6-2.2c0-0.8-0.6-1.3-1.2-1.8c1.1,0,2.2,0.2,3.3,0.5
		c-0.1,1.6-0.1,3.2-0.3,4.8c-0.8,0-1.7,0.1-2.5,0c-1.8-0.2-3.7-0.3-5.5-0.7C75.5,40.9,75.9,39.3,75.5,37.8 M23.9,39.7
		c0.5,0.6,0.5,1.5,0.6,2.2c0,1,0.1,2.1,0.2,3.1c0,1.2,0,2.5,0,3.7c-0.4,0-0.8-0.1-1.3-0.1c-0.1-1.9-0.2-3.7-0.2-5.6
		C23.3,42,23.3,40.8,23.9,39.7 M27.9,42.8c0-0.8-0.1-1.8,0.6-2.4c0.8,1.1,0.8,2.5,0.8,3.8c0,1.3,0,2.7-0.2,4c-0.3,0.1-0.7,0.2-1,0.2
		C28,46.6,28,44.7,27.9,42.8"/>
	<path class="st0" d="M25.9,0c0.1,0,0.4,0,0.5,0c0.1,0.3,0.3,0.6,0.3,0.9c0,0.8,0.2,1.5,0.3,2.3c0.5,0,0.9,0,1.4,0.1
		c0,0.3,0,0.5,0.1,0.8c-0.4,0.1-0.8,0.1-1.2,0.2C27,5.3,27,6.4,27.1,7.5c1.1,0.4,2.1,1.4,2.3,2.7c0,0.8-0.8,1.2-0.8,1.9
		c0,0.5-0.4,1.1,0,1.5c0.9,0.7,2.2,1.1,2.8,2.2c0.3,0.7,0.2,1.5,0.6,2.2c0.4-0.8,0.3-1.8,0.4-2.7c0.2-1.2,0-2.5,0.2-3.7
		c0-0.3,0.3-0.6,0.5-0.8c0.3,0.2,0.7,0.5,0.7,1c0.4,2,0.4,4,0.5,6c0.4,0.3,1.1,0.5,1,1.1c0,0.7-1,0.7-0.9,1.4
		c0.1,4.4,0,8.7-0.1,13.1c0,2,0.1,4,0.1,5.9c0.1,1.3,0.1,2.7,0.2,4c0.2,1.6,0.1,3.3,0.3,4.9c0,1.6,0.2,3.3,0.3,4.9
		c0.1,2.3,0.4,4.7,0.4,7c0.1,1.5,0.2,3,0.2,4.6c-0.1,0.7-0.2,1.4-0.8,1.9c-0.7,0.3-1.4-0.5-1.4-1.1c-0.9-5.6-1.1-11.2-1.5-16.8
		c-0.6,0.2-1.1,0.5-1.7,0.7c-0.1,0.3-0.2,0.7-0.6,0.8c-0.3-0.1-0.5-0.2-0.7-0.3c-0.4,0-0.8,0.1-1.1,0.2c-0.1,0.3-0.1,0.6-0.2,0.9
		c-0.1,0-0.4-0.1-0.5-0.1c-0.2-0.3-0.3-0.6-0.4-0.8c-1.1,0-2.2,0-3.3,0c-0.9,0-1.8-0.2-2.7-0.2C20.2,55.4,19.7,61,19,66.6
		c-0.1,0.6-0.3,1.2-0.8,1.7c-0.2-0.4-0.4-0.8-0.4-1.3c0-3.3,0-6.5,0.1-9.8c0.1-1.2,0.1-2.3,0.1-3.5c0.3-3.6,0.5-7.2,0.7-10.8
		c0-2.3,0-4.7,0.1-7c0.1-0.8,0.1-1.6,0.1-2.4c-0.3-0.1-0.6-0.2-0.8-0.4c0-0.6,0.4-0.9,0.9-1.2c-0.1-2.7-0.1-5.5-0.1-8.2
		c-0.1-1.3-0.1-2.7-0.2-4c-0.1-1.2,0.1-2.4,0.3-3.5c0.2-1.1,0.4-2.3,0.9-3.2c0.3,0.2,0.6,0.5,0.7,0.9c0.5,1.5,0.5,3.2,0.9,4.7
		c0.9-0.5,0.5-1.7,0.9-2.4c0.4-1.2,1.6-1.6,2.4-2.4c0.1-0.7,0-1.3-0.2-1.9c-0.1-0.6-1-0.8-0.7-1.5c0.3-1.1,1.3-1.8,1.9-2.7
		c0.1-1,0.1-2-0.1-2.9c-0.2-0.6-0.9-0.4-1.3-0.5c-0.1-0.2-0.1-0.4-0.2-0.6c0.4-0.3,0.9-0.3,1.4-0.3C25.9,2.1,25.3,1,25.9,0
		 M25.5,10.3c0.2,0.4,0.6,0.7,0.6,1.2c0,1,0.1,2,0,2.9c-0.3,0.7-1.2,0.9-1.7,1.5c-0.5,0.7-0.7,1.5-0.9,2.3c-0.1,0.5,0.2,1.1,0.7,1.1
		c0.8,0.2,1.6,0.2,2.3,0c1.1-0.3,2.3-0.3,3.5-0.5c-0.1-0.6-0.3-1.2-0.7-1.7c-0.6-0.8-1.6-1.2-2.1-2.1c-0.5-0.8,0.1-1.6,0-2.4
		c-0.1-0.8-0.1-1.7,0.6-2.3c-0.3-0.5-0.6-0.9-1-1.3C26.1,9.1,25.8,9.8,25.5,10.3 M23.7,21.1c-1,0-2-0.1-3,0c0.4,1.8-0.1,3.5,0,5.3
		c0.2,1.8,0.2,3.6,0.2,5.4c0.3,0,0.6,0,0.9,0c0-1.5,0-3.1,0-4.6c0.1-1.2,0.3-2.7,1.6-3.4c0.5-0.2,0.9,0.3,1,0.7c0.3,1,0.4,2,0.5,3
		c0.2,1.4,0.2,2.7,0.4,4.1c0.4-0.1,0.8-0.2,1.2-0.2c0-1.1-0.1-2.1,0.1-3.2c0.1-1.2,0.2-2.3,0.5-3.5c0.3-0.6,0.7-1.4,1.4-1.5
		c0.8,0,1.2,0.9,1.4,1.5c0.6,2,0.5,4,0.5,6.1c0.3,0,0.7-0.1,1-0.1c0-0.9,0-1.9,0.2-2.8c0.1-2.5,0.2-5.1,0.8-7.6
		C29.6,21.1,26.6,21.3,23.7,21.1 M23,25.2c-0.4,2.1-0.2,4.3-0.2,6.4c0.5,0,0.9,0,1.4,0c-0.2-1.9,0-3.9-0.7-5.8
		C23.4,25.6,23.2,25.4,23,25.2 M28.2,25.9c-0.2,0.3-0.2,0.7-0.2,1c0,1.4-0.2,2.7-0.2,4.1c0.6,0,1.1-0.1,1.7-0.1
		c-0.2-1.4-0.3-2.7-0.5-4.1C28.9,26.5,28.8,25.8,28.2,25.9 M25.4,32.9c-0.1,0.3-0.3,0.5-0.4,0.8c-0.7-0.4-1.4-0.5-2.2-0.4
		c-0.1,0.3-0.3,0.6-0.5,0.9c-0.3-0.3-0.5-0.5-0.7-0.8c-0.2,0-0.5,0-0.7,0c-0.2,1.4-0.1,2.8-0.1,4.2c0.2,3,0.1,6.1,0.2,9.1
		c0,0.7,0,1.3-0.2,1.9c0.5,0,0.9,0,1.4,0.1c-0.2-3.2-0.4-6.4,0.1-9.6c0.2-1,0.3-2.1,1-2.8c0.4-0.5,1-0.1,1.3,0.3
		c1,1.2,0.9,2.9,1.1,4.4c0.2,2.6,0.4,5.2,0.2,7.7c0.3,0,0.7,0,1,0c-0.3-1.8-0.2-3.5-0.2-5.3c0-1.6,0.1-3.3,0.4-4.8
		c0.1-0.5,0.3-1,0.7-1.5c1.3,0,2,1.3,2.2,2.4c0.5,2.7,0.7,5.4,0.5,8.2c0.4-0.2,1-0.3,1.3-0.7c0-1-0.2-2-0.2-3c0-0.8,0-1.5-0.1-2.3
		c-0.1-3.1-0.1-6.1-0.1-9.2C29.5,32.4,27.5,32.6,25.4,32.9 M23.9,39.7c-0.6,1.1-0.6,2.3-0.6,3.4c0,1.9,0,3.7,0.2,5.6
		c0.4,0,0.8,0.1,1.3,0.1c0-1.2,0-2.5,0-3.7c-0.1-1-0.1-2.1-0.2-3.1C24.4,41.2,24.4,40.4,23.9,39.7 M27.9,42.8
		c0.2,1.9,0.1,3.8,0.2,5.7c0.3-0.1,0.7-0.2,1-0.2c0.3-1.3,0.2-2.7,0.2-4c0-1.3,0-2.7-0.8-3.8C27.8,41,27.8,42,27.9,42.8 M27.6,56
		c0.3-1.1,1.6-1.4,2.6-1c0.5,0.3,0.8,0.8,0.9,1.3c0.3,1.9,0.2,3.9,0.4,5.9c0.1,0.9,0,1.9,0.2,2.8c0.1,0.7,0.2,1.5-0.3,2.1
		c-0.4,0-0.6-0.4-0.7-0.7c-0.7-2.1-0.9-4.4-1.3-6.6c-0.1-0.5-0.3-1-0.6-1.5c-0.4,1-0.2,2.1-0.2,3.1c0.1,1.2,0.2,2.4,0.3,3.7
		c0,0.8,0.1,1.6-0.3,2.4c-0.7-0.3-0.8-1.2-0.9-1.8c-0.1-2.4-0.4-4.8-0.4-7.2C27.4,57.7,27.4,56.8,27.6,56 M23.2,55.3
		c0.6-0.4,1.4-0.3,1.9,0.1c0.3,0.4,0.5,0.8,0.6,1.3c0.5,2.6,0.9,5.2,1.1,7.8c0,0.8,0.1,1.7-0.2,2.5c-0.1,0.3-0.4,0.5-0.7,0.4
		c-0.8-0.5-0.8-1.5-0.9-2.4c0-2.3-0.1-4.7-0.6-6.9c-0.1-0.3-0.2-0.6-0.5-0.9c-0.2,0.4-0.3,0.8-0.4,1.3c-0.4,2.1-0.6,4.1-0.8,6.2
		c-0.1,0.6,0.1,1.4-0.3,2c-0.2,0.3-0.5,0.3-0.8,0.4c-0.4-1.2-0.2-2.5-0.1-3.8c0.1-1.9,0.4-3.7,0.6-5.5
		C22.1,56.8,22.4,55.8,23.2,55.3L23.2,55.3z"/>
	<path class="st0" d="M65.2,2.3c0.3-0.5,0.8,0,0.9,0.4c0.1,0.8-0.1,1.7-0.1,2.5c0.4,0,0.8-0.1,1.1,0.1c0.4,0.2,0.2,0.6,0.3,0.9
		c-0.5,0.1-1,0.2-1.5,0.3c-0.2,0.8-0.1,1.8-0.2,2.6c0.3,0.2,0.7,0.4,0.8,0.8c0.3,0.6,0.2,1.3,0.2,1.9c0,1.1-0.1,2.2,0.2,3.2
		c0.4,0.4,0.9,0.7,0.8,1.3c0.1,0.6-0.5,0.8-0.9,1.1c0.1,1.6,0.1,3.2,0.7,4.7c0.5,1.2,1.2,2.3,1.8,3.5c0.3-0.3,0.7-0.6,1.2-0.6
		c0.5,0.8,0.4,1.8,0.2,2.7c0.4,0.4,0.9,0.9,0.7,1.6c0,0.7-0.8,1-1.4,1.1c-0.7,2.6-0.5,5.3-0.7,8c0,2.2,0,4.4,0,6.6
		c0.2,1.9,0.1,3.8,0.3,5.8c0.1,1.2,0,2.4,0.1,3.5c0.1,1.4,0.1,2.8,0.1,4.2c0.1,1.1,0.1,2.2,0.1,3.3c0,1.2,0.1,2.4-0.2,3.6
		c0,0.2-0.2,0.4-0.3,0.6c-0.3,0.1-0.4-0.2-0.5-0.4c-0.3-0.6-0.3-1.2-0.4-1.8c-0.3-3.5-0.7-7.1-0.9-10.6c-3,0.6-6,0.5-9,0.9
		c0.2,3.7,0.7,7.4,1.4,11.1c0.2,0.8,0.1,1.7-0.5,2.4c-1.1,0-2.1-0.8-2.4-1.8c-0.3-1.2-0.4-2.4-0.4-3.6c-0.2-1.7,0-3.5-0.1-5.2
		c-0.1-3-0.1-6.1-0.1-9.1c-0.2-1.9,0.1-3.7,0-5.6c0-3.8,0.1-7.5,0.4-11.2c-0.4-0.2-1-0.3-1.1-0.9c-0.1-0.5-0.1-1,0.2-1.4
		c0.3-0.5,0.9-0.8,1.4-1.1c0.1-1.6,0-3.2,0.6-4.7c0.3,0.1,0.7,0,0.9,0.3c0.4,0.6,0.3,1.4,0.4,2.2c0.7-1.2,1.6-2.2,2.2-3.5
		c0.7-1.4,0.8-2.9,1-4.4c-0.5-0.3-1.2-0.6-1.3-1.2c0-1,1.2-1.4,2-1.6c0.2-1.4,0.1-2.8,0.6-4.1c0.2-0.5,0.6-0.8,0.9-1.3
		c0.2-0.9,0.1-1.7,0.1-2.6c-0.4,0-0.9-0.1-1.3-0.2c-0.4-0.2-0.6-0.8-0.2-1.1c0.5-0.1,1-0.1,1.5-0.1C64.8,4.2,64.7,3.2,65.2,2.3
		 M64.2,15c-0.3,0.5-0.8,0.7-1.3,1c0.5,0.6,0.9,1.4,0.8,2.2c-0.2,2.6-1.3,5-2.5,7.2c0.7-0.4,1.4-1,2.3-1c1.5-0.1,2.7,1,3.5,2.2
		c0.4,0.5,0.5,1.2,1.1,1.5c0-0.3,0.1-0.6-0.1-0.9c-0.7-1.4-1.6-2.6-2.3-4c-0.9-1.7-1.2-3.7-0.9-5.6c0-0.5,0.5-0.8,0.9-1
		c-0.3-0.3-0.7-0.6-0.6-1.1c-0.1-0.6,0.3-1.2-0.2-1.7C64.5,14,64.5,14.6,64.2,15 M62.7,26.5c-1.2,0.8-1.9,2.1-2.7,3.3
		c-0.3,0.6-0.9,0.9-1.4,1.2c0,1.1-0.2,2.1-0.2,3.2c0,0.9-0.2,1.9-0.2,2.8c0,1,0,2-0.1,3c-0.2,2-0.1,4.1-0.1,6.1
		c-0.1,2.1,0.2,4.2,0.2,6.3c1.2,0.1,2.3,0,3.4-0.1c1.9,0,3.9-0.2,5.8-0.4c-0.3-1-0.2-2-0.2-3c0-2.4,0-4.8,0.2-7.2
		c0-1.6,0-3.2,0.2-4.7c0-2,0.2-4.1,0.2-6.1c-0.6,0-1.2-0.1-1.6-0.5c-1-1-0.8-2.6-1.8-3.6C64.1,26.1,63.2,26.1,62.7,26.5 M61,36.4
		c0.5-0.1,1,0.5,1,1c0,1.8-0.1,3.7,0.2,5.5c-0.5,0.4-1.2,0.3-1.9,0.2c-0.4-1.1-0.2-2.3-0.2-3.5C60.2,38.6,60.2,37.3,61,36.4
		 M64.6,36.3c0.4,0.2,0.8,0.3,1,0.7c0.4,0.5,0.3,1.2,0.3,1.8c-0.1,1.4,0.2,3-0.4,4.3c-0.3,0.5-1,0.4-1.4,0.1
		c-0.2-1.1,0.1-2.1,0.1-3.2C64.5,38.8,64.2,37.5,64.6,36.3L64.6,36.3z"/>
	<path class="st0" d="M45.9,5.3c1.4,0,2.7-0.6,4-0.6c0.4,0,1,0.2,1,0.6c0.1,1.1,0.6,2.1,0.3,3.2c-0.7,0.2-1.5,0.3-2.2,0.2
		c-1.2-0.2-2.3-0.1-3.5,0.1c0.1,1.4,0.4,2.7,0.5,4.1c1,1.1,1.9,2.3,2.7,3.5c1.2,0.2,2.5,0,3.7,0c0.2-0.5,0.4-1.2,0.9-1.4
		c0.6,0.1,0.5,0.9,0.7,1.4c0.5,0.1,1.2,0.2,1.5,0.7c0.1,0.5-0.1,0.9-0.3,1.4c-0.3,0.8-0.5,1.7-0.8,2.5c-0.2,0.5-0.7,0.5-1.1,0.6
		c-0.1,2.8-0.5,5.7-0.6,8.5c-0.2,1.2-0.1,2.5-0.3,3.7c0,1.4-0.2,2.8-0.2,4.2c0,1-0.1,2.1-0.2,3.1c0,3.1,0,6.1,0,9.2
		c0.3,0.2,1,0.3,0.9,0.8c0.1,0.7-0.4,1.2-0.9,1.5c0,1.8,0,3.6,0,5.4c0,1.2,0.2,2.4,0.2,3.7c-0.1,1.2,0.2,2.3,0.2,3.5
		c0.1,0.9,0.3,2-0.2,2.8c-0.8,0.3-1.1-0.7-1.3-1.2c-0.4-1.6-0.5-3.2-0.6-4.8c-0.2-1.6,0-3.3-0.2-5c-0.2-1.6,0.1-3.1-0.3-4.7
		c-1.4-0.1-2.9-0.1-4.3,0c-1,0.2-2.1,0.2-3.2,0.2c0,1.9,0.3,3.7,0.4,5.6c0.2,2.5,0.4,5,0.8,7.5c0.1,0.6,0.1,1.3-0.4,1.7
		c-0.7,0.3-1.4-0.3-1.6-0.9c-0.6-1.5-0.5-3.2-0.7-4.8c0-1.4-0.3-2.8-0.2-4.2c-0.2-1.6-0.2-3.1-0.2-4.7c-0.5,0-1.2,0.1-1.6-0.4
		c-0.3-0.9,0.7-1.4,1.4-1.7c0-1.3,0-2.6,0-4c-0.2-2.2-0.1-4.4-0.2-6.6c-0.3-2,0-4-0.3-5.9c-0.1-1,0-2-0.1-3c-0.1-1.1,0-2.3-0.2-3.4
		c-0.1-1.7-0.2-3.3-0.4-5c-0.5-0.1-1.1-0.1-1.4-0.4c-0.6-0.6-0.2-1.9,0.6-2.1c1.2-0.3,2.5-0.5,3.6-1.1c-0.7-0.2-1.3,0-2,0
		c-0.6,0-1.3,0.1-1.9-0.1c-0.8-0.4-0.9-1.3-1-2.1c0.9-0.2,1.7-0.1,2.6-0.2c1.3-0.2,2.7-0.1,4-0.1c0.3-1.3,0.6-2.7,0.9-4
		c0.1-0.3,0.2-0.7,0.1-1c-0.3-1.4-0.5-2.9-0.8-4.3c-0.1-0.5,0-1,0-1.4C44.5,5.4,45.2,5.3,45.9,5.3 M42.4,21.4
		c-0.8,0.1-1.6,0.2-2.4,0.3c0.6,3.9,0.9,7.7,0.9,11.6c0.2,2,0.1,4,0.2,5.9c0.2,1.6,0,3.3,0.3,4.9c0,2,0.3,4,0.5,6
		c1.1,0,2.3-0.2,3.4-0.2c-0.3-1-0.1-2.1-0.3-3.2c-0.1-0.9,0-1.9-0.2-2.8c-0.1-0.5-0.3-1,0-1.5c0.6-0.5,1.7-0.3,2.1,0.4
		c0.3,0.7,0.2,1.5,0.3,2.2c0,1.6,0,3.2,0.2,4.7c0.7,0.2,1.5,0.2,2.2,0.2c0-1.5,0-3,0.2-4.5c0-1.7,0-3.4,0.1-5c0.2-1.6,0-3.2,0.2-4.7
		c0.2-1.3,0-2.6,0.2-3.8c0.2-1.1,0-2.1,0.1-3.2c0.1-1.1,0.1-2.2,0.3-3.3c0-1.3,0.3-2.5,0.2-3.8c-0.6-0.1-1.3-0.2-1.9-0.2
		C46.8,21,44.6,21.2,42.4,21.4 M45.8,29.1c0.7-0.2,1.4,0.2,1.9,0.7c0.7,0.7,0.9,1.7,0.9,2.6c-0.1,1.1-0.7,2.2-1.5,3
		c-0.6,0.8-1.6,0.5-2.4,0.2c-1.2-0.6-1.6-2-1.9-3.2c-0.2-1.1,0.6-2,1.3-2.6C44.6,29.4,45.2,29.2,45.8,29.1L45.8,29.1z"/>
	<path class="st0" d="M81.7,14c0.2-0.7,1.2-0.2,1.1,0.4c-0.1,0.8-0.2,1.6-0.3,2.4c0.6,0.2,1.7-0.1,1.9,0.8c-0.2,0.8-1.2,0.7-1.8,0.7
		c0,1-0.3,1.9-0.2,2.9c0.4,0.7,0.8,1.4,1,2.2c0.1,0.6,0.7,0.9,1.1,1.4c0.1,0.4-0.1,0.8-0.2,1.1c-0.4,0.1-0.8,0.2-1.2,0.3
		c-0.2,0.9-0.1,1.8,0.2,2.6c0.1,0.4-0.2,0.7-0.3,0.9c2.2,0.9,3.9,3,4.1,5.4c0,0.9,1.3,1.2,1.2,2.1c-0.3,1-1.5,1.3-2.4,1.5
		c-0.4,1.5-0.3,3.1-0.6,4.6c0.3,0.1,0.5,0.2,0.8,0.3c0,0.4,0,0.8-0.3,1.2c-0.5,0.5-0.4,1.3-0.5,2c0,1.6-0.4,3.3-0.4,4.9
		c-0.1,3.2-0.1,6.4,0,9.6c0,1.1,0.3,2.2,0.4,3.3c-0.3,0.1-0.6,0.2-0.8,0.3c-0.7-0.4-0.7-1.2-0.8-1.9c-0.2-1.4-0.3-2.7-0.3-4.1
		c0-2.4-0.1-4.9,0.1-7.3c0.2-1.3,0-2.7,0.2-4c0.1-0.8,0.1-1.7,0.1-2.5c-0.6-0.1-1.2-0.2-1.8-0.2c-0.1,1.9,0.1,3.8,0,5.6
		c-0.1,0.9-0.1,1.9-0.2,2.8c-0.2,1.9,0,3.8-0.2,5.6c-0.1,2.2,0.1,4.4-0.1,6.5c-0.4,0-0.9,0.2-1.2-0.3c-0.4-0.7-0.3-1.5-0.4-2.3
		c-0.1-2.4-0.1-4.7,0.1-7.1c0.1-2.8,0.4-5.6,1-8.3c0.2-0.9,0.1-1.9,0.2-2.8c-0.7,0-1.4,0-2.1,0.1c-0.1,1.6-0.3,3.2-0.2,4.9
		c0,2,0,4.1-0.2,6.1c0,3.3,0,6.7,0,10c0,0.8-0.7,1.6-1.5,1.4c-0.7-0.6-0.2-1.6-0.2-2.4c0-1.6,0.2-3.3,0.2-4.9c0-1.5,0.2-2.9,0.2-4.4
		c0-1.1,0.1-2.2,0.2-3.3c0-2.5,0-5,0.1-7.5c-0.8,0-1.6,0-2.4,0c0,1.5,0.2,3,0.2,4.5c0.2,2.2,0.1,4.4,0.3,6.6c0,3.4,0,6.8,0.1,10.1
		c-0.3,0.2-0.5,0.4-0.9,0.5c-0.3-0.1-0.6-0.2-0.8-0.4c-0.3-0.6-0.2-1.2-0.3-1.8c-0.2-2-0.1-4.1-0.1-6.1c0-1.6,0.2-3.3,0.1-4.9
		c0.1-2.8,0.2-5.6-0.2-8.4c-0.7-0.3-1.3-0.9-1.3-1.7c0.7-0.3,1.4-0.6,2.1-0.6c0-1.3,0.3-2.5,0.2-3.8c0-0.3,0-0.8-0.4-0.9
		c-0.8-0.2-1.9-0.6-1.9-1.5c0.4-0.5,1.2-0.5,1.5-1.2c0.7-1.5,1.4-3.1,2.6-4.2c0.8-0.8,2.2-0.9,3-1.7c0.3-0.4,0.2-0.9,0.2-1.4
		c0-0.7-0.1-1.5-0.5-2.2c-0.2-0.4-0.5-0.9-0.3-1.4c0.2-0.6,1.1-0.3,1.4-0.9c0.3-0.6,0.4-1.3,0.8-1.8c0.1-0.2,0.4-0.4,0.4-0.6
		c0.1-0.9,0.2-1.8,0.2-2.7c-0.6,0.2-1.3,0.4-1.9,0c0-0.3,0-0.7,0.1-1c0.5-0.2,1.1-0.1,1.6-0.2C81.3,15.9,81.4,14.9,81.7,14 M80,24.5
		c0.8,1.4,0.6,3,0.6,4.5c0.4,0.1,0.8,0.1,1.2,0.2c-0.1-0.6-0.3-1.2-0.3-1.8c0.1-0.9,0.2-1.9,1-2.5c-0.4-0.6-0.6-1.2-0.9-1.8
		C81,23.5,80.7,24.2,80,24.5 M78.2,30.8c-1.8,0.9-2.6,2.9-3.1,4.7c3.4,0,6.8,0.6,10.3,0.9c-0.2-1.2-0.4-2.4-0.9-3.5
		c-0.4-0.9-1.1-1.7-2.1-2C81.1,30.5,79.6,30.2,78.2,30.8 M75.5,37.8c0.4,1.5,0,3.1,0,4.7c1.8,0.4,3.7,0.5,5.5,0.7
		c0.8,0.1,1.7,0,2.5,0c0.2-1.6,0.2-3.2,0.3-4.8c-1.1-0.3-2.2-0.5-3.3-0.5c0.5,0.5,1.1,1.1,1.2,1.8c0.1,1-0.7,1.9-1.6,2.2
		c-1,0.2-2.3-0.3-2.4-1.4c-0.2-1.1,0.6-2,1.3-2.8C77.8,37.5,76.7,37.6,75.5,37.8L75.5,37.8z"/>
	<path class="st0" d="M6.2,19c0.1,0,0.4,0.1,0.5,0.1c0.3,1,0.2,2,0.2,3.1c0.4,0.1,0.7,0.2,1.1,0.3c0,0.3,0,0.6,0,0.9
		c-0.4,0-0.7,0.1-1.1,0.1c0,1.3-0.1,2.6,0.3,3.9C7.3,27.8,7.9,28,8,28.4c0.2,0.5-0.4,1-0.2,1.6c0.3,1.4,0.7,2.7,1.1,4.1
		c0.1-1,0.1-2.1,0.4-3c0.4-1.5,0.6-3,1.1-4.5c0.1-0.2,0.3-0.6,0.6-0.5c0.5,0.3,0.7,1,0.9,1.6c0.4,1.6,1,3.1,1.1,4.7
		c0.3,2,0.1,4.1,0.3,6.1c0,0.6,0,1.3,0.1,1.9c0.1,0.3,0.4,0.5,0.6,0.7c-0.2,0.3-0.3,0.5-0.5,0.8c-0.1,0.8,0.1,1.7,0.1,2.6
		c0,2.4,0.2,4.8,0.2,7.2c0.2,2.6,0.3,5.1,0.5,7.7c0,1.3,0.5,2.7-0.2,3.9c-0.8-0.1-0.9-1-1-1.7c-0.4-3.9-0.8-7.8-1.1-11.7
		c-0.1-2.8-0.4-5.6-0.4-8.4c-0.5,0-1.1,0-1.6,0c0,1.8,0.1,3.5,0.1,5.3c0.1,1.6,0.2,3.1,0.2,4.7c0.2,2.3,0.2,4.7,0.5,7
		c0.1,1.9,0.4,3.7,0.5,5.5c0,0.2-0.1,0.3-0.3,0.4c-0.5-0.2-0.6-0.9-0.7-1.3C9.4,58.7,9.1,54.3,9,49.9c-0.2-1.5-0.1-3.1-0.2-4.6
		c-0.1-1.3,0-2.5-0.1-3.8c-1.1,0-2.2-0.2-3.3-0.2c-0.1,2.4,0,4.8,0.2,7.3c0.6,5.6,0.9,11.2,2.3,16.6c0.1,0.5,0.2,1.1,0.1,1.6
		c-0.5,0.7-1.3-0.2-1.4-0.8C5.4,60.8,5,55.4,4.5,50.2c-0.1-1.2-0.2-2.3-0.2-3.5C4,44.9,4.1,43.1,4,41.3c-0.6,0-1.3,0-1.9-0.1
		c-0.1,1.6,0.2,3.3,0.2,4.9c0,1.3,0.2,2.7,0.2,4c0.4,4.7,0.6,9.4,1,14.1c-0.1,0.8,0.3,1.9-0.6,2.4c-0.6,0.2-1.1-0.3-1.5-0.7
		C1,65.4,1,64.6,1,63.8c0-2.1,0-4.2,0.1-6.3c-0.1-2.3,0.2-4.7,0.2-7c0-2.7-0.2-5.5-0.2-8.2c-0.3-2.5-0.2-5-0.3-7.5
		c0-0.3-0.3-0.4-0.5-0.6C0.1,34,0.1,33.7,0,33.4c0.2-0.1,0.5-0.3,0.7-0.4c-0.2-1,0-2.1,0.3-3.1C1.2,29,1.4,28,2,27.3
		c0.4-0.1,0.5,0.3,0.6,0.6c1.1,2.7,1.3,5.6,1.7,8.4C4.6,34,5,31.8,5.2,29.5c-0.4-0.3-1-0.7-0.8-1.3c0.4-0.4,0.9-0.6,1.1-1.1
		C6,25.9,5.9,24.6,6,23.3c-0.5-0.1-1.4,0.2-1.4-0.6c0.2-0.6,0.9-0.5,1.4-0.7C5.9,21.1,5.7,20,6.2,19 M2.1,29.8
		c-0.3,1.1-0.3,2.2-0.4,3.3c0.4,0.1,0.8,0.1,1.2,0.2C2.6,32.2,2.5,31,2.1,29.8 M10,33.1c0.4,0,0.8,0,1.1,0c-0.1-0.9,0.1-2-0.4-2.8
		C10.2,31.1,10.2,32.2,10,33.1 M5.4,37c-0.1,1-0.3,2.1-0.2,3.1c1.2,0,2.5,0,3.7-0.2c-0.3-1.7-0.8-3.4-1.3-5.1
		C7.2,34,7,33.1,6.3,32.4C5.8,33.9,5.6,35.4,5.4,37 M9.9,34.4c-0.1,0.5-0.1,1-0.1,1.6c0,1.3-0.1,2.7,0.1,4c0.5,0.1,1,0.2,1.5,0.3
		c-0.1-2-0.2-3.9-0.3-5.9C10.8,34.4,10.4,34.4,9.9,34.4 M1.8,34.6C1.8,36.4,2,38.1,2,39.9c0.5,0,1.1,0,1.6,0C3.3,38.2,3,36.4,3,34.6
		C2.6,34.6,2.2,34.6,1.8,34.6 M6.3,46.3c0-0.7,0.3-1.5,0.9-1.9c0.3,0.3,0.6,0.6,0.5,1c0.1,2.6,0.2,5.2,0.4,7.8
		c0.1,0.7,0.3,1.5-0.4,2c-0.6-0.6-0.6-1.6-0.8-2.4C6.6,50.7,6.2,48.5,6.3,46.3L6.3,46.3z"/>
</g>
</svg>
