<?xml version="1.0" encoding="utf-8"?>
<!-- Generator: Adobe Illustrator 19.2.1, SVG Export Plug-In . SVG Version: 6.00 Build 0)  -->
<svg version="1.1" id="Layer_1" xmlns="http://www.w3.org/2000/svg" xmlns:xlink="http://www.w3.org/1999/xlink" x="0px" y="0px"
	 viewBox="0 0 50 56" style="enable-background:new 0 0 50 56;" xml:space="preserve">
<style type="text/css">
	.st0{fill:#FFFFFF;}
</style>
<g>
	<g>
		<path class="st0" d="M14,32.6c-1.1,0-2,0.9-2,2c0,1.1,0.9,2,2,2c1.1,0,2-0.9,2-2C16,33.5,15.1,32.6,14,32.6z M36,32.6
			c-1.1,0-2,0.9-2,2c0,1.1,0.9,2,2,2c1.1,0,2-0.9,2-2C38,33.5,37.1,32.6,36,32.6z M14,28.2c-1.1,0-2.1,0.4-2.9,1.2
			c-0.4,0.4-0.4,1.1,0,1.5c0.4,0.4,1.1,0.4,1.5,0c0.4-0.4,0.9-0.6,1.4-0.6c0.5,0,1,0.2,1.4,0.6c0.2,0.2,0.5,0.3,0.7,0.3
			c0.3,0,0.5-0.1,0.7-0.3c0.4-0.4,0.4-1.1,0-1.5C16.1,28.7,15.1,28.2,14,28.2z M33.1,29.4c-0.4,0.4-0.4,1.1,0,1.5
			c0.4,0.4,1.1,0.4,1.5,0c0.8-0.8,2-0.8,2.7,0c0.2,0.2,0.5,0.3,0.7,0.3s0.5-0.1,0.7-0.3c0.4-0.4,0.4-1.1,0-1.5
			C37.3,27.8,34.7,27.8,33.1,29.4z M27,43c-0.5,0.5-1.3,0.8-2,0.8c-0.8,0-1.5-0.3-2-0.8c-0.4-0.4-1.1-0.4-1.5,0
			c-0.4,0.4-0.4,1.1,0,1.5c0.9,0.9,2.2,1.5,3.5,1.5c1.3,0,2.6-0.5,3.5-1.5c0.4-0.4,0.4-1.1,0-1.5C28.1,42.6,27.5,42.6,27,43z
			 M45.2,27.8V10.1c0-2.3-1.1-4.4-3.1-5.7c-1.8-1.2-4-1.5-6.1-0.8l-6.7-2.3c-5.1-1.7-10.5-1.9-15.6-0.5C7.2,2.8,3.4,6.6,2.8,12.1
			c-0.5,0.7-0.9,1.4-1.2,2.3l-0.5,1.5c-0.3,0.8,0,1.7,0.8,2.1c0.7,0.5,1.6,0.4,2.3-0.2c0.2-0.2,0.4-0.4,0.7-0.5v10.5
			C2.1,28.3,0,30.7,0,33.6c0,3,2.3,5.5,5.1,5.8c0.7,4,2.6,7.7,5.6,10.7c3.8,3.9,8.9,6,14.3,6h0c5.4,0,10.5-2.1,14.3-5.9
			c3-3,4.9-6.7,5.6-10.8c2.9-0.4,5.1-2.8,5.1-5.8C50,30.7,47.9,28.3,45.2,27.8z M2.1,33.6c0-1.7,1.1-3.1,2.7-3.6v5.7
			c0,0.5,0,1,0.1,1.5C3.3,36.7,2.1,35.3,2.1,33.6z M3.4,15.7L3.6,15c0.5-1.6,1.7-2.9,3.3-3.5c1.5-0.7,3.3-0.6,4.8,0.1
			c3.2,1.5,7.1,0.7,9.4-2l0.3-0.3c0.4-0.4,0.3-1.1-0.1-1.5c-0.4-0.4-1.1-0.3-1.5,0.1l-0.3,0.3c-1.7,1.9-4.6,2.5-7,1.4
			c-2.1-1-4.5-1-6.6-0.1C5.9,9.6,5.7,9.7,5.5,9.8C6.8,6.6,9.7,4.3,14.4,3c4.7-1.3,9.6-1.1,14.3,0.5L35,5.6l0.1,5.5
			c-2.8,3.8-6.9,6.4-11.6,7.3c-4.8,0.9-9.7-0.1-13.7-2.7C7.8,14.3,5.3,14.4,3.4,15.7z M43.1,35.9c0,4.8-1.9,9.3-5.3,12.7
			c-3.4,3.4-7.9,5.3-12.8,5.3c0,0,0,0,0,0c-4.8,0-9.4-1.9-12.8-5.4c-3.4-3.4-5.3-8-5.3-12.8V16.8c0.6,0,1.2,0.2,1.7,0.6
			c4.5,3,10,4,15.3,3c4.3-0.8,8.2-2.9,11.2-6.1v2.9c0,4.6,3.5,8.4,7.9,8.9V35.9z M43.1,23.9c-3.3-0.5-5.8-3.4-5.8-6.8L37.2,5.6
			c1.3-0.3,2.6-0.1,3.8,0.6c1.3,0.9,2.1,2.3,2.1,3.9V23.9z M45.1,37.2c0-0.4,0-0.8,0-1.3V30c1.6,0.5,2.7,1.9,2.7,3.6
			C47.9,35.3,46.7,36.7,45.1,37.2z"/>
	</g>
</g>
</svg>
