<?xml version="1.0" encoding="utf-8"?>
<!-- Generator: Adobe Illustrator 19.2.1, SVG Export Plug-In . SVG Version: 6.00 Build 0)  -->
<svg version="1.1" id="Layer_1" xmlns="http://www.w3.org/2000/svg" xmlns:xlink="http://www.w3.org/1999/xlink" x="0px" y="0px"
	 viewBox="0 0 24 35" style="enable-background:new 0 0 24 35;" xml:space="preserve">
<style type="text/css">
	.st0{fill:#FFFFFF;}
</style>
<path class="st0" d="M12,0C5.4,0,0,5.2,0,11.7c0,6.2,10.9,22.3,11.4,23c0.1,0.2,0.4,0.3,0.6,0.3c0.3,0,0.5-0.1,0.6-0.3
	C13.1,34,24,17.9,24,11.7C24,5.2,18.6,0,12,0z M12,16.8c-2.9,0-5.2-2.3-5.2-5.1c0-2.8,2.4-5.1,5.2-5.1c2.9,0,5.2,2.3,5.2,5.1
	C17.2,14.5,14.9,16.8,12,16.8z"/>
</svg>
