<?xml version="1.0" encoding="utf-8"?>
<!-- Generator: Adobe Illustrator 19.2.1, SVG Export Plug-In . SVG Version: 6.00 Build 0)  -->
<svg version="1.1" id="Layer_1" xmlns="http://www.w3.org/2000/svg" xmlns:xlink="http://www.w3.org/1999/xlink" x="0px" y="0px"
	 viewBox="0 0 51 51" style="enable-background:new 0 0 51 51;" xml:space="preserve">
<style type="text/css">
	.st0{fill:#FFFFFF;}
</style>
<path class="st0" d="M25.5,3C37.9,3,48,13.1,48,25.5S37.9,48,25.5,48S3,37.9,3,25.5S13.1,3,25.5,3 M25.5,0C11.4,0,0,11.4,0,25.5
	S11.4,51,25.5,51S51,39.6,51,25.5S39.6,0,25.5,0L25.5,0z"/>
<g>
	<path class="st0" d="M30.4,32.7h-9.6v-1.6l4.7-5.2c0.7-0.8,1.2-1.4,1.5-1.9s0.4-1,0.4-1.5c0-0.7-0.2-1.2-0.6-1.6s-0.9-0.6-1.5-0.6
		c-0.8,0-1.4,0.2-1.8,0.7C23.2,21.4,23,22,23,22.8h-2.4c0-0.9,0.2-1.6,0.6-2.3s1-1.2,1.7-1.6s1.6-0.6,2.5-0.6c1.4,0,2.5,0.3,3.3,1
		s1.2,1.7,1.2,2.9c0,0.7-0.2,1.5-0.6,2.2s-1.1,1.7-2,2.7l-3.5,3.7h6.6V32.7z"/>
</g>
</svg>
