<?xml version="1.0" encoding="utf-8"?>
<!-- Generator: Adobe Illustrator 19.2.1, SVG Export Plug-In . SVG Version: 6.00 Build 0)  -->
<svg version="1.1" id="Layer_1" xmlns="http://www.w3.org/2000/svg" xmlns:xlink="http://www.w3.org/1999/xlink" x="0px" y="0px"
	 viewBox="0 0 51 51" style="enable-background:new 0 0 51 51;" xml:space="preserve">
<style type="text/css">
	.st0{fill:#FFFFFF;}
</style>
<path class="st0" d="M25.5,3C37.9,3,48,13.1,48,25.5S37.9,48,25.5,48S3,37.9,3,25.5S13.1,3,25.5,3 M25.5,0C11.4,0,0,11.4,0,25.5
	S11.4,51,25.5,51S51,39.6,51,25.5S39.6,0,25.5,0L25.5,0z"/>
<g>
	<path class="st0" d="M23.8,24.4h1.4c0.7,0,1.3-0.2,1.7-0.6s0.6-0.9,0.6-1.6c0-0.7-0.2-1.2-0.5-1.6s-0.9-0.6-1.6-0.6
		c-0.6,0-1.2,0.2-1.6,0.6s-0.6,0.8-0.6,1.4h-2.4c0-0.7,0.2-1.4,0.6-2s0.9-1.1,1.6-1.4s1.5-0.5,2.3-0.5c1.4,0,2.5,0.4,3.3,1.1
		s1.2,1.7,1.2,3c0,0.6-0.2,1.2-0.6,1.8s-0.9,1-1.6,1.3c0.8,0.3,1.4,0.7,1.8,1.3s0.6,1.3,0.6,2.1c0,1.3-0.4,2.3-1.3,3s-2,1.1-3.5,1.1
		c-1.4,0-2.5-0.4-3.4-1.1s-1.3-1.7-1.3-2.9h2.4c0,0.6,0.2,1.1,0.6,1.5s1,0.6,1.7,0.6c0.7,0,1.3-0.2,1.7-0.6s0.6-1,0.6-1.7
		c0-0.7-0.2-1.3-0.7-1.7s-1.1-0.6-2-0.6h-1.4V24.4z"/>
</g>
</svg>
