<?xml version="1.0" encoding="utf-8"?>
<!-- Generator: Adobe Illustrator 19.2.1, SVG Export Plug-In . SVG Version: 6.00 Build 0)  -->
<svg version="1.1" id="Layer_1" xmlns="http://www.w3.org/2000/svg" xmlns:xlink="http://www.w3.org/1999/xlink" x="0px" y="0px"
	 viewBox="0 0 147 147" style="enable-background:new 0 0 147 147;" xml:space="preserve">
<style type="text/css">
	.st0{fill:#FFFFFF;}
</style>
<g>
	<g>
		<path class="st0" d="M107.8,120V93.1c0-4.2-3.2-7.3-7.3-7.3h-1.2C98,85.7,97,85,96.8,84l-8.6-29.9v-0.2c-2-4.4-6.4-7.3-11.3-7.3
			H30.9c-4.9,0-9.3,2.9-11.3,7.3v0.2L11,84c-0.5,1-1.5,1.7-2.4,1.7H7.3c-4.2,0-7.3,3.2-7.3,7.3V120c0,4.2,3.2,7.4,7.3,7.4v12.2
			c0,4.2,3.2,7.4,7.3,7.4h4.9c4.2,0,7.4-3.2,7.4-7.4v-12.2h53.9v12.2c0,4.2,3.2,7.4,7.3,7.4h4.9c4.2,0,7.3-3.2,7.3-7.4v-12.2
			C104.6,127.4,107.8,124.2,107.8,120z M22.1,139.6L22.1,139.6c0,1.5-1,2.4-2.5,2.4h-4.9c-1.5,0-2.4-1-2.4-2.4v-12.2h9.8V139.6z
			 M95.6,139.6L95.6,139.6c0,1.5-1,2.4-2.5,2.4h-4.9c-1.5,0-2.4-1-2.4-2.4v-12.2h9.8V139.6z M100.5,122.5H7.3c-1.5,0-2.4-1-2.4-2.5
			V93.1c0-1.5,1-2.4,2.4-2.4h1.2c3.2,0,6.1-2.2,7.1-5.4l8.6-29.6c1.2-2.5,3.7-4.2,6.6-4.2h46.1c2.7,0,5.4,1.5,6.6,4.2l8.6,29.6
			c1,3.2,3.9,5.4,7.1,5.4h1.2c1.5,0,2.4,1,2.4,2.4V120h0C102.9,121.5,101.9,122.5,100.5,122.5z M22.1,95.5c-5.4,0-9.8,4.4-9.8,9.8
			c0,5.4,4.4,9.8,9.8,9.8c5.4,0,9.8-4.4,9.8-9.8C31.9,100,27.4,95.5,22.1,95.5z M22.1,110.3c-2.7,0-4.9-2.2-4.9-4.9s2.2-4.9,4.9-4.9
			c2.7,0,4.9,2.2,4.9,4.9S24.7,110.3,22.1,110.3z M85.8,95.5c-5.4,0-9.8,4.4-9.8,9.8c0,5.4,4.4,9.8,9.8,9.8s9.8-4.4,9.8-9.8
			C95.6,100,91.1,95.5,85.8,95.5z M85.8,110.3c-2.7,0-4.9-2.2-4.9-4.9s2.2-4.9,4.9-4.9c2.7,0,4.9,2.2,4.9,4.9S88.4,110.3,85.8,110.3
			z M58.8,107.8H49c-1.5,0-2.4,1-2.4,2.5c0,1.5,1,2.4,2.4,2.4h9.8c1.5,0,2.4-1,2.4-2.4C61.2,108.8,60.3,107.8,58.8,107.8z M63.7,98
			H44.1c-1.5,0-2.4,1-2.4,2.5c0,1.5,1,2.4,2.4,2.4h19.6c1.5,0,2.4-1,2.4-2.4C66.1,99,65.2,98,63.7,98z M30.4,85.7h47.3
			c1.5,0,2.9-0.7,3.9-2c1-1.2,1.2-2.9,0.7-4.4l-5.9-19.6c-0.5-2-2.5-3.4-4.7-3.4H36.3c-2.2,0-3.9,1.2-4.7,3.4l-5.9,19.6
			c-0.5,1.5-0.2,3.2,0.7,4.4C27.4,85,28.9,85.7,30.4,85.7z M36.3,61.2h35.5l5.9,19.6H30.4L36.3,61.2z M144.5,0h-41.6
			c-1.5,0-2.4,1-2.4,2.4v41.7c0,1.5,1,2.5,2.4,2.5H120v75.9h-4.9c-1.5,0-2.4,1-2.4,2.4v7.4h-4.9c-1.5,0-2.4,1-2.4,2.4v9.8
			c0,1.5,1,2.4,2.4,2.4h29.4c1.5,0,2.4-1,2.4-2.4v-9.8c0-1.5-1-2.4-2.4-2.4h-4.9v-7.4c0-1.5-1-2.4-2.4-2.4H125V46.6h19.6
			c1.5,0,2.4-1,2.4-2.5V2.4C147,1,146,0,144.5,0z M134.8,137.2v4.9h-24.5v-4.9H134.8z M127.4,127.4v4.9h-9.8v-4.9H127.4z
			 M142.1,41.7h-36.8V4.9h36.8V41.7z M120,36.7c1.5,0,2.4-1,2.4-2.4v-4.9h2.4c5.4,0,9.8-4.4,9.8-9.8c0-5.4-4.4-9.8-9.8-9.8H120
			c-1.5,0-2.5,1-2.5,2.4v22.1C117.6,35.8,118.6,36.7,120,36.7z M122.5,14.7h2.4c2.7,0,4.9,2.2,4.9,4.9c0,2.7-2.2,4.9-4.9,4.9h-2.4
			V14.7z"/>
	</g>
</g>
</svg>
