<?xml version="1.0" encoding="utf-8"?>
<!-- Generator: Adobe Illustrator 19.2.1, SVG Export Plug-In . SVG Version: 6.00 Build 0)  -->
<svg version="1.1" id="Layer_1" xmlns="http://www.w3.org/2000/svg" xmlns:xlink="http://www.w3.org/1999/xlink" x="0px" y="0px"
	 viewBox="0 0 34.9 34.9" style="enable-background:new 0 0 34.9 34.9;" xml:space="preserve">
<style type="text/css">
	.st0{fill:#FFFFFF;}
</style>
<path class="st0" d="M17.4,0.1C7.8,0.1,0,7.9,0,17.5c0,9.6,7.8,17.4,17.4,17.4c1.6,0,3.1-0.2,4.8-0.7c3.4-1.5,5.2-5.1,4.4-8.7l0,0
	c0.5-0.5,0.7-1.5,0.5-2.2L27.1,23c-0.2-0.7-1-1.4-1.7-1.6l-2.6-0.7c-0.7-0.2-1.7,0.1-2.2,0.6l-0.9,0.9c-3.4-0.9-6-3.6-7-7l0.9-0.9
	c0.5-0.5,0.8-1.5,0.6-2.2l-0.7-2.6c-0.2-0.7-0.9-1.5-1.6-1.7l-0.3-0.1c-0.7-0.2-1.7,0-2.2,0.5L8,9.7c-0.2,0.2-0.4,1-0.4,1
	c0,4.4,1.7,8.7,4.8,11.8c3.1,3.1,7.4,4.9,11.8,4.8c0,0,0.2,0,0.4-0.1c0,2.1-1.2,4.1-3.1,5c-1.3,0.4-2.7,0.5-4.1,0.5
	C9,32.8,2.2,25.9,2.2,17.5C2.2,9.1,9,2.2,17.4,2.2s15.3,6.8,15.3,15.3c0,2.5-0.6,4.9-1.8,7.1c-0.3,0.5-0.1,1.2,0.5,1.5
	c0.5,0.3,1.2,0.1,1.5-0.5c1.3-2.5,2-5.3,2-8.1C34.9,7.9,27.1,0.1,17.4,0.1z"/>
</svg>
