<?xml version="1.0" encoding="utf-8"?>
<!-- Generator: Adobe Illustrator 19.2.1, SVG Export Plug-In . SVG Version: 6.00 Build 0)  -->
<svg version="1.1" id="Layer_1" xmlns="http://www.w3.org/2000/svg" xmlns:xlink="http://www.w3.org/1999/xlink" x="0px" y="0px"
	 viewBox="0 0 40 53" style="enable-background:new 0 0 40 53;" xml:space="preserve">
<style type="text/css">
	.st0{fill:#FFFFFF;}
</style>
<g>
	<g>
		<path class="st0" d="M20,12.4L20,12.4c0.6,0,1.1-0.5,1.1-1c0-0.6-0.5-1-1-1h0c-0.6,0-1,0.5-1,1C19,12,19.4,12.4,20,12.4z M39,6.7
			h-6.4V4.3c0-0.6-0.5-1-1-1h-7.3C23.8,1.4,22.1,0,20,0c-2.1,0-3.8,1.4-4.2,3.3H8.4c-0.6,0-1,0.5-1,1v2.4H1c-0.6,0-1,0.5-1,1V52
			c0,0.6,0.5,1,1,1H39c0.6,0,1-0.5,1-1V7.8C40,7.2,39.5,6.7,39,6.7z M20,2.1c0.9,0,1.7,0.5,2,1.2H18C18.3,2.6,19.1,2.1,20,2.1z
			 M7.4,11.4c0,0.6,0.5,1,1,1h8.2c0.6,0,1-0.5,1-1c0-0.6-0.5-1-1-1H9.5c0-0.1,0-0.1,0-0.2V7.9c0,0,0-0.1,0-0.1c0,0,0-0.1,0-0.1V5.4
			h21v2.3c0,0,0,0.1,0,0.1c0,0,0,0.1,0,0.1v2.3c0,0.1,0,0.1,0,0.2h-7c-0.6,0-1,0.5-1,1c0,0.6,0.5,1,1,1h8c0.6,0,1-0.5,1-1h0.9v35.2
			H6.5V11.4H7.4z M37.9,50.9H2.1V8.8h5.3v0.5h-2c-0.6,0-1,0.5-1,1v37.3c0,0.6,0.5,1,1,1h29.2c0.6,0,1-0.5,1-1V10.4c0-0.6-0.5-1-1-1
			h-2V8.8h5.3V50.9z M10,21.2L10,21.2c0.6,0,1.1-0.5,1.1-1c0-0.6-0.5-1-1-1h0c-0.6,0-1,0.5-1,1C9,20.7,9.5,21.2,10,21.2z M13.4,21.2
			h16.9c0.6,0,1-0.5,1-1c0-0.6-0.5-1-1-1H13.4c-0.6,0-1,0.5-1,1C12.4,20.7,12.8,21.2,13.4,21.2z M10,26.5L10,26.5
			c0.6,0,1.1-0.5,1.1-1s-0.5-1-1-1h0c-0.6,0-1,0.5-1,1S9.5,26.5,10,26.5z M13.4,26.5h16.9c0.6,0,1-0.5,1-1c0-0.6-0.5-1-1-1H13.4
			c-0.6,0-1,0.5-1,1C12.4,26,12.8,26.5,13.4,26.5z"/>
	</g>
</g>
</svg>
