<?xml version="1.0" encoding="utf-8"?>
<!-- Generator: Adobe Illustrator 19.2.1, SVG Export Plug-In . SVG Version: 6.00 Build 0)  -->
<svg version="1.1" id="Layer_1" xmlns="http://www.w3.org/2000/svg" xmlns:xlink="http://www.w3.org/1999/xlink" x="0px" y="0px"
	 viewBox="0 0 38 50" style="enable-background:new 0 0 38 50;" xml:space="preserve">
<style type="text/css">
	.st0{fill:#FFFFFF;}
</style>
<g>
	<g>
		<path class="st0" d="M36.3,46.6h-3l0-5.3c0-5.3-2.9-10.2-8.3-13.8C24.4,27.1,24,26.1,24,25s0.4-2.1,1.1-2.5
			c5.3-3.6,8.3-8.5,8.3-13.8V3.4h3c0.9,0,1.7-0.8,1.7-1.7C38,0.8,37.2,0,36.3,0H1.7C0.8,0,0,0.8,0,1.7c0,0.9,0.8,1.7,1.7,1.7h3v5.3
			c0,5.3,2.9,10.2,8.3,13.8c0.7,0.5,1.1,1.4,1.1,2.5c0,1.1-0.4,2.1-1.1,2.5C7.6,31.1,4.7,36,4.7,41.3v5.3h-3c-0.9,0-1.7,0.8-1.7,1.7
			C0,49.2,0.8,50,1.7,50h34.6c0.9,0,1.7-0.8,1.7-1.7C38,47.4,37.2,46.6,36.3,46.6z M12.2,46.6c1.1-2.6,4.3-5.9,6.8-8
			c2.6,2.2,5.7,5.4,6.8,8H12.2z M29.9,46.6h-0.6C28,41.4,20.9,35.8,20,35.1c-0.6-0.5-1.5-0.5-2.1,0c-0.9,0.7-8,6.3-9.4,11.5H8v-5.3
			h0c0-5.6,4.2-9.3,6.8-11c1.6-1.1,2.6-3.1,2.6-5.3c0-2.3-1-4.2-2.6-5.3C12.3,18,8,14.3,8,8.7V3.4h21.9l0,5.3c0,5.6-4.2,9.3-6.8,11
			c-1.6,1.1-2.6,3.1-2.6,5.3s1,4.2,2.6,5.3c2.5,1.7,6.8,5.4,6.8,11V46.6z M19,28.8c-0.4,0-0.9,0.2-1.2,0.5c-0.3,0.3-0.5,0.7-0.5,1.2
			c0,0.4,0.2,0.9,0.5,1.2c0.3,0.3,0.7,0.5,1.2,0.5s0.9-0.2,1.2-0.5c0.3-0.3,0.5-0.7,0.5-1.2c0-0.4-0.2-0.9-0.5-1.2
			C19.9,29,19.4,28.8,19,28.8z M19,23.2c0.9,0,1.7-0.8,1.7-1.7v-3c0-0.9-0.8-1.7-1.7-1.7c-0.9,0-1.7,0.8-1.7,1.7v3
			C17.3,22.5,18.1,23.2,19,23.2z"/>
	</g>
</g>
</svg>
