<?xml version="1.0" encoding="utf-8"?>
<!-- Generator: Adobe Illustrator 19.2.1, SVG Export Plug-In . SVG Version: 6.00 Build 0)  -->
<svg version="1.1" id="Layer_1" xmlns="http://www.w3.org/2000/svg" xmlns:xlink="http://www.w3.org/1999/xlink" x="0px" y="0px"
	 viewBox="0 0 141.7 16.7" style="enable-background:new 0 0 141.7 16.7;" xml:space="preserve">
<style type="text/css">
	.st0{fill:url(#SVGID_1_);}
</style>
<linearGradient id="SVGID_1_" gradientUnits="userSpaceOnUse" x1="-1.141732e-003" y1="8.3539" x2="141.7311" y2="8.3539">
	<stop  offset="0" style="stop-color:#951A1D"/>
	<stop  offset="1" style="stop-color:#E41E26"/>
</linearGradient>
<path class="st0" d="M0,0c1,7.9,15.6,11,32.5,11.2h15.7c10.1,0,15.1,1.8,15.1,5.5h15c0-3.6,4.8-5.4,14.4-5.5h15.6
	c13.9,0,32.4-2.4,33.4-11.2l-13.3,0c-2.7,3.1-8.1,3-19.4,3.1H93.9C82.8,3.1,75.1,5,70.8,8.8C66.6,5,59,3.1,48.1,3.1H32.7
	C21.3,3,15.9,3.1,13.4,0L0,0z"/>
</svg>
