<?xml version="1.0" encoding="utf-8"?>
<!-- Generator: Adobe Illustrator 19.2.1, SVG Export Plug-In . SVG Version: 6.00 Build 0)  -->
<svg version="1.1" id="Layer_1" xmlns="http://www.w3.org/2000/svg" xmlns:xlink="http://www.w3.org/1999/xlink" x="0px" y="0px"
	 viewBox="0 0 50 50" style="enable-background:new 0 0 50 50;" xml:space="preserve">
<style type="text/css">
	.st0{fill:#FFFFFF;}
</style>
<g>
	<g>
		<path class="st0" d="M42.7,7.3C38,2.6,31.7,0,25,0C18.3,0,12,2.6,7.3,7.3C2.6,12,0,18.3,0,25c0,4.1,1,8.1,2.9,11.7l-2.7,12
			c-0.1,0.3,0,0.7,0.3,0.9C0.6,49.9,1,50,1.3,49.9l12-2.7C16.9,49,20.9,50,25,50c6.7,0,13-2.6,17.7-7.3C47.4,38,50,31.7,50,25
			C50,18.3,47.4,12,42.7,7.3z M25,48c-3.9,0-7.7-1-11-2.8c-0.1-0.1-0.3-0.1-0.5-0.1c-0.1,0-0.1,0-0.2,0L2.4,47.6l2.5-10.8
			c0.1-0.2,0-0.5-0.1-0.7C3,32.7,2,28.9,2,25C2,12.3,12.3,2,25,2c12.7,0,23,10.3,23,23C48,37.7,37.7,48,25,48z M22.4,32.4h-7.6
			l8.3-8.3c0.3-0.3,0.4-0.7,0.2-1.1c-0.2-0.4-0.5-0.6-0.9-0.6h-10c-0.6,0-1,0.4-1,1c0,0.6,0.4,1,1,1H20l-8.3,8.3
			c-0.3,0.3-0.4,0.7-0.2,1.1c0.2,0.4,0.5,0.6,0.9,0.6h10c0.6,0,1-0.4,1-1C23.4,32.8,23,32.4,22.4,32.4z M38.1,28.5c0-0.6-0.4-1-1-1
			h-9.9l10.6-10.6c0.3-0.3,0.4-0.7,0.2-1.1c-0.2-0.4-0.5-0.6-0.9-0.6H24.8c-0.6,0-1,0.4-1,1c0,0.6,0.4,1,1,1h9.9L24.1,27.8
			c-0.3,0.3-0.4,0.7-0.2,1.1c0.2,0.4,0.5,0.6,0.9,0.6h12.3C37.6,29.5,38.1,29,38.1,28.5z M43.7,34.1c-0.5-0.3-1.1-0.1-1.4,0.4
			c-1.9,3.5-4.8,6.3-8.4,8.1c-0.5,0.2-0.7,0.8-0.4,1.3c0.2,0.3,0.5,0.5,0.9,0.5c0.2,0,0.3,0,0.5-0.1c3.9-2,7.1-5.1,9.2-8.9
			C44.3,35,44.1,34.4,43.7,34.1z M30.2,44c-0.6,0.2-1.1,0.3-1.7,0.4c-0.5,0.1-0.9,0.6-0.8,1.2c0.1,0.5,0.5,0.8,1,0.8
			c0.1,0,0.1,0,0.2,0c0.6-0.1,1.3-0.3,1.9-0.4c0.5-0.1,0.8-0.7,0.7-1.2C31.3,44.2,30.8,43.9,30.2,44z"/>
	</g>
</g>
</svg>
