<?xml version="1.0" encoding="utf-8"?>
<!-- Generator: Adobe Illustrator 19.2.1, SVG Export Plug-In . SVG Version: 6.00 Build 0)  -->
<svg version="1.1" id="Layer_1" xmlns="http://www.w3.org/2000/svg" xmlns:xlink="http://www.w3.org/1999/xlink" x="0px" y="0px"
	 viewBox="0 0 50 27" style="enable-background:new 0 0 50 27;" xml:space="preserve">
<style type="text/css">
	.st0{fill:#FFFFFF;}
</style>
<g>
	<g>
		<path class="st0" d="M25,16.6L25,16.6c-0.6,0-1,0.4-1,1s0.4,1,1,1h0c0.5,0,1-0.4,1-1S25.6,16.6,25,16.6z M49.9,5.6
			c-0.2-0.3-0.5-0.5-0.8-0.5c-4.2,0-7.9-1.7-11.1-3.1C35.4,1,33.3,0,31.4,0c-3.1,0-5.3,1.8-6.4,3c-1.1-1.2-3.3-3-6.4-3
			c-1.9,0-4.1,1-6.6,2.1C8.7,3.5,5,5.2,1,5.2c-0.3,0-0.7,0.2-0.8,0.5C0,5.9,0,6.3,0.1,6.6C4.9,15.9,13.1,27,25,27
			c12.9,0,20.4-11.7,24.9-20.4C50,6.3,50,5.9,49.9,5.6z M12.7,3.9c2.3-1,4.4-1.9,5.9-1.9C22,2,24.2,5,24.2,5
			c0.2,0.3,0.5,0.4,0.8,0.4c0.3,0,0.6-0.2,0.8-0.4C25.8,5,28,2,31.4,2c1.5,0,3.4,0.9,5.7,1.9c1.9,0.9,4.1,1.8,6.5,2.5
			c-0.2,0.1-0.5,0.1-0.7,0.2C38.4,7.8,32.8,9.3,25,9.3c-7.3,0-13-1.5-17.6-2.7C7,6.5,6.7,6.4,6.4,6.3C8.7,5.7,10.9,4.7,12.7,3.9z
			 M25,25C15.3,25,8.1,16.7,3.5,8.6c0.8,0.6,1.8,1.2,2.7,1.9c4.1,3,9.1,6.7,15.4,7.7c0.1,0,0.1,0,0.2,0c0.5,0,0.9-0.3,1-0.8
			c0.1-0.5-0.3-1-0.8-1.1c-5.8-1-10.7-4.5-14.6-7.4C7,8.8,6.7,8.6,6.4,8.3c0.2,0,0.3,0.1,0.5,0.1c4.7,1.3,10.6,2.8,18.1,2.8
			c8.1,0,13.8-1.6,18.4-2.8c0.1,0,0.2-0.1,0.3-0.1c-0.3,0.2-0.6,0.4-0.8,0.6c-3.8,2.9-8.6,6.6-14.9,7.4c-0.5,0.1-0.9,0.6-0.8,1.1
			c0.1,0.5,0.5,0.8,1,0.8c0,0,0.1,0,0.1,0c6.8-1,11.8-4.8,15.8-7.8c0.9-0.7,1.7-1.3,2.5-1.8C42.2,16.4,35.5,25,25,25z"/>
	</g>
</g>
</svg>
