<?xml version="1.0" encoding="utf-8"?>
<!-- Generator: Adobe Illustrator 19.2.1, SVG Export Plug-In . SVG Version: 6.00 Build 0)  -->
<svg version="1.1" id="Layer_1" xmlns="http://www.w3.org/2000/svg" xmlns:xlink="http://www.w3.org/1999/xlink" x="0px" y="0px"
	 viewBox="0 0 50 55" style="enable-background:new 0 0 50 55;" xml:space="preserve">
<style type="text/css">
	.st0{fill:#FFFFFF;}
</style>
<g>
	<g>
		<path class="st0" d="M33.3,10.3c-3.8,0-5.7,2.5-6.9,4.1c-0.4,0.5-1,1.4-1.3,1.4s-0.9-0.9-1.3-1.4c-1.2-1.6-3.1-4.1-6.9-4.1
			c-5,0-9,4-9,9c0,2.4,0.3,4.4,3.8,8.9c1.4,1.7,2.1,5.2,2.7,8.3c0.4,2,0.8,3.9,1.4,5.3c0.3,0.7,1.1,2.9,3.2,2.9
			c2.8,0,3.8-3.6,4.7-6.8c0.3-1.1,0.6-2,0.9-2.8c0.3-0.7,0.5-1,0.6-1.1c0.1,0.1,0.3,0.3,0.6,1.1c0.3,0.8,0.6,1.8,0.9,2.8
			c0.9,3.2,1.9,6.8,4.7,6.8c2.1,0,2.9-2.2,3.2-2.9c0.6-1.4,0.9-3.3,1.4-5.3c0.6-3,1.3-6.5,2.7-8.3c3.5-4.4,3.8-6.5,3.8-8.9
			C42.3,14.4,38.2,10.3,33.3,10.3z M36.8,26.8c-1.7,2.2-2.4,5.7-3.1,9.2c-0.4,1.9-0.8,3.7-1.3,5c-0.3,0.7-0.7,1.6-1.2,1.6
			c-1.1,0-2-3.1-2.6-5.2c-0.4-1.3-0.7-2.5-1.1-3.4c-0.2-0.5-0.9-2.1-2.4-2.1s-2.2,1.6-2.4,2.1c-0.4,0.9-0.8,2.1-1.1,3.4
			c-0.6,2.1-1.4,5.2-2.6,5.2c-0.5,0-0.9-0.8-1.2-1.6c-0.5-1.3-0.9-3.1-1.3-5c-0.7-3.4-1.4-7-3.1-9.2C10,22.7,10,21.1,10,19.3
			c0-3.8,3.1-6.9,6.9-6.9c2.8,0,4.1,1.7,5.2,3.3c0.9,1.1,1.7,2.2,3,2.2s2.1-1.1,3-2.2c1.2-1.5,2.5-3.3,5.2-3.3
			c3.8,0,6.9,3.1,6.9,6.9C40.1,21.1,40.1,22.7,36.8,26.8z M41.3,43.7L41.3,43.7c-0.4,0.4-0.4,1.1,0,1.5c0.2,0.2,0.5,0.3,0.8,0.3
			c0.3,0,0.6-0.1,0.8-0.3l0,0c0.4-0.4,0.4-1.1,0-1.5C42.4,43.3,41.7,43.3,41.3,43.7z M8.1,11.6c0.3,0,0.5-0.1,0.8-0.3l0,0
			c0.4-0.4,0.4-1.1,0-1.5c-0.4-0.4-1.1-0.4-1.5,0l0,0c-0.4,0.4-0.4,1.1,0,1.5C7.5,11.5,7.8,11.6,8.1,11.6z M25.8,48.3
			c-0.3-0.3-0.8-0.4-1.2-0.2c-0.4,0.2-0.7,0.6-0.7,1v1.3c-5.7-0.3-11.1-2.6-15.1-6.7c-8-8-8.9-20.9-2.2-29.9
			c0.4-0.5,0.3-1.1-0.2-1.5C6,11.9,5.3,12,5,12.5c-3.6,4.8-5.3,10.7-4.9,16.7c0.4,6,3,11.7,7.3,16c4.5,4.5,10.4,7.1,16.7,7.3v1.4
			c0,0.4,0.3,0.8,0.7,1c0.1,0.1,0.3,0.1,0.4,0.1c0.3,0,0.6-0.1,0.8-0.3l2.4-2.4c0.4-0.4,0.4-1.1,0-1.5L25.8,48.3z M50.1,25.8
			c-0.4-6-3-11.7-7.3-16c-4.5-4.5-10.4-7-16.6-7.3V1.1c0-0.4-0.3-0.8-0.7-1c-0.4-0.2-0.9-0.1-1.2,0.2l-2.4,2.4
			c-0.4,0.4-0.4,1.1,0,1.5l2.4,2.4C24.5,6.9,24.8,7,25.1,7c0.1,0,0.3,0,0.4-0.1c0.4-0.2,0.7-0.6,0.7-1V4.6c5.7,0.3,11,2.6,15.1,6.7
			c8,8,8.9,20.8,2.2,29.9c-0.4,0.5-0.3,1.1,0.2,1.5c0.2,0.1,0.4,0.2,0.6,0.2c0.3,0,0.7-0.1,0.9-0.4C48.8,37.7,50.5,31.8,50.1,25.8z"
			/>
	</g>
</g>
</svg>
