<?xml version="1.0" encoding="utf-8"?>
<!-- Generator: Adobe Illustrator 19.2.1, SVG Export Plug-In . SVG Version: 6.00 Build 0)  -->
<svg version="1.1" id="Layer_1" xmlns="http://www.w3.org/2000/svg" xmlns:xlink="http://www.w3.org/1999/xlink" x="0px" y="0px"
	 viewBox="0 0 34 34" style="enable-background:new 0 0 34 34;" xml:space="preserve">
<style type="text/css">
	.st0{fill:#E20613;}
</style>
<path class="st0" d="M17,0C7.6,0,0,7.6,0,17c0,9.4,7.6,17,17,17c9.4,0,17-7.6,17-17C34,7.6,26.4,0,17,0z M23.3,11.3
	c1.3,0,2.4,1.1,2.4,2.4c0,1.3-1.1,2.4-2.4,2.4c-1.3,0-2.4-1.1-2.4-2.4C20.8,12.4,21.9,11.3,23.3,11.3z M10.7,11.3
	c1.3,0,2.4,1.1,2.4,2.4c0,1.3-1.1,2.4-2.4,2.4c-1.3,0-2.4-1.1-2.4-2.4C8.3,12.4,9.4,11.3,10.7,11.3z M26.2,22.9
	c-2.1,3-5.5,4.8-9.2,4.8c-3.7,0-7.1-1.8-9.2-4.8c-0.5-0.7-0.3-1.6,0.4-2.1c0.7-0.5,1.6-0.3,2.1,0.4c1.5,2.2,4,3.5,6.7,3.5
	s5.2-1.3,6.7-3.5c0.5-0.7,1.4-0.8,2.1-0.4C26.5,21.3,26.6,22.2,26.2,22.9z"/>
</svg>
