<?xml version="1.0" encoding="utf-8"?>
<!-- Generator: Adobe Illustrator 19.2.1, SVG Export Plug-In . SVG Version: 6.00 Build 0)  -->
<svg version="1.1" id="Layer_1" xmlns="http://www.w3.org/2000/svg" xmlns:xlink="http://www.w3.org/1999/xlink" x="0px" y="0px"
	 viewBox="0 0 63 63" style="enable-background:new 0 0 63 63;" xml:space="preserve">
<style type="text/css">
	.st0{fill-rule:evenodd;clip-rule:evenodd;fill:#E20613;}
	.st1{fill:#FFFFFF;}
</style>
<path class="st0" d="M31.5,0.2C48.9,0.2,63,14.3,63,31.7c0,17.4-14.1,31.5-31.5,31.5C14.1,63.2,0,49.1,0,31.7
	C0,14.3,14.1,0.2,31.5,0.2z"/>
<g>
	<g>
		<path class="st1" d="M49,14.2c-4.5-4.5-10.7-7.2-17.5-7.2c-6.8,0-13,2.8-17.5,7.2c-4.5,4.5-7.2,10.7-7.2,17.5
			c0,6.8,2.8,13,7.2,17.5c4.5,4.5,10.7,7.2,17.5,7.2c6.8,0,13-2.8,17.5-7.2c4.5-4.5,7.2-10.7,7.2-17.5C56.3,24.9,53.5,18.7,49,14.2z
			 M47.6,47.8c-4.1,4.1-9.8,6.7-16.1,6.7c-6.3,0-12-2.6-16.1-6.7c-4.1-4.1-6.7-9.8-6.7-16.1c0-6.3,2.5-12,6.7-16.1
			c4.1-4.1,9.8-6.7,16.1-6.7c6.3,0,12,2.5,16.1,6.7c4.1,4.1,6.7,9.8,6.7,16.1C54.3,38,51.8,43.7,47.6,47.8z M42.9,23.8
			c-1-1-2-1.1-2.5-1.1c-3.5-0.3-8.8-0.3-8.8-0.3h0c0,0-5.3,0-8.8,0.3c-0.5,0.1-1.6,0.1-2.5,1.1c-0.8,0.8-1,2.6-1,2.6
			s-0.3,2.1-0.3,4.2v0.3v1.7c0,2.1,0.3,4.2,0.3,4.2s0.3,1.8,1,2.6c1,1.1,2.2,1,2.8,1.1c2,0.2,8.6,0.3,8.6,0.3s5.3,0,8.8-0.3
			c0.5-0.1,1.6-0.1,2.5-1.1c0.8-0.8,1-2.6,1-2.6s0.2-2.1,0.2-4.2V31v-0.4c0-2.1-0.2-4.2-0.2-4.2S43.6,24.6,42.9,23.8z M28.9,35.1
			v-5.7v-1.7l3.1,1.7l3.7,2L28.9,35.1z"/>
	</g>
</g>
</svg>
