<?xml version="1.0" encoding="utf-8"?>
<!-- Generator: Adobe Illustrator 19.2.1, SVG Export Plug-In . SVG Version: 6.00 Build 0)  -->
<svg version="1.1" id="Layer_1" xmlns="http://www.w3.org/2000/svg" xmlns:xlink="http://www.w3.org/1999/xlink" x="0px" y="0px"
	 viewBox="0 0 141.7 37.4" style="enable-background:new 0 0 141.7 37.4;" xml:space="preserve">
<style type="text/css">
	.st0{fill:none;}
	.st1{fill:#FFFFFF;}
</style>
<g>
	<path class="st0" d="M84.6,13.9c-0.7-0.4-0.8-0.4-1.7-0.4c-0.6,0-1.1,0.1-1.6,0.2l-0.7,0.2l0,3.7c-0.1,4.8,0.1,16.7,0.2,17.1
		c0.1,0.2,0.2,0.3,0.6,0.3c1,0.1,1.1,0.1,1.7,0c0.7-0.1,1.3-0.4,1.9-1c1.5-1.4,2.7-4.3,3.2-7.8c0.2-1.4,0.2-4.8,0-6
		C87.6,16.9,86.4,14.8,84.6,13.9z"/>
	<path class="st0" d="M110.1,12.1c-1.9,0-3.4,2.5-4.1,6.6c-0.1,0.5-0.1,1.1-0.1,1.3l0,0.4l1.9,0c1.1,0,2.7-0.1,3.7-0.1l1.8-0.1
		l-0.1-1.3C113,14.6,111.9,12.1,110.1,12.1z"/>
	<path class="st0" d="M37.5,12.1c-2.2,0-3.6,2.3-4.1,6.7c-0.3,2.1-0.3,6.9,0,8.7c0.8,5.6,2.8,8.2,5.6,7.4c0.7-0.2,1.6-1,2.1-2
		c1-1.9,1.4-4.6,1.4-9c0-5.5-0.9-9-2.7-10.9C39,12.4,38.4,12.1,37.5,12.1z"/>
	<path class="st1" d="M88.1,10.6c-0.6-0.1-1.1-0.1-2.3-0.1c-1.8,0.1-3,0.3-4.3,0.9c-0.4,0.2-0.8,0.4-0.8,0.4c0,0,0-2.7,0-5.9
		c0-4.6,0-5.9-0.1-5.9c-0.3,0-10.7,2-10.9,2.1c-0.1,0.1-0.1,0.3-0.1,0.6c0,0.6,0,0.5,1.2,0.8c0.4,0.1,0.8,0.3,1,0.4
		c0.4,0.3,0.8,1,1,1.9c0.2,0.7,0.2,1.3,0.3,6.3c0.1,5.1,0.1,10.3-0.1,19.9l-0.1,4l0.7,0.2c1.1,0.2,4.2,0.8,5.2,0.9
		c1.5,0.2,4.9,0.1,6,0c4.8-0.7,8.4-3.5,10.1-7.7c0.4-1.1,0.9-2.9,1-4.1c0.2-1.5,0.1-4.5-0.2-5.7C94.9,14.7,92,11.4,88.1,10.6z
		 M88.2,26.1c-0.5,3.6-1.6,6.4-3.2,7.8c-0.6,0.6-1.2,0.8-1.9,1c-0.5,0.1-0.7,0.1-1.7,0c-0.4,0-0.5-0.1-0.6-0.3
		c-0.1-0.3-0.3-12.3-0.2-17.1l0-3.7l0.7-0.2c0.5-0.1,1-0.2,1.6-0.2c0.9,0,1,0,1.7,0.4c1.8,0.9,3,3,3.5,6.3
		C88.3,21.4,88.3,24.7,88.2,26.1z"/>
	<path class="st1" d="M141.1,25.1c-0.9-1.7-2.4-2.9-5.7-4.3c-2.7-1.1-4.1-1.9-4.9-2.8c-0.7-0.7-0.9-1.3-0.8-2.4
		c0.1-1,0.3-1.6,0.9-2.3c0.8-0.9,1.9-1.2,3.3-0.9c2.2,0.5,3.6,2,4.8,5.2c0.4,1.1,0.5,1.2,1.3,0.9l0.5-0.2l0-1.3c0-0.7,0-2.3-0.1-3.4
		l-0.1-2.1l-0.4-0.2c-2-0.9-5.9-1.4-8.4-1.2c-2.8,0.3-4.9,1.2-6.5,2.8c-1.6,1.7-2.3,3.6-2.2,5.9c0.1,1.9,0.7,3.3,1.8,4.5
		c1.1,1.1,2,1.6,4.6,2.7c4.2,1.7,5.4,2.6,5.3,4.7c0,1.7-0.9,3-2.6,3.6c-0.6,0.2-2.1,0.2-2.9,0c-2.1-0.6-3.7-2.4-5.1-5.8l-0.4-0.9
		l-0.4,0c-0.2,0-0.5,0.1-0.7,0.2l-0.3,0.1l0,1.5c0,0.8,0.1,2.5,0.1,3.8l0.1,2.3l0.5,0.2c1,0.4,3.9,1,5.7,1.2c0.2,0,1.5,0,2.8,0
		c2.2,0,2.4,0,3.5-0.3c3.3-0.9,5.5-2.7,6.4-5.5c0.3-0.9,0.3-1.1,0.4-2.4C141.8,27.1,141.6,26.2,141.1,25.1z"/>
	<path class="st1" d="M115.4,11.1c-2.8-1.4-7.1-1.3-10.3,0.2c-3,1.5-5.1,3.9-6.2,7.3c-0.6,1.8-0.8,3.2-0.7,5.6
		c0,1.5,0.1,2.2,0.3,2.9c1.2,5.3,4.8,8.9,9.9,9.8c1.1,0.2,3.6,0.2,4.8,0c1.6-0.3,3.5-1,4.6-1.8c1.4-1,2.9-2.4,2.9-2.9
		c0-0.3-0.5-0.9-0.7-0.9c-0.1,0-0.5,0.2-0.9,0.5c-1.4,0.9-2.7,1.3-4.6,1.3c-2.6,0-4.2-0.6-5.8-2.3c-0.7-0.7-1-1.1-1.4-1.8
		c-0.8-1.6-1.3-3.4-1.3-5.5l0-0.9l7.5,0l7.5,0l0-0.5c0-0.3,0-1-0.1-1.6C120.4,15.9,118.5,12.7,115.4,11.1z M111.5,20.3
		c-1,0-2.6,0.1-3.7,0.1l-1.9,0l0-0.4c0-0.2,0.1-0.8,0.1-1.3c0.6-4.1,2.2-6.6,4.1-6.6c1.8,0,2.8,2.4,3.1,6.9l0.1,1.3L111.5,20.3z"/>
	<path class="st1" d="M13.5,3.5h3.2c3.7,0,4.3,0.1,5.6,0.7c1.9,0.9,3.3,2.8,4.5,6c0.5,1.3,0.5,1.3,1.6,1l0.7-0.2L29,6.2
		c0-2.6-0.1-4.9-0.1-5.1l-0.1-0.4l-14.1,0c-7.7,0-14.2,0-14.4,0L0,0.7l0,0.8l0,0.8l1.1,0.1c1.4,0.2,2.2,0.6,2.7,1.3
		c1.1,1.6,1.3,3.8,1.3,14.3c0,11.1-0.2,13.9-1.3,15.3c-0.6,0.7-1,1-2.3,1.2C0,34.8,0,34.8,0,35.7c0,0.5,0,0.7,0.1,0.8
		c0.2,0.1,18.2,0.1,18.4,0c0.2-0.1,0.2-1.4,0-1.6c-0.1-0.1-0.7-0.2-1.4-0.3c-0.6-0.1-1.4-0.3-1.6-0.4c-1.2-0.5-1.8-1.9-2.1-4.5
		c-0.2-1.8-0.3-5.2-0.3-7.7v-2.3l1.1,0c2.3,0.1,3.5,0.2,4,0.4c1.1,0.5,1.9,1.8,2.4,3.6l0.2,1l0.8,0l0.8,0v-6.1v-6.1l-0.8,0l-0.8,0
		l-0.2,1c-0.5,1.9-1.2,3-2.4,3.5c-0.5,0.2-0.8,0.3-1.9,0.3c-0.7,0-1.8,0.1-2.3,0.1l-0.9,0l0-3c0-3,0.2-9.5,0.3-10.5L13.5,3.5z"/>
	<path class="st1" d="M68.6,10.1c-1.2,0-1.8,0.1-2.8,0.6c-1.7,0.8-3.1,2.1-4.2,4.2l-0.4,0.7l0-1.2c0-0.6,0.1-1.8,0.1-2.7l0-1.5h-0.3
		c-0.3,0-10.4,2-10.7,2.1c-0.2,0.1-0.2,0.2-0.2,0.7c0,0.5,0,0.6,0.2,0.6c0.1,0,0.6,0.1,1,0.2c0.9,0.2,1.2,0.3,1.5,0.8
		c0.7,0.9,0.8,2.5,0.8,9.2c0,5.5-0.1,8.2-0.4,9.1c-0.3,1-0.9,1.6-1.9,1.8c-0.3,0.1-0.7,0.1-0.9,0.2l-0.4,0.1l0,0.7
		c0,0.5,0,0.7,0.1,0.8c0.1,0,3.5,0.1,7.7,0.1l7.5,0l0-0.8c0-0.4,0-0.8-0.1-0.8c-0.6,0-2.4-0.2-2.7-0.4c-0.9-0.4-1.3-1.1-1.4-2.7
		c-0.2-1.8-0.3-6.3-0.3-10c0.1-3.7,0.1-3.8,0.3-4c0.5-0.6,1.9-1,3.2-1c1,0,2,0.3,3.1,0.8c0.5,0.3,1,0.4,1.1,0.4
		c0.1-0.1,2.6-6.6,2.6-6.9C71.4,10.5,70,10.1,68.6,10.1z"/>
	<path class="st1" d="M50.3,21.5c-0.5-4.5-2.5-7.8-5.6-9.7c-3.5-2.1-8.9-2.2-12.7-0.3c-2.7,1.4-5,4-6,7.1c-1,3.1-1,7.3,0,10.5
		c0.7,2.1,1.6,3.6,2.9,4.9c1.7,1.6,3.8,2.7,6.3,3c0.9,0.1,3.7,0.1,4.6,0c0.4-0.1,1.2-0.2,1.7-0.4c4.5-1.3,7.5-4.7,8.6-9.7
		C50.3,25.7,50.4,22.8,50.3,21.5z M41,33c-0.5,0.9-1.4,1.7-2.1,2c-2.8,0.8-4.8-1.8-5.6-7.4c-0.2-1.8-0.2-6.7,0-8.7
		c0.5-4.5,1.9-6.7,4.1-6.7c1,0,1.5,0.2,2.3,1c1.8,1.8,2.7,5.3,2.7,10.9C42.4,28.4,42,31.2,41,33z"/>
</g>
</svg>
