<?xml version="1.0" encoding="utf-8"?>
<!-- Generator: Adobe Illustrator 19.2.1, SVG Export Plug-In . SVG Version: 6.00 Build 0)  -->
<svg version="1.1" id="Layer_1" xmlns="http://www.w3.org/2000/svg" xmlns:xlink="http://www.w3.org/1999/xlink" x="0px" y="0px"
	 viewBox="0 0 141.7 41.3" style="enable-background:new 0 0 141.7 41.3;" xml:space="preserve">
<style type="text/css">
	.st0{fill:#ED3624;}
</style>
<g>
	<g>
		<path class="st0" d="M11.6,10.7H0V0.1h35.8v10.6H24.3v30.7H11.6V10.7z"/>
		<path class="st0" d="M37.8,0.1h34.8v10.6H50.5v5.1h22.1v9.8H50.5v5.1h22.1v10.6H37.8V0.1z"/>
		<path class="st0" d="M74.7,0.1h20.9c13.7,0,18.6,10.2,18.6,20.6c0,12.7-6.7,20.7-21.1,20.7H74.7V0.1z M87.4,30.8h5
			c7.9,0,9.1-6.4,9.1-10.3c0-2.6-0.8-9.8-10-9.8h-4V30.8z"/>
	</g>
	<g>
		<g>
			<path class="st0" d="M132.4,25.4l-3.9-6.4l-3.8,6.4h-9.3l8.8-13L115.8,0h9.3l3.4,6.1l3.5-6.1h9.3l-8.5,12.4l8.8,13H132.4z"/>
		</g>
	</g>
</g>
</svg>
