<svg width="58" height="72" viewBox="0 0 58 72" fill="none" xmlns="http://www.w3.org/2000/svg">
  <path d="M17.1098 18.0326C17.1423 18.1063 17.1705 18.1723 17.1945 18.2328C17.3919 17.4173 17.2671 16.6376 16.9702 15.8109C16.7234 15.1233 16.3503 14.5319 15.9469 13.9566C16.0577 14.317 16.1712 14.6766 16.2918 15.0334C16.0591 14.7173 15.8828 14.3802 15.7142 14.029C15.5266 13.6356 15.344 13.2423 15.1606 12.849C15.0943 12.7535 15.0245 12.6607 14.9596 12.5631C14.8969 12.4697 14.8412 12.3742 14.7819 12.28C14.784 12.3882 14.7925 12.4943 14.8327 12.5891C15.5795 14.4083 16.3341 16.2274 17.1098 18.0326Z" transform="matrix(0.897936 -0.440126 0.437914 0.899017 -3 8.85547)" fill="black"/>
  <path d="M28.2804 71.7647C26.9899 68.625 25.7699 65.4573 24.5146 62.3036C24.1761 61.4607 23.8376 60.6108 23.4991 59.768C23.224 59.1077 22.956 58.4475 22.681 57.7873C22.6105 57.6257 22.547 57.4571 22.4694 57.2956C20.8116 53.2036 18.8948 49.2171 17.1733 45.1514C14.7473 39.4059 13.3863 32.2697 13.0619 27.2757C12.9561 25.576 12.4624 25.604 13.8094 24.6207C15.2551 23.5671 16.7643 22.5838 18.3087 21.6777C18.3348 21.6623 18.3524 21.6489 18.3785 21.6335C18.1987 21.6117 18.0188 21.5604 17.8439 21.4431C17.6556 21.3174 17.3912 21.1334 17.2438 20.9149C17.21 20.9908 17.1683 21.054 17.1098 21.0947C15.7487 22.0219 14.3242 22.8507 12.9067 23.6936C12.1592 24.129 11.3905 24.4662 10.7347 23.5039C10.6359 23.3564 10.4173 23.2932 10.107 23.0965C12.2086 21.7339 14.2325 20.4134 16.2142 19.121C16.241 19.6099 16.2544 19.7209 16.8171 19.8206C16.7727 19.6844 16.753 19.5305 16.7678 19.3507C16.7791 19.2236 16.8573 19.0684 16.9356 18.9202C16.9455 18.1686 16.5308 18.104 15.8334 18.4327C15.7346 18.4749 15.3961 18.2922 15.3609 18.1588C14.9519 16.7048 14.5851 15.2439 14.2114 13.7829C14.2819 13.7548 14.3524 13.7267 14.4229 13.6986C14.839 14.8225 15.2551 15.9392 15.6782 17.0631C15.7346 17.042 15.784 17.0209 15.8404 16.9998C14.6063 13.523 13.3651 10.0462 12.131 6.56945C12.2445 6.5252 12.363 6.48306 12.4773 6.44373C12.3588 5.73432 12.3249 5.0235 12.6451 4.36888C12.1818 4.1083 11.7177 3.85053 11.2565 3.59135C11.0238 3.50004 10.7911 3.4017 10.5584 3.31039C9.49349 3.85825 8.42861 4.39909 7.36374 4.95397C6.35528 5.48778 5.30451 5.93028 4.14091 5.64933C3.32286 5.45266 2.64585 5.64933 2.05347 6.15504C1.55982 6.56945 1.12964 7.06112 0.678299 7.51767C0.466735 8.02339 0.25517 8.5291 0.0436058 9.04184C-0.231428 12.4344 0.847551 15.567 1.79254 18.7558C3.54147 24.6418 6.29181 30.1274 8.37925 35.8799C9.35245 38.556 10.3609 41.2321 11.2988 43.9222C11.6514 44.9196 12.0323 45.9029 12.399 46.8933C12.7093 48.0663 13.0901 49.2182 13.4991 50.3631C13.9363 51.9785 14.3031 53.594 14.7685 55.2025L15.0012 56.0243C15.0012 56.0454 15.0012 56.0594 15.0083 56.0805C15.0224 56.242 15.0365 56.4036 15.0576 56.5651C15.0576 56.5792 15.8496 59.4108 15.3115 57.4852C15.4737 57.4852 15.8673 57.585 16.0718 57.585C16.4455 57.6552 16.5033 57.3518 16.8066 57.2535C16.729 57.0287 16.4751 56.2139 16.4116 55.9892C15.9956 54.6687 15.5936 53.3412 15.2057 52.0137C14.1338 48.3823 13.2523 44.6738 11.8983 41.1267C10.0718 36.3435 8.07601 31.6235 6.21424 26.8543C4.89549 23.4829 3.61199 20.0974 2.44839 16.6697C1.69381 14.4713 1.26363 12.1815 1.3271 9.83553C1.36941 8.52208 1.9759 7.57386 3.26644 6.85743C3.49916 7.44041 3.72483 7.911 3.86587 8.40267C4.9519 12.322 6.04499 16.2413 7.08165 20.1746C7.52594 21.8674 8.63313 23.0263 9.90251 24.115C10.2833 24.4451 10.6712 24.8455 10.8616 25.302C11.9124 27.7533 12.1874 30.3522 12.7093 32.9721C13.2946 35.894 14.1197 40.4735 15.6641 44.0908C17.1239 47.5044 18.5626 50.925 19.9871 54.3526C20.6782 56.0173 21.3693 57.6819 22.0534 59.3466C22.1874 59.6697 22.3214 59.9998 22.4553 60.3229C22.4553 60.3299 22.4624 60.3369 22.4624 60.3439C22.8503 61.2992 23.2381 62.2544 23.6189 63.2097C24.9236 66.4477 26.193 69.6927 27.4906 72.9306C28.4567 75.3188 28.76 78.5708 26.736 80.4251C24.6697 82.3145 23.7811 76.8078 23.4144 75.8807C22.1521 72.6778 20.9462 69.4609 19.8037 66.2159C19.5287 65.4432 19.2607 64.6636 18.9927 63.884C18.887 63.589 18.7882 63.301 18.6965 63.006C18.492 62.43 18.3016 61.847 18.1042 61.2711C18.0477 61.1025 17.9984 60.941 17.942 60.7794C17.808 60.365 17.6669 59.9436 17.5329 59.5292C17.3848 59.0656 17.2297 58.602 17.0816 58.1314C16.9899 57.8435 16.8982 57.5485 16.8066 57.2535C16.3693 57.3588 15.918 57.4361 15.4737 57.4993C15.4243 57.5063 15.3679 57.4993 15.3115 57.4852C15.375 57.724 15.4526 57.998 15.5372 58.3C15.7417 59.0094 15.9956 59.8804 16.2706 60.8145C16.6373 62.0578 17.0393 63.4063 17.4201 64.6425L17.5894 65.1904C17.7375 65.675 17.8855 66.1246 18.0195 66.539C18.0689 66.6935 18.1112 66.841 18.1606 66.9815C19.3101 70.4583 20.9109 73.7454 21.9829 77.2644C22.1309 77.7279 22.272 78.1915 22.4201 78.6481C22.8573 79.9756 23.6895 81.0783 24.6486 82.0757C25.2057 82.3005 25.8192 82.9958 27.4906 81.7526C28.3016 81.1485 28.5061 79.9615 28.7952 78.9992C29.5216 76.5409 29.2536 74.1458 28.2804 71.7647ZM11.2495 5.42457C11.7572 6.79422 12.265 8.16386 12.7727 9.53351C12.1733 8.21303 11.5809 6.88552 10.9815 5.56504C11.0732 5.51587 11.1578 5.46671 11.2495 5.42457ZM7.95612 20.3151C7.68814 19.5355 7.30027 18.7979 7.08165 18.0113C6.27771 15.1245 5.52313 12.2377 4.76855 9.34387C4.66982 8.96458 4.69097 8.55017 4.69097 8.15684C4.69097 7.39124 5.01537 6.92767 5.84047 6.77314C6.4258 6.66778 6.97587 6.37981 7.52594 6.141C8.42156 5.76874 9.31013 5.36838 10.1987 4.97504C10.2692 5.03826 10.3397 5.09445 10.4103 5.15766C10.3115 5.40349 10.2763 5.77576 10.0929 5.87409C9.15499 6.37981 8.18179 6.82231 7.21564 7.27183C6.44696 7.62303 5.66417 7.95315 4.88843 8.29029C4.91664 8.4097 4.9519 8.52208 4.98011 8.63446C5.21283 8.62041 5.45966 8.65553 5.66417 8.57125C7.20154 7.92505 8.73186 7.26481 10.2551 6.5835C10.6924 6.38683 10.9462 6.53433 11.045 6.94172C11.1437 7.3491 11.6232 7.80565 11.0026 8.17791C9.63453 9.00672 8.25936 9.82851 6.88419 10.6433C6.56685 10.8329 6.23539 10.9945 5.911 11.1701C5.94626 11.2473 5.98152 11.3316 6.02383 11.4159C6.59505 11.2122 7.21564 11.0858 7.73045 10.7908C8.44272 10.3764 9.04215 9.78637 9.74737 9.35791C10.3468 8.99267 11.0168 8.75387 11.7502 8.4097C12.0816 9.48434 12.3567 10.3904 12.6176 11.2824C12.6176 11.2895 12.6105 11.2895 12.6105 11.2965H12.6246C12.8926 12.041 13.1465 12.7855 13.4356 13.523C13.6119 13.9656 13.5273 14.2957 13.1183 14.5275C12.0534 15.1385 10.9956 15.7496 9.91662 16.3256C8.96458 16.8453 7.99843 17.337 7.39195 18.3063C7.77982 18.1518 8.06895 17.8568 8.40746 17.6531C9.93777 16.7681 11.4751 15.9112 13.0125 15.0542C13.6754 14.689 13.9363 14.8014 14.1691 15.5319C14.3101 15.9744 14.3947 16.4379 14.4864 16.8032C13.3933 17.646 12.3849 18.4678 11.3341 19.2194C10.5866 19.7602 9.78968 20.2238 8.99279 20.6944C8.5344 20.9683 8.16063 20.8981 7.95612 20.3151ZM9.34539 22.0851C8.84469 22.3661 8.68249 22.05 8.5485 21.5934C10.7911 20.6241 12.1522 18.3344 14.6345 17.8287C14.7614 18.6153 14.5076 19.1491 13.5767 19.704C12.1874 20.5399 10.7558 21.2984 9.34539 22.0851Z" transform="matrix(0.897936 -0.440126 0.437914 0.899017 -3 8.85547)" fill="black"/>
  <path d="M12.6176 11.2824C12.6176 11.2895 12.6105 11.2895 12.6105 11.2965H12.6246C12.6246 11.2895 12.6253 11.2895 12.6176 11.2824Z" transform="matrix(0.897936 -0.440126 0.437914 0.899017 -3 8.85547)" fill="black"/>
  <path d="M7.11477 14.895C6.94834 14.9954 6.69658 14.9547 6.29249 15.0024C6.50758 14.7341 6.54143 14.6625 6.59784 14.6259C8.29389 13.5372 9.98358 12.4373 11.7015 11.383C11.9328 11.2404 12.2995 11.3156 12.6077 11.2966C12.4321 11.4828 12.2819 11.7089 12.0724 11.841C10.4286 12.8735 8.77696 13.8926 7.11477 14.895Z" transform="matrix(0.897936 -0.440126 0.437914 0.899017 -3 8.85547)" fill="black"/>
  <path d="M23.7895 16.3067C23.683 15.5846 23.3565 14.9061 22.9996 14.2606C22.6301 13.6158 22.2733 12.9598 21.8572 12.3565C21.0081 11.1491 20.0039 10.0597 19.0878 8.86561C18.1858 7.67297 17.3403 6.34335 16.9693 4.79109C16.8015 4.01425 16.726 3.22477 16.8452 2.4086C16.9517 1.60929 17.3008 0.724285 18.0448 0.149735L18.3043 1.10006C16.9108 0.972227 15.456 1.41824 14.3925 2.2899C13.3015 3.15243 12.7458 4.45184 12.7634 5.81938C12.7874 7.18903 13.2613 8.58747 13.9306 9.87705C14.6266 11.1772 15.4863 12.4548 16.2373 13.8427C16.604 14.5416 16.9433 15.2615 17.2112 16.0208C17.3424 16.4029 17.4538 16.8068 17.4954 17.2282C17.5476 17.6426 17.4884 18.1083 17.3643 18.4819C17.2493 18.8655 17.109 19.2145 17.0533 19.5706C16.9912 19.9282 17.0526 20.2779 17.243 20.5793C17.621 21.191 18.3156 21.5893 19.0222 21.8141C19.7387 22.0381 20.518 22.0789 21.2493 21.9068C21.9757 21.727 22.647 21.3083 23.0821 20.6952C23.5314 20.0904 23.757 19.3424 23.8431 18.5901C23.9312 17.8344 23.8903 17.0652 23.7895 16.3067ZM23.9298 16.2863C24.0398 17.0526 24.0913 17.8322 24.0095 18.6091C23.9298 19.381 23.707 20.1613 23.2394 20.8075C22.786 21.4629 22.0716 21.9201 21.3029 22.1182C20.53 22.3057 19.7119 22.2825 18.9489 22.0606C18.1957 21.8344 17.4432 21.4411 16.982 20.7387C16.7543 20.3896 16.6633 19.9436 16.6901 19.5355C16.7084 19.1232 16.8057 18.7341 16.865 18.3675C17.0131 17.6517 16.7874 16.9929 16.4602 16.332C16.1238 15.6724 15.7169 15.0382 15.2804 14.4222C14.4242 13.1782 13.4489 11.9645 12.6753 10.5506C11.8967 9.13533 11.3128 7.53319 11.346 5.80603C11.3678 4.94842 11.5519 4.07395 11.956 3.28939C12.3467 2.49499 12.9468 1.83265 13.6294 1.3171C15.0074 0.293023 16.7437 -0.152992 18.4256 0.0464852L19.7916 0.209437L18.6851 0.996811C18.2218 1.32763 17.9355 1.9078 17.8248 2.56313C17.7014 3.21705 17.7486 3.92926 17.8579 4.60706C18.1118 5.97601 18.8325 7.25505 19.6513 8.46807C20.4616 9.69302 21.3664 10.8948 22.0963 12.2083C22.482 12.8573 22.7683 13.5442 23.1195 14.1974C23.4531 14.8598 23.8022 15.5347 23.9298 16.2863Z" transform="matrix(0.897936 -0.440126 0.437914 0.899017 -3 8.85547)" fill="black"/>
  <path d="M20.2771 22.4834C18.4632 22.4834 16.7411 21.4488 16.5331 20.1206C16.4513 19.5987 16.5747 19.119 16.6946 18.6561C16.7806 18.3204 16.8624 18.0036 16.8546 17.7023C16.8412 17.099 16.6022 16.5019 16.3956 16.0475C15.8829 14.9223 15.1812 13.8575 14.5042 12.8285C13.9816 12.0348 13.4428 11.2151 12.9816 10.3596C11.6593 7.90546 11.354 5.5321 12.1219 3.67781C13.0606 1.40841 15.763 -0.0680017 18.4061 0.22419L19.2855 0.323927L18.5775 0.853526C17.5824 1.59946 17.5719 3.12152 17.6544 3.96227C17.8666 6.1214 19.1967 7.87947 20.6043 9.74079C21.4089 10.8049 22.2411 11.9055 22.8504 13.0933C22.9484 13.2836 23.0549 13.4803 23.1649 13.6812C23.593 14.4699 24.0796 15.3634 24.2086 16.2449C24.9703 21.4186 21.9202 22.2889 20.9675 22.4329C20.7376 22.4673 20.5063 22.4834 20.2771 22.4834ZM17.5747 0.889346C15.4908 0.942025 13.5084 2.16839 12.7736 3.94542C11.8483 6.1811 12.8956 8.71601 13.6029 10.0281C14.0493 10.8555 14.5803 11.6625 15.0937 12.4429C15.7862 13.4943 16.502 14.5823 17.0373 15.7574C17.2714 16.2715 17.5429 16.9557 17.5599 17.6861C17.5697 18.0844 17.4717 18.4637 17.3779 18.8303C17.2707 19.2433 17.1713 19.6332 17.2305 20.0124C17.4026 21.1124 19.239 21.9826 20.8617 21.7382C23.002 21.4158 23.9682 19.4505 23.5112 16.3467C23.3997 15.5888 22.9653 14.7888 22.545 14.0155C22.4329 13.8097 22.3229 13.6074 22.2227 13.4128C21.6416 12.2799 20.8271 11.2038 20.0408 10.1629C18.636 8.30652 17.184 6.3862 16.9527 4.03111C16.8737 3.22337 16.8772 1.87479 17.5747 0.889346Z" transform="matrix(0.897936 -0.440126 0.437914 0.899017 -3 8.85547)" fill="black"/>
  <path d="M17.101 13.2533C16.7336 12.4659 16.4268 11.6729 16.0023 10.9621C15.5799 10.245 15.0933 9.55031 14.6525 8.79595C14.2237 8.0437 13.8472 7.19241 13.7675 6.28704C13.6694 5.40063 13.8747 4.41378 14.5009 3.78725C14.1321 4.57884 14.1377 5.41538 14.3112 6.20275C14.4889 6.99574 14.8408 7.72482 15.2653 8.44897C15.6751 9.17875 16.1469 9.90572 16.4931 10.7184C16.8514 11.5324 17.0157 12.3957 17.101 13.2533Z" transform="matrix(0.897936 -0.440126 0.437914 0.899017 -3 8.85547)" fill="black"/>
</svg>
