<svg width="58" height="72" viewBox="0 0 52 60" fill="none" xmlns="http://www.w3.org/2000/svg">
<path d="M51.046 13.9491C51.0618 13.9433 51.0773 13.937 51.0937 13.9323C51.1479 13.9249 51.2023 13.9175 51.2566 13.9101C51.2949 13.9087 51.3318 13.9122 51.3678 13.9194C51.3988 13.8675 51.43 13.8159 51.4621 13.7648C51.8438 13.1554 51.8545 12.7843 51.4227 12.217C50.6662 11.2229 49.6818 10.7352 48.4248 10.9492C47.9149 11.0361 47.4091 11.1496 46.9033 11.2599C46.6211 11.3214 46.0264 11.4206 46.1704 11.532C46.015 11.5724 45.856 11.6059 45.7044 11.6604C43.8546 12.3257 42.2805 13.4189 40.9498 14.8699C39.3567 16.6067 38.3435 18.6183 38.1948 21.0259C38.1573 21.6322 38.0977 22.2372 38.0436 22.899C37.7448 22.899 37.4893 22.8977 37.2339 22.8992C31.4423 22.9322 25.6506 22.9632 19.859 22.9993C14.0891 23.0353 8.31917 23.0766 2.54918 23.1152C2.03048 23.1187 1.51037 23.0958 0.993361 23.1267C0.286362 23.1689 -0.129681 23.7664 0.0364507 24.4581C0.0670574 24.5855 0.114977 24.7086 0.156608 24.833C1.75613 29.6137 4.83566 33.0887 9.32212 35.2049C14.8173 37.7969 20.5476 38.3779 26.452 36.89C29.4586 36.1323 32.2689 34.9297 34.7457 33.009C37.2916 31.0347 39.1383 28.5431 39.9768 25.3782C40.2775 24.2431 40.4102 23.0573 40.5572 21.8865C40.7794 20.1171 41.1144 18.3841 41.8687 16.7581C42.3342 15.7547 42.9423 14.8575 43.7968 14.1501C44.9016 13.2356 46.1824 12.8571 47.5922 12.8963C47.939 12.9059 48.1427 13.017 48.1928 13.2553C48.6664 13.3819 49.0985 13.6684 49.5574 13.8597C49.771 13.8968 49.9847 13.9344 50.1998 13.9492C50.4806 13.9685 50.7645 13.9391 51.046 13.9491ZM49.973 13.1879C49.4512 13.0742 48.9343 12.8542 48.371 13.1425C48.1264 12.7464 47.7439 12.7314 47.3482 12.7218C45.3246 12.6722 43.6991 13.4832 42.4417 15.0666C41.334 16.4614 40.7058 18.0919 40.3292 19.8163C40.0776 20.9683 39.9462 22.1469 39.7452 23.3107C39.0958 27.0724 37.2182 30.0679 34.2214 32.3532C31.6578 34.3083 28.7517 35.5041 25.6507 36.2298C19.6471 37.6349 13.8813 36.8876 8.41903 34.0373C4.57129 32.0295 1.91539 28.8937 0.456514 24.7418C0.42033 24.6389 0.37857 24.5371 0.352049 24.4316C0.204852 23.8456 0.488547 23.4264 1.08739 23.402C1.79931 23.373 2.51293 23.3758 3.2257 23.3792C8.19435 23.404 13.163 23.4261 18.1316 23.4617C23.0998 23.4972 28.0678 23.5539 33.0361 23.5873C34.6776 23.5983 36.3194 23.5664 37.961 23.5512C38.1727 23.5492 38.3843 23.5292 38.6282 23.5158C38.6633 22.9342 38.7236 22.391 38.7244 21.8478C38.7312 17.4313 40.9959 14.4547 44.6083 12.34C44.9797 12.1225 45.3934 11.9804 45.782 11.7916C45.9216 11.7237 46.0472 11.6262 46.179 11.5388L46.4124 11.517C46.9014 11.4643 47.1607 11.4284 47.6506 11.3867C48.0373 11.3538 48.4271 11.3157 48.8135 11.3308C49.8449 11.3712 50.8449 12.1604 51.0714 13.0992C50.7274 13.3751 50.3497 13.2699 49.973 13.1879Z" transform="translate(0.252441 0.541748)" fill="black"/>
<path d="M12.6051 16.6376C9.16101 14.1518 5.78906 12.2759 2.26716 9.73391C5.51237 6.94081 8.71432 4.18507 11.9786 1.3756C12.1034 1.67913 12.2038 1.91177 12.2954 2.14788C14.0261 6.61045 14.5954 9.31705 14.5954 9.31705C14.8968 10.0972 16.5857 14.5644 17.2491 14.6411C17.9125 14.7177 17.0826 12.1026 15.9243 9.3552C14.967 6.59459 13.9986 3.838 13.0027 0.987091C16.3967 0.651659 19.6956 0.325632 22.991 0C23.1676 0.803524 20.4671 20.5428 19.9303 22.3627C13.6312 22.3627 7.31005 22.3627 0.987774 22.3627C0.858604 21.8892 1.28943 11.5506 1.49434 10.4736C1.7091 10.6016 1.91071 10.7131 2.10381 10.8381C5.01728 12.7227 7.92893 14.6103 10.8428 16.4944C11.4017 16.8558 11.9774 17.1854 12.6136 17.3797C12.8858 17.5111 12.9041 16.9057 12.6051 16.6376Z" transform="translate(0.252441 0.541748)" fill="black"/>
<path d="M14.7823 45.0418C16.4229 43.7416 18.0507 42.4516 19.6567 41.179C18.1973 40.0003 16.7853 38.8599 15.3735 37.7197C15.3827 37.6817 15.392 37.6438 15.4012 37.6058C15.9003 37.6678 16.3996 37.7281 16.8985 37.7925C17.0911 37.8174 17.2848 37.8867 17.4743 37.8752C18.1036 37.8369 18.5348 38.149 18.9003 38.623C19.233 39.0546 19.5779 39.477 19.9307 39.8918C20.1103 40.1029 20.3192 40.2883 20.5499 40.5207C20.919 40.1482 21.2565 39.8119 21.5889 39.4706C21.8319 39.2211 22.0787 38.9742 22.3053 38.7099C22.6457 38.3131 23.0293 38.0764 23.5817 38.0669C24.1364 38.0573 24.689 37.9284 25.2904 37.9566C24.0116 39.0031 22.7327 40.0495 21.406 41.1352C23.0079 42.4385 24.6178 43.7484 26.2561 45.0814C26.4755 44.9125 26.6794 44.7561 26.8827 44.5989C28.5361 43.3209 30.3671 42.6268 32.4808 42.7342C36.0161 42.9137 39.0435 45.5863 39.663 49.1248C40.5922 54.432 36.3891 59.0624 31.1016 58.5209C29.2265 58.3288 27.7328 57.3565 26.5028 55.9444C25.5469 54.8469 24.8665 53.5823 24.3446 52.2245C24.2506 51.9799 24.1574 51.735 24.0368 51.4194C23.3445 51.4194 22.6355 51.4146 21.9266 51.4206C20.7381 51.4306 19.5497 51.4605 18.3613 51.4568C17.6547 51.4546 17.1689 51.7828 16.8487 52.3915C16.6562 52.7577 16.4741 53.1314 16.3151 53.5137C15.0383 56.5835 12.182 58.5348 8.96463 58.5269C4.6288 58.5159 1.11792 54.8317 1.24262 50.4234C1.33476 47.1682 3.3478 44.234 6.209 43.2217C8.13546 42.5402 10.0488 42.7189 11.908 43.4706C12.7047 43.7927 13.4428 44.2649 14.2041 44.6754C14.3915 44.7765 14.5654 44.9033 14.7823 45.0418ZM30.1806 49.3172C28.6948 49.1861 27.3141 48.7568 26.1405 47.7891C25.3136 48.9873 25.0387 51.446 25.8041 52.2137C27.0747 51.3551 28.5743 51.5978 30.0601 51.5096C29.8566 50.8123 29.9212 50.2217 30.2067 49.6482C30.2498 49.5614 30.1774 49.4155 30.1595 49.2976C30.2808 49.2764 30.4216 49.2879 30.5199 49.2278C30.8482 49.0271 31.1612 48.8007 31.4944 48.5745C31.4944 47.3154 31.4944 46.0341 31.4944 44.7149C30.867 44.6296 30.2729 44.542 29.6766 44.4738C29.5576 44.4602 29.4114 44.4894 29.3102 44.5525C28.82 44.8582 28.3408 45.1823 27.807 45.5331C28.5204 46.6274 29.1989 47.661 29.868 48.7009C29.9918 48.8933 30.0774 49.1111 30.1806 49.3172ZM20.5161 42.4536C18.8864 43.7496 17.3134 45.0005 15.7187 46.2687C15.9669 46.9873 16.1619 47.6595 16.429 48.3007C16.8661 49.3497 17.5755 49.99 18.801 49.9573C20.4828 49.9124 22.1669 49.9539 23.8501 49.9552C23.9115 49.9552 23.973 49.9223 24.0687 49.895C24.4642 48.6902 24.8641 47.4718 25.2709 46.2325C23.6782 44.9667 22.118 43.7267 20.5161 42.4536ZM7.22881 44.8512C8.37007 43.8309 9.96473 43.8381 11.0199 44.8002C10.7518 44.8791 10.4403 44.8718 10.3871 45.247C10.2218 46.4125 10.0434 47.5761 9.87608 48.7013C10.1973 48.9397 10.4557 49.1315 10.7441 49.3457C11.8772 48.5285 13.1466 47.9042 14.0785 46.6839C16.0519 49.3465 15.957 51.9944 14.4227 54.7263C15.124 54.1172 15.5532 53.3546 15.7888 52.489C16.2801 50.6839 15.9165 48.9691 15.154 47.324C14.39 45.6759 13.1534 44.5397 11.4218 44.0049C10.1642 43.6164 8.86827 43.544 7.57222 43.6992C6.35736 43.8448 5.36939 44.4356 4.67166 45.4772C4.60007 45.584 4.56694 45.7174 4.49366 45.8913C4.8339 45.7581 5.09497 45.656 5.44266 45.52C5.27413 45.8308 5.16253 46.0366 5.04056 46.2614C5.924 47.2143 6.72963 48.2067 7.61658 49.0826C7.9919 48.8935 8.29777 48.7393 8.58847 48.5929C8.58847 47.2515 8.58847 45.928 8.58847 44.5449C8.09649 44.6557 7.66262 44.7534 7.22881 44.8512ZM29.6535 56.3673C29.6393 56.3211 29.6251 56.2749 29.6109 56.2287C29.7361 56.1508 29.8553 56.0602 29.9874 55.9972C30.4999 55.753 30.6925 55.3185 30.7139 54.7764C30.7183 54.6669 30.7272 54.5574 30.727 54.4479C30.7264 53.8223 30.8937 53.2816 31.4543 52.9317C31.4722 52.9205 31.4566 52.8541 31.4566 52.909C30.9755 52.5296 30.5406 52.1865 30.1161 51.8518C29.0332 52.7644 27.9299 53.6941 26.8492 54.6048C27.0212 54.8889 27.2029 55.1362 27.3307 55.4095C27.7861 56.3829 28.5288 57.0187 29.5419 57.288C31.0243 57.682 32.5326 57.7445 34.0362 57.4272C34.8045 57.2651 35.5042 56.9266 36.036 56.2656C35.9501 55.9701 35.8503 55.682 35.7834 55.3863C35.6205 54.666 35.2538 54.1186 34.6063 53.7435C34.075 53.4357 33.6544 53.0004 33.5367 52.4144C32.9837 52.6087 32.4642 52.7913 31.9264 52.9803C31.9589 53.0091 32.0147 53.0703 32.081 53.1157C32.5306 53.4234 32.6582 53.8552 32.5682 54.3777C32.5423 54.5285 32.5381 54.6831 32.5182 54.8351C32.3705 55.9571 32.37 55.9571 33.1869 56.7397C31.9313 56.6074 30.7924 56.4873 29.6535 56.3673ZM7.01398 51.7174C6.25627 52.8956 5.27465 53.8112 3.86026 54.1419C2.50151 52.5904 2.13702 50.3738 3.1045 49.1821C3.1045 49.6854 3.09069 50.1155 3.10787 50.5442C3.13115 51.1235 3.42652 51.5387 3.92556 51.5578C4.9562 51.5971 5.98937 51.5696 6.95192 51.5696C7.00165 50.881 7.04756 50.2449 7.09886 49.5346C5.90235 49.1446 4.80161 48.2385 3.33535 48.3656C3.46238 47.726 3.79386 47.2057 3.85268 46.498C3.03894 47.172 2.57842 47.9524 2.33259 48.8506C1.72493 51.0708 2.15628 53.1018 3.51918 54.9277C4.02322 55.6029 4.61259 56.181 5.53189 56.2026C5.57404 56.2036 5.62293 56.2117 5.65652 56.2348C6.17087 56.5876 6.67841 56.3777 7.18666 56.2491C7.61372 55.0989 8.03119 53.9743 8.42733 52.9074C7.96045 52.5142 7.52151 52.1446 7.01398 51.7174ZM38.0879 53.1936C38.2008 51.8473 38.3097 50.549 38.4172 49.2667C38.0317 48.9797 37.6673 48.9909 37.3272 49.153C36.9007 49.3563 36.4823 49.5893 36.0932 49.8582C35.4751 50.2852 34.8564 50.5633 34.1522 50.1123C34.117 50.6453 34.0845 51.1399 34.0484 51.6871C35.2845 52.3519 36.5615 53.0071 38.0879 53.1936ZM33.8133 49.3466C34.9385 48.5186 36.0856 47.6745 37.2544 46.8144C37.1739 46.7459 37.0527 46.628 36.9174 46.5304C36.4078 46.1625 35.8858 45.812 35.3833 45.4345C34.8697 45.0488 34.2845 45.0108 33.6467 44.9485C33.4285 45.852 33.2124 46.6955 33.0227 47.5451C32.7731 48.6631 32.7821 48.6653 33.7105 49.3148C33.7272 49.3265 33.7509 49.3278 33.8133 49.3466ZM9.28107 52.947C9.32393 53.1305 9.40784 53.3432 9.41757 53.5594C9.44312 54.127 9.41679 54.6972 9.4474 55.2644C9.48449 55.9521 9.91771 56.4032 10.5913 56.4571C10.9983 56.4897 11.4098 56.4705 11.8191 56.4644C12.1765 56.4592 12.4265 56.2991 12.5576 55.9424C12.6547 55.6784 12.7909 55.4292 12.9299 55.1299C12.2028 54.1257 11.47 53.1136 10.7921 52.1773C10.2105 52.4735 9.71793 52.7244 9.28107 52.947ZM11.0892 51.6301C12.0206 51.4679 12.1908 51.5178 12.9968 52.1915C13.113 52.2886 13.2261 52.3951 13.3564 52.4682C13.9343 52.792 14.6414 52.4751 14.7598 51.8132C14.8403 51.3631 14.8836 50.8989 14.8782 50.4419C14.8701 49.7651 14.2806 49.387 13.6533 49.6192C13.5527 49.6564 13.4584 49.7126 13.364 49.765C12.6398 50.168 11.9033 50.4294 11.0892 49.9082C11.0892 50.5109 11.0892 51.0478 11.0892 51.6301Z" transform="translate(0.252441 0.541748)" fill="black"/>
</svg>
