<svg width="58" height="72" viewBox="0 0 53 77" fill="none" xmlns="http://www.w3.org/2000/svg">
<path d="M3.37584 7.9193L-3.302e-07 -2.64852e-06C2.29384 7.07312 1.90432 4.75158 3.37584 7.9193Z" transform="translate(19.7859 65.6099)" fill="white"/>
<path d="M3.302e-07 -1.32426e-06C0.0216403 0.325449 0.0432807 0.759387 0.0865607 1.25841C0.432801 5.14212 1.23348 7.63724 1.57972 8.26645C2.44532 9.8937 3.87356 10.8484 5.02048 11.0653L5.15032 10.9134C5.06376 10.6314 3.5706 7.52876 3.6788 7.74573C2.83484 5.87981 2.79156 7.2467 0.541001 0.28206C0.34624 0.173576 0.17312 0.0867855 3.302e-07 -1.32426e-06Z" transform="translate(19.2019 65.1973)" fill="black"/>
<path d="M0.108201 0.108482C0.0865614 0.0650888 0.0865587 0.0433921 0.0649187 -1.32426e-06C0.0432787 0.0433921 0.0216413 0.0867868 1.3208e-06 0.13018C0.0432813 0.13018 0.0649213 0.130179 0.108201 0.108482Z" transform="translate(35.4753 58.0376)" fill="black"/>
<path d="M52.6059 21.9354C50.9613 21.4363 50.0524 20.677 50.4635 19.028C50.5068 18.8327 50.2471 18.4856 50.0307 18.3337C48.9055 17.5526 48.8622 16.5329 49.2733 15.3613C49.4032 14.9924 49.6196 14.4934 49.4897 14.2547C48.754 13.0397 49.295 12.1285 50.0957 11.1738C42.8895 7.44197 35.7051 3.75353 28.3907 0C25.3395 5.9666 22.3099 11.8898 19.2803 17.8347C12.9614 12.9312 7.57305 14.7755 4.37033 17.6177C4.65165 17.9866 4.88969 18.312 5.12773 18.6158C7.35665 21.5231 9.56393 24.4522 11.8145 27.3379C12.4421 28.1189 12.4204 28.7481 11.966 29.616C8.13569 37.0146 4.37033 44.4349 0.583327 51.8334C-0.455393 53.8512 -0.152433 54.7842 1.86009 55.8256C6.25301 58.0821 26.9192 68.6918 27.1356 68.8003C29.4078 69.9719 30.1869 69.3644 31.3121 67.1947V67.173L31.2256 67.1947C31.0308 66.8693 30.901 66.6089 30.8144 66.4136C30.4682 67.0862 30.1219 67.7588 29.7757 68.4314C26.1185 65.1335 22.6129 61.9658 19.1072 58.7981C19.1288 58.733 19.1505 58.6462 19.1721 58.5811C20.4921 58.8415 21.7905 59.1235 23.1106 59.3622C24.7985 59.666 25.0365 59.5141 24.9716 57.8C24.7985 53.2003 24.5821 48.6006 24.3008 44.0009C24.2575 43.1114 24.409 42.5256 25.2962 42.2652C26.4864 41.918 27.655 41.3756 28.8668 41.2454C33.606 40.7464 38.1504 41.9614 42.7164 43.1114C41.5046 45.498 40.2927 47.8629 39.0809 50.2279C39.4488 50.1411 39.7085 50.1411 40.0331 50.1628C41.0069 48.2752 41.959 46.3876 42.9112 44.4783C43.3656 43.5887 43.7768 43.1548 44.9021 43.2198C46.9146 43.35 48.2995 42.1133 48.8622 40.0955C49.3383 38.3598 48.754 37.1014 46.9362 35.9948C46.7198 35.8647 46.5251 35.6911 46.2437 35.4741C48.1481 31.764 50.0307 28.1189 51.8701 24.4305C52.238 23.6711 52.3679 22.7815 52.6059 21.9354ZM48.5809 13.6472C48.6025 14.1029 48.754 14.5802 48.6241 14.9707C48.1697 16.3376 48.2779 17.4442 49.295 18.6592C49.9658 19.4619 50.1822 20.7204 50.3121 21.8052C50.377 22.3476 49.7711 22.9551 49.4465 23.606C47.6936 22.7165 46.1355 21.9137 44.4909 21.0675C45.7677 18.5507 47.0228 16.1207 48.2779 13.6689C48.3645 13.6689 48.4727 13.6689 48.5809 13.6472ZM38.6914 5.87981C41.2665 7.20331 43.7335 8.46172 46.3087 9.78522C45.4214 10.4795 44.5991 10.7616 43.5604 10.1324C42.5649 9.54655 41.5479 8.98244 40.4875 8.5485C39.2973 8.09287 38.6265 7.37688 38.6914 5.87981ZM40.9203 18.3337C42.0023 16.3376 43.0627 14.3198 44.0148 12.2586C44.4693 11.304 45.1401 10.8701 46.2654 10.7616C44.5991 14.0378 42.9545 17.2272 41.3098 20.46C40.5524 19.8091 40.4659 19.1799 40.9203 18.3337ZM39.9681 18.7026C38.3884 17.8781 36.7871 17.0753 35.0342 16.164C36.3326 13.6255 37.5877 11.1738 38.8861 8.61359C40.5308 9.45977 42.1321 10.2842 43.8201 11.1521C42.5433 13.6472 41.2882 16.1207 39.9681 18.7026ZM36.8303 4.94685C35.8349 5.64114 34.9693 5.85811 33.9306 5.20721C32.9568 4.5997 31.8964 4.05729 30.8361 3.62335C29.6891 3.16772 29.1914 2.36494 29.1914 1.01975C31.7882 2.36494 34.2552 3.62335 36.8303 4.94685ZM31.4203 13.452C32.4807 11.4776 33.5194 9.50316 34.4716 7.48537C34.9477 6.48732 35.6401 5.9666 36.8303 5.87981C35.1641 9.15601 33.5411 12.3237 31.8315 15.6433C31.0957 14.949 30.9659 14.2981 31.4203 13.452ZM30.4465 13.8208C28.8668 13.018 27.2655 12.1936 25.5343 11.304C26.8327 8.76547 28.0878 6.29205 29.4078 3.73183C31.0525 4.57801 32.6538 5.40248 34.3201 6.24865C33.0433 8.76547 31.7666 11.2389 30.4465 13.8208ZM6.07989 17.7696C9.45573 15.5565 12.8316 15.3396 16.2507 17.0536C17.1596 17.5092 18.155 18.4639 18.4363 19.4186C21.1413 28.5746 23.024 37.9042 23.7598 47.8629C19.7564 36.4505 13.1129 27.0775 6.07989 17.7696ZM28.1094 16.815C26.9625 16.2291 25.8372 15.5782 24.647 15.0575C23.565 14.6019 23.3053 13.7991 23.2837 12.6058C25.8805 13.9293 28.3475 15.2094 30.8144 16.4678C29.5593 17.4225 29.3429 17.4442 28.1094 16.815ZM30.901 17.4875C29.2131 20.7854 27.5901 23.9749 25.9021 27.2728C25.1231 26.5134 25.0582 25.8191 25.5559 24.9512C26.6379 22.9985 27.655 21.0024 28.6071 18.9846C29.0616 17.9866 29.7541 17.5743 30.901 17.4875ZM23.4352 15.3179C25.0798 16.164 26.6812 16.9885 28.3907 17.8564C27.1356 20.3298 25.8372 22.8466 24.4955 25.4719C23.327 24.8644 22.0069 24.4739 21.1197 23.6277C20.5787 23.1287 20.319 21.7618 20.6003 21.0458C21.3361 19.0931 22.4181 17.2923 23.4352 15.3179ZM21.3794 26.253C22.6345 26.9039 23.7598 27.4897 24.9283 28.0755C22.8725 29.5292 21.6174 28.9434 21.3794 26.253ZM25.0582 29.0302C24.2575 30.5707 23.565 31.9376 22.8725 33.3045C21.6174 31.547 22.5047 29.616 25.0582 29.0302ZM20.8817 61.5753C23.1322 63.8968 25.6857 65.9363 28.0878 68.106C28.0445 68.1711 28.0012 68.2578 27.9579 68.3229C19.1937 63.81 10.3863 59.2971 1.60041 54.7842C1.62205 54.7191 1.64369 54.6323 1.66533 54.5672C3.80769 55.0663 5.95005 55.5436 8.09241 56.0426C9.34753 56.3464 10.581 56.7803 11.8578 56.9322C15.45 57.3878 18.3498 58.9717 20.8817 61.5753ZM0.604967 53.5258C4.75985 45.3678 8.82817 37.4268 13.0047 29.2689C18.6744 38.2079 24.0627 47.0819 24.0411 58.3208C16.0776 57.2359 8.48193 55.2398 0.604967 53.5258ZM25.491 40.0087C24.9933 40.1172 24.2359 40.0738 23.9545 39.7701C23.6516 39.4446 23.565 38.6201 23.7598 38.1862C24.7552 36.0599 25.8589 33.977 27.0058 31.7423C28.7586 32.6319 30.3167 33.4346 32.0479 34.3242C31.2905 35.7779 30.598 37.2099 29.8406 38.5984C29.7324 38.8154 29.3429 38.9022 29.0616 38.989C27.893 39.3578 26.7028 39.7484 25.491 40.0087ZM31.7017 33.3478C30.7062 32.7403 29.6891 32.1979 28.6288 31.764C27.4819 31.2867 26.8327 30.549 26.8543 29.0736C29.4295 30.3971 31.8964 31.6555 34.4716 33.0007C33.5627 33.6516 32.7404 33.977 31.7017 33.3478ZM34.5581 33.8469C33.7358 35.4741 33.0866 36.8844 32.2859 38.1862C32.0479 38.5551 31.3121 38.6201 30.5547 38.9239C32.1777 34.8232 32.4591 34.4327 34.5581 33.8469ZM47.9966 39.4663C47.8451 40.92 46.7631 42.1567 45.3349 42.2435C41.4829 42.4605 36.0297 39.7918 29.4727 39.9653C32.4158 39.2493 35.3805 39.5965 38.3235 40.0738C40.1845 40.3776 42.0023 40.8115 43.8633 41.0502C45.5513 41.2888 46.4169 40.5728 46.4601 39.2493C45.7677 39.6182 44.9886 40.0304 44.2096 40.4427C44.123 40.3342 44.0365 40.204 43.9715 40.0955C44.5775 38.9022 45.205 37.7089 45.8109 36.5156C47.4556 37.1014 48.1481 38.056 47.9966 39.4663ZM36.5707 36.6674C38.2586 37.5353 39.8599 38.3598 41.4829 39.1843C40.8337 39.7918 38.5832 39.5748 35.5319 38.6852C35.8782 38.0343 36.2028 37.4051 36.5707 36.6674ZM36.311 33.9337C38.9294 35.2788 41.418 36.559 44.0148 37.8825C42.9545 38.5551 42.0889 38.8154 41.0069 38.1428C40.0331 37.5136 38.9943 36.9929 37.934 36.559C36.7654 36.0816 36.311 35.2788 36.311 33.9337ZM44.9021 36.9495C44.0581 36.2769 44.0581 35.6043 44.5342 34.7364C45.5729 32.8271 46.59 30.8744 47.5205 28.9C47.9749 27.9237 48.5809 27.2945 49.9009 27.2077C48.1913 30.5273 46.5683 33.7167 44.9021 36.9495ZM42.4567 25.0814C44.0797 25.9059 45.6811 26.7303 47.4123 27.6199C46.1139 30.1801 44.8588 32.6319 43.5604 35.1704C41.9157 34.3242 40.2927 33.4997 38.6048 32.6319C39.8816 30.1367 41.1367 27.6416 42.4567 25.0814ZM42.2403 22.3259C44.8371 23.6494 47.3041 24.9295 49.9009 26.253C48.9055 26.9907 48.0615 27.1643 47.0444 26.5568C46.049 25.9493 45.0319 25.4068 43.9499 24.9729C42.803 24.4956 42.2403 23.7579 42.2403 22.3259ZM50.2039 25.9276C47.4339 24.4956 44.664 23.0853 41.8075 21.6099C39.8383 25.4719 37.934 29.1821 35.9647 33.0441C38.7996 34.4978 41.5911 35.9298 44.3827 37.3617C44.3394 37.4485 44.2961 37.5353 44.2529 37.6221C41.4613 36.1901 38.6697 34.7581 35.7483 33.2611C34.8178 35.0619 33.9522 36.7542 33.1083 38.4466C33.0217 38.4032 32.9351 38.3598 32.8269 38.3164C33.6925 36.624 34.5581 34.9534 35.4454 33.2177C32.3076 31.6121 29.3213 30.0716 26.1835 28.4661C25.188 30.4188 24.1926 32.3715 23.1971 34.3025C23.1106 34.2591 23.024 34.2157 22.9375 34.1723C23.9113 32.2413 24.9067 30.332 25.9454 28.2925C24.3441 27.468 22.8942 26.7303 21.4443 25.971C21.4876 25.8842 21.5092 25.8191 21.5525 25.7323C22.9807 26.47 24.3873 27.186 25.9238 27.9888C27.893 24.1484 29.7757 20.4383 31.8099 16.4895C31.2689 16.2074 30.7062 15.9254 30.1219 15.6216C28.0878 14.5802 26.0536 13.5604 24.0411 12.4756C23.327 12.0851 22.9375 12.1936 22.5912 12.9312C21.704 14.7755 20.7518 16.5763 19.8213 18.3988C19.7564 18.3771 19.6915 18.3337 19.6482 18.312C22.5912 12.5407 25.5343 6.79107 28.4773 1.01975C28.5206 1.04144 28.5639 1.06314 28.6071 1.08484C26.8327 4.55631 25.0582 8.04948 23.2188 11.6294C26.2051 13.1699 29.0832 14.6453 32.0695 16.1857C33.8873 12.6275 35.6834 9.11262 37.5012 5.57605C37.5877 5.61945 37.6743 5.66284 37.7392 5.70623C35.9431 9.2211 34.147 12.736 32.3076 16.3376C35.4237 17.9432 38.4317 19.4836 41.5911 21.1109C43.4089 17.5743 45.2267 14.0161 47.0444 10.4578C47.131 10.5012 47.2175 10.5446 47.3257 10.588C45.5296 14.1029 43.7335 17.6394 41.8508 21.2845C44.7722 22.7815 47.5638 24.2135 50.3553 25.6672C50.2904 25.754 50.2471 25.8408 50.2039 25.9276ZM50.7881 25.3852C49.4681 24.105 50.5068 23.1938 51.0478 22.1957C52.1298 22.9117 52.1082 23.2589 50.7881 25.3852Z" transform="translate(0.181396 0.562744)" fill="black"/>
<path d="M-1.03188e-08 24.2569C7.87696 25.9927 15.4726 27.9671 23.4361 29.0519C23.4361 17.813 18.0694 8.91735 12.3997 -1.32426e-06C8.2232 8.15796 4.15488 16.099 -1.03188e-08 24.2569ZM18.6537 12.8445C18.4373 12.5624 18.2425 12.302 18.0261 12.02C16.9008 10.4578 15.8621 8.83056 14.6503 7.35518C13.0273 5.38078 11.4043 5.40248 9.97605 7.50706C8.56944 9.56825 7.40088 11.803 6.1674 13.9727C5.79952 14.6236 5.47492 15.3179 5.12868 15.9905C5.06376 15.9254 4.9772 15.882 4.91228 15.8169C7.33596 11.087 9.738 6.35713 12.3348 1.3018C14.6286 5.18551 16.8143 8.89565 18.9999 12.5841C18.8917 12.6709 18.7619 12.7577 18.6537 12.8445Z" transform="translate(0.786133 29.8318)" fill="#EC1C23"/>
<path d="M11.664 19.7507C12.2699 18.3838 13.4817 17.3641 14.8667 16.8434C17.55 10.1174 20.4931 3.76024 15.0614 2.28486C13.1138 1.76414 11.0364 1.76414 9.00224 1.59057C8.37468 1.54717 7.72548 1.69905 6.90316 1.80753C9.32684 0.00670594 16.6195 0.787786 22.6571 2.58861C21.4885 4.88846 20.2983 7.18832 19.1298 9.48817C19.3894 9.31459 19.6275 9.18441 19.9737 9.09763C21.1856 6.73268 22.3974 4.36775 23.6092 1.98111C19.0216 0.831182 14.4988 -0.383836 9.75964 0.115189C8.5478 0.245369 7.37924 0.787786 6.18904 1.13493C5.3018 1.39529 5.12868 1.98111 5.1936 2.87067C5.47492 7.47037 5.69132 12.0701 5.86444 16.6698C5.92936 18.4055 5.69132 18.5357 4.0034 18.2319C2.68336 17.9933 1.38496 17.7112 0.0649194 17.4509C0.0432794 17.5159 0.0216403 17.6027 3.302e-07 17.6678C3.50568 20.8355 7.01136 24.0033 10.6685 27.3012C11.0148 26.6286 11.361 25.956 11.7072 25.2834C10.6252 23.0703 10.8633 21.6817 11.664 19.7507Z" transform="translate(19.3101 41.6719)" fill="#EC1C23"/>
<path d="M0.735762 1.14993C0.757402 1.10653 0.779039 1.06314 0.800679 1.01974C0.692479 0.694293 0.670841 0.34715 0.670841 2.64852e-06C0.454441 0.433937 0.238039 0.867871 -6.60401e-07 1.30181C0.259679 1.23672 0.497722 1.19332 0.735762 1.14993Z" transform="translate(34.7393 57.0181)" fill="#EC1C23"/>
<path d="M12.3564 3.5004C12.0751 2.56744 11.0797 1.59109 10.1708 1.13546C6.75168 -0.578579 3.37584 -0.361611 0 1.85145C7.05464 11.1593 13.6981 20.5323 17.6582 31.9231C16.9658 22.0077 15.0614 12.6781 12.3564 3.5004Z" transform="translate(6.23926 16.4592)" fill="white"/>
<path d="M3.85192 1.65533e-07C2.53188 2.56021 1.27676 5.01194 -1.3208e-06 7.55045C1.7312 8.44002 3.33256 9.26449 4.93392 10.089C6.25396 7.50706 7.53072 5.01194 8.78584 2.53851C7.09792 1.67065 5.49656 0.846172 3.85192 1.65533e-07Z" transform="translate(35.2156 9.17651)" fill="white"/>
<path d="M3.87356 1.65533e-07C2.55352 2.56021 1.2984 5.03364 0 7.57215C1.7312 8.46171 3.33256 9.28619 4.91228 10.089C6.23232 7.50706 7.50908 5.01194 8.78585 2.51682C7.09792 1.67065 5.49656 0.846172 3.87356 1.65533e-07Z" transform="translate(25.7156 4.29468)" fill="white"/>
<path d="M4.95556 10.089C6.25396 7.55046 7.50908 5.09873 8.80749 2.53852C7.07628 1.64895 5.47492 0.824474 3.85192 -3.31065e-07C2.53188 2.56021 1.27676 5.05533 -1.3208e-06 7.55045C1.68792 8.41832 3.28928 9.2428 4.95556 10.089Z" transform="translate(38.7859 25.6445)" fill="white"/>
<path d="M0.634129 8.30984C1.52137 9.15601 2.84141 9.54655 4.00997 10.1541C5.35165 7.52876 6.62841 5.01194 7.90517 2.53852C6.21725 1.67065 4.61589 0.846171 2.94961 -3.31066e-07C1.93253 1.9744 0.850529 3.77523 0.114768 5.72793C-0.166552 6.44392 0.0931284 7.81082 0.634129 8.30984Z" transform="translate(20.6667 15.8809)" fill="white"/>
<path d="M6.492 1.47537C4.34964 0.976349 2.20728 0.477328 0.06492 0C0.04328 0.0650901 0.02164 0.151877 2.06375e-08 0.216967C8.78584 4.72988 17.5933 9.2428 26.3792 13.7557C26.4225 13.6906 26.4657 13.6038 26.509 13.5387C24.0853 11.3691 21.5535 9.32958 19.3029 7.00803C16.771 4.40443 13.8712 2.79887 10.279 2.36494C9.00224 2.21306 7.74712 1.77913 6.492 1.47537ZM15.4726 4.23086C17.6582 6.14017 19.8006 8.07118 21.9646 10.0022C21.8997 10.1107 21.8564 10.2191 21.7915 10.3059C16.6628 6.09677 10.8633 3.2545 4.5444 1.38859C7.92024 2.19137 11.2744 2.99415 14.6503 3.81862C14.9316 3.88371 15.2346 4.03559 15.4726 4.23086Z" transform="translate(1.78149 55.1304)" fill="#EC1C23"/>
<path d="M6.18484 6.85616C6.94224 5.46757 7.65636 4.03559 8.39212 2.58191C6.66092 1.69234 5.10284 0.889566 3.35 6.62131e-07C2.20308 2.23476 1.09943 4.31765 0.103994 6.44392C-0.0907661 6.87786 -0.00420572 7.70233 0.298754 8.02778C0.558435 8.33154 1.33747 8.37493 1.83519 8.26645C3.04704 8.00608 4.23724 7.61554 5.42744 7.2467C5.68712 7.15991 6.07664 7.05143 6.18484 6.85616Z" transform="translate(23.8586 32.3049)" fill="white"/>
<path d="M27.6776 9.56825C27.591 9.52485 27.5045 9.48146 27.3963 9.43807C25.5785 12.9963 23.7607 16.5546 21.943 20.0912C18.7835 18.4639 15.7972 16.9234 12.6594 15.3179C14.4988 11.7162 16.2949 8.20136 18.091 4.68649C18.0045 4.6431 17.9179 4.5997 17.853 4.55631C16.0569 8.09287 14.2391 11.6077 12.4214 15.166C9.43504 13.6255 6.55692 12.1502 3.5706 10.6097C5.41 7.02973 7.18448 3.53656 8.95896 0.0650901C8.91568 0.0433934 8.8724 0.0216967 8.82912 -4.13832e-08C5.88608 5.77132 2.94304 11.521 -3.302e-07 17.2923C0.0649197 17.314 0.12984 17.3574 0.17312 17.3791C1.10364 15.5565 2.0558 13.7557 2.94304 11.9115C3.31092 11.1738 3.6788 11.0653 4.39292 11.4559C6.40544 12.5407 8.4396 13.5604 10.4738 14.6019C11.058 14.9056 11.6207 15.1877 12.1617 15.4698C10.1492 19.4186 8.24484 23.1287 6.2756 26.969C4.73916 26.1879 3.33256 25.4502 1.90432 24.7126C1.86104 24.7993 1.8394 24.8644 1.79612 24.9512C3.246 25.6889 4.69588 26.4483 6.29724 27.2728C5.25852 29.2906 4.28472 31.2216 3.28928 33.1526C3.37584 33.196 3.4624 33.2394 3.54896 33.2828C4.5444 31.3517 5.5182 29.4207 6.53528 27.4463C9.65144 29.0519 12.6594 30.5924 15.7972 32.1979C14.91 33.9337 14.0444 35.626 13.1788 37.2966C13.2653 37.34 13.3519 37.3834 13.4601 37.4268C14.3257 35.7345 15.1913 34.0421 16.1002 32.2413C19.0216 33.7384 21.8131 35.1704 24.6047 36.6023C24.648 36.5156 24.6912 36.4288 24.7345 36.342C21.943 34.91 19.1298 33.4563 16.3166 32.0243C18.2858 28.1623 20.1901 24.4305 22.1594 20.5902C25.0159 22.0656 27.7858 23.4758 30.5557 24.9078C30.599 24.821 30.6423 24.7126 30.6855 24.6258C27.894 23.1938 25.0808 21.7401 22.181 20.243C24.0853 16.6197 25.8815 13.0831 27.6776 9.56825ZM15.8838 31.8508C14.4339 31.1131 12.984 30.3537 11.5341 29.616C10.1924 28.9217 8.82912 28.2708 7.50908 27.5114C7.22776 27.3596 6.9248 26.752 7.033 26.5351C8.80748 22.9551 10.6469 19.3752 12.5079 15.7301C15.7106 17.3791 18.6537 18.8978 21.7266 20.46C19.779 24.2352 17.8963 27.9454 15.8838 31.8508Z" transform="translate(19.7859 1.58276)" fill="white"/>
<path d="M4.95556 9.95879C5.28016 9.32959 5.88608 8.70038 5.82116 8.15796C5.69132 7.07313 5.45328 5.79302 4.80408 5.01194C3.787 3.79692 3.6788 2.69039 4.13324 1.3235C4.26308 0.932958 4.1116 0.433934 4.08996 0C3.98176 0 3.8952 0.0216964 3.787 0.0216964C2.53188 2.47342 1.2984 4.90346 1.3208e-06 7.42027C1.64464 8.24475 3.20272 9.06922 4.95556 9.95879Z" transform="translate(44.6719 14.2317)" fill="white"/>
<path d="M14.4988 3.55826C14.5854 3.66674 14.6719 3.79692 14.7368 3.90541C15.5159 3.49317 16.2949 3.08093 16.9874 2.71209C16.9441 4.03559 16.0785 4.75158 14.3906 4.51292C12.5296 4.25256 10.7118 3.81862 8.85077 3.53656C5.90772 3.05924 2.94304 2.71209 -6.60401e-07 3.42808C6.55692 3.25451 12.0102 5.9232 15.8621 5.70624C17.312 5.61945 18.3724 4.38274 18.5239 2.92906C18.6753 1.51877 17.9829 0.564114 16.3166 0C15.7106 1.17162 15.1047 2.36494 14.4988 3.55826Z" transform="translate(29.6541 37.1218)" fill="white"/>
<path d="M3.36023 1.49707C2.40807 3.51487 1.39099 5.51096 0.308986 7.46367C-0.167094 8.35323 -0.123815 9.02583 0.655226 9.78522C2.34315 6.48732 3.96615 3.2979 5.65407 0C4.50715 0.108484 3.81467 0.520721 3.36023 1.49707Z" transform="translate(25.4282 18.0288)" fill="white"/>
<path d="M0.690408 9.76352C2.37833 6.44392 4.02297 3.25451 5.68925 8.27664e-08C4.47741 0.108484 3.78493 0.607508 3.33049 1.60556C2.37833 3.62335 1.36125 5.61945 0.279249 7.57215C-0.196831 8.41832 -0.066992 9.06922 0.690408 9.76352Z" transform="translate(31.344 6.44287)" fill="white"/>
<path d="M3.30714 1.69234C2.37662 3.66674 1.38118 5.59775 0.320816 7.52876C-0.155265 8.39663 -0.155265 9.09092 0.688695 9.74182C2.35498 6.50901 3.97798 3.2979 5.6659 3.31065e-07C4.3675 0.0867872 3.76158 0.715991 3.30714 1.69234Z" transform="translate(44.3945 27.7705)" fill="white"/>
<path d="M0.682472 9.69843C2.34875 6.46562 3.97175 3.2762 5.63803 -3.31066e-07C4.49111 0.108483 3.84191 0.520721 3.38747 1.49707C2.41367 3.55826 1.37495 5.57605 0.292951 7.57215C-0.183129 8.41832 -0.0965681 9.04753 0.682472 9.69843Z" transform="translate(40.8303 11.3245)" fill="white"/>
<path d="M1.70956 2.647C2.76992 3.08093 3.80864 3.62335 4.80408 4.23086C5.82116 4.86006 6.66512 4.66479 7.66056 3.9271C5.06376 2.60361 2.5968 1.3235 1.3208e-06 3.31065e-07C0.0216413 1.43198 0.58428 2.16967 1.70956 2.647Z" transform="translate(42.3999 22.8889)" fill="white"/>
<path d="M1.36332 2.45173C2.55352 2.95075 3.65716 3.62335 4.82572 4.20916C6.0592 4.83837 6.2756 4.81667 7.53072 3.86201C5.04212 2.58191 2.57516 1.3235 -3.302e-07 -3.31066e-07C0.0216397 1.19332 0.281321 1.9961 1.36332 2.45173Z" transform="translate(23.4648 13.1689)" fill="white"/>
<path d="M1.64464 2.6036C2.72664 3.03754 3.76536 3.57996 4.73916 4.18746C5.77788 4.83837 6.64348 4.6214 7.63892 3.9271C5.06376 2.60361 2.57516 1.3235 -1.3208e-06 4.13832e-08C-1.3208e-06 1.3452 0.49772 2.12628 1.64464 2.6036Z" transform="translate(29.3726 1.60449)" fill="white"/>
<path d="M1.775 2.71209C2.83536 3.14602 3.87408 3.68844 4.84789 4.29595C5.88661 4.92515 6.70893 4.5997 7.61781 3.9271C5.04265 2.60361 2.55405 1.3235 0.000524277 -1.32426e-06C-0.0211157 1.49707 0.628084 2.23476 1.775 2.71209Z" transform="translate(27.0132 29.6147)" fill="white"/>
<path d="M1.623 2.6253C2.68336 3.05924 3.74372 3.57996 4.69588 4.20916C5.77788 4.90346 6.64348 4.6214 7.70384 3.9488C5.0854 2.60361 2.61844 1.34519 6.60401e-07 -1.32426e-06C6.60401e-07 1.34519 0.454441 2.14797 1.623 2.6253Z" transform="translate(36.4922 34.4966)" fill="white"/>
<path d="M1.79809 2.6687C2.85846 3.10263 3.89717 3.64505 4.87098 4.25255C5.9097 4.88176 6.73202 4.57801 7.61926 3.90541C5.0441 2.58191 2.57713 1.3235 0.00197268 1.65533e-07C-0.0413073 1.47538 0.629534 2.19137 1.79809 2.6687Z" transform="translate(38.8491 6.46484)" fill="white"/>
<path d="M5.951 2.51682C4.328 1.67065 2.72664 0.86787 1.03872 1.32426e-06C0.67084 0.715993 0.34624 1.36689 -6.60401e-07 2.01779C3.05124 2.88566 5.3018 3.10263 5.951 2.51682Z" transform="translate(35.7131 37.2522)" fill="white"/>
<path d="M6.60401e-07 5.07703C0.757401 4.77327 1.49316 4.72988 1.7312 4.33934C2.55352 3.03754 3.18108 1.60556 4.0034 0C1.88268 0.585811 1.60136 0.976351 6.60401e-07 5.07703Z" transform="translate(30.7573 34.4102)" fill="white"/>
<path d="M0.550397 4.27425C1.24288 2.90736 1.957 1.54046 2.73604 -1.32426e-06C0.204157 0.564113 -0.683083 2.49512 0.550397 4.27425Z" transform="translate(22.4817 29.6147)" fill="white"/>
<path d="M3.54896 1.82252C2.3804 1.23671 1.25512 0.650901 6.60401e-07 0C0.238041 2.69039 1.49316 3.2762 3.54896 1.82252Z" transform="translate(21.5603 26.8159)" fill="white"/>
<path d="M0.906894 6.62131e-07C0.344253 0.998049 -0.672827 1.88761 0.647214 3.18942C1.96725 1.06314 1.98889 0.715992 0.906894 6.62131e-07Z" transform="translate(50.322 22.7585)" fill="white"/>
<path d="M8.25501e-08 14.5151C0.0649201 14.5802 0.15148 14.6236 0.2164 14.6887C0.56264 14.0161 0.88724 13.3218 1.25512 12.6709C2.51024 10.5012 3.6788 8.28814 5.06376 6.20526C6.492 4.10068 8.115 4.07898 9.738 6.05338C10.9498 7.52876 11.9886 9.15601 13.1138 10.7182C13.3086 11.0002 13.525 11.2606 13.7414 11.5427C13.8712 11.4559 13.9794 11.3691 14.1093 11.2823C11.9236 7.57215 9.738 3.88371 7.44416 -1.32426e-06C4.82572 5.05533 2.42368 9.78522 8.25501e-08 14.5151Z" transform="translate(5.71997 31.1335)" fill="black"/>
<path d="M-6.60401e-07 1.0293C0.82232 0.942513 1.47152 0.768939 2.09908 0.812333C4.13324 0.985906 6.21068 0.964209 8.15828 1.50663C13.6548 3.0037 10.5387 9.5778 7.96352 16.0651C8.15828 16 8.28812 15.9566 8.5478 15.8699C8.7642 15.4359 8.9806 15.002 9.21864 14.568C9.26192 12.8106 10.4738 9.83817 12.2266 8.68824C13.3952 6.38839 14.5854 4.08854 15.7539 1.78868C9.71637 -0.0121422 2.42368 -0.771527 -6.60401e-07 1.0293Z" transform="translate(26.1919 42.4497)" fill="black"/>
<path d="M17.2471 8.91735C17.312 8.80886 17.3553 8.70038 17.4202 8.61359C15.2562 6.68259 13.0922 4.75158 10.9282 2.84227C10.7118 2.647 10.3872 2.49512 10.1059 2.43003C6.75168 1.60556 3.37584 0.802777 -8.25501e-08 -1.32426e-06C6.31888 1.86592 12.1184 4.70819 17.2471 8.91735Z" transform="translate(6.32568 56.5188)" fill="black"/>
<path d="M0.0213823 10.805C-0.0868178 11.0002 0.237783 11.6294 0.497463 11.7813C1.8175 12.5407 3.18082 13.1916 4.5225 13.8859C5.97238 14.6236 7.42227 15.383 8.87215 16.1207C10.863 12.2152 12.7673 8.50511 14.6933 4.72988C11.6421 3.16772 8.67739 1.64895 5.47467 -6.62131e-07C3.61362 3.64505 1.79586 7.225 0.0213823 10.805ZM2.50999 11.0219C3.80839 8.48341 5.08514 6.00999 6.38355 3.44978C8.04983 4.29595 9.65119 5.12042 11.3175 5.98829C10.0191 8.52681 8.76395 11.0002 7.4439 13.5604C5.77762 12.7143 4.17627 11.8898 2.50999 11.0219ZM8.74231 15.3396C7.96326 14.5585 7.96326 13.9076 8.41771 13.0831C9.49971 11.087 10.4519 9.00413 11.5771 7.02973C11.9667 6.35714 12.7241 5.9232 13.33 5.38078C13.4382 5.48927 13.5464 5.59775 13.6762 5.70623C12.0532 8.91735 10.4086 12.0851 8.74231 15.3396ZM13.8061 4.6431C12.8539 5.2723 12.0749 5.59775 11.0794 4.99024C9.93251 4.31764 8.74231 3.68844 7.50883 3.16772C6.40518 2.71209 6.21043 1.86592 6.12387 0.694295C8.72067 2.03949 11.1876 3.3196 13.8061 4.6431Z" transform="translate(26.7976 17.3127)" fill="black"/>
<path d="M3.87356 -3.31066e-07C2.57516 2.56021 1.2984 5.03364 1.3208e-06 7.57215C1.66628 8.44002 3.26764 9.2428 4.93392 10.1107C6.23232 7.55045 7.50908 5.07703 8.80749 2.53852C7.1412 1.67065 5.53984 0.867868 3.87356 -3.31066e-07Z" transform="translate(29.3079 20.7627)" fill="white"/>
<path d="M3.4678 1.62725C2.34252 3.60165 1.39036 5.68454 0.308357 7.68064C-0.146083 8.50511 -0.146083 9.15601 0.632957 9.93709C2.29924 6.68259 3.92224 3.49317 5.54524 0.32545C5.43704 0.216967 5.32884 0.108483 5.199 -3.31066e-07C4.63636 0.542417 3.85732 0.976352 3.4678 1.62725Z" transform="translate(34.907 22.7153)" fill="white"/>
<path d="M1.4066 2.47343C2.64008 2.99415 3.83028 3.62335 4.9772 4.29595C5.99428 4.90346 6.77332 4.57801 7.70384 3.9488C5.0854 2.6036 2.61844 1.3452 1.3208e-06 0C0.129841 1.14993 0.324602 1.9961 1.4066 2.47343Z" transform="translate(32.8782 18.0288)" fill="white"/>
<path d="M1.98001 16.4591C3.84105 12.8574 8.45037 12.1414 8.79661 10.601C8.88317 10.2538 8.71005 10.1453 8.99137 9.32085C9.46745 8.01905 10.0734 7.52002 9.01301 6.10974C9.03465 6.13143 9.01301 6.10974 9.01301 6.10974C6.50277 3.00711 8.94809 0.989313 9.14285 0.208231C9.14285 0.164838 9.14285 0.186536 9.16449 0.186536C9.20777 0.208233 9.07793 0.0780523 8.62349 0.0129621C6.15653 -0.312489 3.86269 5.58902 5.07453 6.67385C5.22601 6.65215 5.37749 6.65215 5.55061 6.65215C5.61553 6.65215 5.68045 6.69555 5.74537 6.67385C5.76701 6.60876 5.78865 6.50028 5.81029 6.71725C5.83193 6.71725 5.83193 6.71725 5.85357 6.71725C5.91849 6.69555 5.94013 6.69555 5.98341 6.67385C6.00505 6.67385 6.00505 6.65215 6.09161 6.67385C6.50277 6.50028 6.26473 8.04074 6.15653 7.52002C6.11325 7.54172 6.06997 7.54172 6.09161 7.54172C5.29093 7.73699 4.66337 8.01905 3.53809 8.66995C2.52101 9.25576 1.56884 9.86327 0.962924 10.8613C0.962924 10.8613 0.962924 10.883 0.962924 10.8613C-0.270556 13.1395 -0.0757949 13.7687 0.227165 16.3289L0.140607 16.3506C0.162247 16.394 1.39573 18.8457 1.41737 18.8891C1.37409 17.9778 1.54721 17.3052 1.98001 16.4591Z" transform="translate(31.3311 51.3855)" fill="white"/>
<path d="M-1.3208e-06 0.0867895C0.0649187 0.0650928 0.0432787 0.0867882 0.108199 0.0650914C0.108199 0.0433947 0.108201 0.0216941 0.0865607 -2.64852e-06C0.0649207 -2.64852e-06 0.04328 -2.64852e-06 0.02164 -2.64852e-06C0.02164 0.0216941 -1.3208e-06 0.0650928 -1.3208e-06 0.0867895Z" transform="translate(37.0547 58.0159)" fill="white"/>
<path d="M-1.3208e-06 0.021698L0.0432813 0C0.0649213 0 0.0216387 1.32394e-06 -1.3208e-06 0.021698Z" transform="translate(37.1631 58.0591)" fill="white"/>
<path d="M5.29958 7.49024C3.07066 7.83738 1.53422 9.0307 0.798455 10.5278C0.733535 10.6797 0.668613 10.8315 0.603693 10.9617C0.0194129 12.4371 -0.586507 14.2162 1.10141 17.1019C1.20961 17.0585 1.16634 17.0802 1.29618 17.0368C0.993216 14.4766 0.798455 13.8474 2.03194 11.5692C2.03194 11.5909 2.03194 11.5692 2.03194 11.5692C2.63786 10.5712 3.59002 9.98536 4.6071 9.37785C5.88386 8.66186 6.4465 8.42319 7.16062 8.24962C7.13898 8.24962 7.2039 8.24962 7.22554 8.22792C7.3121 8.74864 7.55014 7.20818 7.16062 7.38175C7.05242 7.36006 7.07406 7.36005 7.05242 7.36005L7.00914 7.40345L6.92258 7.44685C6.90094 7.44685 6.8793 7.44685 6.8793 7.44685C6.8793 7.44685 6.8793 7.44684 6.90094 7.46854C6.79274 7.49023 6.79274 7.46854 6.79274 7.46854C6.79274 7.42514 6.81438 7.40345 6.81438 7.38175C6.59798 7.38175 6.48978 7.38175 6.16518 7.40345C4.95334 6.34031 7.22554 0.417111 9.71414 0.742561C10.1902 0.807651 10.2984 0.937832 10.2551 0.916136C10.2335 0.894439 10.2335 0.87274 10.2335 0.93783C10.0387 1.74061 7.59342 3.73671 10.1037 6.83934C10.1037 6.83934 10.1253 6.86103 10.1037 6.83934C11.164 8.24962 10.5581 8.74865 10.082 10.0505C9.99546 10.2891 9.9089 10.5495 9.9089 10.9183V11.0919V11.157V11.1787C9.9089 11.2004 9.88726 11.2655 9.88726 11.3089C9.86562 11.3956 9.82234 11.4824 9.77906 11.5692C9.6925 11.7428 9.51938 11.9164 9.30298 12.0899C8.87018 12.4588 8.26426 12.7842 7.65834 13.1097C4.58546 14.802 1.75061 17.1019 2.65949 20.595C2.98409 21.8535 3.82806 23.1336 4.45562 23.7194L4.62874 23.6109C1.6857 14.2379 12.1595 16.4293 11.7916 10.8749C11.7699 10.8749 11.7916 10.7664 11.8349 10.6363C11.8781 10.5061 11.9431 10.3325 12.008 10.1372C12.1378 9.76839 12.3109 9.31276 12.3542 8.79204C12.4191 8.27132 12.3326 7.70721 12.1162 7.22988C11.8998 6.75255 11.6185 6.36201 11.2939 6.01486L11.0775 5.7979C8.56722 3.36786 11.6834 1.54534 10.9043 0.460503C10.6663 0.135053 10.1902 0.0482646 9.77906 0.00487113C6.81438 -0.190399 4.4989 5.53753 5.29958 7.49024ZM6.92258 7.40345L6.8793 7.42515C6.90094 7.40345 6.94422 7.40345 6.92258 7.40345Z" transform="translate(30.2837 50.6558)" fill="black"/>
<path d="M0 0.162728C0.02164 0.162728 0.0432807 0.162728 0.0649207 0.162728C0.0432807 -0.0542391 0.02164 -0.0542391 0 0.162728Z" transform="translate(37.0764 57.9399)" fill="black"/>
</svg>
