<svg width="58" height="72" viewBox="0 0 69 63" fill="none" xmlns="http://www.w3.org/2000/svg">
<path d="M42.4456 47.8744C42.4456 47.8744 42.4894 47.8744 42.555 47.7866C42.5112 47.8085 42.4456 47.8305 42.4456 47.8744Z" transform="translate(0.725098 0.562744)" fill="black"/>
<path d="M42.555 47.7866C42.5986 47.7647 42.6423 47.7866 42.555 47.7866Z" transform="translate(0.725098 0.562744)" fill="black"/>
<path d="M2.12684 32.6916C2.10497 32.6038 2.10497 32.6038 2.10497 32.6038C2.10497 32.6258 2.12684 32.6696 2.12684 32.6916Z" transform="translate(0.725098 0.562744)" fill="black"/>
<path d="M22.7348 24.8149C28.554 24.6832 31.9011 20.4048 29.8666 18.8251C28.379 17.6842 26.6945 21.4141 21.7285 19.9002C21.0722 19.7027 20.4378 19.5052 19.6721 19.2639C22.7567 21.6993 25.8413 21.6554 29.0134 19.8782C29.0572 19.9221 29.1228 19.966 29.1665 20.0099C29.0572 20.2512 28.9915 20.5584 28.8384 20.7339C25.9726 23.9811 20.3284 24.3541 16.4781 21.3702C15.3624 20.5145 15.1217 19.4614 15.7999 18.4082C16.2593 17.7061 16.8281 17.004 17.4625 16.4555C19.0158 15.161 22.1223 13.2083 24.113 10.9264C26.0382 8.73238 22.4504 6.27502 20.8753 4.58559C19.4752 3.07169 20.3721 1.77719 21.2253 0C21.0941 0.0658219 21.0284 0.175525 20.9628 0.263288C19.3877 2.94005 19.5189 3.88349 21.7066 6.0995C22.1879 6.60413 22.7129 7.06489 23.1505 7.6134C25.1412 10.1146 23.238 11.1458 19.8471 13.4277C18.097 14.6125 16.3468 15.7753 15.0561 17.5086C13.9842 18.9348 13.8967 20.712 15.2968 22.0065C17.375 23.9372 19.8909 24.8588 22.7348 24.8149Z" transform="translate(0.725098 0.562744)" fill="black"/>
<path d="M61.0846 44.2763C61.0846 44.2982 61.0408 44.2324 61.1064 44.2982C52.8808 31.9456 52.1589 33.5473 45.2896 32.2308C41.3737 31.4629 40.783 28.8739 38.9016 28.852C37.8734 28.83 34.9201 29.7515 37.1078 33.657C36.8671 33.8106 36.6484 34.03 36.5171 34.2274L36.0577 35.5C35.9921 36.7506 36.9984 36.8384 37.414 38.1548C37.6109 38.7253 37.8078 40.3708 39.4048 40.6341C40.7174 42.521 41.2862 42.9598 42.7301 44.1665C42.7301 44.1446 42.7301 44.1227 42.7519 44.1227C42.7738 44.1665 42.7957 44.2104 42.8176 44.2763C42.7738 44.1007 42.8176 44.2324 42.7957 44.1885C42.9488 44.5834 43.1676 45.0003 42.7082 45.3513C41.6362 46.1851 40.8487 44.737 40.0392 44.1665C39.7548 42.894 38.7048 41.9286 37.7859 40.9413L36.7577 42.0383L35.4233 43.4864C35.2701 41.5337 35.1607 40.0636 34.8107 36.7287C35.1389 36.6409 35.4889 36.5751 35.817 36.4654C35.7952 36.246 35.7952 36.3337 35.7733 36.1143C35.3139 36.1143 35.0295 36.1143 34.1325 36.1143C33.5638 41.3581 33.4762 43.0256 33.1043 48.2914C31.7699 49.9369 33.2794 50.1783 31.4417 52.8331C29.7353 55.0491 27.0008 56.8044 24.5068 58.033C15.8437 58.1866 15.7124 58.2086 13.1747 58.2744C7.83683 55.9267 3.0896 50.7707 2.45518 44.5395C2.3458 43.7497 2.47706 44.5176 2.30205 43.245L2.25829 43.1792V43.1573L2.30205 43.1134C2.30205 43.1134 2.43331 38.2645 2.78333 33.8544C17.2 34.8198 29.079 33.8983 35.5764 33.7667C35.7952 33.7667 36.4733 33.7667 36.6921 33.8106L36.8015 33.4815C35.0295 32.5819 27.2414 31.8359 25.185 31.6604C12.409 30.7169 1.47073 31.1119 0.442532 31.8798C0.508162 31.7701 0.158136 32.165 0.201889 32.1211V32.1431C0.245643 32.0772 0.048753 32.3186 0.00499974 32.6696C-0.0387535 33.1743 0.201889 33.657 0.836312 34.4688C1.4051 41.9286 1.07695 42.2796 1.33947 44.6931C2.52081 54.6761 10.462 61.1486 13.0653 61.3022C15.8874 61.4338 15.8218 61.4338 25.2288 61.741C29.5385 59.898 34.1325 57.0457 35.7077 52.6356C35.9702 51.8458 36.0796 50.9023 36.0577 50.288C36.2765 50.0247 36.5171 49.7395 36.7577 49.4981C37.1515 49.9808 37.8953 50.3099 38.2235 50.288V50.2441C38.311 50.266 38.2453 50.2222 38.2672 50.2222L38.3329 50.2441C39.1204 50.1783 39.4923 49.6956 40.3893 50.3099C40.6299 50.4635 40.8705 50.639 41.1331 50.661C41.4393 50.7049 41.9425 50.5732 42.3363 50.2441C43.0363 50.7487 43.452 51.2314 44.699 52.4382C45.574 53.2939 47.5429 54.3031 48.0461 54.4128C48.8336 54.6103 49.4462 54.8516 50.1681 55.2466C52.5964 56.5849 51.9401 56.1242 53.3183 56.9799C54.8716 58.0111 56.8624 58.6913 58.2406 59.8322L58.4375 59.7444C58.3937 57.9672 55.5935 54.3689 50.4744 54.1715C46.5803 54.0179 48.1773 52.8989 45.9022 51.0779C45.1802 50.4855 44.3052 49.9589 43.3864 49.8053C44.1302 49.4762 44.4364 48.796 44.5239 47.9842H44.5677C44.5677 47.9842 44.6333 47.8745 44.6333 47.9184C44.6333 47.8526 44.5896 47.8526 44.5677 47.7868C44.5458 47.0408 44.1739 46.2728 43.5176 45.7902C43.9333 45.5269 44.2177 45.1539 44.3489 44.6931C44.3927 44.5176 44.3927 44.364 44.4146 44.1885C44.4146 44.1227 44.3927 44.013 44.3927 43.9252C44.3927 43.8813 44.4364 44.013 44.4146 43.8374L44.4364 43.8155C44.4583 43.3767 43.5832 41.402 40.8049 40.1953C41.3956 39.6687 41.5706 38.8788 41.505 38.067L41.4831 38.1329C41.4831 38.089 41.4831 38.0451 41.4831 38.0232C43.9989 39.3615 44.8083 38.7472 45.4209 40.1733C46.0116 41.797 46.821 46.1851 50.2337 47.4576L50.3431 47.2821C47.2585 44.8467 47.5648 40.4147 46.7554 39.0105C45.5303 36.7506 43.4301 37.716 39.8205 34.8418C37.8078 33.262 36.0577 30.8705 37.6766 29.8393C37.8297 29.7296 37.7859 29.7735 37.961 29.6857L38.0266 29.6418C38.0266 29.6418 38.0703 29.6199 38.0485 29.6199C40.3893 28.7642 40.4111 31.9456 44.9177 33.4815C53.0121 36.224 49.6431 32.7135 59.6188 45.3294L59.6626 45.3952C59.7063 45.4391 59.7501 45.483 59.772 45.5269C61.6096 47.4576 65.6349 49.6956 67.2319 51.6483L67.4069 51.5605C66.3568 49.0374 62.6159 46.2728 61.0846 44.2763ZM42.9926 46.0534C43.0363 47.2163 42.8394 47.2821 42.7082 47.5673C42.6863 47.6112 42.7301 47.5015 42.7082 47.5235C42.5988 47.677 42.6644 47.6332 42.5332 47.7868C42.5988 47.7868 42.555 47.7648 42.5332 47.7868C42.4675 47.8745 42.4238 47.8745 42.4238 47.8745C42.4238 47.8306 42.4894 47.8087 42.5332 47.7868C42.4238 47.7868 42.0956 47.7648 41.9644 47.7429L41.8769 47.7868L41.8331 47.8306C41.855 47.8306 41.7894 47.8306 41.8112 47.8306V47.7868C41.8112 47.7868 41.1331 47.6112 40.0611 47.5015C39.6455 47.4576 39.2517 47.3479 38.9016 47.1724C39.4923 46.4923 39.6455 46.229 39.7767 46.0096C40.2799 46.1412 41.8987 46.3825 42.9926 46.0534ZM13.3935 58.406C13.3716 58.406 13.3716 58.406 13.3497 58.3841C13.3716 58.406 13.4154 58.406 13.3935 58.406ZM2.12703 32.7135C2.12703 32.6916 2.08309 32.6258 2.10497 32.6038C2.10497 32.6258 2.12703 32.6038 2.12703 32.7135ZM35.8609 50.5512C35.8609 50.5512 35.8608 50.5294 35.8827 50.5074C35.8827 50.5294 35.8827 50.5512 35.8609 50.5512ZM38.7266 48.7083C38.7485 48.7083 38.6829 48.6863 38.7704 48.7302C38.7485 48.7083 38.7485 48.7083 38.661 48.6424C38.661 48.6205 38.661 48.6205 38.661 48.6205C38.6829 48.6205 38.5079 48.1817 38.2672 47.8965C38.3547 47.8087 38.4204 47.7209 38.486 47.6551C39.4704 48.2256 39.6892 48.7302 40.4768 49.2348C39.733 49.6956 39.3173 49.3007 38.7266 48.7083ZM40.3018 37.2772C40.1705 37.4308 40.0611 37.5844 39.9517 37.7599L39.9298 37.8257C39.7986 38.0451 39.6236 38.3523 39.4486 38.5497C39.3829 38.6156 39.3611 38.6156 39.4267 38.5936C39.4704 38.5717 39.5798 38.5936 39.5798 38.6375C39.5798 38.6814 39.4704 38.6814 39.3611 38.6375C38.4422 38.3523 38.0703 38.089 37.8297 37.5624C37.8297 37.5624 37.7859 37.4746 37.7641 37.3649C37.6547 36.9481 37.7203 36.5751 37.8078 36.1801C37.9172 35.7413 37.8953 35.7633 37.8516 34.8198C38.5516 35.7413 39.3611 36.5751 40.3018 37.2772Z" transform="translate(0.725098 0.562744)" fill="black"/>
<path d="M2.12703 32.7135C2.12703 32.6917 2.12703 32.6917 2.12703 32.7135Z" transform="translate(0.725098 0.562744)" fill="black"/>
<path d="M13.3935 58.406C13.3717 58.406 13.3279 58.3845 13.3715 58.4064L13.3935 58.406Z" transform="translate(0.725098 0.562744)" fill="black"/>
</svg>
