<svg width="58" height="72" viewBox="0 0 54 69" fill="none" xmlns="http://www.w3.org/2000/svg">
<path d="M0 61.2023C3.25618 57.9195 5.1353 41.9081 21.2297 28.575C24.8015 25.6089 26.781 21.0733 27.0966 16.0914C27.2544 13.4708 27.8282 10.8646 28.2441 8.1001C28.947 8.35928 29.4634 8.54646 30.0802 8.77684C28.3589 11.3974 27.8712 14.2339 27.6847 17.2432C27.57 18.9999 26.5945 20.6989 25.9634 22.4124C25.4613 23.7658 24.8732 25.0761 24.6293 26.6744C26.0925 25.868 27.5556 25.0473 29.1478 24.169C29.2339 24.8313 29.2913 25.3065 29.363 25.9112C21.617 27.8407 9.2378 35.8319 1.10452 62.2534C0.745909 61.9079 0.372955 61.5623 0 61.2023Z" transform="translate(0.314209 6.5144)" fill="black"/>
<path d="M25.4038 34.7378C22.3485 31.9876 19.5513 33.3555 16.7541 34.925C16.6681 34.781 16.5963 34.637 16.5103 34.4786C18.2173 33.2979 19.8382 31.93 21.6743 30.9797C23.6538 29.943 25.4468 30.663 26.9243 32.6212C28.4018 34.5506 28.617 36.768 27.2255 38.395C26.2501 39.5325 24.9591 40.4252 23.6394 41.2604C24.3136 38.0351 27.828 35.3281 24.4427 31.8436C24.7727 32.794 25.0882 33.7587 25.4038 34.7378Z" transform="translate(0.314209 6.5144)" fill="black"/>
<path d="M15.7642 20.9867C16.0511 19.6908 16.3524 18.3949 16.6679 16.9551C20.6127 22.1098 20.9713 26.9621 16.1372 32.1456C18.504 27.9268 16.4241 24.4712 15.7642 20.8859V20.9867Z" transform="translate(0.314209 6.5144)" fill="black"/>
<path d="M38.5145 20.3674C40.2645 22.0232 40.6231 24.5286 39.4899 25.4789C39.0596 25.8389 37.8834 25.8389 37.41 25.5077C36.2624 24.7014 35.5596 21.1449 36.3915 20.6554C37.0657 20.2522 38.0985 20.4106 38.5145 20.3674Z" transform="translate(0.314209 6.5144)" fill="black"/>
<path d="M15.7642 20.9006C15.7212 21.1453 15.6782 21.3901 15.6351 21.6493C12.6945 18.9711 15.2765 11.3687 19.5512 9.8568C18.3893 12.2038 17.0696 14.5364 16.0942 17.0129C15.6351 18.208 15.8503 19.6623 15.7642 21.0014C15.7642 20.987 15.7642 20.9006 15.7642 20.9006Z" transform="translate(0.314209 6.5144)" fill="black"/>
<path d="M7.97542 25.8825C9.28076 24.3419 10.5718 23.7227 12.25 24.6587C14.6312 25.9689 15.8648 29.151 15.0616 32.7939C14.4878 28.2439 12.3361 25.8825 7.97542 25.8825Z" transform="translate(0.314209 6.5144)" fill="black"/>
<path d="M34.8426 12.5921C36.9369 9.33798 40.2074 7.46616 43.2628 5.33516C43.2628 5.32076 43.2771 5.29196 43.2771 5.27756C43.2341 6.19907 43.1911 7.12059 43.148 8.1141C40.3078 7.16378 38.6152 9.122 36.8795 11.0946C36.3344 11.7138 35.5168 12.1025 34.8283 12.5921C34.8139 12.5921 34.8426 12.5921 34.8426 12.5921Z" transform="translate(0.314209 6.5144)" fill="black"/>
<path d="M31.4287 2.18213C30.1663 2.00935 28.904 1.83656 27.4553 1.64938C28.1868 -0.121655 29.3631 -0.222446 30.6254 0.223913C31.4717 0.526284 32.3037 1.10223 31.3426 2.18213C31.3282 2.18213 31.4287 2.18213 31.4287 2.18213Z" transform="translate(0.314209 6.5144)" fill="black"/>
<path d="M21.3091 10.9487C22.5858 9.24969 23.8051 7.49306 25.1821 5.88041C25.6555 5.31886 26.5448 5.11728 27.2477 4.75731C27.7067 5.18927 28.1801 5.62123 28.6391 6.05319C29.2559 7.43546 29.9732 8.77454 30.4752 10.2C31.2498 12.4318 30.7334 13.1085 28.424 13.2381C28.051 13.2669 27.6637 13.2381 27.219 13.6125C28.4957 13.8429 29.758 14.0876 31.1207 14.3324C31.092 15.6859 30.2314 16.4346 29.0838 16.1179C26.8604 15.5131 24.637 14.7356 22.6001 13.6701C21.8829 13.2957 21.7395 11.8415 21.3235 10.8911C21.3235 10.9199 21.3091 10.9487 21.3091 10.9487Z" transform="translate(22.2678 0.886719)" fill="#EC1C23"/>
<path d="M1.31283 1.33066C2.38866 0.898702 3.45015 0.351553 4.55467 0.0491814C5.14279 -0.109204 5.83132 0.164371 5.97476 0.178769C5.90304 1.66183 6.06083 2.90012 5.73091 4.00881C5.5014 4.78634 4.68376 5.80864 3.99523 5.93823C0.982907 6.45658 0.968563 6.3414 1.95833 9.22113C-0.0355452 7.19092 -0.322433 4.93033 0.280032 2.45376C0.624298 2.07939 0.968563 1.70503 1.31283 1.33066Z" transform="translate(22.2678 0.886719)" fill="#EC1C23"/>
<path d="M8.57109 24.9588C8.64281 24.858 8.74322 24.7572 8.77191 24.642C9.08749 23.4613 9.47479 21.8631 10.8232 22.151C11.7412 22.3526 12.4154 23.8501 13.0896 24.8436C13.3478 25.2179 13.3478 25.8227 13.3478 26.3122C13.3191 28.5584 13.9933 30.5022 15.4421 32.2589C15.9011 32.8204 16.1593 34.0443 15.8581 34.6059C15.5568 35.153 14.4093 35.5274 13.649 35.4986C9.03011 35.297 6.90714 32.2589 8.09773 27.7665C8.34158 26.8162 8.4133 25.8227 8.57109 24.8436V24.9588Z" transform="translate(22.2678 0.886719)" fill="#EC1C23"/>
<path d="M9.37461 7.80998C10.766 7.5364 12.1574 7.14764 13.5632 7.01805C14.3378 6.94606 15.1554 7.30602 15.9587 7.46441C15.7435 8.27073 15.7722 9.33623 15.2558 9.84019C13.8788 11.1937 12.3439 12.4463 10.7086 13.4974C8.97297 14.6061 7.25164 13.7998 5.77417 12.7631C3.83767 11.424 2.70446 9.48022 2.05897 6.68688C3.17783 6.93166 4.05284 6.98925 4.82744 7.32042C6.34794 7.96836 7.81107 8.70269 9.47503 7.80998H9.37461Z" transform="translate(22.2678 0.886719)" fill="#EC1C23"/>
<path d="M8.57093 24.8578C7.96847 25.5777 7.73896 25.3185 7.60986 24.5266C7.19387 22.0932 9.11602 19.2423 11.5546 18.6663C12.0136 18.5656 12.4583 18.3784 12.9029 18.2344H12.8599C16.5895 17.5289 19.0567 19.3143 20.9358 22.3236C21.61 23.4035 22.1838 24.4834 21.151 25.5921C20.1612 26.6432 19.2288 25.8657 18.2534 25.3905C17.2493 24.9154 16.1304 24.6418 15.112 24.181C14.3661 23.8355 13.6345 23.3891 13.0177 22.842C12.1857 22.1076 11.5689 20.8693 10.2062 21.5749C8.88651 22.2516 8.02601 23.3029 8.57109 24.9588C8.57109 24.9588 8.57093 24.8578 8.57093 24.8578Z" transform="translate(22.2678 0.886719)" fill="#EC1C23"/>
<path d="M14.6104 36.8234C15.4137 35.8011 16.1165 34.966 16.7477 34.0877C17.178 33.4829 17.551 32.8062 17.8952 32.1439C18.5838 30.7616 19.1862 29.3361 19.9465 27.997C20.3051 27.3635 20.8215 26.586 21.424 26.4132C21.8973 26.2836 22.801 26.8452 23.1596 27.3491C24.3502 29.005 24.1781 31.6975 23.0449 33.4253C21.969 35.0668 20.9362 36.6794 18.842 37.1834C17.2497 37.5578 15.7579 37.5722 14.6104 36.8234Z" transform="translate(22.2678 0.886719)" fill="#EC1C23"/>
<path d="M13.8357 1.58967C14.0795 2.68397 14.8685 4.10943 14.4525 4.81497C13.8644 5.80848 12.1 7.07556 11.3541 6.80198C9.48932 6.11085 7.91143 4.65658 6.27617 3.4183C6.10404 3.28871 6.24748 2.46799 6.47699 2.10802C8.05487 -0.426142 11.0098 -0.584528 13.8357 1.58967Z" transform="translate(22.2678 0.886719)" fill="#EC1C23"/>
</svg>
