<svg width="58" height="72" viewBox="0 0 56 78" fill="none" xmlns="http://www.w3.org/2000/svg">
<path d="M27.5085 41.367C27.009 41.853 26.2667 42.0555 25.4028 42.366C21.1105 43.8915 17.9519 45.6735 16.6561 51.843C16.3052 53.922 14.2265 55.5825 12.5933 54.9615C11.041 54.3675 10.4606 51.897 10.3661 50.0475L10.3391 49.5885C10.2986 48.8865 9.61024 48.414 8.93534 48.63L2.56433 51.06C2.1324 51.195 1.88943 51.6675 2.03791 52.0995L2.30787 52.9365C2.42935 53.3145 2.59133 53.679 2.7803 54.03C3.61717 55.569 4.0626 55.9875 4.81848 56.838C4.57552 57 4.37305 57.2295 4.23807 57.4995C4.0626 57.864 3.99511 58.296 4.10309 58.701C4.15708 58.9035 4.25157 59.106 4.37305 59.268C4.50803 59.43 4.65651 59.5785 4.83198 59.673C4.95346 59.7405 5.08844 59.7945 5.22342 59.835C5.08844 60.0105 4.99395 60.2535 4.99395 60.4695C4.99395 60.7395 5.07494 60.9555 5.18292 61.1175C5.38539 61.455 5.66885 61.6979 5.93881 61.9139C6.07379 62.0219 6.22226 62.1299 6.37074 62.2244C6.33025 62.2514 6.28975 62.265 6.23576 62.292C6.12778 62.3595 6.01979 62.4539 5.9523 62.5754C5.87132 62.6969 5.83082 62.832 5.80383 62.9535C5.79033 63.075 5.79033 63.1965 5.81733 63.291C5.85782 63.4934 5.93881 63.6419 6.01979 63.7769C6.19527 64.0334 6.39774 64.2629 6.6137 64.4654C6.76218 64.6004 6.92415 64.7354 7.08613 64.8434C7.07263 64.8434 7.07263 64.8434 7.07263 64.8434C6.97815 64.8434 6.88366 64.8434 6.76218 64.8839C6.6542 64.9109 6.47872 64.9784 6.34374 65.1269C6.27625 65.2079 6.22226 65.3024 6.20877 65.3834C6.18177 65.4644 6.18177 65.5454 6.18177 65.6129C6.18177 65.7479 6.22226 65.8289 6.24926 65.9099C6.31675 66.0719 6.39774 66.1799 6.47872 66.2879C6.55971 66.3959 6.6407 66.5039 6.73518 66.5984C7.09963 67.0034 7.50456 67.3139 7.9365 67.5974C8.15246 67.7459 8.38193 67.8809 8.5979 68.0024C8.71938 68.0699 8.85436 68.1374 8.96234 68.2049C8.89485 68.4209 8.85436 68.6504 8.82736 68.8799C8.77337 69.4334 8.86785 70.0274 9.12431 70.5404C9.24579 70.7969 9.40777 71.0399 9.58324 71.2694C9.77221 71.4854 9.96118 71.7014 10.1906 71.8769C10.2986 71.9714 10.4066 72.0524 10.5281 72.1469C10.6361 72.2279 10.7576 72.3089 10.879 72.3899L11.23 72.6059C11.338 72.6734 11.4325 72.7274 11.5404 72.7949C11.9454 73.0649 12.2828 73.4024 12.5798 73.7399C12.7283 73.9154 12.8767 74.0909 12.9982 74.2799C13.1332 74.4689 13.2547 74.6579 13.3762 74.8469C13.8486 75.6434 14.132 76.5884 14.294 77.6414L14.4155 77.6684C14.5505 77.4119 14.618 77.1419 14.6855 76.8719C14.7394 76.6019 14.7664 76.3184 14.7664 76.0349C14.7664 75.4679 14.672 74.8874 14.4425 74.3339C14.2265 73.7804 13.8891 73.2809 13.4706 72.8759C13.0387 72.4709 12.5528 72.1604 12.0399 71.9039C11.9184 71.8364 11.7834 71.7824 11.6619 71.7149L11.3245 71.5664C11.2165 71.5124 11.1085 71.4584 11.0005 71.3909C10.906 71.3234 10.7846 71.2694 10.6901 71.2019L10.5416 71.0939C10.4876 71.0534 10.4471 71.0264 10.4066 70.9859C10.3121 70.9184 10.2311 70.8374 10.1367 70.7564C9.96118 70.5944 9.81271 70.4189 9.67773 70.2164C9.40777 69.8249 9.25929 69.3659 9.2188 68.8664C9.2053 68.6909 9.2053 68.5289 9.2188 68.3534C9.27279 68.3939 9.31328 68.4209 9.29979 68.4344C9.29979 68.4344 9.28629 68.4344 9.28629 68.4209L9.32678 68.4749C9.34028 68.5019 9.35378 68.5154 9.36728 68.5424C9.42127 68.6234 9.48876 68.7044 9.56975 68.7719C9.71822 68.9069 9.8937 69.0149 10.0962 69.0824C10.2986 69.1499 10.5281 69.1769 10.8116 69.0959C10.9465 69.0554 11.095 68.9744 11.23 68.8529C11.3515 68.7314 11.446 68.5694 11.4864 68.4074C11.5269 68.2589 11.5134 68.1239 11.4999 68.0024C11.4864 67.9484 11.473 67.8944 11.4595 67.8404L11.4325 67.7729L11.419 67.7189C11.3245 67.4759 11.2165 67.2464 11.095 67.0169C11.0005 66.8549 10.8925 66.6794 10.7711 66.5309C10.879 66.4904 10.987 66.4229 11.095 66.3419C11.2975 66.1799 11.4595 65.9369 11.5269 65.7074C11.6619 65.2349 11.5404 64.8434 11.419 64.5599C11.338 64.3574 11.2435 64.1549 11.122 63.9524C11.1625 63.9254 11.203 63.9119 11.23 63.8849C11.419 63.7634 11.5944 63.6284 11.7429 63.4259C11.8914 63.2369 12.0399 62.9669 12.0534 62.6429C12.0534 62.5619 12.0534 62.481 12.0534 62.4135C12.0534 62.373 12.0399 62.3325 12.0399 62.3055L12.0264 62.2515L12.0129 62.2244C11.9859 62.1299 11.9589 62.0489 11.9319 61.9679C11.8104 61.617 11.6349 61.2794 11.392 60.9824C11.149 60.6854 10.8385 60.429 10.5011 60.2805C10.3796 60.2265 10.2581 60.186 10.1367 60.159C10.2311 60.105 10.3256 60.051 10.4201 59.9835C12.9307 60.402 15.6168 59.754 17.304 57.432C17.304 57.4455 17.304 57.459 17.304 57.4725C17.2366 57.8775 17.1961 58.2825 17.2231 58.6875C17.2366 59.0925 17.304 59.5245 17.52 59.9295C17.547 59.97 17.5605 60.0105 17.5875 60.051L17.3715 60.105C16.9801 60.1995 16.5887 60.321 16.1972 60.4695C15.8058 60.618 15.4278 60.807 15.0634 61.0635C14.699 61.3065 14.3615 61.6305 14.105 62.022C13.9701 62.2245 13.8621 62.4405 13.7811 62.6699C13.7001 62.8994 13.6461 63.1425 13.6326 63.3855C13.6191 63.6285 13.6326 63.8714 13.6731 64.1009C13.7001 64.2224 13.7271 64.3304 13.7541 64.4384C13.7811 64.5464 13.8351 64.6679 13.8621 64.7354C13.9971 65.0594 14.0915 65.3834 14.0645 65.5859C14.0511 65.6399 14.0376 65.6804 13.9971 65.7479C13.9701 65.7749 13.9431 65.802 13.9161 65.8425C13.8756 65.883 13.8216 65.9234 13.7541 66.0314C13.7271 66.0854 13.7136 66.1799 13.7271 66.2474C13.7406 66.3149 13.7676 66.3554 13.7946 66.3824C13.8486 66.4364 13.8891 66.4769 13.9296 66.5039C14.0241 66.5714 14.1185 66.6119 14.213 66.6524L14.294 66.5444C14.24 66.4634 14.186 66.3689 14.1455 66.2879C14.1455 66.2744 14.132 66.2744 14.132 66.2609C14.1455 66.2609 14.159 66.2474 14.186 66.2474C14.2265 66.2339 14.2805 66.2069 14.3345 66.1799C14.4425 66.1259 14.564 66.0179 14.645 65.8964C14.7259 65.7749 14.7799 65.64 14.8204 65.505C14.8474 65.37 14.8609 65.2484 14.8744 65.1269C14.8879 64.8839 14.8474 64.6679 14.8069 64.4519C14.7799 64.3304 14.7664 64.2629 14.7529 64.1819C14.7394 64.1009 14.7259 64.0199 14.7259 63.9389C14.7124 63.7769 14.7124 63.6284 14.7394 63.4799C14.7799 63.1829 14.9014 62.9129 15.0769 62.6699C15.4278 62.1705 16.0082 61.7249 16.6292 61.3334C16.9396 61.1309 17.2771 60.9555 17.6145 60.78L17.871 60.6449L18.0059 60.5775C18.0599 60.5505 18.1004 60.537 18.1679 60.4965C18.1814 60.483 18.2084 60.483 18.2354 60.456C18.2489 60.4425 18.2759 60.4289 18.3299 60.3614C18.3569 60.3344 18.3974 60.2265 18.3569 60.1185C18.3299 60.0105 18.2354 59.9565 18.2489 59.97L18.2084 59.943C18.1814 59.916 18.1544 59.9025 18.1274 59.862C18.0734 59.808 18.0194 59.7405 17.9789 59.673C17.8035 59.3895 17.7225 59.025 17.682 58.6605C17.655 58.296 17.655 57.918 17.709 57.54C17.763 57.162 17.844 56.7975 17.9654 56.433C18.0869 56.0685 18.2354 55.7175 18.4109 55.3935C18.5863 55.0695 18.8158 54.759 19.0723 54.5025C19.3287 54.246 19.6392 54.057 19.9766 53.9895C20.0576 53.976 20.1386 53.9625 20.2061 53.976C20.2331 53.976 20.2601 53.9895 20.2736 53.9895C20.2871 54.003 20.2871 54.003 20.2871 54.003C20.2871 54.0165 20.3141 54.057 20.3141 54.138C20.3141 54.2055 20.3141 54.3 20.3006 54.381C20.2601 54.7455 20.1791 55.137 20.1386 55.542C20.0981 55.947 20.0846 56.3655 20.1386 56.7975C20.1926 57.216 20.3276 57.648 20.5166 58.0395C20.611 58.242 20.7325 58.431 20.854 58.6065C20.9485 58.7685 21.043 58.917 21.124 59.079C21.2049 59.241 21.2724 59.403 21.3264 59.565C21.3939 59.727 21.4344 59.889 21.4749 60.051C21.5424 60.375 21.5559 60.6855 21.5154 61.0095C21.4749 61.32 21.3669 61.6304 21.2184 61.9409C21.07 62.2514 20.881 62.5349 20.6785 62.8319C20.4761 63.1289 20.2331 63.4124 19.9901 63.6959C19.5042 64.2764 18.9643 64.8569 18.4919 65.5994C18.3704 65.7884 18.2624 65.9909 18.1814 66.2339C18.1409 66.3554 18.1004 66.4769 18.0734 66.6119C18.0599 66.6794 18.0464 66.7469 18.0464 66.8144C18.0464 66.8549 18.0464 66.8819 18.0464 66.9224V67.0169C18.0464 67.1789 18.0464 67.3544 18.0329 67.5434L17.9924 68.1374C17.9654 68.5424 17.9519 68.9609 17.9924 69.3794C18.0194 69.7979 18.1004 70.2164 18.2354 70.6214C18.2894 70.7969 18.3569 70.9589 18.4379 71.1209C18.5459 71.3369 18.6673 71.5394 18.8023 71.7284C19.0588 72.0524 19.3557 72.3359 19.6932 72.5654L19.7742 72.4574C19.5312 72.1604 19.3152 71.8364 19.1668 71.4989C19.0183 71.1614 18.9103 70.8104 18.8698 70.4459C18.8158 70.0814 18.8158 69.7169 18.8428 69.3524C18.8698 68.9879 18.9373 68.6234 19.0048 68.2454L19.1128 67.6649C19.1533 67.4624 19.1938 67.2599 19.2073 67.0304C19.2073 66.9899 19.2073 66.9899 19.2208 66.9764C19.2208 66.9629 19.2208 66.9494 19.2342 66.9359C19.2342 66.9089 19.2477 66.8819 19.2612 66.8549C19.2747 66.8009 19.3017 66.7334 19.3422 66.6794C19.4097 66.5579 19.4907 66.4229 19.5987 66.2879C19.8012 66.0179 20.0441 65.7344 20.3141 65.4509C20.5705 65.1674 20.8405 64.8839 21.097 64.5734C21.3669 64.2629 21.6099 63.939 21.8528 63.588C22.0823 63.237 22.2983 62.859 22.4737 62.4405C22.6492 62.022 22.7572 61.5765 22.7842 61.104C22.8112 60.645 22.7572 60.159 22.6222 59.727C22.4872 59.295 22.2848 58.89 22.0283 58.539C21.9068 58.3635 21.7719 58.2015 21.6369 58.0395C21.5154 57.9045 21.4209 57.7695 21.3264 57.621C20.962 57.0405 20.8135 56.325 20.827 55.569C20.827 55.191 20.881 54.813 20.8945 54.3945C20.8945 54.2865 20.8945 54.1785 20.881 54.057C20.8675 53.9355 20.8405 53.787 20.7055 53.652C20.638 53.5845 20.557 53.5305 20.4896 53.5035C20.4086 53.4765 20.3411 53.463 20.2736 53.463C20.1386 53.463 20.0306 53.4765 19.9226 53.5035C19.4772 53.6115 19.1128 53.868 18.8293 54.165C18.7888 54.2055 18.7618 54.246 18.7213 54.273C18.8158 53.8815 18.8968 53.463 18.9508 53.0175C20.0846 45.5385 24.0125 44.067 26.6176 43.662C27.6165 43.5135 28.3588 42.6765 28.4128 41.6775C28.3858 41.286 27.8324 41.043 27.5085 41.367ZM5.68235 59.4705L5.64185 59.4435C5.61486 59.43 5.57436 59.4165 5.54737 59.403C5.43938 59.3355 5.3449 59.2545 5.27741 59.16C5.20992 59.0655 5.16943 58.9575 5.14243 58.8495C5.11543 58.7415 5.11543 58.647 5.11543 58.539C5.12893 58.3365 5.16943 58.134 5.23692 57.918C5.30441 57.7155 5.38539 57.513 5.54737 57.3105C5.69584 57.108 5.92531 56.919 6.20877 56.8245C6.49222 56.73 6.80267 56.7435 7.08613 56.865C7.36959 56.9865 7.65304 57.135 7.923 57.3105C8.19296 57.486 8.46292 57.675 8.73287 57.8505C8.80036 57.891 8.86785 57.9315 8.94884 57.9855L9.13781 58.107C9.1918 58.1475 9.25929 58.1745 9.31328 58.215C9.36728 58.2555 9.42127 58.2825 9.47526 58.323C9.56974 58.3905 9.67773 58.4715 9.73172 58.539C9.79921 58.6065 9.8397 58.674 9.8532 58.701C9.8667 58.728 9.8532 58.728 9.8532 58.7415C9.8532 58.755 9.8397 58.809 9.79921 58.8765C9.71822 59.0115 9.52925 59.187 9.31328 59.322C9.2053 59.3895 9.08382 59.457 8.96234 59.511L8.81386 59.5785C8.78687 59.592 8.75987 59.592 8.73287 59.6055C8.70588 59.619 8.67888 59.619 8.63839 59.6325C8.39543 59.7 8.09847 59.7405 7.78802 59.754C7.18062 59.7945 6.54621 59.7405 5.9523 59.565C5.87132 59.538 5.80383 59.511 5.73634 59.4975L5.68235 59.4705ZM7.05913 65.7614C7.05913 65.7209 7.08613 65.6939 7.08613 65.7074C7.08613 65.7074 7.09963 65.7209 7.09963 65.7614C7.09963 65.7884 7.08613 65.8289 7.05913 65.8559C7.05913 65.8154 7.05913 65.7884 7.05913 65.7614ZM10.2716 67.8269C10.2581 67.8269 10.2581 67.8134 10.2581 67.8134C10.2176 67.7594 10.1637 67.7054 10.1232 67.6649C9.93419 67.5029 9.77221 67.4489 9.62374 67.3949C9.34028 67.3139 9.09732 67.3004 8.85436 67.2734C8.61139 67.2599 8.38193 67.2329 8.16596 67.1789C7.95 67.1249 7.73403 67.0304 7.55856 66.8954C7.38308 66.7604 7.2481 66.5714 7.16712 66.3689C7.12662 66.2474 7.08613 66.0989 7.07263 65.9639C7.20761 65.9909 7.41008 66.0314 7.59905 66.0719C7.81502 66.1259 8.04448 66.1799 8.28744 66.2204C8.51691 66.2609 8.75987 66.3014 9.01633 66.3284C9.13781 66.3419 9.25929 66.3554 9.39427 66.3554H9.58324C9.63723 66.3554 9.74522 66.3419 9.81271 66.3284C9.8262 66.3284 9.8532 66.2879 9.8397 66.2879H9.8532C9.8667 66.2879 9.8802 66.3149 9.8802 66.3149C9.90719 66.3149 9.92069 66.3419 9.93419 66.3554C9.96118 66.3824 9.98818 66.4094 10.0152 66.4499C10.0557 66.5174 10.0962 66.6119 10.1232 66.7199C10.1772 66.9224 10.2176 67.1384 10.2446 67.3679C10.2716 67.5164 10.2851 67.6784 10.2986 67.8269C10.2851 67.8269 10.2851 67.8269 10.2716 67.8134C10.2851 67.8269 10.2716 67.8269 10.2716 67.8269ZM10.3391 68.1104C10.3391 68.1239 10.3256 68.1239 10.3256 68.1374C10.3121 68.1509 10.2986 68.1239 10.2986 68.0969C10.2986 68.0699 10.3121 68.0429 10.3256 68.0024C10.3256 68.0159 10.3256 68.0429 10.3391 68.0564C10.3391 68.0699 10.3391 68.0834 10.3391 68.0969V68.1104ZM10.3391 65.2079C10.3256 65.2754 10.3121 65.3294 10.2851 65.3429C10.2716 65.3699 10.2581 65.3564 10.2581 65.3564C10.2581 65.3564 10.2446 65.3699 10.2176 65.3834C10.1906 65.3969 10.1502 65.3969 10.1232 65.3969C10.0962 65.3969 10.0827 65.3969 10.0827 65.4104C9.97468 65.2754 9.8667 65.1944 9.77221 65.1269C9.67773 65.0729 9.58324 65.0324 9.50226 65.0054C9.34028 64.9514 9.1918 64.9244 9.04333 64.8974C8.75987 64.8569 8.50341 64.8569 8.23345 64.8299C7.97699 64.8029 7.72053 64.7624 7.49107 64.6679C7.2616 64.5734 7.05913 64.4249 6.91066 64.2224C6.77568 64.0199 6.70819 63.7769 6.68119 63.5474C6.66769 63.4394 6.68119 63.3314 6.70819 63.2639C6.72169 63.2369 6.73518 63.2099 6.74868 63.2099C6.76218 63.2099 6.77568 63.2234 6.77568 63.2369C6.77568 63.2639 6.77568 63.2639 6.84317 63.2504C6.89716 63.2369 6.99164 63.2234 7.08613 63.2099C7.2886 63.1964 7.53156 63.2099 7.77452 63.2234L8.5439 63.2774C8.67888 63.2909 8.81386 63.291 8.94884 63.291C9.08382 63.291 9.2188 63.2639 9.39427 63.2504C9.40777 63.2504 9.42127 63.3449 9.42127 63.2099L9.43477 63.2369L9.46176 63.2504C9.47526 63.2504 9.48876 63.2639 9.50226 63.2639C9.52925 63.2639 9.55625 63.2775 9.58324 63.291C9.63723 63.3045 9.67773 63.3314 9.71822 63.3584C9.79921 63.4124 9.8667 63.4935 9.92069 63.588C10.0287 63.777 10.0962 63.9929 10.1637 64.2224C10.2176 64.4519 10.2716 64.6949 10.3121 64.9379C10.3121 64.9649 10.3256 65.0054 10.3256 65.0189C10.3256 65.0459 10.3256 65.0729 10.3256 65.0864C10.3526 65.1404 10.3526 65.1809 10.3391 65.2079ZM10.6091 61.5089C10.7171 61.7654 10.7846 62.0355 10.825 62.3055C10.8385 62.373 10.8385 62.4404 10.852 62.5214V62.5484C10.852 62.5619 10.852 62.5484 10.852 62.5619C10.852 62.5619 10.8385 62.5619 10.8385 62.5754C10.8251 62.5889 10.7981 62.6159 10.7441 62.6699C10.6361 62.7779 10.4201 62.9129 10.2176 62.9939C10.1637 63.0209 10.1232 63.0345 10.0692 63.048C10.0017 63.021 9.92069 63.0074 9.8532 63.0074C9.81271 63.0074 9.75872 63.0074 9.71822 63.0074C9.70472 62.9939 9.69123 62.994 9.67773 62.9805C9.55625 62.8995 9.46176 62.8454 9.36728 62.8049C9.17831 62.7239 9.01633 62.6699 8.85436 62.6159C8.75987 62.5889 8.67888 62.5754 8.5844 62.5484C8.38193 62.4404 8.17946 62.3595 7.96349 62.2785C7.69354 62.184 7.39658 62.1165 7.07263 62.103C7.01864 62.103 6.96465 62.103 6.91066 62.103C6.6407 61.9815 6.38424 61.833 6.18177 61.6305C5.9658 61.4145 5.81733 61.1445 5.77683 60.8745C5.76333 60.7395 5.77683 60.6315 5.81733 60.5775C5.85782 60.5235 5.89831 60.51 5.9658 60.483C6.08728 60.429 6.33025 60.3615 6.6002 60.321C6.80267 60.294 7.00514 60.2805 7.23461 60.267C7.38308 60.3075 7.54506 60.3615 7.69354 60.4155C7.85551 60.456 8.00399 60.51 8.17946 60.537C8.34144 60.5775 8.51691 60.6045 8.70588 60.6045C8.75987 60.6045 8.80036 60.6045 8.85436 60.6045L9.00283 60.591C9.05682 60.5775 9.11082 60.5775 9.16481 60.564C9.2188 60.5505 9.25929 60.537 9.29979 60.5235C9.40777 60.4965 9.51575 60.456 9.62374 60.4155C10.1232 60.6855 10.4336 61.0769 10.6091 61.5089ZM14.105 66.3014C14.0915 66.2744 14.0915 66.2609 14.0915 66.2339C14.0915 66.2204 14.0915 66.2204 14.105 66.2339C14.1185 66.2474 14.105 66.2879 14.105 66.3014Z" transform="translate(0.628174 0.121582)" fill="black"/>
<path d="M11.149 28.272C12.3233 27.6915 13.4437 27.003 14.6585 26.517C16.2512 25.896 17.9115 25.869 19.4097 27.0705C21.043 28.38 21.4614 31.2285 20.3141 33.0644C19.1398 34.9409 17.3715 36.0884 15.4278 36.9659C14.0646 37.5869 12.6338 38.0729 11.1895 38.5319C7.86902 39.5849 5.79034 41.6909 5.4259 45.3359C5.4259 45.3764 5.30441 45.4169 5.23692 45.4439C5.23692 45.2279 5.25042 44.9984 5.23692 44.7824C5.07495 41.0834 7.04564 38.4509 10.5551 37.5464C12.1209 37.1414 13.6731 36.6959 15.1714 36.0884C16.5212 35.5484 17.52 34.5089 18.0329 33.0914C18.4919 31.8359 18.0464 30.378 17.0341 29.784C16.7371 29.6085 16.3862 29.5275 16.0488 29.46C17.8035 30.8369 17.952 32.2679 16.5212 33.9014C15.4548 35.1164 14.0106 35.6429 12.5258 36.1289C11.1355 36.5879 9.69123 36.9389 8.39544 37.5869C5.68236 38.9504 4.31907 42.4604 5.16943 45.4304C5.23692 45.8624 5.30441 46.2944 5.3719 46.7939C5.45289 46.3754 5.53388 46.0244 5.56087 45.6734C5.93882 42.2984 7.82852 40.2599 10.987 39.4229C13.2547 38.8154 15.5493 38.2889 17.601 37.1414C19.3287 36.1829 20.9485 35.0624 21.8529 33.2129C22.8652 31.134 22.7167 28.9875 21.4479 26.9625C20.1791 24.9375 18.2219 24.222 15.9813 24.3165C14.0106 24.411 12.4178 25.41 10.7306 26.2335C9.35379 26.922 7.92301 27.543 6.43824 27.9615C4.49454 28.5015 2.96928 27.7995 1.84895 26.0715C1.22805 25.113 1.24154 24.1275 1.82195 23.223C2.40236 22.332 3.19874 21.684 4.34606 21.927C4.91297 22.0485 5.43939 22.494 5.89832 22.7505C5.77684 21.9945 4.93997 21.2385 3.91413 21.09C1.26854 20.739 -0.810139 23.7765 0.310187 26.436C1.21455 28.5825 3.33372 30 5.60137 29.973C7.63955 29.946 9.40778 29.1495 11.149 28.272Z" transform="translate(0.628174 0.121582)" fill="black"/>
<path d="M2.95601 25.5992C2.57807 24.6272 2.74004 23.7362 3.38794 22.9802C3.57691 22.7507 3.84687 22.6022 4.15732 22.3457C3.38794 22.3457 2.91551 22.7102 2.56457 23.2772C1.66021 24.7622 2.44309 26.7872 4.14382 27.3677C5.21016 27.7322 6.236 27.5432 7.42382 27.1787C6.54645 27.1922 5.85806 27.2597 5.16967 27.1922C4.17082 27.0842 3.34745 26.6117 2.95601 25.5992Z" transform="translate(0.628174 0.121582)" fill="black"/>
<path d="M51.8044 28.1409C52.5201 25.9926 52.4083 24.9129 53.0345 23.1583C54.1416 20.054 55.3493 10.8873 50.4849 5.4885C50.4849 5.466 50.4849 5.44351 50.4849 5.43226C50.5855 3.54268 49.3331 1.87806 47.1413 2.60914C47.063 2.63164 46.9512 2.69912 46.8394 2.7891C32.6599 -4.65673 23.7474 5.16232 23.7474 5.16232L22.2825 6.70322C11.0888 4.92612 8.85226 7.54678 8.85226 7.54678C7.25316 9.34638 34.6392 22.5959 52.6543 37.6563C53.4482 38.3199 56.6576 38.0949 51.8044 28.1409ZM30.9602 20.3914L30.3227 19.9078C30.3227 19.9078 36.0035 9.88626 44.793 4.03757C39.0675 8.76151 33.0177 16.3873 30.9602 20.3914ZM44.614 29.6031L43.8984 29.1082C44.6252 27.8147 51.7597 16.0049 50.0823 8.73902C50.1047 8.54781 50.127 8.34536 50.1606 8.1429C53.1016 15.6337 44.614 29.6031 44.614 29.6031Z" transform="translate(0.628174 0.121582)" fill="black"/>
</svg>
