<svg width="58" height="72" viewBox="0 0 40 69" fill="none" xmlns="http://www.w3.org/2000/svg">
<path d="M10.9405 3.29663C4.19802 3.81297 0.0534022 2.62141 0.410355 1.64831H0.331032C0.0930633 3.25691 -0.0457512 4.84564 0.0137409 6.43438C0.311201 14.8745 5.18955 13.0674 5.92329 23.7317C6.35956 23.7715 6.71651 23.7913 7.15279 23.8112C9.35399 18.6279 13.8952 19.2436 18.4563 14.3383C20.9153 11.4786 21.9861 3.73353 22.4026 -6.06055e-07C21.7878 1.03268 16.8698 2.83987 10.9405 3.29663Z" transform="translate(11.1597 15.1274)" fill="#C11A36"/>
<path d="M23.0694 58.2094C21.4631 57.4945 18.7859 56.144 17.5564 54.873C17.3383 54.6546 17.4375 54.6943 17.4969 54.9128C17.7547 55.8263 16.783 56.7001 15.8907 56.2632C16.6442 55.31 16.4657 55.5284 17.3185 54.4361C16.9813 54.039 16.4856 53.6815 16.0691 53.3836C16.2674 52.4304 16.7037 50.3452 17.4176 47.5053C19.1032 48.2997 21.7011 48.6174 22.3951 48.2997C21.5226 48.2401 14.3439 44.9832 15.9303 41.6071C16.3071 41.7461 16.5649 42.0242 16.7632 42.1234C21.2251 44.5661 22.3356 43.3547 24.3187 43.6725C25.0326 43.8115 25.7663 44.2285 26.5001 44.6853C24.398 41.3092 22.8909 43.1164 19.3015 41.0709C19.4205 40.7333 19.5197 40.4354 19.8171 39.7403C19.8568 39.7403 19.8965 39.7602 19.9361 39.7602C21.8399 40.5744 23.6445 41.5475 25.2706 42.7788C31.9337 47.7237 32.2708 55.7469 39.4099 55.0716V54.8333C32.37 53.8404 33.9961 46.8301 26.5199 41.1106C24.7351 39.7602 22.7124 38.7871 20.6302 38.1317C22.6133 34.9543 29.435 34.1202 32.2113 28.2021C35.0868 22.0855 34.9281 9.9714 34.0357 4.82787C35.5825 1.29293 22.2365 0.200676 18.3497 0.0219433C16.3269 -0.0376343 15.2164 -0.0376343 15.4346 0.85603C12.0038 6.63506 8.49381 13.983 8.355 20.6755C8.21618 26.9709 10.9132 29.4731 11.746 30.9824C12.8764 33.0677 13.3325 35.4905 13.4911 37.8736C11.3296 38.3701 10.9726 40.773 11.7659 42.3816C10.9925 43.1958 10.4372 44.5661 10.9726 45.5789C9.96128 46.3137 9.60433 47.4854 10.4769 48.5578C9.00941 49.9083 9.02924 51.8545 11.5081 53.4233C11.171 54.595 11.0123 55.0518 10.8537 55.5085C10.8735 55.4887 10.7545 55.727 10.5562 55.9852C7.54194 60.3542 2.04884 57.7328 0.383058 59.4804C-0.231693 60.1755 -0.192032 61.2081 1.13662 61.9826C6.27277 64.9417 21.7804 67.861 23.2478 67.4241C23.7833 67.2056 23.9221 66.6496 23.1884 66.2127C22.296 65.6963 18.8851 64.6835 16.6046 62.3202C14.3439 59.957 15.0578 58.1101 15.4544 56.1639C17.2193 58.6463 21.8002 60.3939 24.755 61.2081C28.5228 61.9231 34.1547 61.7841 37.7242 61.2876V61.1684V61.0493C26.976 59.7584 26.0241 59.5201 23.0694 58.2094ZM13.5506 38.6878C13.5903 39.8198 13.5705 40.8127 13.511 41.9447C12.4599 42.1234 12.3806 43.5334 13.3722 43.8313C13.3325 44.3278 13.273 44.8044 13.2135 45.3009C13.1144 45.4399 13.035 45.5789 12.9954 45.7378C12.1427 45.2612 11.6271 45.142 11.7857 44.1689C11.9444 43.2157 12.5789 42.6795 12.7772 42.5008C11.4882 40.6936 12.2021 38.946 13.5506 38.6878ZM11.5676 46.7308C11.8254 46.3733 12.0038 46.3137 12.9755 45.7577C12.9359 45.9761 12.9557 46.1946 13.035 46.413C12.9557 46.9691 12.8566 47.545 12.7574 48.1011C11.8849 47.7436 11.0321 47.4457 11.5676 46.7308ZM12.5789 49.0742C12.3608 50.1863 12.2616 50.643 12.103 51.2785C11.0321 50.504 11.3098 50.0671 12.5789 49.0742ZM17.2193 39.7403C17.0408 39.641 16.9615 39.5815 16.6641 39.4822C16.6641 39.3829 16.6641 39.2836 16.6641 39.1843C17.259 39.3233 17.1598 39.3034 17.3581 39.3432C17.2193 39.6808 17.2391 39.6609 17.2193 39.7403ZM32.0328 4.78815L32.013 4.76829L31.9932 4.74843C32.013 4.74843 32.0328 4.76829 32.0328 4.78815ZM20.5905 0.756734C22.0778 1.17378 23.5255 1.69012 25.0524 2.06744C26.7777 2.50434 28.0865 2.94125 29.5143 3.4973C28.9789 3.43773 28.4237 3.37815 27.8882 3.29871C20.8483 2.36533 17.3978 2.44477 15.9898 0.975185C15.8907 0.85603 15.7915 0.697156 15.7915 0.59786C15.7915 0.200676 17.7944 0.0219433 20.5905 0.756734ZM15.613 1.23335C16.1881 2.1866 19.3015 4.76829 22.9107 5.62224C26.7182 6.5159 32.5881 6.35703 33.6788 5.32435C33.659 7.86633 33.3813 11.3814 33.1037 13.9035C33.1632 14.0227 33.1434 14.122 33.064 14.2411C32.5881 18.3917 31.5966 25.9581 28.7211 28.9965C24.6558 33.2662 19.9758 32.9286 17.8142 38.0325C17.3581 38.0126 17.021 37.9927 16.5847 37.953C15.8312 27.229 10.9726 29.1554 10.6752 20.6556C10.457 14.2411 13.1739 7.17125 15.613 1.23335ZM10.8933 55.4887C10.9132 55.4688 10.8933 55.5085 10.8933 55.4887V55.4887ZM2.24714 59.7783C2.22731 59.7783 2.22731 59.7584 2.22731 59.7584L2.24714 59.7783ZM20.9673 66.2325C17.3978 65.5573 10.6554 63.7303 5.34073 61.3273C8.89042 61.2876 12.4401 59.4407 13.7093 56.1639C13.8679 55.7469 14.0067 55.31 14.1456 54.8929C14.2447 54.9723 14.3637 55.0319 14.4628 55.1114C14.1059 57.9711 12.2418 62.1415 20.9673 66.2325Z" transform="translate(0.498535 0.886719)" fill="black"/>
<path d="M10.5547 0.414818C-7.31277 1.76524 0.857473 4.92286 10.5547 4.18807C17.1385 3.69159 22.5522 1.48721 22.0763 0.553832C21.64 -0.260395 16.7022 -0.0618028 10.5547 0.414818Z" transform="translate(11.5457 14.2361)" fill="#EC5C56"/>
</svg>
